<svg width="19" height="18" viewBox="0 0 19 18" fill="none" xmlns="http://www.w3.org/2000/svg">
<path d="M17.8227 3.82265C17.208 4.08783 16.539 4.27868 15.85 4.35301C16.5654 3.92799 17.1011 3.25653 17.3567 2.46461C16.6854 2.86397 15.9499 3.144 15.183 3.29229C14.8625 2.94962 14.4748 2.67664 14.0442 2.49034C13.6135 2.30405 13.1491 2.20844 12.6799 2.20948C10.7814 2.20948 9.25466 3.74832 9.25466 5.63671C9.25466 5.90189 9.2868 6.16707 9.33904 6.4222C6.4964 6.27354 3.96113 4.91551 2.27564 2.83627C1.96853 3.36083 1.80759 3.9581 1.80957 4.56595C1.80957 5.75524 2.41426 6.8039 3.33636 7.42064C2.79295 7.39924 2.26227 7.24988 1.78747 6.9847V7.02689C1.78747 8.69229 2.9647 10.0724 4.53368 10.3898C4.23909 10.4664 3.93604 10.5055 3.63167 10.5064C3.40868 10.5064 3.19774 10.4843 2.98479 10.4541C3.41872 11.8122 4.68234 12.7985 6.18703 12.8307C5.00979 13.7528 3.53524 14.2952 1.93412 14.2952C1.64685 14.2952 1.38167 14.2851 1.10645 14.253C2.6252 15.2273 4.4272 15.7898 6.36783 15.7898C12.6678 15.7898 16.1152 10.5706 16.1152 6.04051C16.1152 5.89185 16.1152 5.74319 16.1051 5.59452C16.7721 5.10636 17.3567 4.50167 17.8227 3.82265Z" fill="#FAFAFA"/>
</svg>
