<svg width="64" height="64" viewBox="0 0 64 64" fill="none" xmlns="http://www.w3.org/2000/svg">
<path d="M32 64C49.6731 64 64 49.6731 64 32C64 14.3269 49.6731 0 32 0C14.3269 0 0 14.3269 0 32C0 49.6731 14.3269 64 32 64Z" fill="white"/>
<path fill-rule="evenodd" clip-rule="evenodd" d="M49.2201 20.1261C50.348 20.1261 51.2624 21.0425 51.2624 22.1728C51.2624 23.2795 50.386 24.181 49.2909 24.2184L46.7956 27.9693L46.7682 28.0097C46.2062 28.8262 45.2849 29.3203 44.2953 29.336L44.2466 29.3364L41.2221 29.3363C41.5055 29.9861 41.7234 30.6711 41.8676 31.383L48.2985 31.3831L48.3315 31.3826C48.6494 31.3724 48.9446 31.2141 49.1295 30.9546L49.1482 30.9274L51.5509 27.3157C51.3677 27.0088 51.2624 26.6499 51.2624 26.2663C51.2624 25.1359 52.1768 24.2196 53.3047 24.2196C54.4327 24.2196 55.3471 25.1359 55.3471 26.2663C55.3471 27.3841 54.4529 28.2927 53.3423 28.3127L50.8475 32.0628L50.8202 32.1032C50.2582 32.9196 49.3369 33.4138 48.3473 33.4295L48.2985 33.4299L42.0718 33.4298C42.0719 34.1309 42.0016 34.8154 41.8676 35.4768L48.2985 35.4766C49.3066 35.4766 50.249 35.9735 50.8202 36.8033L50.8475 36.8437L53.3423 40.5938C54.4529 40.6138 55.3471 41.5224 55.3471 42.6402C55.3471 43.7706 54.4327 44.6869 53.3047 44.6869C52.1768 44.6869 51.2624 43.7706 51.2624 42.6402C51.2624 42.2566 51.3677 41.8977 51.5509 41.5908L49.1482 37.9791C48.9649 37.7035 48.6604 37.5345 48.3315 37.5239L48.2985 37.5234L41.2221 37.5235C40.9035 38.2542 40.5023 38.9404 40.0302 39.5703L44.2139 39.5701C45.2219 39.5701 46.1643 40.0669 46.7355 40.8968L46.7629 40.9372L49.2576 44.6873C50.3682 44.7073 51.2624 45.6158 51.2624 46.7337C51.2624 47.864 50.348 48.7804 49.2201 48.7804C48.0921 48.7804 47.1777 47.864 47.1777 46.7337C47.1777 46.3501 47.283 45.9911 47.4662 45.6843L45.0635 42.0725C44.8803 41.797 44.5757 41.628 44.2468 41.6174L44.2139 41.6168L37.9879 41.617C36.2811 42.9021 34.1594 43.6636 31.8602 43.6636C29.561 43.6636 27.4393 42.9021 25.7325 41.617L19.5759 41.6168L19.543 41.6174C19.225 41.6276 18.9299 41.7859 18.745 42.0453L18.7263 42.0725L16.3237 45.6844C16.5068 45.9912 16.6121 46.3501 16.6121 46.7337C16.6121 47.864 15.6977 48.7804 14.5698 48.7804C13.4418 48.7804 12.5274 47.864 12.5274 46.7337C12.5274 45.6158 13.4216 44.7073 14.5323 44.6873L17.027 40.9372L17.0543 40.8968C17.6163 40.0803 18.5376 39.5862 19.5272 39.5705L19.5759 39.5701L23.6903 39.5703C23.2182 38.9404 22.8169 38.2542 22.4983 37.5235L15.4913 37.5234L15.4583 37.5239C15.1404 37.5341 14.8452 37.6924 14.6603 37.9519L14.6416 37.9791L12.239 41.5909C12.4222 41.8978 12.5274 42.2567 12.5274 42.6402C12.5274 43.7706 11.613 44.6869 10.4851 44.6869C9.35713 44.6869 8.44275 43.7706 8.44275 42.6402C8.44275 41.5223 9.33697 40.6138 10.4477 40.5938L12.9423 36.8437L12.9696 36.8033C13.5316 35.9869 14.4529 35.4927 15.4426 35.477L15.4913 35.4766L21.8528 35.4768C21.7267 34.8543 21.657 34.2113 21.6493 33.5534L21.6485 33.4298L15.4913 33.4299C14.4832 33.4299 13.5408 32.933 12.9696 32.1032L12.9423 32.0628L10.4477 28.3127C9.33697 28.2927 8.44275 27.3842 8.44275 26.2663C8.44275 25.1359 9.35713 24.2196 10.4851 24.2196C11.613 24.2196 12.5274 25.1359 12.5274 26.2663C12.5274 26.6498 12.4222 27.0087 12.239 27.3156L14.6416 30.9274C14.8249 31.203 15.1294 31.372 15.4583 31.3826L15.4913 31.3831L21.8528 31.383C21.997 30.6711 22.215 29.9861 22.4983 29.3363L19.5432 29.3364C18.5352 29.3364 17.5928 28.8396 17.0216 28.0097L16.9942 27.9693L14.4989 24.2184C13.4038 24.181 12.5274 23.2795 12.5274 22.1728C12.5274 21.0425 13.4418 20.1261 14.5698 20.1261C15.6977 20.1261 16.6121 21.0425 16.6121 22.1728C16.6121 22.5672 16.5008 22.9355 16.308 23.2479L18.6936 26.834C18.8768 27.1095 19.1813 27.2785 19.5102 27.2891L19.5432 27.2897L23.6903 27.2895C25.5533 24.8039 28.5194 23.1962 31.8602 23.1962C35.201 23.1962 38.1671 24.8039 40.0302 27.2895L44.2466 27.2897L44.2796 27.2891C44.5975 27.2789 44.8927 27.1206 45.0775 26.8612L45.0963 26.834L47.4818 23.2479C47.289 22.9355 47.1777 22.5672 47.1777 22.1728C47.1777 21.0425 48.0921 20.1261 49.2201 20.1261ZM31.8602 25.2429C27.3484 25.2429 23.6909 28.9084 23.6909 33.4299C23.6909 37.9514 27.3484 41.6168 31.8602 41.6168C36.372 41.6168 40.0296 37.9514 40.0296 33.4299C40.0296 28.9084 36.372 25.2429 31.8602 25.2429ZM31.8602 27.2897C35.2441 27.2897 37.9872 30.0387 37.9872 33.4299C37.9872 36.821 35.2441 39.5701 31.8602 39.5701C28.4764 39.5701 25.7332 36.821 25.7332 33.4299C25.7332 30.0387 28.4764 27.2897 31.8602 27.2897ZM39.0084 15.0093L39.0759 15.0098C41.3007 15.046 43.0931 16.8646 43.0931 19.1027C43.0931 21.3635 41.2643 23.1962 39.0084 23.1962C36.7525 23.1962 34.9237 21.3635 34.9237 19.1027C34.9237 17.9919 35.3653 16.9843 36.0821 16.2468L36.1201 16.2082L39.0084 19.1027V15.0093ZM24.712 15.0093V19.1027L27.6003 16.2082C28.3395 16.949 28.7967 17.9724 28.7967 19.1027C28.7967 21.3635 26.9679 23.1962 24.712 23.1962C22.4561 23.1962 20.6274 21.3635 20.6274 19.1027C20.6274 16.8646 22.4197 15.046 24.6445 15.0098L24.712 15.0093Z" fill="url(#paint0_linear)"/>
<defs>
<linearGradient id="paint0_linear" x1="55.3471" y1="40.6483" x2="16.1549" y2="12.43" gradientUnits="userSpaceOnUse">
<stop stop-color="#FE3876"/>
<stop offset="0.714448" stop-color="#7C30DD"/>
<stop offset="1" stop-color="#3A30DD"/>
</linearGradient>
</defs>
</svg>
