<svg width="64" height="64" viewBox="0 0 64 64" fill="none" xmlns="http://www.w3.org/2000/svg">
<path d="M64 0H0V64H64V0Z" fill="black"/>
<path d="M41.7049 24.8637C41.5855 25.1796 34.7489 21.6777 30.4875 24.6879C27.9857 26.7538 27.0883 30.153 27.9857 33.141C28.4705 34.7546 28.7057 35.4151 29.5019 36.5523C30.0855 37.3862 30.9044 38.2961 32.0414 38.9404C32.3007 39.1319 35.7842 41.23 40.0139 40.7321C46.6668 39.9496 51.8209 31.2145 51.8209 31.2145C51.8209 31.2145 50.6207 33.7977 50.5099 34.0336C47.297 40.8718 41.9583 42.6944 41.9583 42.6944C37.2127 44.3144 32.4631 42.2407 31.9389 41.9768C28.5116 40.2526 27.0326 38.6602 26.572 37.7953C25.8209 36.3844 23.9382 30.8723 25.7424 26.7538C27.0795 23.7016 29.9819 22.4241 30.3241 22.2805C35.8472 19.9634 41.8135 24.5767 41.7049 24.8637Z" fill="url(#paint0_linear)"/>
<path d="M41.7051 24.8636C41.4806 25.0725 39.8684 23.1276 37.2797 21.7229C36.5397 21.3215 33.7163 19.8784 30.2677 19.9525C24.5511 20.0747 20.7522 24.2897 20.0748 25.0708C16.6888 28.9751 15.0946 34.987 16.9991 39.6652C19.4742 45.7448 28.0308 49.9948 27.1568 49.287L26.399 48.9992C25.525 48.6529 14.7997 43.8749 14.4155 34.1985C14.1988 28.7461 15.943 24.3303 16.9991 23.1249C18.8443 21.0187 20.3238 20.0048 21.5711 19.3351C24.0774 17.9903 28.7909 16.838 32.2892 17.3673C36.2142 17.9615 38.6779 20.7156 39.8794 22.0586C40.9633 23.2699 41.8863 24.6947 41.7051 24.8636Z" fill="url(#paint1_linear)"/>
<path d="M30.3243 22.2812C29.5286 22.7165 28.8186 23.2936 28.2292 23.9842C27.7397 24.5644 26.8659 25.7967 26.4339 28.5778C26.0635 30.9613 25.6552 33.5904 26.902 36.4386C28.9268 41.0619 33.6965 42.5838 34.8337 42.9468C37.7418 43.8404 40.8544 43.8117 43.7459 42.8649C47.3041 41.7129 49.7927 39.3317 50.0115 39.6102C50.1469 39.7831 49.2308 40.7474 48.5949 41.3367C46.6541 43.0987 44.2768 44.3058 41.7113 44.8319C39.903 45.1923 38.0461 45.2372 36.2226 44.9647C34.7245 44.7445 30.2684 44.0947 26.8461 40.2946C25.8878 39.2302 23.1848 36.2294 23.3961 31.9832C23.5485 28.9243 25.1362 26.7629 25.6747 26.0496C26.9094 24.4462 28.5017 23.1556 30.3243 22.2812Z" fill="url(#paint2_linear)"/>
<path d="M41.705 24.8637C41.9701 24.7455 41.3693 21.4407 39.028 18.6874C38.084 17.5747 36.9473 16.642 35.6726 15.934C30.4033 13.065 24.2803 15.5161 22.8779 16.078C21.4413 16.6533 18.3374 17.9441 15.764 21.1696C12.8632 24.8057 12.4336 28.7069 12.2685 30.4146C11.5627 37.706 15.2568 43.4581 15.6054 43.3461C15.8723 43.2604 14.0498 39.6523 14.4154 34.1987C14.5547 32.1225 14.8545 28.3864 17.4752 24.7365C19.0628 22.5838 21.1413 20.8432 23.5371 19.6602C24.9234 18.9722 29.6282 16.6369 34.5956 18.3981C36.1091 18.9457 37.5025 19.7815 38.6992 20.8595C40.8618 22.8451 41.488 24.9609 41.705 24.8637Z" fill="url(#paint3_linear)"/>
<path d="M32.8282 44.9369C32.7038 45.1496 25.6246 43.2456 22.3961 37.1733C21.9101 36.2598 19.3672 31.4391 20.8394 27.6483C21.4551 26.0626 22.6673 24.2876 23.1569 23.7362C23.9478 22.8457 25.6822 22.6384 27.3858 21.9129C28.1515 21.5946 29.0088 21.5231 29.8303 21.4134C30.6446 21.3126 31.3663 21.3343 32.183 21.4134C33.2925 21.4867 37.8599 22.8888 36.3248 22.6464C34.8843 22.419 31.6495 21.6298 29.8303 22.6464C29.6641 22.7393 29.4766 22.8577 29.3756 22.9215C27.9062 23.8454 26.6288 25.0455 25.6141 26.4557C25.2612 26.9569 23.7573 29.1511 23.6382 31.9845C23.4907 35.5298 25.4298 38.1163 26.5741 39.6433C29.4635 43.495 32.9183 44.7845 32.8282 44.9369Z" fill="url(#paint4_linear)"/>
<path d="M29.3879 19.7983C30.879 19.5824 32.155 19.5079 33.6334 19.7983C35.3299 20.1406 36.2684 20.4934 37.424 21.0871C39.3975 22.101 41.8954 24.7009 41.7051 25.0913C41.3662 25.7867 33.2451 19.7283 26.7787 22.5056C23.2961 24.0012 20.9313 28.4184 20.6017 29.0861C19.8072 30.5588 19.7598 31.7891 19.6874 33.4615C19.633 35.4474 20.1892 37.0175 20.6966 38.4494C21.4185 40.4874 22.5804 42.661 22.555 42.6729C22.5538 42.6729 22.5496 42.6677 22.5484 42.6663C18.7629 37.1248 18.3589 34.5113 18.3589 34.5113C18.1881 33.4075 17.459 28.6921 20.6017 24.7112C23.4669 21.0823 28.2765 19.9609 29.3879 19.7983Z" fill="url(#paint5_linear)"/>
<defs>
<linearGradient id="paint0_linear" x1="38.4024" y1="21.6318" x2="38.4024" y2="43.3074" gradientUnits="userSpaceOnUse">
<stop stop-color="#FAB961"/>
<stop offset="1"/>
</linearGradient>
<linearGradient id="paint1_linear" x1="28.0625" y1="17.2358" x2="28.0625" y2="49.3641" gradientUnits="userSpaceOnUse">
<stop stop-color="#FAB961"/>
<stop offset="1"/>
</linearGradient>
<linearGradient id="paint2_linear" x1="36.7047" y1="22.2812" x2="36.7047" y2="45.1402" gradientUnits="userSpaceOnUse">
<stop stop-color="#FAB961"/>
<stop offset="1"/>
</linearGradient>
<linearGradient id="paint3_linear" x1="26.971" y1="14.5674" x2="26.971" y2="43.3476" gradientUnits="userSpaceOnUse">
<stop/>
<stop offset="0.414296" stop-color="#FAB961"/>
</linearGradient>
<linearGradient id="paint4_linear" x1="27.3159" y1="21.5485" x2="27.3159" y2="44.9526" gradientUnits="userSpaceOnUse">
<stop/>
<stop offset="1" stop-color="#FAB961"/>
</linearGradient>
<linearGradient id="paint5_linear" x1="29.9393" y1="20.1709" x2="29.9393" y2="42.6729" gradientUnits="userSpaceOnUse">
<stop/>
<stop offset="1" stop-color="#FAB961"/>
</linearGradient>
</defs>
</svg>
