<svg width="19" height="18" viewBox="0 0 19 18" fill="none" xmlns="http://www.w3.org/2000/svg">
<g clip-path="url(#clip0_1632_22637)">
<path d="M9.46533 0C4.49583 0 0.465332 4.02975 0.465332 9C0.465332 12.9765 3.04383 16.35 6.62058 17.5402C7.06983 17.6235 7.21533 17.3445 7.21533 17.1075V15.432C4.71183 15.9765 4.19058 14.37 4.19058 14.37C3.78108 13.3298 3.19083 13.053 3.19083 13.053C2.37408 12.4942 3.25308 12.5062 3.25308 12.5062C4.15683 12.5692 4.63233 13.434 4.63233 13.434C5.43483 14.8095 6.73758 14.412 7.25133 14.1818C7.33158 13.6005 7.56483 13.203 7.82283 12.9788C5.82408 12.75 3.72258 11.9782 3.72258 8.5305C3.72258 7.54725 4.07433 6.74475 4.64958 6.11475C4.55658 5.8875 4.24833 4.97175 4.73733 3.73275C4.73733 3.73275 5.49333 3.49125 7.21308 4.65525C7.93083 4.45575 8.70033 4.356 9.46533 4.35225C10.2303 4.356 11.0006 4.45575 11.7198 4.65525C13.4381 3.49125 14.1926 3.73275 14.1926 3.73275C14.6823 4.9725 14.3741 5.88825 14.2811 6.11475C14.8586 6.74475 15.2073 7.548 15.2073 8.5305C15.2073 11.9872 13.1021 12.7485 11.0981 12.9713C11.4206 13.2502 11.7153 13.7978 11.7153 14.6378V17.1075C11.7153 17.3468 11.8593 17.628 12.3161 17.5395C15.8898 16.3477 18.4653 12.975 18.4653 9C18.4653 4.02975 14.4356 0 9.46533 0Z" fill="#FAFAFA"/>
</g>
<defs>
<clipPath id="clip0_1632_22637">
<rect width="18" height="18" fill="white" transform="translate(0.465332)"/>
</clipPath>
</defs>
</svg>
