<svg width="68" height="68" viewBox="0 0 68 68" fill="none" xmlns="http://www.w3.org/2000/svg">
<rect width="68" height="68" fill="white"/>
<path d="M56.4529 56.4532C68.8534 44.0527 68.8534 23.9475 56.4529 11.5471C44.0525 -0.85343 23.9473 -0.85343 11.5468 11.5471C-0.85367 23.9475 -0.85367 44.0527 11.5468 56.4532C23.9473 68.8537 44.0525 68.8537 56.4529 56.4532Z" fill="#000563"/>
<path d="M34.001 2.58637C42.3922 2.58637 50.2802 5.85491 56.2143 11.7868C62.1484 17.7209 65.4147 25.6089 65.4147 34.0001C65.4147 42.3913 62.1462 50.2793 56.2143 56.2134C50.2802 62.1476 42.3922 65.4138 34.001 65.4138C25.6098 65.4138 17.7218 62.1476 11.7876 56.2134C5.85349 50.2793 2.58723 42.3913 2.58723 34.0001C2.58723 25.6089 5.85349 17.7209 11.7876 11.7868C17.7218 5.85264 25.6098 2.58637 34.001 2.58637ZM34.001 1.90637C16.2756 1.90637 1.90723 16.2748 1.90723 34.0001C1.90723 51.7254 16.2756 66.0938 34.001 66.0938C51.7263 66.0938 66.0947 51.7254 66.0947 34.0001C66.0947 16.2748 51.7263 1.90637 34.001 1.90637Z" fill="#75E6DA"/>
<path d="M52.689 20.3229C53.4484 20.3229 54.0694 19.7018 54.0694 18.9425V18.9357C54.0694 18.1764 53.4484 17.5553 52.689 17.5553H15.3072C14.5478 17.5553 13.9268 18.1764 13.9268 18.9357V18.9425C13.9268 19.7018 14.5478 20.3229 15.3072 20.3229H32.6109V49.1844C32.6109 49.8757 33.1776 50.4424 33.8689 50.4424H34.1432C34.8345 50.4424 35.4012 49.8757 35.4012 49.1844V20.3229H52.689Z" fill="white"/>
<path d="M28.3768 23.095H15.203C14.4414 23.095 13.8203 23.7183 13.8203 24.4776C13.8203 25.2392 14.4436 25.8603 15.203 25.8603H26.8219V35.2738H16.6332C15.9102 35.2738 15.3163 35.8654 15.3163 36.5907V36.7244C15.3163 37.4475 15.9079 38.0414 16.6332 38.0414H26.8219V47.6452H15.28C14.5207 47.6452 13.8996 48.2663 13.8996 49.0256V49.0324C13.8996 49.7918 14.5207 50.4128 15.28 50.4128H28.3814C28.9095 50.4128 29.3719 50.1114 29.6031 49.6716C29.7504 49.4404 29.8366 49.1662 29.8366 48.8738V24.6318C29.8366 24.319 29.7391 24.0288 29.5736 23.7863C29.3311 23.376 28.8846 23.095 28.3768 23.095Z" fill="white"/>
<path d="M52.7973 25.8626C53.5589 25.8626 54.18 25.2393 54.18 24.48C54.18 23.7184 53.5567 23.0973 52.7973 23.0973H39.6235C39.1135 23.0973 38.6692 23.3761 38.4289 23.7886C38.2635 24.0289 38.166 24.3213 38.166 24.6341V48.8716C38.166 49.164 38.2521 49.4382 38.3995 49.6694C38.6307 50.1092 39.0908 50.4106 39.6212 50.4106H52.7225C53.4819 50.4106 54.1029 49.7896 54.1029 49.0302V49.0234C54.1029 48.2641 53.4819 47.643 52.7225 47.643H41.1807V38.0392H51.3693C52.0924 38.0392 52.6863 37.4476 52.6863 36.7222V36.5885C52.6863 35.8654 52.0947 35.2716 51.3693 35.2716H41.1807V25.8626H52.7973Z" fill="white"/>
</svg>
