<svg width="32" height="32" viewBox="0 0 32 32" fill="none" xmlns="http://www.w3.org/2000/svg">
<circle cx="16" cy="16" r="16" fill="#A5A5A5" fill-opacity="0.25"/>
<path d="M14.7035 19.2884H17.4016C17.4016 18.9709 17.4413 18.6932 17.5206 18.4155C17.6992 17.7608 18.0365 17.245 18.6713 16.6498C19.9013 15.5388 21.5678 14.5072 21.5678 12.2455C21.5678 9.70615 19.4252 8 16.3898 8C12.8188 8 10.8151 10.3212 11.0135 13.6541H13.9496C13.7909 11.8488 14.6837 10.5989 16.3303 10.5989C17.6 10.5989 18.5126 11.3726 18.5126 12.4836C18.5126 13.5946 17.6198 14.1699 16.4097 15.3206C15.3384 16.3522 14.7035 17.3441 14.7035 19.0305V19.2884ZM14.4456 23.395H17.6397V20.3398H14.4456V23.395Z" fill="#A5A5A5"/>
</svg>
