<svg width="32" height="32" fill="none" xmlns="http://www.w3.org/2000/svg">
    <circle cx="16" cy="16" r="16" fill="#A5A5A5" fill-opacity=".25"/>
    <path d="M14.704 19.288h2.698c0-.317.04-.595.119-.872.178-.655.515-1.171 1.15-1.766 1.23-1.111 2.897-2.143 2.897-4.404C21.568 9.706 19.425 8 16.39 8c-3.571 0-5.575 2.321-5.377 5.654h2.937c-.16-1.805.734-3.055 2.38-3.055 1.27 0 2.183.774 2.183 1.885 0 1.11-.893 1.686-2.103 2.837-1.072 1.031-1.707 2.023-1.707 3.71v.257zm-.258 4.107h3.194V20.34h-3.194v3.055z" fill="#A5A5A5"/>
</svg>
