<svg width="321" height="128" viewBox="0 0 321 128" fill="none" xmlns="http://www.w3.org/2000/svg">
<path d="M40.4673 86.7783L2.53659 95.5594C1.15309 95.906 0.115479 97.2925 0.115479 98.679V124.791C0.115479 126.986 1.84484 128.373 4.03537 127.911L56.9539 115.663C59.1444 115.201 60.0668 113.121 59.1444 111.157L49.5753 91.3999C48.0765 88.2803 49.5753 85.0452 52.9187 84.352L87.506 76.0331C89.9271 75.4554 92.0023 72.9135 92.0023 70.3716V46.2237C92.0023 44.0284 90.273 42.5264 88.0825 43.1041L38.1615 55.0047C35.0486 55.698 33.6651 58.702 35.0486 61.5905L43.8107 79.7304C45.3095 82.8499 43.8107 85.9695 40.4673 86.7783Z" fill="white"/>
<path d="M15.4509 21.4988L25.366 41.8339C26.6342 44.4913 25.366 47.2643 22.4837 47.842L4.15242 52.117C1.84661 52.6947 0.00195312 55.0055 0.00195312 57.3163V79.1534C0.00195312 82.8507 2.99951 85.1615 6.57353 84.3527L23.6366 80.4243C25.9424 79.9622 27.7871 77.5358 27.7871 75.225L27.9024 52.8102C27.9024 49.6906 30.4388 46.571 33.4363 45.8778L89.3524 32.4751C90.7359 32.1285 91.7735 30.742 91.7735 29.3555V3.24345C91.7735 1.04819 90.0442 -0.453836 87.8536 0.123866L17.6415 16.9927C15.4509 17.4549 14.5286 19.5346 15.4509 21.4988Z" fill="white"/>
<path d="M186.679 82.2857H154.743V32H140.003V96H186.679V82.2857Z" fill="white"/>
<path d="M196.29 96H211.03V32H196.29V96Z" fill="white"/>
<path d="M222.039 96H236.05V81.92H222.039V96Z" fill="white"/>
<path d="M261.762 71.04H292.606V58.4229H261.762V44.9829H295.245V32H247.022V96H261.762V71.04Z" fill="white"/>
<path d="M305.264 96H320.003V32H305.264V96Z" fill="white"/>
</svg>
