<svg width="16" height="16" viewBox="0 0 16 16" fill="none" xmlns="http://www.w3.org/2000/svg">
<rect width="16" height="16" rx="8" fill="white"/>
<path d="M4.16115 11.8351C4.14892 11.8618 4.13711 11.8887 4.12572 11.9157C3.98602 12.2477 3.91406 12.6042 3.91406 12.9644C3.91406 13.3245 3.98602 13.6811 4.12572 14.013C4.26597 14.3463 4.47083 14.6484 4.72847 14.902C4.98745 15.157 5.29387 15.3589 5.63043 15.4961C6.31249 15.7742 7.07635 15.7742 7.7584 15.4961C8.09498 15.3589 8.40141 15.1571 8.6604 14.902L13.7767 9.85979C14.0399 9.60132 14.249 9.29307 14.392 8.95299C14.5349 8.61291 14.6087 8.2478 14.6092 7.87892C14.6092 7.21159 14.3996 6.5686 13.9419 6.06408C13.716 5.96723 13.4665 5.93909 13.2246 5.98317C13.0084 6.02315 12.8102 6.14969 12.6452 6.2983L7.78478 11.2145C7.69513 11.3057 7.59161 11.3821 7.47807 11.4408C7.53769 11.4047 7.59646 11.3669 7.65439 11.3276C7.64944 11.3296 7.6445 11.3315 7.63955 11.3335C7.64439 11.3302 7.6492 11.3271 7.654 11.3238C7.65898 11.3205 7.66394 11.3172 7.66887 11.3138C7.65912 11.3204 7.64935 11.327 7.63955 11.3335C7.1327 11.6686 6.55796 11.8874 5.95656 11.9741C5.35517 12.0608 4.74203 12.0133 4.16115 11.8351Z" fill="#104ADE"/>
<path d="M7.6394 11.3337C7.64919 11.3272 7.65896 11.3207 7.66872 11.314C7.398 11.423 7.09713 11.431 6.821 11.3366C6.54487 11.2422 6.3119 11.0516 6.16459 10.7997C6.03001 10.5696 5.97566 10.3013 6.01007 10.0369C6.04448 9.77256 6.16571 9.52712 6.35472 9.33914L7.97256 7.7307L10.3353 5.40198C10.3387 5.39921 10.342 5.39641 10.3453 5.39356C10.3519 5.38792 10.3585 5.38227 10.3655 5.37701L10.7211 5.02629C10.9022 4.99109 11.0864 4.97414 11.2708 4.97568C11.6864 4.97568 12.0398 5.0157 12.3922 5.11611C12.905 5.22497 13.3759 5.47872 13.7488 5.84724C13.8191 5.91724 13.8854 5.99167 13.9468 6.06648C13.7195 5.96795 13.4682 5.93904 13.2245 5.98339C13.0082 6.02341 12.81 6.14995 12.645 6.29856L7.78464 11.2148C7.69498 11.3059 7.59145 11.3823 7.47789 11.4411C7.53751 11.4049 7.5963 11.3672 7.65424 11.3279C7.64929 11.3298 7.64435 11.3318 7.6394 11.3337Z" fill="#0038C7"/>
<path d="M11.561 1.98059C11.431 1.67172 11.241 1.39171 11.002 1.15675C10.7241 0.882955 10.3953 0.66626 10.0341 0.518914C9.30209 0.220258 8.48223 0.220258 7.75024 0.518914C7.38903 0.666259 7.06019 0.882954 6.7823 1.15675L2.5699 5.30731C1.83112 6.03095 1.40755 7.01676 1.39112 8.05077C1.3747 9.08478 1.76674 10.0835 2.48217 10.8303L2.52604 10.8723L2.57151 10.9187C2.613 10.9589 2.65652 10.9969 2.70191 11.0326C3.38537 11.6157 4.24104 11.959 5.13805 12.0098C6.03505 12.0605 6.924 11.8161 7.66892 11.3138C7.3982 11.4228 7.09732 11.4307 6.8212 11.3363C6.54508 11.2419 6.31211 11.0513 6.16482 10.7994C6.03025 10.5693 5.9759 10.301 6.0103 10.0366C6.0447 9.7723 6.16591 9.52687 6.3549 9.33887L7.97277 7.73044L10.3356 5.40171C10.3456 5.39337 10.3553 5.38464 10.3657 5.37671L11.002 4.74922C11.3619 4.39703 11.6076 3.94483 11.7072 3.45128C11.8069 2.95773 11.756 2.44562 11.561 1.98138V1.98059Z" fill="#0F75FC"/>
</svg>
