<svg width="16" height="16" viewBox="0 0 16 16" fill="none" xmlns="http://www.w3.org/2000/svg">
<rect width="16" height="16" rx="8" fill="white"/>
<path d="M4.92912 11.0679C4.91933 11.0892 4.90988 11.1107 4.90077 11.1324C4.78901 11.398 4.73145 11.6832 4.73145 11.9713C4.73145 12.2594 4.78901 12.5447 4.90077 12.8102C5.01297 13.0768 5.17686 13.3185 5.38297 13.5214C5.59015 13.7254 5.83529 13.8869 6.10454 13.9967C6.65019 14.2192 7.26127 14.2192 7.80692 13.9967C8.07618 13.8869 8.32132 13.7254 8.52852 13.5214L12.6216 9.48764C12.8321 9.28086 12.9994 9.03426 13.1138 8.7622C13.2281 8.49014 13.2872 8.19805 13.2875 7.90294C13.2875 7.36908 13.1199 6.85469 12.7537 6.45107C12.573 6.37359 12.3734 6.35108 12.1799 6.38634C12.0069 6.41833 11.8483 6.51956 11.7164 6.63844L7.82802 10.5714C7.7563 10.6443 7.67349 10.7055 7.58265 10.7525C7.63035 10.7235 7.67737 10.6934 7.7237 10.6619C7.71975 10.6635 7.71579 10.665 7.71184 10.6666C7.71571 10.664 7.71955 10.6615 7.7234 10.6589C7.72738 10.6562 7.73135 10.6535 7.73529 10.6509C7.72749 10.6561 7.71967 10.6614 7.71184 10.6666C7.30636 10.9347 6.84656 11.1097 6.36545 11.1791C5.88433 11.2485 5.39382 11.2105 4.92912 11.0679Z" fill="#104ADE"/>
<path d="M7.71191 10.6666C7.71974 10.6614 7.72756 10.6561 7.73537 10.6508C7.51879 10.738 7.27809 10.7444 7.05719 10.6689C6.83629 10.5933 6.64991 10.4409 6.53207 10.2393C6.4244 10.0553 6.38092 9.84062 6.40845 9.62914C6.43598 9.41766 6.53296 9.22131 6.68417 9.07092L7.97844 7.78417L9.86866 5.92119C9.87132 5.91898 9.87399 5.91673 9.87663 5.91446C9.88193 5.90994 9.88721 5.90543 9.89279 5.90122L10.1773 5.62064C10.3222 5.59248 10.4695 5.57892 10.6171 5.58016C10.9495 5.58016 11.2323 5.61217 11.5141 5.6925C11.9244 5.77958 12.3011 5.98258 12.5994 6.2774C12.6556 6.3334 12.7087 6.39295 12.7578 6.45279C12.576 6.37397 12.3749 6.35084 12.18 6.38632C12.007 6.41834 11.8484 6.51957 11.7164 6.63845L7.8281 10.5714C7.75638 10.6443 7.67355 10.7055 7.5827 10.7525C7.6304 10.7235 7.67743 10.6934 7.72378 10.6619C7.71982 10.6635 7.71587 10.665 7.71191 10.6666Z" fill="#0038C7"/>
<path d="M10.8492 3.18448C10.7452 2.93738 10.5932 2.71337 10.402 2.5254C10.1797 2.30636 9.91662 2.13301 9.62766 2.01513C9.04207 1.77621 8.38618 1.77621 7.80058 2.01513C7.51161 2.13301 7.24854 2.30636 7.02623 2.5254L3.65631 5.84585C3.06529 6.42476 2.72643 7.21341 2.71329 8.04062C2.70015 8.86783 3.01379 9.66684 3.58613 10.2642L3.62122 10.2979L3.6576 10.335C3.69079 10.3671 3.7256 10.3975 3.76192 10.4261C4.30869 10.8926 4.99323 11.1672 5.71083 11.2078C6.42843 11.2484 7.13959 11.0529 7.73552 10.651C7.51895 10.7382 7.27825 10.7446 7.05735 10.669C6.83645 10.5935 6.65008 10.441 6.53225 10.2395C6.42459 10.0554 6.38111 9.84078 6.40863 9.62931C6.43615 9.41784 6.53312 9.22149 6.68431 9.0711L7.97861 7.78435L9.86884 5.92137C9.87687 5.91469 9.88461 5.90771 9.89297 5.90137L10.402 5.39938C10.6899 5.11763 10.8864 4.75586 10.9662 4.36103C11.0459 3.96619 11.0052 3.5565 10.8492 3.18511V3.18448Z" fill="#0F75FC"/>
</svg>
