<svg viewBox="0 0 29.922 29.922" xmlns="http://www.w3.org/2000/svg">
    <path d="M24.638 6.083a23.028 23.028 0 00-5.684-1.763.086.086 0 00-.091.043 16.035 16.035 0 00-.708 1.454 21.26 21.26 0 00-6.384 0 14.713 14.713 0 00-.72-1.454.09.09 0 00-.09-.043 22.964 22.964 0 00-5.685 1.763.081.081 0 00-.037.032C1.619 11.524.627 16.799 1.113 22.01c.003.025.017.05.037.065A23.16 23.16 0 008.123 25.6a.09.09 0 00.098-.032 16.546 16.546 0 001.426-2.32.088.088 0 00-.048-.123c-.76-.288-1.483-.64-2.178-1.039a.09.09 0 01-.01-.148c.147-.11.294-.224.433-.34a.086.086 0 01.09-.011c4.57 2.086 9.519 2.086 14.035 0a.086.086 0 01.091.01c.14.116.286.231.434.34a.09.09 0 01-.008.15c-.696.406-1.419.75-2.18 1.037a.09.09 0 00-.047.124c.42.812.898 1.585 1.426 2.319a.089.089 0 00.098.033 23.079 23.079 0 006.984-3.525.09.09 0 00.036-.064c.582-6.024-.975-11.256-4.129-15.895a.071.071 0 00-.036-.033zM10.33 18.837c-1.376 0-2.51-1.263-2.51-2.815s1.112-2.814 2.51-2.814c1.409 0 2.532 1.274 2.51 2.814 0 1.552-1.112 2.815-2.51 2.815zm9.28 0c-1.377 0-2.51-1.263-2.51-2.815s1.111-2.814 2.51-2.814c1.408 0 2.53 1.274 2.509 2.814 0 1.552-1.1 2.815-2.51 2.815z" fill="none" stroke="currentColor" stroke-width="2.25"/>
</svg>
