<svg viewBox="0 0 45 45" xmlns="http://www.w3.org/2000/svg">
    <path d="M22.5 0A22.5 22.5 0 000 22.5 22.5 22.5 0 0022.5 45 22.5 22.5 0 0045 22.5 22.5 22.5 0 0022.5 0zm-4 11.859a.09.09 0 01.092.043c.246.437.528.995.719 1.453a21.25 21.25 0 016.382 0c.19-.448.464-1.016.71-1.453a.087.087 0 01.091-.043c1.996.345 3.904.945 5.684 1.762a.069.069 0 01.035.033c3.153 4.638 4.711 9.87 4.129 15.895a.089.089 0 01-.035.064 23.086 23.086 0 01-6.985 3.526.088.088 0 01-.097-.033 18.577 18.577 0 01-1.426-2.319.09.09 0 01.047-.125c.76-.287 1.484-.63 2.18-1.037a.09.09 0 00.007-.148c-.147-.11-.294-.225-.433-.34a.087.087 0 00-.092-.012c-4.516 2.087-9.463 2.087-14.033 0a.089.089 0 00-.092.012c-.14.115-.285.23-.432.34a.09.09 0 00.008.148c.696.399 1.42.751 2.18 1.04.05.018.073.075.049.122-.41.814-.89 1.587-1.428 2.32a.09.09 0 01-.098.032 23.158 23.158 0 01-6.972-3.526.095.095 0 01-.037-.064c-.487-5.21.504-10.486 4.125-15.895a.087.087 0 01.039-.033 22.958 22.958 0 015.683-1.762zm-.63 8.887c-1.399 0-2.51 1.263-2.51 2.814s1.133 2.817 2.51 2.817c1.397 0 2.509-1.266 2.509-2.817.022-1.54-1.101-2.814-2.51-2.814zm9.278 0c-1.397 0-2.51 1.263-2.51 2.814s1.135 2.817 2.51 2.817c1.41 0 2.51-1.266 2.51-2.817.022-1.54-1.1-2.814-2.51-2.814z" fill="currentColor" fill-rule="evenodd"/>
</svg>
