<svg viewBox="0 0 24 24" xmlns="http://www.w3.org/2000/svg">
    <path d="M12 0C5.373 0 0 5.373 0 12s5.373 12 12 12 12-5.373 12-12S18.627 0 12 0zm-1.72 7.422a.041.041 0 01.023.002.041.041 0 01.017.015c.115.203.218.412.309.625a9.128 9.128 0 012.742 0 6.9 6.9 0 01.305-.625.04.04 0 01.017-.015.04.04 0 01.024-.002c.843.146 1.663.4 2.441.758a.03.03 0 01.016.013c1.355 1.993 2.024 4.242 1.773 6.83 0 .006 0 .011-.004.016a9.921 9.921 0 01-3.012 1.527.04.04 0 01-.043-.014 8 8 0 01-.61-.997.03.03 0 01-.005-.014c0-.005 0-.012.002-.018.002-.005.004-.007.008-.011s.009-.008.014-.01c.324-.122.638-.27.937-.445a.043.043 0 00.014-.014.033.033 0 00.002-.035.042.042 0 00-.012-.016 4.091 4.091 0 01-.187-.144.042.042 0 00-.02-.01c-.007 0-.013 0-.02.004-1.94.897-4.067.897-6.03 0-.007-.003-.013-.003-.02-.002s-.014.003-.02.008c-.06.05-.122.097-.185.144a.041.041 0 00-.012.016.036.036 0 00-.004.017c0 .007.003.013.006.018.003.005.008.01.014.014a6.55 6.55 0 00.949.453c.004.003.008.008.01.013s.002.01.002.016a.04.04 0 01-.004.016 7.13 7.13 0 01-.614.998c-.004.006-.01.009-.017.011s-.016.005-.024.002a9.963 9.963 0 01-2.998-1.515.036.036 0 01-.01-.012.043.043 0 01-.005-.016c-.21-2.238.218-4.505 1.773-6.83a.033.033 0 01.016-.013 9.865 9.865 0 012.441-.758zm-.27 3.818c-.6 0-1.078.545-1.078 1.211 0 .667.486 1.21 1.078 1.21.6 0 1.078-.543 1.078-1.21.01-.662-.473-1.21-1.078-1.21zm3.988 0c-.6 0-1.078.545-1.078 1.211 0 .667.487 1.21 1.078 1.21.605 0 1.078-.543 1.078-1.21.01-.662-.473-1.21-1.078-1.21z" fill="currentColor"/>
</svg>
