<svg width="24" height="24" viewBox="0 0 24 24" fill="none" xmlns="http://www.w3.org/2000/svg">
<circle cx="12" cy="12" r="12" fill="currentColor"/>
<path d="M17.5456 6.99461C16.5081 6.52614 15.4133 6.19211 14.2885 6.00086C14.2782 5.99894 14.2676 6.00026 14.2582 6.00462C14.2488 6.00898 14.241 6.01617 14.2359 6.02515C14.0866 6.29149 13.951 6.56508 13.8297 6.84487C12.6173 6.66372 11.384 6.66372 10.1716 6.84487C10.0497 6.56438 9.9122 6.29073 9.75968 6.02515C9.75445 6.01636 9.74663 6.00933 9.73726 6.00499C9.72788 6.00066 9.7174 5.99922 9.70717 6.00086C8.58268 6.1918 7.4882 6.52585 6.45131 6.99461C6.44238 6.9983 6.43484 7.00464 6.42974 7.01275C4.35553 10.0619 3.78736 13.0361 4.06613 15.9728C4.06693 15.98 4.06919 15.987 4.07279 15.9933C4.07639 15.9996 4.08124 16.0052 4.08707 16.0097C5.29492 16.8899 6.64602 17.5619 8.08268 17.9969C8.09282 17.9998 8.10364 17.9997 8.11369 17.9965C8.12375 17.9932 8.13256 17.987 8.13893 17.9787C8.44741 17.5655 8.72075 17.1281 8.95618 16.6707C8.95939 16.6645 8.96122 16.6576 8.96154 16.6506C8.96186 16.6435 8.96067 16.6365 8.95804 16.63C8.95542 16.6235 8.95141 16.6176 8.9463 16.6126C8.94118 16.6077 8.93507 16.604 8.92837 16.6015C8.49727 16.4395 8.07989 16.2442 7.68015 16.0174C7.67289 16.0132 7.6668 16.0073 7.66241 16.0002C7.65802 15.9931 7.65546 15.9851 7.65497 15.9768C7.65447 15.9686 7.65606 15.9603 7.65958 15.9528C7.6631 15.9453 7.66844 15.9387 7.67515 15.9337C7.75891 15.8722 7.84297 15.8077 7.92298 15.7425C7.93008 15.7367 7.93867 15.7331 7.94778 15.7319C7.95689 15.7307 7.96616 15.732 7.97455 15.7357C10.5932 16.9121 13.4284 16.9121 16.0161 15.7357C16.0245 15.7317 16.0339 15.7302 16.0432 15.7313C16.0525 15.7324 16.0613 15.736 16.0686 15.7419C16.1486 15.8067 16.2327 15.8719 16.3186 15.9337C16.3253 15.9387 16.3307 15.9452 16.3343 15.9527C16.3379 15.9602 16.3395 15.9684 16.3391 15.9767C16.3386 15.9849 16.3362 15.993 16.3318 16.0001C16.3275 16.0072 16.3214 16.0131 16.3142 16.0174C15.915 16.2464 15.4968 16.4418 15.0641 16.6015C15.0574 16.604 15.0513 16.6079 15.0462 16.6129C15.041 16.6179 15.0371 16.624 15.0345 16.6306C15.0319 16.6372 15.0308 16.6443 15.0312 16.6514C15.0317 16.6585 15.0336 16.6654 15.0369 16.6716C15.2763 17.1265 15.5492 17.5635 15.8536 17.979C15.8597 17.9876 15.8685 17.994 15.8786 17.9974C15.8887 18.0007 15.8996 18.0009 15.9098 17.9978C17.3484 17.5641 18.7013 16.892 19.9101 16.0106C19.916 16.0064 19.921 16.0009 19.9246 15.9947C19.9282 15.9884 19.9304 15.9815 19.9311 15.9743C20.2648 12.5786 19.3723 9.62871 17.5653 7.01398C17.5612 7.00544 17.5542 6.99858 17.5456 6.99461ZM9.34684 14.1848C8.55834 14.1848 7.90923 13.4727 7.90923 12.5983C7.90923 11.7238 8.54615 11.0117 9.34684 11.0117C10.1541 11.0117 10.7976 11.73 10.7844 12.5983C10.7851 13.4727 10.1478 14.1848 9.34684 14.1848ZM14.6638 14.1848C13.8753 14.1848 13.2262 13.4727 13.2262 12.5983C13.2262 11.7238 13.8631 11.0117 14.6638 11.0117C15.471 11.0117 16.1145 11.73 16.1014 12.5983C16.1017 13.4727 15.471 14.1848 14.6638 14.1848Z" fill="#262626"/>
</svg>
