<svg viewBox="0 0 43.439 43.439" xmlns="http://www.w3.org/2000/svg">
    <path d="M21.7.54C9.707.54-.017 10.264-.017 22.26c0 9.595 6.223 17.735 14.853 20.608 1.087.199 1.483-.472 1.483-1.048 0-.514-.019-1.881-.03-3.693-6.04 1.312-7.315-2.912-7.315-2.912-.988-2.508-2.412-3.176-2.412-3.176-1.972-1.348.149-1.321.149-1.321 2.18.155 3.327 2.239 3.327 2.239 1.937 3.318 5.083 2.36 6.32 1.805.198-1.404.758-2.361 1.38-2.904-4.823-.548-9.894-2.412-9.894-10.735 0-2.37.847-4.309 2.236-5.827-.224-.55-.969-2.758.212-5.748 0 0 1.824-.584 5.973 2.226a20.802 20.802 0 015.438-.73c1.844.008 3.702.25 5.437.73 4.146-2.81 5.966-2.226 5.966-2.226 1.186 2.99.44 5.198.216 5.748 1.392 1.518 2.234 3.457 2.234 5.827 0 8.344-5.079 10.18-9.917 10.718.78.67 1.474 1.996 1.474 4.022 0 2.903-.026 5.245-.026 5.957 0 .582.39 1.258 1.493 1.046 8.624-2.879 14.84-11.013 14.84-20.607C43.42 10.264 33.697.54 21.7.54" fill="currentColor" fill-rule="evenodd"/>
</svg>
