<svg width="24" height="24" viewBox="0 0 24 24" fill="none" xmlns="http://www.w3.org/2000/svg">
<circle cx="12" cy="12" r="12" fill="currentColor"/>
<path d="M13.025 11.5435C13.025 14.0528 11.0047 16.0869 8.51258 16.0869C6.0205 16.0869 4 14.0528 4 11.5435C4 9.03429 6.02034 7 8.51258 7C11.0048 7 13.025 9.03429 13.025 11.5435Z" fill="#262626"/>
<path d="M17.9755 11.5435C17.9755 13.9054 16.9653 15.8209 15.7192 15.8209C14.4731 15.8209 13.4629 13.9054 13.4629 11.5435C13.4629 9.18159 14.4729 7.26611 15.719 7.26611C16.9651 7.26611 17.9753 9.18098 17.9753 11.5435" fill="#262626"/>
<path d="M20 11.5438C20 13.6595 19.6448 15.3757 19.2065 15.3757C18.7682 15.3757 18.4131 13.66 18.4131 11.5438C18.4131 9.42763 18.7683 7.71191 19.2065 7.71191C19.6446 7.71191 20 9.42747 20 11.5438Z" fill="#262626"/>
</svg>
