<?xml version="1.0" encoding="UTF-8"?>
<svg width="24px" height="24px" viewBox="0 0 24 24" version="1.1" xmlns="http://www.w3.org/2000/svg" xmlns:xlink="http://www.w3.org/1999/xlink">
    <title>medium</title>
    <g id="Page-1" stroke="none" stroke-width="1" fill="none" fill-rule="evenodd">
        <g id="medium">
            <rect id="矩形" fill-opacity="0" fill="currentColor" x="0" y="0" width="24" height="24"></rect>
            <path d="M20.7,0 C22.5225397,8.39856091e-16 24,1.47746033 24,3.3 L24,20.7 C24,22.5225397 22.5225397,24 20.7,24 L3.3,24 C1.47746033,24 5.09669516e-16,22.5225397 0,20.7 L0,3.3 C-6.67285948e-16,1.47746033 1.47746033,-9.97472523e-16 3.3,0 L20.7,0 Z M7.14049033,6.5 C4.02537828,6.5 1.5,8.9616124 1.5,11.9999073 C1.5,15.0382021 4.02518675,17.5 7.14049033,17.5 C10.2557939,17.5 12.7811722,15.0374602 12.7811722,11.9999073 C12.7811722,8.96235435 10.2556024,6.5 7.14049033,6.5 Z M16.1487263,6.82256378 C14.5911703,6.82256378 13.3283854,9.14116487 13.3283854,11.9999073 C13.3283854,14.8586496 14.5911703,17.1772507 16.1487263,17.1772507 C17.7062823,17.1772507 18.9690672,14.8593916 18.9690672,11.9999073 C18.9690672,9.14116487 17.7062823,6.82256378 16.1487263,6.82256378 Z M20.508236,7.36122119 C19.9602567,7.36122119 19.5160889,9.43868776 19.5160889,11.9999073 C19.5160889,14.5611268 19.9602567,16.6385933 20.5080444,16.6385933 C21.0558322,16.6385933 21.5,14.5618687 21.5,11.9999073 C21.5,9.43813129 21.0562153,7.36122119 20.508236,7.36122119 Z" id="形状结合" fill="currentColor"></path>
        </g>
    </g>
</svg>