<svg width="32" height="32" viewBox="0 0 32 32" fill="none" xmlns="http://www.w3.org/2000/svg">
<g clip-path="url(#clip0_6426_20132)">
<path d="M29.6145 8.79234C29.4611 8.17932 29.1486 7.61766 28.7086 7.16407C28.2686 6.71048 27.7167 6.38103 27.1087 6.209C24.887 5.6665 16.0003 5.6665 16.0003 5.6665C16.0003 5.6665 7.11367 5.6665 4.892 6.26067C4.28394 6.4327 3.73205 6.76215 3.29207 7.21574C2.85209 7.66933 2.5396 8.23099 2.38616 8.844C1.97957 11.0987 1.78068 13.3859 1.792 15.6769C1.7775 17.9852 1.97641 20.2899 2.38616 22.5615C2.55532 23.1555 2.87481 23.6958 3.31377 24.1302C3.75272 24.5646 4.29631 24.8785 4.892 25.0415C7.11367 25.6357 16.0003 25.6357 16.0003 25.6357C16.0003 25.6357 24.887 25.6357 27.1087 25.0415C27.7167 24.8695 28.2686 24.54 28.7086 24.0864C29.1486 23.6328 29.4611 23.0712 29.6145 22.4582C30.018 20.2205 30.2168 17.9507 30.2087 15.6769C30.2232 13.3687 30.0243 11.064 29.6145 8.79234Z" stroke="#A5A5A5" stroke-width="2.58333" stroke-linecap="round" stroke-linejoin="round"/>
<path d="M13.0938 19.9009L20.5208 15.6771L13.0938 11.4534V19.9009Z" stroke="#A5A5A5" stroke-width="2.58333" stroke-linecap="round" stroke-linejoin="round"/>
</g>
<defs>
<clipPath id="clip0_6426_20132">
<rect width="31" height="31" fill="white" transform="translate(0.5 0.5)"/>
</clipPath>
</defs>
</svg>
