<svg width="52" height="20" viewBox="0 0 52 20" fill="none" xmlns="http://www.w3.org/2000/svg">
<path d="M1.204 15.5H3.066V11.146H5.166C7.406 11.146 8.764 10.012 8.764 8.01C8.764 5.91 7.364 4.86 5.278 4.86H1.204V15.5ZM3.066 9.508V6.512H4.872C6.104 6.512 6.832 7.058 6.832 8.024C6.832 9.074 6.02 9.508 4.872 9.508H3.066ZM14.8803 15.514C18.1003 15.514 19.6823 13.778 19.6823 10.18C19.6823 6.372 17.8903 4.86 14.8103 4.86H10.6103V15.5L14.8803 15.514ZM12.4723 13.806V6.554H14.5863C16.7283 6.554 17.6943 7.66 17.6943 10.18C17.6943 12.896 16.5603 13.806 14.5863 13.806H12.4723ZM28.636 6.694V4.86H21.37V15.5H23.232V10.88H28.048V9.13H23.232V6.694H28.636Z" fill="#A5A5A5"/>
<path d="M43.6666 1.66675H36.9999C36.5579 1.66675 36.134 1.84234 35.8214 2.1549C35.5088 2.46746 35.3333 2.89139 35.3333 3.33341V16.6667C35.3333 17.1088 35.5088 17.5327 35.8214 17.8453C36.134 18.1578 36.5579 18.3334 36.9999 18.3334H46.9999C47.4419 18.3334 47.8659 18.1578 48.1784 17.8453C48.491 17.5327 48.6666 17.1088 48.6666 16.6667V6.66675L43.6666 1.66675Z" stroke="#A5A5A5" stroke-width="1.66667" stroke-linecap="round" stroke-linejoin="round"/>
<path d="M43.6667 1.66675V6.66675H48.6667" stroke="#A5A5A5" stroke-width="1.66667" stroke-linecap="round" stroke-linejoin="round"/>
<path d="M45.3334 10.8333H38.6667" stroke="#A5A5A5" stroke-width="1.66667" stroke-linecap="round" stroke-linejoin="round"/>
<path d="M45.3334 14.1667H38.6667" stroke="#A5A5A5" stroke-width="1.66667" stroke-linecap="round" stroke-linejoin="round"/>
<path d="M40.3334 7.5H39.5001H38.6667" stroke="#A5A5A5" stroke-width="1.66667" stroke-linecap="round" stroke-linejoin="round"/>
</svg>
