<svg width="71" height="20" viewBox="0 0 71 20" fill="none" xmlns="http://www.w3.org/2000/svg">
<path d="M0.336 16H2.38L3.388 13.312H7.658L8.666 16H10.71L6.51 5.36H4.55L0.336 16ZM4.004 11.562L5.53 7.53L7.042 11.562H4.004ZM15.85 16.224C19.308 16.224 20.078 14.152 20.078 11.338V5.36H18.202V10.806C18.202 12.962 18.062 14.53 15.85 14.53C13.638 14.53 13.484 12.962 13.484 10.806V5.36H11.622V11.338C11.622 14.096 12.364 16.224 15.85 16.224ZM26.4467 16.014C29.6667 16.014 31.2487 14.278 31.2487 10.68C31.2487 6.872 29.4567 5.36 26.3767 5.36H22.1767V16L26.4467 16.014ZM24.0387 14.306V7.054H26.1527C28.2947 7.054 29.2607 8.16 29.2607 10.68C29.2607 13.396 28.1267 14.306 26.1527 14.306H24.0387ZM32.7544 16H34.6164V5.36H32.7544V16ZM41.5939 16.224C44.8839 16.224 46.8579 13.872 46.8579 10.68C46.8579 7.488 44.8839 5.136 41.5939 5.136C38.2899 5.136 36.3019 7.488 36.3019 10.68C36.3019 13.872 38.2899 16.224 41.5939 16.224ZM41.5799 14.53C39.4939 14.53 38.3039 12.794 38.3039 10.68C38.3039 8.566 39.4939 6.83 41.5799 6.83C43.6659 6.83 44.8559 8.566 44.8559 10.68C44.8559 12.794 43.6659 14.53 41.5799 14.53Z" fill="#A5A5A5"/>
<path d="M60.1667 4.16675L56.0001 7.50008H52.6667V12.5001H56.0001L60.1667 15.8334V4.16675Z" stroke="#A5A5A5" stroke-width="1.66667" stroke-linecap="round" stroke-linejoin="round"/>
<path d="M66.8916 4.1084C68.4539 5.67113 69.3315 7.79036 69.3315 10.0001C69.3315 12.2098 68.4539 14.329 66.8916 15.8917M63.95 7.05007C64.7311 7.83143 65.1699 8.89105 65.1699 9.9959C65.1699 11.1007 64.7311 12.1604 63.95 12.9417" stroke="#A5A5A5" stroke-width="1.66667" stroke-linecap="round" stroke-linejoin="round"/>
</svg>
