<svg width="44" height="20" viewBox="0 0 44 20" fill="none" xmlns="http://www.w3.org/2000/svg">
<path d="M5.04 15.724C8.344 15.724 9.52 14.072 9.52 12.196C9.506 10.082 8.05 8.878 5.796 8.878L5.656 8.864L8.778 6.848V4.86H1.4V6.61H6.608L3.374 8.738V10.264H4.69C6.86 10.264 7.672 10.964 7.672 12.196C7.672 13.246 7.014 14.086 5.096 14.086C3.864 14.086 2.954 13.75 2.674 12.882H0.7C1.064 14.716 2.632 15.724 5.04 15.724ZM15.7006 15.514C18.9206 15.514 20.5026 13.778 20.5026 10.18C20.5026 6.372 18.7106 4.86 15.6306 4.86H11.4306V15.5L15.7006 15.514ZM13.2926 13.806V6.554H15.4066C17.5486 6.554 18.5146 7.66 18.5146 10.18C18.5146 12.896 17.3806 13.806 15.4066 13.806H13.2926Z" fill="#A5A5A5"/>
<path d="M34.7418 1.2083L41.4085 4.54163C41.6861 4.67961 41.9198 4.89232 42.0832 5.15583C42.2466 5.41935 42.3333 5.72323 42.3335 6.0333V13.975C42.3333 14.285 42.2466 14.5889 42.0832 14.8524C41.9198 15.1159 41.6861 15.3286 41.4085 15.4666L34.7418 18.8C34.5102 18.9158 34.2549 18.9762 33.996 18.9762C33.737 18.9762 33.4817 18.9158 33.2501 18.8L26.5835 15.4666C26.3061 15.3269 26.0732 15.1124 25.9113 14.8473C25.7493 14.5823 25.6646 14.2772 25.6668 13.9666V6.0333C25.667 5.72323 25.7536 5.41935 25.917 5.15583C26.0804 4.89232 26.3141 4.67961 26.5918 4.54163L33.2585 1.2083C33.4889 1.09378 33.7428 1.03418 34.0001 1.03418C34.2575 1.03418 34.5113 1.09378 34.7418 1.2083V1.2083Z" stroke="#A5A5A5" stroke-width="1.66667" stroke-linecap="round" stroke-linejoin="round"/>
<path d="M25.9333 5.1333L34 9.16663L42.0667 5.1333" stroke="#A5A5A5" stroke-width="1.66667" stroke-linecap="round" stroke-linejoin="round"/>
<path d="M34 18.9667V9.16675" stroke="#A5A5A5" stroke-width="1.66667" stroke-linecap="round" stroke-linejoin="round"/>
</svg>
