<svg width="32" height="32" viewBox="0 0 32 32" fill="none" xmlns="http://www.w3.org/2000/svg">
<g clip-path="url(#clip0_5979_18766)">
<path d="M17.1496 2.37291L27.4829 7.53957C27.9133 7.75344 28.2755 8.08314 28.5288 8.49159C28.7821 8.90004 28.9164 9.37105 28.9166 9.85166V22.1612C28.9164 22.6418 28.7821 23.1129 28.5288 23.5213C28.2755 23.9298 27.9133 24.2595 27.4829 24.4733L17.1496 29.64C16.7907 29.8196 16.3949 29.9131 15.9935 29.9131C15.5922 29.9131 15.1964 29.8196 14.8375 29.64L4.50415 24.4733C4.07419 24.2567 3.71333 23.9242 3.46227 23.5134C3.21122 23.1026 3.07996 22.6298 3.08331 22.1483V9.85166C3.08357 9.37105 3.21789 8.90004 3.47118 8.49159C3.72446 8.08314 4.08666 7.75344 4.51706 7.53957L14.8504 2.37291C15.2076 2.1954 15.6011 2.10303 16 2.10303C16.3989 2.10303 16.7923 2.1954 17.1496 2.37291V2.37291Z" stroke="#A5A5A5" stroke-width="2.58333" stroke-linecap="round" stroke-linejoin="round"/>
<path d="M3.49683 8.45654L16.0002 14.7082L28.5035 8.45654" stroke="#A5A5A5" stroke-width="2.58333" stroke-linecap="round" stroke-linejoin="round"/>
<path d="M16 29.8983V14.7083" stroke="#A5A5A5" stroke-width="2.58333" stroke-linecap="round" stroke-linejoin="round"/>
</g>
<defs>
<clipPath id="clip0_5979_18766">
<rect width="31" height="31" fill="white" transform="translate(0.5 0.5)"/>
</clipPath>
</defs>
</svg>
