<svg width="69" height="20" viewBox="0 0 69 20" fill="none" xmlns="http://www.w3.org/2000/svg">
<path d="M4.41 16H6.37L10.57 5.36H8.498L5.39 13.83L2.268 5.36H0.196L4.41 16ZM11.7818 16H13.6438V5.36H11.7818V16ZM20.1439 16.014C23.3639 16.014 24.9459 14.278 24.9459 10.68C24.9459 6.872 23.1539 5.36 20.0739 5.36H15.8739V16L20.1439 16.014ZM17.7359 14.306V7.054H19.8499C21.9919 7.054 22.9579 8.16 22.9579 10.68C22.9579 13.396 21.8239 14.306 19.8499 14.306H17.7359ZM28.4817 14.166V11.38H33.5217V9.63H28.4817V7.194H34.0257V5.36H26.6337V16H34.2637V14.166H28.4817ZM40.7736 16.224C44.0636 16.224 46.0376 13.872 46.0376 10.68C46.0376 7.488 44.0636 5.136 40.7736 5.136C37.4696 5.136 35.4816 7.488 35.4816 10.68C35.4816 13.872 37.4696 16.224 40.7736 16.224ZM40.7596 14.53C38.6736 14.53 37.4836 12.794 37.4836 10.68C37.4836 8.566 38.6736 6.83 40.7596 6.83C42.8456 6.83 44.0356 8.566 44.0356 10.68C44.0356 12.794 42.8456 14.53 40.7596 14.53Z" fill="#A5A5A5"/>
<path d="M67.7835 5.34992C67.6845 4.95443 67.4829 4.59206 67.199 4.29942C66.9152 4.00679 66.5591 3.79424 66.1668 3.68325C64.7335 3.33325 59.0002 3.33325 59.0002 3.33325C59.0002 3.33325 53.2668 3.33325 51.8335 3.71659C51.4412 3.82757 51.0851 4.04012 50.8013 4.33276C50.5174 4.6254 50.3158 4.98776 50.2168 5.38325C49.9545 6.83788 49.8262 8.31351 49.8335 9.79159C49.8241 11.2808 49.9525 12.7677 50.2168 14.2333C50.326 14.6165 50.5321 14.965 50.8153 15.2453C51.0985 15.5256 51.4492 15.7281 51.8335 15.8333C53.2668 16.2166 59.0002 16.2166 59.0002 16.2166C59.0002 16.2166 64.7335 16.2166 66.1668 15.8333C66.5591 15.7223 66.9152 15.5097 67.199 15.2171C67.4829 14.9244 67.6845 14.5621 67.7835 14.1666C68.0438 12.7229 68.1721 11.2585 68.1668 9.79159C68.1762 8.30238 68.0478 6.8155 67.7835 5.34992Z" stroke="#A5A5A5" stroke-width="1.66667" stroke-linecap="round" stroke-linejoin="round"/>
<path d="M57.125 12.5167L61.9167 9.79165L57.125 7.06665V12.5167Z" stroke="#A5A5A5" stroke-width="1.66667" stroke-linecap="round" stroke-linejoin="round"/>
</svg>
