<svg width="17" height="26" viewBox="0 0 17 26" fill="none" xmlns="http://www.w3.org/2000/svg">
<path d="M6.27187 19.1211H10.2023C10.2023 18.5735 10.2345 18.1224 10.3634 17.6392C10.6211 16.4794 11.1043 15.6418 12.1997 14.6108C14.1971 12.7745 17 11.1314 17 7.36211C17 3.2384 13.6817 0.5 8.91362 0.5C3.34017 0.5 0.150737 4.17268 0.505119 9.4884H4.72548C4.46775 6.3634 6.01414 4.30155 8.81697 4.30155C11.0399 4.30155 12.6185 5.65464 12.6185 7.61985C12.6185 9.6817 10.911 10.7448 9.04249 12.5168C7.17393 14.2887 6.27187 15.9639 6.27187 18.6701V19.1211ZM5.82084 25.5H10.5889V20.9575H5.82084V25.5Z" fill="#A5A5A5"/>
</svg>
