<svg width="24px" height="24px" viewBox="0 0 24 24" fill="none" xmlns="http://www.w3.org/2000/svg">
<path d="M16.9848 13.5C16.9848 14.2993 16.3368 14.9473 15.5374 14.9473C14.738 14.9473 14.09 14.2993 14.09 13.5C14.09 12.7006 14.738 12.0526 15.5374 12.0526C16.3368 12.0526 16.9848 12.7006 16.9848 13.5Z" fill="currentColor"/>
<path d="M8.45738 14.9473C9.25674 14.9473 9.90475 14.2993 9.90475 13.5C9.90475 12.7006 9.25674 12.0526 8.45738 12.0526C7.65802 12.0526 7.01001 12.7006 7.01001 13.5C7.01001 14.2993 7.65802 14.9473 8.45738 14.9473Z" fill="currentColor"/>
<path d="M8.85013 16.6288C8.49979 16.4078 8.03664 16.5127 7.81565 16.863C7.59466 17.2134 7.69951 17.6765 8.04985 17.8975L8.39477 18.1151C10.595 19.503 13.3971 19.503 15.5973 18.1151L15.9422 17.8975C16.2926 17.6765 16.3974 17.2134 16.1764 16.863C15.9554 16.5127 15.4923 16.4078 15.142 16.6288L14.797 16.8464C13.0857 17.9259 10.9064 17.9259 9.19505 16.8464L8.85013 16.6288Z" fill="currentColor"/>
<path fill-rule="evenodd" clip-rule="evenodd" d="M19.9605 1.75C19.0866 1.75 18.3245 2.22861 17.922 2.93801L14.3217 2.19949C13.9721 2.12777 13.6204 2.31236 13.4808 2.64083C13.07 3.60742 12.4535 5.07237 11.9393 6.32585C11.7573 6.76955 11.5873 7.18862 11.4435 7.55064C9.39709 7.63308 7.50064 8.16774 5.94951 9.03545C5.41473 8.14005 4.43607 7.53946 3.31579 7.53946C1.6226 7.53946 0.25 8.91206 0.25 10.6052C0.25 11.9006 1.0528 13.007 2.18741 13.4565C2.05646 13.9351 1.98682 14.4334 1.98682 14.9474C1.98682 17.0889 3.19585 18.9587 5.01221 20.2642C6.82975 21.5706 9.3027 22.3552 12 22.3552C14.6973 22.3552 17.1702 21.5706 18.9877 20.2642C20.8041 18.9587 22.0131 17.0889 22.0131 14.9474C22.0131 14.4334 21.9435 13.9351 21.8125 13.4565C22.9468 13.0072 23.75 11.9009 23.75 10.6052C23.75 8.91206 22.3774 7.53946 20.6842 7.53946C19.5639 7.53946 18.5852 8.14005 18.0505 9.03546C16.6243 8.23768 14.9063 7.72142 13.0482 7.57932C13.1358 7.36278 13.2295 7.13313 13.3271 6.89516C13.746 5.87394 14.2341 4.7095 14.6219 3.79229L17.64 4.41138C17.7957 5.55385 18.7753 6.43421 19.9605 6.43421C21.254 6.43421 22.3026 5.38561 22.3026 4.0921C22.3026 2.7986 21.254 1.75 19.9605 1.75ZM19.1184 4.0921C19.1184 3.62702 19.4954 3.25 19.9605 3.25C20.4256 3.25 20.8026 3.62702 20.8026 4.0921C20.8026 4.55719 20.4256 4.93421 19.9605 4.93421C19.4954 4.93421 19.1184 4.55719 19.1184 4.0921ZM12 9.03946C12.1543 9.03946 12.3075 9.04233 12.4596 9.048C12.4582 9.07685 12.4553 9.0982 12.4538 9.10845C12.4513 9.12529 12.4488 9.13703 12.4478 9.1415L12.4465 9.14739L12.4491 9.13787C12.4546 9.11926 12.4639 9.09007 12.478 9.04869C14.7024 9.13488 16.6791 9.81841 18.1123 10.8485C19.6485 11.9527 20.5131 13.4118 20.5131 14.9474C20.5131 16.4829 19.6485 17.942 18.1123 19.0462C16.5772 20.1495 14.4186 20.8552 12 20.8552C9.58135 20.8552 7.42272 20.1495 5.88766 19.0462C4.35141 17.942 3.48682 16.4829 3.48682 14.9474C3.48682 13.4118 4.35141 11.9527 5.88766 10.8485C7.42272 9.7452 9.58135 9.03946 12 9.03946ZM1.75 10.6052C1.75 9.74049 2.45103 9.03946 3.31579 9.03946C3.91282 9.03946 4.43322 9.37393 4.69734 9.86728C3.89802 10.4962 3.23394 11.2401 2.76317 12.071C2.17089 11.8476 1.75 11.2748 1.75 10.6052ZM21.2368 12.071C20.766 11.2401 20.1019 10.4962 19.3026 9.8673C19.5668 9.37394 20.0872 9.03946 20.6842 9.03946C21.549 9.03946 22.25 9.74049 22.25 10.6052C22.25 11.2746 21.8295 11.8475 21.2368 12.071Z" fill="currentColor"/>
</svg>
