<svg width="24" height="24" viewBox="0 0 24 24" fill="none" xmlns="http://www.w3.org/2000/svg">
<circle cx="12" cy="12" r="12" fill="currentColor"/>
<path d="M19.4288 7.39829C18.8823 7.63401 18.2877 7.80365 17.6752 7.86972C18.3111 7.49193 18.7873 6.89508 19.0145 6.19115C18.4177 6.54613 17.764 6.79505 17.0823 6.92686C16.7974 6.62227 16.4528 6.37961 16.07 6.21402C15.6872 6.04843 15.2744 5.96344 14.8573 5.96436C13.1698 5.96436 11.8127 7.33222 11.8127 9.01079C11.8127 9.24651 11.8413 9.48222 11.8877 9.70901C9.3609 9.57686 7.10732 8.36972 5.60911 6.52151C5.33612 6.98778 5.19306 7.51869 5.19482 8.05901C5.19482 9.11615 5.73232 10.0483 6.55197 10.5965C6.06894 10.5775 5.59722 10.4447 5.17518 10.209V10.2465C5.17518 11.7269 6.22161 12.9536 7.61625 13.2358C7.35439 13.3038 7.08502 13.3386 6.81447 13.3394C6.61625 13.3394 6.42875 13.3197 6.23947 13.2929C6.62518 14.5001 7.7484 15.3769 9.0859 15.4054C8.03947 16.2251 6.72875 16.7072 5.30554 16.7072C5.05018 16.7072 4.81447 16.6983 4.56982 16.6697C5.91982 17.5358 7.52161 18.0358 9.24661 18.0358C14.8466 18.0358 17.9109 13.3965 17.9109 9.36972C17.9109 9.23758 17.9109 9.10543 17.902 8.97329C18.4948 8.53936 19.0145 8.00186 19.4288 7.39829Z" fill="#262626"/>
</svg>
