<svg width="18" height="18" viewBox="0 0 18 18" fill="none" xmlns="http://www.w3.org/2000/svg">
<path d="M10.2744 5.95984C9.79739 6.29992 9.21364 6.49996 8.58317 6.49996C6.97234 6.49996 5.6665 5.19412 5.6665 3.58329C5.6665 1.97246 6.97234 0.666626 8.58317 0.666626C9.62733 0.666626 10.5433 1.21531 11.0586 2.04008M3.99984 15.7393H6.17508C6.45869 15.7393 6.74057 15.773 7.01551 15.8405L9.31392 16.399C9.81262 16.5205 10.3322 16.5323 10.8361 16.4345L13.3773 15.9401C14.0486 15.8093 14.6662 15.4878 15.1501 15.017L16.9481 13.2681C17.4615 12.7694 17.4615 11.9603 16.9481 11.4608C16.4858 11.0112 15.7538 10.9605 15.2308 11.3419L13.1353 12.8707C12.8352 13.09 12.4701 13.2082 12.0945 13.2082H10.0711L11.3591 13.2081C12.085 13.2081 12.6731 12.6361 12.6731 11.9299V11.6742C12.6731 11.0879 12.2628 10.5766 11.6782 10.4349L9.69033 9.95141C9.36682 9.87295 9.03551 9.83329 8.70245 9.83329C7.89845 9.83329 6.44308 10.499 6.44308 10.499L3.99984 11.5207M15.6665 4.41663C15.6665 6.02746 14.3607 7.33329 12.7498 7.33329C11.139 7.33329 9.83317 6.02746 9.83317 4.41663C9.83317 2.8058 11.139 1.49996 12.7498 1.49996C14.3607 1.49996 15.6665 2.8058 15.6665 4.41663ZM0.666504 11.1666L0.666504 16C0.666504 16.4667 0.666504 16.7 0.757332 16.8783C0.837226 17.0351 0.96471 17.1626 1.12151 17.2425C1.29977 17.3333 1.53313 17.3333 1.99984 17.3333H2.6665C3.13321 17.3333 3.36657 17.3333 3.54483 17.2425C3.70163 17.1626 3.82911 17.0351 3.90901 16.8783C3.99984 16.7 3.99984 16.4667 3.99984 16V11.1666C3.99984 10.6999 3.99984 10.4666 3.90901 10.2883C3.82911 10.1315 3.70163 10.004 3.54483 9.92412C3.36657 9.83329 3.13321 9.83329 2.6665 9.83329L1.99984 9.83329C1.53313 9.83329 1.29977 9.83329 1.12151 9.92412C0.96471 10.004 0.837226 10.1315 0.757332 10.2883C0.666504 10.4666 0.666504 10.6999 0.666504 11.1666Z" stroke="#FD8FFF" stroke-width="1.33" stroke-linecap="round" stroke-linejoin="round"/>
</svg>
