<svg width="22" height="22" viewBox="0 0 22 22" xmlns="http://www.w3.org/2000/svg">
    <path fill="#fff" fill-rule="evenodd" d="m4.984 4.935-.103 3.96c1.675.862 3.254.843 5.111.426.736-.289 1.251-.35 1.966 0 1.872.582 3.506.404 5.203-.463l-.1-3.965c0-2.232-1.448-3.091-3.023-2.63-.161.046-.402.262-.402.455l-.037 3.87a.366.366 0 0 1-.732-.004V1.826a1.826 1.826 0 1 0-3.65 0v4.758a.366.366 0 0 1-.732.004l-.037-3.872c0-.191-.23-.406-.39-.454-1.817-.539-3.074.525-3.074 2.673Zm-.565 4.461c-.977-.468-2.499-.323-3.527.85-.47.536-.106 1.313.572 1.538.327.109.623.292.9.498l.095.07c.854.612 1.404 1.53 1.459 2.58l.051.994a6.532 6.532 0 0 0 4.015 5.362 7.973 7.973 0 0 0 6.06 0 6.532 6.532 0 0 0 4.014-5.362c.009-.17.012-.34.01-.51l.025-.484c.055-1.05.605-1.968 1.459-2.58a8.79 8.79 0 0 0 .095-.07c.277-.206.573-.39.9-.498.678-.225 1.043-1.002.572-1.539-1.028-1.172-2.55-1.317-3.527-.849-.355.17-.71.34-1.076.465l-.749.256-.001.01c-1.374.38-2.505.38-3.802-.155-.656-.27-1.318-.321-1.959 0-1.233.384-2.489.546-3.761.145l-.75-.256a10.007 10.007 0 0 1-1.075-.465Zm6.586 9.708c2.766 0 5.008-3.223 5.008-3.223s-2.242-3.222-5.008-3.222c-2.765 0-5.008 3.222-5.008 3.222s2.243 3.223 5.008 3.223Zm2.25-3.222a2.249 2.249 0 1 1-4.499 0 2.249 2.249 0 0 1 4.498 0Zm-2.25 1.02a1.02 1.02 0 1 0 0-2.04 1.02 1.02 0 0 0 0 2.04Z"/>
</svg>
