<svg width="167" height="22" viewBox="0 0 167 22" fill="none" xmlns="http://www.w3.org/2000/svg">
<path d="M164.078 18.3651V4.38184H166.515V18.3651H164.078Z" fill="#959595"/>
<path d="M152.281 15.808C152.281 14.5495 152.841 13.6106 153.979 13.0313C155.118 12.432 156.636 12.0525 158.534 11.8727V11.5331C158.534 10.5143 157.975 9.97497 156.716 9.97497C155.358 9.97497 154.619 10.6142 154.359 11.633L152.142 11.0537C152.341 9.55547 154.019 8.11719 156.716 8.11719C159.453 8.11719 160.951 9.41563 160.951 11.8327V15.8479C160.951 16.3473 161.031 16.4472 161.55 16.4472H162.489V18.3649H161.45C159.812 18.3649 159.433 17.8456 159.393 16.2874H158.534C158.114 17.7057 157.096 18.6646 155.478 18.6646C153.56 18.6646 152.281 17.5659 152.281 15.808ZM158.534 14.2698V13.4708C156.157 13.7305 154.758 14.2898 154.758 15.5683C154.758 16.3673 155.298 16.8268 156.257 16.8268C157.495 16.8268 158.534 15.9678 158.534 14.2698Z" fill="#959595"/>
<path d="M145.472 15.8282V10.3148H143.314V8.41706H145.472V5.30078H147.909V8.41706H150.546V10.3148H147.909V15.4486C147.909 16.0879 148.189 16.3675 148.828 16.3675H150.945V18.3652H147.989C146.371 18.3652 145.472 17.4263 145.472 15.8282Z" fill="#959595"/>
<path d="M136.123 18.3652V8.41709H138.38C138.38 9.31602 137.941 10.5346 137.441 11.3536H138.58C139.02 9.37594 139.899 8.2373 141.916 8.2373C142.176 8.2373 142.416 8.25728 142.655 8.29723V10.7942C142.316 10.7343 141.956 10.7143 141.577 10.7143C139.459 10.7143 138.56 11.7131 138.56 14.2701V18.3652H136.123Z" fill="#959595"/>
<path d="M123.836 13.3909C123.836 10.2946 125.913 8.11719 128.85 8.11719C131.766 8.11719 133.864 10.2946 133.864 13.3909C133.864 16.5271 131.727 18.6646 128.85 18.6646C125.973 18.6646 123.836 16.4273 123.836 13.3909ZM131.347 13.4308C131.347 11.2534 130.308 10.0948 128.85 10.0948C127.332 10.0948 126.353 11.2534 126.353 13.4308C126.353 15.5683 127.332 16.6869 128.85 16.6869C130.368 16.6869 131.347 15.5683 131.347 13.4308Z" fill="#959595"/>
<path d="M112 18.3651V4.38184H118.013C120.989 4.38184 122.907 6.11976 122.907 8.79656C122.907 11.4334 120.989 13.2313 118.013 13.2313H114.597V18.3651H112ZM114.597 11.0339H117.553C119.191 11.0339 120.19 10.135 120.19 8.79656C120.19 7.45816 119.211 6.61916 117.553 6.61916H114.597V11.0339Z" fill="#959595"/>
<path d="M29.7398 18.0186H32.2756V6.57269H37.0934V4.39251H25V6.57269H29.7398V18.0186Z" fill="white"/>
<path d="M35.6041 15.527C35.6041 17.24 36.8525 18.3106 38.725 18.3106C40.305 18.3106 41.2997 17.3763 41.7094 15.9942H42.5481C42.5871 17.5125 42.9577 18.0186 44.5572 18.0186H45.5714V16.1499H44.6547C44.1475 16.1499 44.0695 16.0526 44.0695 15.5659V11.6533C44.0695 9.29791 42.6066 8.03263 39.9344 8.03263C37.3011 8.03263 35.6626 9.43418 35.4676 10.8941L37.6327 11.4586C37.8863 10.4659 38.608 9.84296 39.9344 9.84296C41.1632 9.84296 41.7094 10.3685 41.7094 11.3613V11.6922C39.8563 11.8674 38.3739 12.2373 37.2621 12.8212C36.1503 13.3857 35.6041 14.3006 35.6041 15.527ZM41.7094 14.0281C41.7094 15.6827 40.6951 16.5198 39.4857 16.5198C38.5495 16.5198 38.0228 16.072 38.0228 15.2934C38.0228 14.0476 39.3882 13.5025 41.7094 13.2495V14.0281Z" fill="white"/>
<path d="M47.123 18.0186H49.5027V4.39251H47.123V18.0186Z" fill="white"/>
<path d="M52.3209 6.78682H54.8567V4.37305H52.3209V6.78682ZM52.4185 18.0186H54.7786V8.32462H52.4185V18.0186Z" fill="white"/>
<path d="M56.7985 15.527C57.2276 17.24 59.0612 18.2912 61.2458 18.2912C63.918 18.2912 65.537 17.0648 65.537 15.1766C65.537 14.2812 65.2054 13.5999 64.5617 13.1327C63.918 12.6655 63.1378 12.3346 62.2211 12.1594L60.9532 11.9258C59.7829 11.6922 59.4708 11.4002 59.4708 10.8357C59.4708 10.1933 60.0364 9.74563 61.0702 9.74563C62.182 9.74563 62.8842 10.388 63.1963 11.225L65.2054 10.3685C64.7568 9.18112 63.4694 8.03263 61.1483 8.03263C58.8271 8.03263 57.2081 9.25898 57.2081 11.0498C57.2081 12.8796 58.3785 13.5609 60.3485 13.9697L61.6359 14.2033C62.7282 14.4174 63.0793 14.8068 63.0793 15.4102C63.0793 16.0915 62.4551 16.5198 61.3433 16.5198C59.8024 16.5198 59.1782 15.6633 59.0027 14.8068L56.7985 15.527Z" fill="white"/>
<path d="M67.6571 18.0186H70.0368V13.23C70.0368 12.1399 70.1148 11.2445 70.7195 10.5437C71.0121 10.1933 71.4607 10.0182 72.0654 10.0182C73.2357 10.0182 73.8209 10.7189 73.8209 12.101V18.0186H76.1615V13.23C76.1615 12.1205 76.2201 11.2445 76.8247 10.5437C77.1173 10.1933 77.5854 10.0182 78.1901 10.0182C79.3019 10.0182 79.9456 10.68 79.9456 12.101V18.0186H82.3058V11.6922C82.3058 9.33685 80.9404 8.03263 79.0679 8.03263C77.7415 8.03263 76.6687 8.96699 76.2591 10.3101H75.4203C75.0887 8.8502 74.0549 8.03263 72.7481 8.03263C71.3242 8.03263 70.4854 8.98646 70.1148 10.3101H69.003C69.4126 9.74563 69.7637 8.88913 69.7637 8.32462H67.6571V18.0186Z" fill="white"/>
<path d="M84.5012 15.527C84.5012 17.24 85.7496 18.3106 87.6221 18.3106C89.202 18.3106 90.1968 17.3763 90.6064 15.9942H91.4452C91.4842 17.5125 91.8548 18.0186 93.4542 18.0186H94.4685V16.1499H93.5518C93.0446 16.1499 92.9666 16.0526 92.9666 15.5659V11.6533C92.9666 9.29791 91.5037 8.03263 88.8314 8.03263C86.1982 8.03263 84.5597 9.43418 84.3647 10.8941L86.5298 11.4586C86.7833 10.4659 87.5051 9.84296 88.8314 9.84296C90.0603 9.84296 90.6064 10.3685 90.6064 11.3613V11.6922C88.7534 11.8674 87.271 12.2373 86.1592 12.8212C85.0474 13.3857 84.5012 14.3006 84.5012 15.527ZM90.6064 14.0281C90.6064 15.6827 89.5921 16.5198 88.3828 16.5198C87.4465 16.5198 86.9199 16.072 86.9199 15.2934C86.9199 14.0476 88.2853 13.5025 90.6064 13.2495V14.0281Z" fill="white"/>
<path d="M96.0201 18.0186H98.3998V13.5804C98.3998 12.4125 98.4778 11.4002 99.1215 10.6216C99.4531 10.2128 99.9602 10.0182 100.623 10.0182C101.735 10.0182 102.379 10.6995 102.379 12.101V18.0186H104.759V11.6338C104.759 9.39524 103.608 8.03263 101.423 8.03263C99.8237 8.03263 98.8094 9.25898 98.3803 10.5632H97.2685C97.8146 9.7651 98.2047 8.88913 98.2242 8.32462H96.0201V18.0186Z" fill="white"/>
<path fill-rule="evenodd" clip-rule="evenodd" d="M4.9839 4.93506L4.88072 8.89506C6.55607 9.75662 8.13505 9.73783 9.99207 9.32066C10.7284 9.03246 11.2432 8.97068 11.9578 9.32105C13.8304 9.9031 15.4636 9.72473 17.161 8.85833L17.0609 4.89318C17.0609 2.66062 15.6133 1.80177 14.0378 2.26215C13.8766 2.30926 13.6355 2.52517 13.6355 2.71786L13.5986 6.58792C13.5967 6.78852 13.4335 6.95012 13.2329 6.95012C13.0309 6.95012 12.8672 6.7864 12.8672 6.58443V1.82555C12.8672 0.817326 12.0499 0 11.0417 0C10.0334 -2.89632e-07 9.21612 0.817326 9.21612 1.82555V6.58443C9.21612 6.7864 9.05239 6.95012 8.85043 6.95012C8.64982 6.95012 8.48667 6.78852 8.48475 6.58792L8.44781 2.71574C8.44781 2.52475 8.21821 2.30953 8.05837 2.26215C6.24057 1.72332 4.9839 2.78729 4.9839 4.93506ZM4.41913 9.39638L4.41913 9.39638L4.41912 9.39638C3.4418 8.92808 1.92014 9.07339 0.892447 10.2452C0.421384 10.7823 0.785873 11.5595 1.46396 11.7844C1.79094 11.8928 2.08707 12.0765 2.36387 12.2816C2.39524 12.3048 2.42714 12.328 2.45945 12.3512C3.31345 12.964 3.863 13.882 3.91768 14.9317L3.96945 15.9257C4.21931 18.3155 5.76108 20.3752 7.98366 21.2884C9.92492 22.086 12.1024 22.086 14.0436 21.2884C16.2662 20.3752 17.808 18.3155 18.0578 15.9257C18.0667 15.7554 18.0699 15.5854 18.0682 15.4161L18.0934 14.9317C18.1481 13.882 18.6976 12.964 19.5516 12.3512C19.5839 12.328 19.6158 12.3048 19.6472 12.2816C19.924 12.0765 20.2201 11.8928 20.5471 11.7844C21.2252 11.5595 21.5897 10.7823 21.1186 10.2452C20.0909 9.07339 18.5693 8.92808 17.5919 9.39638C17.2373 9.56631 16.8826 9.73629 16.5162 9.86139L15.7672 10.1172L15.7657 10.1267C14.3915 10.5064 13.2613 10.5076 11.964 9.97225C11.3081 9.70156 10.6462 9.65068 10.0051 9.97225C8.7723 10.356 7.51636 10.5182 6.24388 10.1172L5.49482 9.86139C5.12851 9.73629 4.77378 9.56632 4.41915 9.39639L4.41914 9.39639L4.41913 9.39638ZM11.0053 19.104C13.7711 19.104 16.0132 15.8814 16.0132 15.8814C16.0132 15.8814 13.7711 12.6587 11.0053 12.6587C8.23953 12.6587 5.99742 15.8814 5.99742 15.8814C5.99742 15.8814 8.23953 19.104 11.0053 19.104ZM13.2543 15.8818C13.2543 17.1238 12.2474 18.1307 11.0054 18.1307C9.76331 18.1307 8.75643 17.1238 8.75643 15.8818C8.75643 14.6397 9.76331 13.6329 11.0054 13.6329C12.2474 13.6329 13.2543 14.6397 13.2543 15.8818ZM11.0057 16.9018C11.5691 16.9018 12.0259 16.4451 12.0259 15.8817C12.0259 15.3183 11.5691 14.8616 11.0057 14.8616C10.4423 14.8616 9.98561 15.3183 9.98561 15.8817C9.98561 16.4451 10.4423 16.9018 11.0057 16.9018Z" fill="white"/>
</svg>
