<svg width="272" height="64" viewBox="0 0 272 64" fill="none" xmlns="http://www.w3.org/2000/svg">
<g filter="url(#filter0_f_4028_9195)">
<circle cx="62.2388" cy="40.2388" r="3.55122" transform="rotate(-12.5656 62.2388 40.2388)" fill="#C0B6B6"/>
</g>
<circle cx="62.2388" cy="40.2388" r="3.2901" transform="rotate(-12.5656 62.2388 40.2388)" fill="url(#paint0_linear_4028_9195)" stroke="white" stroke-width="0.522238"/>
<path d="M76.1066 16.3211C76.1066 16.9659 75.5839 17.4887 74.939 17.4887C74.2942 17.4887 73.7715 16.9659 73.7715 16.3211C73.7715 15.6763 74.2942 15.1536 74.939 15.1536C75.5839 15.1536 76.1066 15.6763 76.1066 16.3211Z" fill="#D5FF5C"/>
<path d="M219.335 32.1676C219.335 32.8124 218.812 33.3351 218.168 33.3351C217.523 33.3351 217 32.8124 217 32.1676C217 31.5227 217.523 31 218.168 31C218.812 31 219.335 31.5227 219.335 32.1676Z" fill="#D5FF5C"/>
<path opacity="0.2" d="M56.7003 12.6112C56.7003 13.256 56.1776 13.7787 55.5328 13.7787C54.888 13.7787 54.3652 13.256 54.3652 12.6112C54.3652 11.9663 54.888 11.4436 55.5328 11.4436C56.1776 11.4436 56.7003 11.9663 56.7003 12.6112Z" fill="white"/>
<path opacity="0.2" d="M25.3351 44.1676C25.3351 44.8124 24.8124 45.3351 24.1676 45.3351C23.5227 45.3351 23 44.8124 23 44.1676C23 43.5227 23.5227 43 24.1676 43C24.8124 43 25.3351 43.5227 25.3351 44.1676Z" fill="white"/>
<path opacity="0.2" d="M2.17166 49.0858C2.17166 49.6855 1.68552 50.1717 1.08583 50.1717C0.486142 50.1717 0 49.6855 0 49.0858C0 48.4861 0.486142 48 1.08583 48C1.68552 48 2.17166 48.4861 2.17166 49.0858Z" fill="white"/>
<path opacity="0.2" d="M232.172 52.0858C232.172 52.6855 231.686 53.1717 231.086 53.1717C230.486 53.1717 230 52.6855 230 52.0858C230 51.4861 230.486 51 231.086 51C231.686 51 232.172 51.4861 232.172 52.0858Z" fill="white"/>
<path opacity="0.2" d="M258.074 44.0858C258.074 44.6315 257.631 45.0739 257.086 45.0739C256.54 45.0739 256.098 44.6315 256.098 44.0858C256.098 43.5401 256.54 43.0977 257.086 43.0977C257.631 43.0977 258.074 43.5401 258.074 44.0858Z" fill="white"/>
<path d="M7.33512 31.1676C7.33512 31.8124 6.81238 32.3351 6.16756 32.3351C5.52273 32.3351 5 31.8124 5 31.1676C5 30.5227 5.52273 30 6.16756 30C6.81238 30 7.33512 30.5227 7.33512 31.1676Z" fill="#D5FF5C"/>
<path opacity="0.2" d="M155.456 11.0748C155.456 11.7197 154.933 12.2424 154.289 12.2424C153.644 12.2424 153.121 11.7197 153.121 11.0748C153.121 10.43 153.644 9.90729 154.289 9.90729C154.933 9.90729 155.456 10.43 155.456 11.0748Z" fill="white"/>
<path opacity="0.5" d="M178.629 -54.9535C228.175 -56.3832 269.028 -33.6898 269.877 -4.26629C270.726 25.1572 231.25 50.1687 181.704 51.5985C132.158 53.0282 91.3044 30.3347 90.4553 0.911236L90.4553 -22.553" stroke="white" stroke-width="0.561545"/>
<ellipse cx="180.415" cy="-23" rx="90" ry="53" stroke="url(#paint1_linear_4028_9195)" stroke-width="0.561545"/>
<g filter="url(#filter1_f_4028_9195)">
<ellipse cx="124.613" cy="46.1269" rx="34.68" ry="21.3415" fill="#C9C9C9" fill-opacity="0.06"/>
</g>
<mask id="path-15-outside-1_4028_9195" maskUnits="userSpaceOnUse" x="93.0459" y="14.2395" width="63.7457" height="43.6911" fill="black">
<rect fill="white" x="93.0459" y="14.2395" width="63.7457" height="43.6911"/>
<path d="M124.106 16.602C111.409 17.1618 100.785 22.7585 96.757 30.1723L94.8128 30.2619L95.0567 35.7947C95.0206 36.2889 95.0125 36.787 95.0346 37.2883C95.5062 47.9845 109.286 56.0645 125.813 55.3358C142.34 54.6072 155.356 45.3458 154.885 34.6496C154.856 33.9979 154.776 33.3562 154.651 32.7253L154.422 27.5292L152.481 27.6177C147.779 20.64 136.746 16.0447 124.106 16.602Z"/>
</mask>
<g filter="url(#filter2_i_4028_9195)">
<path d="M124.106 16.602C111.409 17.1618 100.785 22.7585 96.757 30.1723L94.8128 30.2619L95.0567 35.7947C95.0206 36.2889 95.0125 36.787 95.0346 37.2883C95.5062 47.9845 109.286 56.0645 125.813 55.3358C142.34 54.6072 155.356 45.3458 154.885 34.6496C154.856 33.9979 154.776 33.3562 154.651 32.7253L154.422 27.5292L152.481 27.6177C147.779 20.64 136.746 16.0447 124.106 16.602Z" fill="#1C271E"/>
</g>
<path d="M124.106 16.602L124.072 15.8405L124.106 16.602ZM96.757 30.1723L97.4267 30.5362L97.2215 30.9139L96.7921 30.9337L96.757 30.1723ZM94.8128 30.2619L94.0513 30.2955L94.0178 29.5356L94.7777 29.5006L94.8128 30.2619ZM95.0567 35.7947L95.8182 35.7611L95.8201 35.8057L95.8169 35.8502L95.0567 35.7947ZM95.0346 37.2883L94.2731 37.3219L94.2731 37.3219L95.0346 37.2883ZM125.813 55.3358L125.847 56.0973L125.813 55.3358ZM154.885 34.6496L155.646 34.616L155.646 34.616L154.885 34.6496ZM154.651 32.7253L153.904 32.8737L153.892 32.8168L153.89 32.7589L154.651 32.7253ZM154.422 27.5292L154.387 26.7678L155.15 26.733L155.184 27.4957L154.422 27.5292ZM152.481 27.6177L152.515 28.3792L152.088 28.3987L151.849 28.0436L152.481 27.6177ZM124.106 16.602L124.139 17.3634C111.595 17.9165 101.281 23.4431 97.4267 30.5362L96.757 30.1723L96.0873 29.8084C100.29 22.0739 111.223 16.4071 124.072 15.8405L124.106 16.602ZM96.757 30.1723L96.7921 30.9337L94.8479 31.0233L94.8128 30.2619L94.7777 29.5006L96.7219 29.4109L96.757 30.1723ZM94.8128 30.2619L95.5742 30.2284L95.8182 35.7611L95.0567 35.7947L94.2952 35.8282L94.0513 30.2955L94.8128 30.2619ZM95.0567 35.7947L95.8169 35.8502C95.7829 36.3155 95.7753 36.7839 95.796 37.2547L95.0346 37.2883L94.2731 37.3219C94.2497 36.7901 94.2583 36.2623 94.2965 35.7391L95.0567 35.7947ZM95.0346 37.2883L95.796 37.2547C96.0166 42.2583 99.3555 46.7531 104.789 49.9389C110.214 53.1202 117.641 54.9332 125.78 54.5744L125.813 55.3358L125.847 56.0973C117.459 56.4671 109.732 54.6045 104.018 51.2539C98.3112 47.9079 94.5241 43.0145 94.2731 37.3219L95.0346 37.2883ZM125.813 55.3358L125.78 54.5744C133.918 54.2156 141.157 51.7559 146.282 48.1095C151.413 44.4579 154.344 39.6868 154.123 34.6831L154.885 34.6496L155.646 34.616C155.897 40.3086 152.555 45.5163 147.165 49.3516C141.768 53.1921 134.235 55.7275 125.847 56.0973L125.813 55.3358ZM154.885 34.6496L154.123 34.6831C154.096 34.0714 154.022 33.4681 153.904 32.8737L154.651 32.7253L155.399 32.577C155.531 33.2443 155.616 33.9243 155.646 34.616L154.885 34.6496ZM154.651 32.7253L153.89 32.7589L153.661 27.5628L154.422 27.5292L155.184 27.4957L155.413 32.6918L154.651 32.7253ZM154.422 27.5292L154.457 28.2906L152.515 28.3792L152.481 27.6177L152.446 26.8563L154.387 26.7678L154.422 27.5292ZM152.481 27.6177L151.849 28.0436C147.349 21.3657 136.627 16.8129 124.139 17.3634L124.106 16.602L124.072 15.8405C136.865 15.2765 148.209 19.9143 153.113 27.1918L152.481 27.6177Z" fill="white" mask="url(#path-15-outside-1_4028_9195)"/>
<path d="M123.766 8.88129C115.44 9.24841 107.981 11.765 102.652 15.557C97.3265 19.3464 94.0876 24.4447 94.3308 29.9649C94.5742 35.4851 98.2493 40.2794 103.887 43.5855C109.529 46.8938 117.181 48.7441 125.507 48.3771C133.833 48.01 141.292 45.4934 146.621 41.7014C151.947 37.9119 155.185 32.8129 154.942 27.2926C154.698 21.7723 151.023 16.979 145.385 13.6729C139.743 10.3646 132.092 8.51421 123.766 8.88129Z" fill="#1C271E" stroke="white" stroke-width="0.762198"/>
<mask id="mask0_4028_9195" style="mask-type:alpha" maskUnits="userSpaceOnUse" x="94" y="9" width="61" height="40">
<path d="M123.807 9.63736C115.606 9.99897 108.294 12.4779 103.101 16.1729C97.9052 19.8704 94.8726 24.7507 95.1006 29.9263C95.3288 35.1022 98.7792 39.6973 104.281 42.9233C109.778 46.1469 117.28 47.9718 125.481 47.6102C133.682 47.2487 140.995 44.7706 146.187 41.0757C151.383 37.378 154.417 32.4971 154.189 27.3212C153.96 22.1455 150.509 17.5512 145.008 14.3253C139.51 11.1016 132.008 9.27578 123.807 9.63736Z" fill="#F384BD" stroke="#EDC00C" stroke-width="0.762198"/>
</mask>
<g mask="url(#mask0_4028_9195)">
<ellipse cx="20.6977" cy="20.9255" rx="20.6977" ry="20.9255" transform="matrix(0.855134 0.518408 -0.834131 0.551566 124.506 5.66766)" fill="url(#paint2_linear_4028_9195)" fill-opacity="0.4" stroke="white" stroke-width="0.762198"/>
<path d="M133.734 21.4783C136.548 23.107 137.913 25.4009 138.564 27.5138C139.219 29.6393 139.195 31.7188 139.065 33.0822C139.061 33.1204 139.058 33.159 139.055 33.1988C139.004 33.7631 138.956 34.5993 137.977 35.3089C136.999 36.0183 135.722 36.1427 134.862 36.2387L134.86 36.2388C134.8 36.2455 134.742 36.2519 134.684 36.2585C132.607 36.4952 129.42 36.7441 126.085 36.5612C122.771 36.3795 119.098 35.7595 116.283 34.1309C113.469 32.5023 112.105 30.2077 111.454 28.0949C110.799 25.9694 110.823 23.8899 110.953 22.5265C110.956 22.4883 110.96 22.4496 110.963 22.4098L111.015 21.9417C111.095 21.4354 111.306 20.8325 112.04 20.3003C113.019 19.5907 114.296 19.466 115.156 19.3699C115.217 19.3631 115.275 19.3568 115.334 19.3501C117.411 19.1134 120.598 18.8646 123.932 19.0474C127.247 19.2292 130.919 19.8497 133.734 21.4783ZM124.479 33.1928C122.594 33.18 120.732 32.7525 119.245 31.8919C117.758 31.0314 116.894 29.8817 116.663 28.67C116.852 29.9144 117.701 31.0848 119.179 31.9401C120.657 32.7954 122.548 33.2107 124.479 33.1928ZM127.83 25.6671C126.116 24.6751 123.431 24.8129 121.833 25.9713C120.236 27.1297 120.327 28.8729 122.041 29.8649C123.755 30.857 126.44 30.7201 128.038 29.5618C129.636 28.4033 129.545 26.6592 127.83 25.6671ZM127.633 25.8104C129.227 26.7329 129.315 28.3573 127.823 29.4386C126.332 30.5199 123.83 30.6459 122.236 29.7233C120.642 28.8008 120.554 27.1764 122.045 26.0951C123.537 25.0139 126.038 24.8879 127.633 25.8104ZM135.036 32.1033C134.726 32.3902 134.39 32.6709 134.021 32.939C133.603 33.2419 133.159 33.521 132.697 33.7777C133.225 33.7325 133.715 33.6836 134.154 33.6336C134.536 33.59 134.767 33.5616 134.921 33.5393C134.938 33.4377 134.955 33.2862 134.978 33.0357C135.005 32.7537 135.026 32.4404 135.036 32.1033ZM116.953 21.8632C116.564 21.8992 116.199 21.9369 115.864 21.9751C115.482 22.0187 115.251 22.046 115.097 22.0683C115.08 22.1699 115.063 22.3216 115.039 22.573C115.018 22.7997 115.001 23.0466 114.989 23.31C115.293 23.0318 115.621 22.7605 115.98 22.5001C116.291 22.2748 116.617 22.063 116.953 21.8632ZM125.031 27.6969C124.976 27.665 124.887 27.6683 124.832 27.7077L124.803 27.7401C124.783 27.7746 124.796 27.8133 124.837 27.8374C124.893 27.8694 124.982 27.8656 125.037 27.8261C125.077 27.7965 125.085 27.7566 125.063 27.7251L125.031 27.6969ZM130.822 23.498C128.411 22.1029 124.902 21.8778 121.915 22.7977C124.806 21.9861 128.208 22.2423 130.625 23.6407C133.059 25.0487 133.827 27.23 132.877 29.1921C133.983 27.1559 133.249 24.9023 130.822 23.498Z" stroke="white" stroke-width="1.5244"/>
</g>
<g filter="url(#filter3_f_4028_9195)">
<path d="M38.251 15L38.998 21.259L44.5019 22.1084L38.998 22.9579L38.251 29.2169L37.504 22.9579L32 22.1084L37.504 21.259L38.251 15Z" fill="#CCABAB"/>
</g>
<path d="M38.251 15L38.498 17.0696C38.7935 19.546 40.7029 21.5221 43.1677 21.9025L44.5019 22.1084L43.1677 22.3144C40.7029 22.6948 38.7935 24.6709 38.498 27.1473L38.251 29.2169L38.004 27.1473C37.7084 24.6709 35.799 22.6948 33.3342 22.3144L32 22.1084L33.3342 21.9025C35.799 21.5221 37.7084 19.546 38.004 17.0696L38.251 15Z" fill="white"/>
<g filter="url(#filter4_f_4028_9195)">
<path d="M187.503 46L188.111 51.0949L192.592 51.7864L188.111 52.4778L187.503 57.5727L186.895 52.4778L182.415 51.7864L186.895 51.0949L187.503 46Z" fill="#CCABAB"/>
</g>
<path d="M187.503 46L187.704 47.6847C187.945 49.7005 189.499 51.3091 191.506 51.6187L192.592 51.7864L191.506 51.954C189.499 52.2636 187.945 53.8722 187.704 55.888L187.503 57.5727L187.302 55.8881C187.062 53.8722 185.508 52.2636 183.501 51.954L182.415 51.7864L183.501 51.6187C185.508 51.3091 187.062 49.7005 187.302 47.6847L187.503 46Z" fill="white"/>
<g filter="url(#filter5_f_4028_9195)">
<circle cx="242.239" cy="15.2388" r="3.55122" transform="rotate(-12.5656 242.239 15.2388)" fill="#C0B6B6"/>
</g>
<circle cx="242.239" cy="15.2388" r="3.2901" transform="rotate(-12.5656 242.239 15.2388)" fill="url(#paint3_linear_4028_9195)" stroke="white" stroke-width="0.522238"/>
<defs>
<filter id="filter0_f_4028_9195" x="57.1308" y="35.1306" width="10.216" height="10.2164" filterUnits="userSpaceOnUse" color-interpolation-filters="sRGB">
<feFlood flood-opacity="0" result="BackgroundImageFix"/>
<feBlend mode="normal" in="SourceGraphic" in2="BackgroundImageFix" result="shape"/>
<feGaussianBlur stdDeviation="0.778112" result="effect1_foregroundBlur_4028_9195"/>
</filter>
<filter id="filter1_f_4028_9195" x="82.1582" y="17.011" width="84.9087" height="58.2319" filterUnits="userSpaceOnUse" color-interpolation-filters="sRGB">
<feFlood flood-opacity="0" result="BackgroundImageFix"/>
<feBlend mode="normal" in="SourceGraphic" in2="BackgroundImageFix" result="shape"/>
<feGaussianBlur stdDeviation="3.88721" result="effect1_foregroundBlur_4028_9195"/>
</filter>
<filter id="filter2_i_4028_9195" x="94.0176" y="15.7943" width="61.6416" height="40.3494" filterUnits="userSpaceOnUse" color-interpolation-filters="sRGB">
<feFlood flood-opacity="0" result="BackgroundImageFix"/>
<feBlend mode="normal" in="SourceGraphic" in2="BackgroundImageFix" result="shape"/>
<feColorMatrix in="SourceAlpha" type="matrix" values="0 0 0 0 0 0 0 0 0 0 0 0 0 0 0 0 0 0 127 0" result="hardAlpha"/>
<feOffset dx="5.2618" dy="-6.76517"/>
<feComposite in2="hardAlpha" operator="arithmetic" k2="-1" k3="1"/>
<feColorMatrix type="matrix" values="0 0 0 0 0.162692 0 0 0 0 0.212515 0 0 0 0 0.146084 0 0 0 1 0"/>
<feBlend mode="normal" in2="shape" result="effect1_innerShadow_4028_9195"/>
</filter>
<filter id="filter3_f_4028_9195" x="29.0366" y="12.0366" width="18.4288" height="20.1437" filterUnits="userSpaceOnUse" color-interpolation-filters="sRGB">
<feFlood flood-opacity="0" result="BackgroundImageFix"/>
<feBlend mode="normal" in="SourceGraphic" in2="BackgroundImageFix" result="shape"/>
<feGaussianBlur stdDeviation="1.48171" result="effect1_foregroundBlur_4028_9195"/>
</filter>
<filter id="filter4_f_4028_9195" x="180.003" y="43.5877" width="15.0013" height="16.3973" filterUnits="userSpaceOnUse" color-interpolation-filters="sRGB">
<feFlood flood-opacity="0" result="BackgroundImageFix"/>
<feBlend mode="normal" in="SourceGraphic" in2="BackgroundImageFix" result="shape"/>
<feGaussianBlur stdDeviation="1.20613" result="effect1_foregroundBlur_4028_9195"/>
</filter>
<filter id="filter5_f_4028_9195" x="237.131" y="10.1306" width="10.216" height="10.2164" filterUnits="userSpaceOnUse" color-interpolation-filters="sRGB">
<feFlood flood-opacity="0" result="BackgroundImageFix"/>
<feBlend mode="normal" in="SourceGraphic" in2="BackgroundImageFix" result="shape"/>
<feGaussianBlur stdDeviation="0.778112" result="effect1_foregroundBlur_4028_9195"/>
</filter>
<linearGradient id="paint0_linear_4028_9195" x1="62.2388" y1="36.6876" x2="62.4017" y2="56.3301" gradientUnits="userSpaceOnUse">
<stop stop-color="#2E3128"/>
<stop offset="1" stop-color="#8E977B"/>
</linearGradient>
<linearGradient id="paint1_linear_4028_9195" x1="105.548" y1="-16.6201" x2="180.126" y2="30.458" gradientUnits="userSpaceOnUse">
<stop stop-color="#A2A895"/>
<stop offset="1" stop-color="#999999"/>
</linearGradient>
<linearGradient id="paint2_linear_4028_9195" x1="75.8662" y1="-12.6733" x2="9.71804" y2="63.2727" gradientUnits="userSpaceOnUse">
<stop offset="0.239531" stop-color="#D5FF5C" stop-opacity="0.8"/>
<stop offset="0.577962" stop-color="#D5FF5C" stop-opacity="0.4"/>
<stop offset="1" stop-opacity="0"/>
</linearGradient>
<linearGradient id="paint3_linear_4028_9195" x1="242.239" y1="11.6876" x2="242.402" y2="31.3301" gradientUnits="userSpaceOnUse">
<stop stop-color="#2E3128"/>
<stop offset="1" stop-color="#8E977B"/>
</linearGradient>
</defs>
</svg>
