<svg width="51" height="60" viewBox="0 0 51 60" fill="none" xmlns="http://www.w3.org/2000/svg">
<path d="M7.1355 35.9316L44.333 17.2451V72.0002H7.1355L7.1355 35.9316Z" fill="url(#paint0_linear_5179_15220)"/>
<mask id="path-2-outside-1_5179_15220" maskUnits="userSpaceOnUse" x="3.11868" y="1.32268" width="48.9983" height="54.8393" fill="black">
<rect fill="white" x="3.11868" y="1.32268" width="48.9983" height="54.8393"/>
<path d="M15.5767 21.5985C10.9367 29.6221 10.2066 38.3486 13.1822 43.7346L12.4744 44.9644L15.97 46.9859C16.2597 47.2022 16.5627 47.4031 16.8795 47.5863C23.6386 51.4948 34.0136 46.1965 40.053 35.753C46.0923 25.3096 45.5093 13.6753 38.7506 9.76649C38.3366 9.52711 37.9089 9.32221 37.4696 9.15096L34.1929 7.25606L33.4858 8.48284C27.3517 8.63305 20.196 13.6108 15.5767 21.5985Z"/>
</mask>
<path d="M15.5767 21.5985C10.9367 29.6221 10.2066 38.3486 13.1822 43.7346L12.4744 44.9644L15.97 46.9859C16.2597 47.2022 16.5627 47.4031 16.8795 47.5863C23.6386 51.4948 34.0136 46.1965 40.053 35.753C46.0923 25.3096 45.5093 13.6753 38.7506 9.76649C38.3366 9.52711 37.9089 9.32221 37.4696 9.15096L34.1929 7.25606L33.4858 8.48284C27.3517 8.63305 20.196 13.6108 15.5767 21.5985Z" fill="#7CA017"/>
<path d="M15.5767 21.5985L15.2923 21.434L15.2923 21.434L15.5767 21.5985ZM13.1822 43.7346L13.4697 43.5757L13.5593 43.7379L13.4669 43.8985L13.1822 43.7346ZM12.4744 44.9644L12.3099 45.2488L12.0261 45.0847L12.1896 44.8005L12.4744 44.9644ZM15.97 46.9859L16.1345 46.7015L16.1511 46.7112L16.1666 46.7227L15.97 46.9859ZM16.8795 47.5863L16.7151 47.8707L16.7151 47.8707L16.8795 47.5863ZM40.053 35.753L40.3374 35.9175L40.3374 35.9175L40.053 35.753ZM38.7506 9.76649L38.915 9.48211L38.915 9.48211L38.7506 9.76649ZM37.4696 9.15096L37.3503 9.45703L37.3269 9.44791L37.3052 9.43534L37.4696 9.15096ZM34.1929 7.25606L33.9083 7.09199L34.0726 6.80699L34.3574 6.97168L34.1929 7.25606ZM33.4858 8.48284L33.7704 8.6469L33.6782 8.80673L33.4938 8.81125L33.4858 8.48284ZM15.5767 21.5985L15.8611 21.7629C11.254 29.7296 10.5702 38.3274 13.4697 43.5757L13.1822 43.7346L12.8946 43.8934C9.84301 38.3697 10.6194 29.5145 15.2923 21.434L15.5767 21.5985ZM13.1822 43.7346L13.4669 43.8985L12.7591 45.1283L12.4744 44.9644L12.1896 44.8005L12.8975 43.5707L13.1822 43.7346ZM12.4744 44.9644L12.6388 44.68L16.1345 46.7015L15.97 46.9859L15.8056 47.2703L12.3099 45.2488L12.4744 44.9644ZM15.97 46.9859L16.1666 46.7227C16.4463 46.9316 16.7387 47.1254 17.044 47.3019L16.8795 47.5863L16.7151 47.8707C16.3867 47.6808 16.073 47.4728 15.7735 47.2492L15.97 46.9859ZM16.8795 47.5863L17.044 47.3019C20.2948 49.1818 24.454 48.8695 28.5867 46.7591C32.716 44.6504 36.7759 40.7636 39.7686 35.5886L40.053 35.753L40.3374 35.9175C37.2907 41.1858 33.1434 45.1699 28.8855 47.3442C24.6312 49.5167 20.2233 49.8994 16.7151 47.8707L16.8795 47.5863ZM40.053 35.753L39.7686 35.5886C42.7613 30.4135 44.105 24.9563 43.8729 20.3257C43.6407 15.6913 41.8368 11.9309 38.5861 10.0509L38.7506 9.76649L38.915 9.48211C42.4231 11.5109 44.29 15.5221 44.5291 20.2929C44.7684 25.0675 43.384 30.6491 40.3374 35.9175L40.053 35.753ZM38.7506 9.76649L38.5861 10.0509C38.1868 9.81994 37.7741 9.62227 37.3503 9.45703L37.4696 9.15096L37.589 8.84489C38.0436 9.02215 38.4865 9.23428 38.915 9.48211L38.7506 9.76649ZM37.4696 9.15096L37.3052 9.43534L34.0285 7.54044L34.1929 7.25606L34.3574 6.97168L37.6341 8.86658L37.4696 9.15096ZM34.1929 7.25606L34.4775 7.42012L33.7704 8.6469L33.4858 8.48284L33.2011 8.31878L33.9083 7.09199L34.1929 7.25606ZM33.4858 8.48284L33.4938 8.81125C27.5155 8.95764 20.4475 13.8322 15.8611 21.7629L15.5767 21.5985L15.2923 21.434C19.9446 13.3894 27.1878 8.30845 33.4777 8.15443L33.4858 8.48284Z" fill="#0D0D00" mask="url(#path-2-outside-1_5179_15220)"/>
<path d="M10.7965 18.8347C7.76333 24.0797 6.38911 29.6304 6.62661 34.3691C6.86411 39.1059 8.71534 43.0551 12.1592 45.0467C15.603 47.0381 19.9494 46.673 24.1734 44.5163C28.3989 42.3586 32.5246 38.3989 35.5577 33.154C38.5908 27.909 39.9651 22.3583 39.7276 17.6196C39.4901 12.8829 37.6382 8.93443 34.1945 6.94282C30.7507 4.95128 26.4048 5.31571 22.1808 7.47241C17.9551 9.63002 13.8297 13.5897 10.7965 18.8347Z" fill="#D5FF5C" stroke="#0D0D00" stroke-width="0.328509"/>
<mask id="mask0_5179_15220" style="mask-type:alpha" maskUnits="userSpaceOnUse" x="6" y="5" width="34" height="42">
<path d="M11.081 18.9916C8.07477 24.1901 6.7205 29.679 6.95448 34.3458C7.18856 39.0144 9.00925 42.8373 12.3244 44.7545C15.6395 46.6715 19.8605 46.3423 24.0236 44.2167C28.1851 42.0919 32.2671 38.1804 35.2733 32.9819C38.2794 27.7835 39.6333 22.2953 39.3994 17.6286C39.1653 12.9601 37.3458 9.13676 34.0307 7.21955C30.7155 5.30238 26.4935 5.63194 22.3303 7.75766C18.1689 9.88248 14.0872 13.7934 11.081 18.9916Z" fill="#F384BD" stroke="#EDC00C" stroke-width="0.328509"/>
</mask>
<g mask="url(#mask0_5179_15220)">
<path d="M-0.295898 -18.4961L-2.19148 33.544L44.4826 15.7314L49.7953 -13.6613L-0.295898 -18.4961Z" fill="white" fill-opacity="0.65"/>
<g filter="url(#filter0_i_5179_15220)">
<ellipse cx="18.4234" cy="11.3834" rx="18.4234" ry="11.3834" transform="matrix(-0.500614 0.865671 0.865671 0.500614 22.0652 4.11768)" fill="#D5FF5C"/>
</g>
<path d="M12.984 20.1488C10.4501 24.5306 9.25768 29.1256 9.37084 33.0077C9.48413 36.893 10.9023 40.037 13.556 41.5716C16.2096 43.106 19.6413 42.7667 23.0652 40.9271C26.4864 39.0889 29.8743 35.7635 32.4083 31.3818C34.9424 26.9998 36.1352 22.4042 36.022 18.522C35.9087 14.6369 34.4911 11.4933 31.8377 9.95858C29.184 8.42398 25.7517 8.76292 22.3276 10.6026C18.9063 12.4409 15.5181 15.7668 12.984 20.1488Z" stroke="black" stroke-width="0.328509"/>
</g>
<path fill-rule="evenodd" clip-rule="evenodd" d="M15.7302 25.9159C14.9104 27.114 14.2301 28.2489 13.7308 29.1334C13.4891 29.5616 13.3614 29.7912 13.2832 29.9693C13.2242 30.1036 13.2182 30.1534 13.2182 30.2078C13.2182 30.2622 13.2242 30.3066 13.2832 30.3884C13.3614 30.4968 13.4891 30.6127 13.7308 30.8257C14.2455 31.2793 14.9526 31.8274 15.8066 32.306C15.4163 31.4626 15.2001 30.438 15.2001 29.2607C15.2001 28.1625 15.3882 27.0298 15.7302 25.9159ZM29.5238 26.4035C30.4706 25.0568 31.2505 23.7625 31.8061 22.7781C32.0478 22.3499 32.1755 22.1202 32.2537 21.9421C32.3127 21.8079 32.3187 21.7581 32.3187 21.7037C32.3187 21.6493 32.3127 21.6048 32.2537 21.5231C32.1755 21.4147 32.0478 21.2988 31.8061 21.0858C31.2671 20.6108 30.517 20.032 29.6081 19.538C29.9966 20.3803 30.2117 21.4027 30.2117 22.5771C30.2117 23.834 29.9653 25.1361 29.5238 26.4035ZM22.7685 17.4365C20.4141 18.4847 18.2738 20.5699 16.5457 22.6976C14.8118 24.8326 13.4285 27.0894 12.5721 28.6066C12.5468 28.6514 12.5213 28.6964 12.4957 28.7415C12.1152 29.4122 11.717 30.1139 11.717 30.8761C11.717 31.6384 12.1152 31.9856 12.4957 32.3174L12.496 32.3177C12.5215 32.34 12.5469 32.3621 12.5721 32.3843C13.4285 33.1389 14.8118 34.164 16.5457 34.7549C18.2738 35.3438 20.4141 35.5232 22.7685 34.4749C25.1228 33.4267 27.2631 31.3415 28.9912 29.2139C30.7251 27.0789 32.1084 24.8221 32.9648 23.3049C32.9899 23.2604 33.0152 23.2158 33.0406 23.1711L33.0412 23.17C33.4217 22.4993 33.8199 21.7976 33.8199 21.0353C33.8199 20.2731 33.4217 19.9259 33.0412 19.594C33.0156 19.5717 32.9901 19.5495 32.9648 19.5272C32.1084 18.7725 30.7251 17.7475 28.9912 17.1566C27.2631 16.5676 25.1228 16.3883 22.7685 17.4365ZM22.7059 32.6842C25.9875 31.2231 28.7105 27.0202 28.7105 23.2455C28.7105 19.4707 25.9875 17.6926 22.7059 19.1536C19.4244 20.6147 16.7013 24.8176 16.7013 28.5923C16.7013 32.3671 19.4244 34.1452 22.7059 32.6842ZM26.0834 24.4833C26.0834 26.5212 24.5712 28.8466 22.7058 29.6771C20.8404 30.5077 19.3282 29.5288 19.3282 27.4908C19.3282 25.4528 20.8404 23.1275 22.7058 22.2969C24.5712 21.4664 26.0834 22.4453 26.0834 24.4833ZM27.5845 23.8149C27.5845 26.7587 25.4002 30.1176 22.7058 31.3172C20.0114 32.5168 17.8271 31.103 17.8271 28.1592C17.8271 25.2154 20.0114 21.8565 22.7058 20.6569C25.4002 19.4572 27.5845 20.8711 27.5845 23.8149ZM23.206 25.7657C23.206 26.0676 22.9819 26.4121 22.7056 26.5352C22.4292 26.6582 22.2052 26.5132 22.2052 26.2113C22.2052 25.9093 22.4292 25.5649 22.7056 25.4418C22.9819 25.3188 23.206 25.4638 23.206 25.7657ZM24.7071 25.0973C24.7071 26.305 23.811 27.6831 22.7056 28.1752C21.6002 28.6674 20.7041 28.0873 20.7041 26.8796C20.7041 25.6719 21.6002 24.2939 22.7056 23.8018C23.811 23.3096 24.7071 23.8896 24.7071 25.0973Z" fill="black"/>
<defs>
<filter id="filter0_i_5179_15220" x="9.19946" y="8.82422" width="26.9941" height="33.8813" filterUnits="userSpaceOnUse" color-interpolation-filters="sRGB">
<feFlood flood-opacity="0" result="BackgroundImageFix"/>
<feBlend mode="normal" in="SourceGraphic" in2="BackgroundImageFix" result="shape"/>
<feColorMatrix in="SourceAlpha" type="matrix" values="0 0 0 0 0 0 0 0 0 0 0 0 0 0 0 0 0 0 127 0" result="hardAlpha"/>
<feOffset dx="0.365684" dy="1.02391"/>
<feComposite in2="hardAlpha" operator="arithmetic" k2="-1" k3="1"/>
<feColorMatrix type="matrix" values="0 0 0 0 0 0 0 0 0 0 0 0 0 0 0 0 0 0 0.25 0"/>
<feBlend mode="normal" in2="shape" result="effect1_innerShadow_5179_15220"/>
</filter>
<linearGradient id="paint0_linear_5179_15220" x1="25.7342" y1="17.2451" x2="25.7342" y2="77.615" gradientUnits="userSpaceOnUse">
<stop stop-color="#CCD16B" stop-opacity="0.76"/>
<stop offset="0.85" stop-opacity="0"/>
</linearGradient>
</defs>
</svg>
