<svg width="170" height="207" viewBox="0 0 170 207" fill="none" xmlns="http://www.w3.org/2000/svg">
<g style="mix-blend-mode:hard-light">
<path fill-rule="evenodd" clip-rule="evenodd" d="M122.77 4.36364C112.996 4.63037 104.119 5.40726 97.3223 6.18193C94.0317 6.55698 92.2748 6.76841 90.9944 7.04595C90.0292 7.2552 89.734 7.41931 89.4374 7.63436C89.1408 7.84942 88.9222 8.05785 88.7096 8.70262C88.4276 9.55784 88.3005 10.7124 88.0947 12.8725C87.6565 17.4718 87.4629 23.4944 88.2296 30.0428C91.2855 24.5802 96.0174 19.3511 102.437 14.6967C108.425 10.3551 115.344 6.90239 122.77 4.36364ZM174.643 81.5011C185.729 81.3397 195.869 80.4749 203.433 79.6127C206.724 79.2377 208.481 79.0263 209.761 78.7487C210.726 78.5395 211.022 78.3754 211.318 78.1603C211.615 77.9453 211.833 77.7368 212.046 77.0921C212.328 76.2368 212.455 75.0823 212.661 72.9222C213.12 68.1053 213.31 61.7272 212.411 54.819C209.354 60.267 204.63 65.4818 198.226 70.1248C191.373 75.0938 183.299 78.8984 174.643 81.5011ZM196.829 9.21746C181.806 0.52442 161.975 -2.90218 143.542 -3.91285C125.046 -4.92699 107.272 -3.5474 95.6138 -2.21866C95.2692 -2.17939 94.9231 -2.14072 94.576 -2.10193C89.4149 -1.5253 84.0147 -0.921957 79.8584 2.09155C75.7022 5.10505 75.3831 8.64856 75.0781 12.0352L75.0779 12.0382C75.0574 12.265 75.0371 12.4911 75.0156 12.7162C74.2864 20.3688 74.1661 31.9639 77.7991 43.7546C81.4196 55.505 88.9035 67.8842 103.927 76.5772C118.95 85.2702 138.781 88.6968 157.214 89.7075C175.71 90.7217 193.484 89.3421 205.142 88.0133C205.483 87.9744 205.827 87.9361 206.171 87.8976L206.18 87.8966C211.341 87.32 216.741 86.7166 220.897 83.7031C225.053 80.6896 225.372 77.1461 225.677 73.7595C225.698 73.5317 225.718 73.3046 225.74 73.0785C226.469 65.4258 226.589 53.8308 222.956 42.0401C219.336 30.2897 211.852 17.9105 196.829 9.21746ZM113.444 69.1565C134.383 81.2731 168.065 79.5051 188.647 64.582C209.229 49.6588 208.159 27.7815 187.219 15.6649C166.28 3.54832 132.598 5.31632 112.016 20.2395C91.4338 35.1626 92.5041 57.0399 113.444 69.1565ZM171.512 55.1507C160.4 63.2076 141.742 64.1555 129.839 57.2679C117.936 50.3803 117.295 38.2652 128.407 30.2083C139.519 22.1513 158.177 21.2034 170.08 28.091C181.983 34.9787 182.624 47.0937 171.512 55.1507ZM181.091 60.6935C165.04 72.3314 138.09 73.7006 120.897 63.7517C103.703 53.8029 102.777 36.3034 118.828 24.6655C134.879 13.0276 161.829 11.6583 179.022 21.6072C196.216 31.5561 197.142 49.0556 181.091 60.6935ZM153.144 44.5316C151.497 45.7252 148.733 45.8656 146.97 44.8452C145.207 43.8249 145.112 42.0301 146.758 40.8365C148.404 39.6429 151.168 39.5025 152.931 40.5228C154.695 41.5432 154.79 43.338 153.144 44.5316ZM162.723 50.0744C156.138 54.8489 145.081 55.4106 138.027 51.3291C130.974 47.2475 130.594 40.0682 137.179 35.2937C143.764 30.5192 154.82 29.9574 161.874 34.039C168.928 38.1206 169.308 45.2999 162.723 50.0744Z" stroke="url(#paint0_linear_4086_2681)" stroke-width="1.09071"/>
</g>
<path opacity="0.5" d="M196.102 -25.0738C289.495 -27.7688 366.502 15.0076 368.102 70.4699C369.703 125.932 295.29 173.078 201.898 175.773C108.505 178.468 31.4984 135.692 29.8979 80.2294L29.8979 36" stroke="white"/>
<ellipse cx="199.5" cy="35.4023" rx="169.5" ry="100.5" stroke="url(#paint1_linear_4086_2681)"/>
<g filter="url(#filter0_f_4086_2681)">
<ellipse cx="78.5" cy="155" rx="45.5" ry="28" fill="#C9C9C9" fill-opacity="0.06"/>
</g>
<mask id="path-6-outside-1_4086_2681" maskUnits="userSpaceOnUse" x="37.1306" y="113.488" width="83.2558" height="56.5163" fill="black">
<rect fill="white" x="37.1306" y="113.488" width="83.2558" height="56.5163"/>
<path d="M77.8354 116.262C61.1767 116.996 47.2391 124.34 41.9539 134.067L39.4039 134.184L39.7235 141.435C39.6756 142.086 39.6658 142.742 39.695 143.403C40.314 157.436 58.3928 168.037 80.0759 167.081C101.759 166.125 118.836 153.974 118.217 139.941C118.179 139.083 118.075 138.238 117.91 137.408L117.61 130.598L115.063 130.714C108.894 121.56 94.419 115.531 77.8354 116.262Z"/>
</mask>
<g filter="url(#filter1_i_4086_2681)">
<path d="M77.8354 116.262C61.1767 116.996 47.2391 124.34 41.9539 134.067L39.4039 134.184L39.7235 141.435C39.6756 142.086 39.6658 142.742 39.695 143.403C40.314 157.436 58.3928 168.037 80.0759 167.081C101.759 166.125 118.836 153.974 118.217 139.941C118.179 139.083 118.075 138.238 117.91 137.408L117.61 130.598L115.063 130.714C108.894 121.56 94.419 115.531 77.8354 116.262Z" fill="#1C271E"/>
</g>
<path d="M77.8354 116.262L77.7913 115.263L77.7913 115.263L77.8354 116.262ZM41.9539 134.067L42.8326 134.544L42.5633 135.04L41.9999 135.066L41.9539 134.067ZM39.4039 134.184L38.4048 134.228L38.3609 133.231L39.3579 133.185L39.4039 134.184ZM39.7235 141.435L40.7226 141.391L40.7252 141.449L40.7208 141.508L39.7235 141.435ZM39.695 143.403L38.6959 143.447L38.6959 143.447L39.695 143.403ZM80.0759 167.081L80.12 168.08L80.1199 168.08L80.0759 167.081ZM118.217 139.941L119.216 139.897L119.216 139.897L118.217 139.941ZM117.91 137.408L116.929 137.603L116.914 137.528L116.911 137.452L117.91 137.408ZM117.61 130.598L117.564 129.599L118.565 129.553L118.609 130.554L117.61 130.598ZM115.063 130.714L115.108 131.713L114.547 131.739L114.233 131.273L115.063 130.714ZM77.8354 116.262L77.8794 117.261C61.4207 117.987 47.8891 125.238 42.8326 134.544L41.9539 134.067L41.0752 133.589C46.589 123.441 60.9326 116.006 77.7913 115.263L77.8354 116.262ZM41.9539 134.067L41.9999 135.066L39.4498 135.183L39.4039 134.184L39.3579 133.185L41.9079 133.068L41.9539 134.067ZM39.4039 134.184L40.4029 134.14L40.7226 141.391L39.7235 141.435L38.7245 141.479L38.4048 134.228L39.4039 134.184ZM39.7235 141.435L40.7208 141.508C40.6758 142.12 40.6666 142.737 40.694 143.359L39.695 143.403L38.6959 143.447C38.6651 142.747 38.6755 142.052 38.7262 141.361L39.7235 141.435ZM39.695 143.403L40.694 143.359C40.9836 149.923 45.364 155.82 52.4922 160C59.6102 164.174 69.3542 166.552 80.0319 166.082L80.0759 167.081L80.1199 168.08C69.1145 168.565 58.9776 166.121 51.4806 161.725C43.9938 157.335 39.0254 150.915 38.6959 143.447L39.695 143.403ZM80.0759 167.081L80.0319 166.082C90.7096 165.611 100.207 162.384 106.93 157.6C113.663 152.809 117.508 146.549 117.218 139.985L118.217 139.941L119.216 139.897C119.545 147.365 115.161 154.198 108.089 159.229C101.008 164.268 91.1254 167.594 80.12 168.08L80.0759 167.081ZM118.217 139.941L117.218 139.985C117.183 139.179 117.085 138.385 116.929 137.603L117.91 137.408L118.891 137.213C119.066 138.091 119.176 138.987 119.216 139.897L118.217 139.941ZM117.91 137.408L116.911 137.452L116.611 130.642L117.61 130.598L118.609 130.554L118.909 137.364L117.91 137.408ZM117.61 130.598L117.655 131.597L115.108 131.713L115.063 130.714L115.017 129.715L117.564 129.599L117.61 130.598ZM115.063 130.714L114.233 131.273C108.33 122.512 94.2629 116.539 77.8794 117.261L77.8354 116.262L77.7913 115.263C94.575 114.523 109.459 120.608 115.892 130.156L115.063 130.714Z" fill="white" mask="url(#path-6-outside-1_4086_2681)"/>
<path d="M77.3889 106.132C66.4656 106.614 56.6798 109.916 49.6883 114.891C42.7015 119.863 38.4517 126.552 38.7711 133.794C39.0904 141.037 43.9124 147.326 51.3096 151.664C58.7118 156.004 68.7503 158.432 79.6736 157.951C90.5971 157.469 100.384 154.167 107.375 149.192C114.362 144.22 118.612 137.531 118.292 130.288C117.973 123.046 113.151 116.757 105.754 112.419C98.3516 108.078 88.3125 105.65 77.3889 106.132Z" fill="#1C271E" stroke="white"/>
<mask id="mask0_4086_2681" style="mask-type:alpha" maskUnits="userSpaceOnUse" x="39" y="106" width="79" height="52">
<path d="M77.4435 107.125C66.6841 107.599 57.0908 110.851 50.2782 115.699C43.4607 120.55 39.4812 126.953 39.7806 133.744C40.0801 140.535 44.6077 146.563 51.8256 150.795C59.0383 155.025 68.8807 157.42 79.6401 156.945C90.3997 156.471 99.9937 153.219 106.806 148.371C113.624 143.52 117.603 137.117 117.304 130.326C117.005 123.535 112.477 117.507 105.259 113.274C98.0461 109.045 88.2032 106.65 77.4435 107.125Z" fill="#F384BD" stroke="#EDC00C"/>
</mask>
<g mask="url(#mask0_4086_2681)">
<ellipse cx="27.1552" cy="27.4542" rx="27.1552" ry="27.4542" transform="matrix(0.855134 0.518408 -0.834131 0.551566 78.3615 101.916)" fill="url(#paint2_linear_4086_2681)" fill-opacity="0.4" stroke="white"/>
<path d="M90.467 122.658C94.1598 124.795 95.9495 127.806 96.8036 130.578C97.6628 133.366 97.6319 136.094 97.4615 137.883C97.4567 137.933 97.4519 137.984 97.4472 138.037C97.3806 138.777 97.3194 139.874 96.0355 140.805C94.7514 141.736 93.0751 141.899 91.9469 142.025L91.9453 142.025L91.9429 142.025L91.9428 142.024C91.8644 142.033 91.7888 142.042 91.7137 142.05C88.9887 142.361 84.807 142.688 80.4324 142.448C76.0838 142.21 71.2652 141.395 67.5724 139.258C63.8799 137.122 62.09 134.112 61.2359 131.34C60.3766 128.551 60.4084 125.823 60.5788 124.034C60.5836 123.984 60.5876 123.933 60.5923 123.881L60.619 123.588C60.693 122.869 60.8812 121.927 62.0048 121.113C63.2889 120.182 64.9644 120.019 66.0926 119.893C66.1724 119.884 66.2501 119.876 66.3266 119.867C69.0516 119.556 73.2328 119.23 77.6071 119.47C81.9556 119.708 86.7742 120.522 90.467 122.658ZM78.3549 138.027C75.8714 138.014 73.4179 137.455 71.4587 136.322C69.5172 135.198 68.3838 133.699 68.0737 132.118C68.3291 133.742 69.441 135.268 71.371 136.385C73.3181 137.512 75.8117 138.055 78.3549 138.027ZM82.7226 128.155C80.4731 126.853 76.95 127.034 74.8538 128.554C72.7579 130.074 72.8763 132.361 75.1256 133.663C77.375 134.964 80.8973 134.784 82.9936 133.264C85.0898 131.744 84.9721 129.456 82.7226 128.155ZM82.4625 128.343C84.5541 129.554 84.6688 131.685 82.7122 133.103C80.7556 134.522 77.4743 134.687 75.3825 133.477C73.2908 132.266 73.1748 130.135 75.1312 128.717C77.0878 127.298 80.3707 127.133 82.4625 128.343ZM92.1766 136.605C91.7705 136.98 91.3269 137.344 90.8435 137.695C90.295 138.093 89.713 138.459 89.1057 138.796C89.7995 138.737 90.4417 138.673 91.0175 138.607C91.5191 138.55 91.822 138.513 92.0239 138.483C92.0462 138.35 92.0685 138.151 92.0998 137.822C92.1349 137.454 92.163 137.045 92.1766 136.605ZM68.4496 123.163C67.9393 123.21 67.4606 123.26 67.0212 123.31C66.5198 123.368 66.2173 123.404 66.0155 123.434C65.9933 123.567 65.9702 123.766 65.9388 124.095C65.9105 124.392 65.8873 124.716 65.872 125.06C66.2697 124.696 66.7044 124.341 67.1755 124C67.5832 123.704 68.0086 123.425 68.4496 123.163ZM79.0494 130.818C78.9768 130.776 78.8593 130.78 78.7877 130.832L78.7489 130.875C78.724 130.92 78.7412 130.97 78.7956 131.002C78.8501 131.033 78.9293 131.039 78.9957 131.018L79.0565 130.988L79.0961 130.945C79.1127 130.915 79.1108 130.882 79.0915 130.855L79.0494 130.818ZM86.6472 125.309C83.4865 123.48 78.8879 123.184 74.9716 124.387C78.7618 123.326 83.2216 123.663 86.3895 125.496C89.5616 127.331 90.5778 130.169 89.3678 132.731C90.7816 130.072 89.812 127.14 86.6472 125.309Z" stroke="white" stroke-width="2"/>
</g>
<g filter="url(#filter2_f_4086_2681)">
<path d="M16.935 61L18.2418 71.949L27.87 73.435L18.2418 74.921L16.935 85.87L15.6283 74.921L6.00003 73.435L15.6283 71.949L16.935 61Z" fill="#CCABAB"/>
</g>
<path d="M16.935 61L17.3671 64.6204C17.8841 68.9525 21.2243 72.4093 25.536 73.0748L27.87 73.435L25.536 73.7952C21.2243 74.4607 17.8841 77.9175 17.3671 82.2496L16.935 85.87L16.5029 82.2496C15.9859 77.9175 12.6458 74.4607 8.33404 73.7952L6.00003 73.435L8.33404 73.0748C12.6458 72.4093 15.9859 68.9525 16.5029 64.6204L16.935 61Z" fill="white"/>
<g filter="url(#filter3_f_4086_2681)">
<path d="M139.108 163L139.957 170.117L146.216 171.083L139.957 172.049L139.108 179.165L138.258 172.049L132 171.083L138.258 170.117L139.108 163Z" fill="#CCABAB"/>
</g>
<path d="M139.108 163L139.389 165.353C139.725 168.169 141.896 170.416 144.698 170.849L146.216 171.083L144.698 171.317C141.896 171.749 139.725 173.996 139.389 176.812L139.108 179.165L138.827 176.812C138.491 173.996 136.32 171.749 133.517 171.317L132 171.083L133.517 170.849C136.32 170.416 138.491 168.169 138.827 165.353L139.108 163Z" fill="white"/>
<defs>
<filter id="filter0_f_4086_2681" x="22.8" y="116.8" width="111.4" height="76.4" filterUnits="userSpaceOnUse" color-interpolation-filters="sRGB">
<feFlood flood-opacity="0" result="BackgroundImageFix"/>
<feBlend mode="normal" in="SourceGraphic" in2="BackgroundImageFix" result="shape"/>
<feGaussianBlur stdDeviation="5.1" result="effect1_foregroundBlur_4086_2681"/>
</filter>
<filter id="filter1_i_4086_2681" x="38.3609" y="115.202" width="80.8728" height="52.9384" filterUnits="userSpaceOnUse" color-interpolation-filters="sRGB">
<feFlood flood-opacity="0" result="BackgroundImageFix"/>
<feBlend mode="normal" in="SourceGraphic" in2="BackgroundImageFix" result="shape"/>
<feColorMatrix in="SourceAlpha" type="matrix" values="0 0 0 0 0 0 0 0 0 0 0 0 0 0 0 0 0 0 127 0" result="hardAlpha"/>
<feOffset dx="6.90346" dy="-8.87587"/>
<feComposite in2="hardAlpha" operator="arithmetic" k2="-1" k3="1"/>
<feColorMatrix type="matrix" values="0 0 0 0 0.162692 0 0 0 0 0.212515 0 0 0 0 0.146084 0 0 0 1 0"/>
<feBlend mode="normal" in2="shape" result="effect1_innerShadow_4086_2681"/>
</filter>
<filter id="filter2_f_4086_2681" x="0.816031" y="55.816" width="32.238" height="35.238" filterUnits="userSpaceOnUse" color-interpolation-filters="sRGB">
<feFlood flood-opacity="0" result="BackgroundImageFix"/>
<feBlend mode="normal" in="SourceGraphic" in2="BackgroundImageFix" result="shape"/>
<feGaussianBlur stdDeviation="2.592" result="effect1_foregroundBlur_4086_2681"/>
</filter>
<filter id="filter3_f_4086_2681" x="128.63" y="159.63" width="20.9547" height="22.9047" filterUnits="userSpaceOnUse" color-interpolation-filters="sRGB">
<feFlood flood-opacity="0" result="BackgroundImageFix"/>
<feBlend mode="normal" in="SourceGraphic" in2="BackgroundImageFix" result="shape"/>
<feGaussianBlur stdDeviation="1.6848" result="effect1_foregroundBlur_4086_2681"/>
</filter>
<linearGradient id="paint0_linear_4086_2681" x1="86.1241" y1="13.0069" x2="102.416" y2="76.9621" gradientUnits="userSpaceOnUse">
<stop stop-color="#A2A895"/>
<stop offset="1" stop-color="#999999"/>
</linearGradient>
<linearGradient id="paint1_linear_4086_2681" x1="58.5" y1="47.5" x2="199.5" y2="135.902" gradientUnits="userSpaceOnUse">
<stop stop-color="#A2A895"/>
<stop offset="1" stop-color="#999999"/>
</linearGradient>
<linearGradient id="paint2_linear_4086_2681" x1="99.5362" y1="-16.6274" x2="12.75" y2="83.0135" gradientUnits="userSpaceOnUse">
<stop offset="0.239531" stop-color="#D5FF5C" stop-opacity="0.8"/>
<stop offset="0.577962" stop-color="#D5FF5C" stop-opacity="0.4"/>
<stop offset="1" stop-opacity="0"/>
</linearGradient>
</defs>
</svg>
