<svg width="43" height="43" viewBox="0 0 43 43" fill="none" xmlns="http://www.w3.org/2000/svg">
<circle cx="21.44" cy="21.5001" r="21.44" fill="#D5FF5C"/>
<path fill-rule="evenodd" clip-rule="evenodd" d="M17.6942 14.0306C14.8519 15.4134 12.8614 18.3888 12.8614 21.8841C12.8614 26.7228 16.6764 30.5652 21.2847 30.5652C25.893 30.5652 29.708 26.7228 29.708 21.8841C29.708 18.1359 27.419 14.9856 24.2453 13.7559C23.3102 13.4732 22.3487 13.3126 21.3717 13.3126C20.1123 13.3126 18.8787 13.5795 17.6942 14.0306ZM11.6984 17.9749C10.5725 19.0224 9.63813 20.0682 8.95237 20.9008C8.62021 21.3041 8.4447 21.5214 8.33721 21.7016C8.25616 21.8375 8.24792 21.8967 8.24792 21.9652C8.24792 22.0336 8.25616 22.0928 8.33721 22.2287C8.44471 22.4089 8.62021 22.6262 8.95237 23.0295C9.65924 23.8877 10.6303 24.9725 11.8029 26.0521C11.2671 24.7732 10.9704 23.3641 10.9704 21.8841C10.9704 20.5032 11.2287 19.1842 11.6984 17.9749ZM30.6531 26.3128C31.9549 25.1487 33.0271 23.9568 33.791 23.0295C34.1231 22.6262 34.2986 22.4089 34.4061 22.2287C34.4872 22.0928 34.4954 22.0336 34.4954 21.9652C34.4954 21.8967 34.4872 21.8375 34.4061 21.7016C34.2986 21.5214 34.1231 21.3041 33.791 20.9008C33.0499 20.0011 32.0185 18.8523 30.7688 17.7216C31.3031 18.999 31.599 20.4061 31.599 21.8841C31.599 23.4654 31.2602 24.9657 30.6531 26.3128ZM21.3717 11.2498C18.1364 11.2498 15.1952 12.6739 12.8206 14.3823C10.4378 16.0967 8.53685 18.1606 7.36008 19.5894C7.32534 19.6315 7.29032 19.6738 7.25519 19.7161L7.25506 19.7163C6.73217 20.3467 6.18506 21.0064 6.18506 21.9652C6.18506 22.9239 6.73218 23.5836 7.25507 24.214L7.25564 24.2147C7.29062 24.2569 7.32549 24.299 7.36008 24.3409C8.53685 25.7697 10.4378 27.8337 12.8206 29.548C15.1952 31.2564 18.1364 32.6805 21.3717 32.6805C24.6069 32.6805 27.5481 31.2564 29.9228 29.548C32.3055 27.8336 34.2065 25.7697 35.3832 24.3409C35.418 24.2987 35.4531 24.2564 35.4883 24.214C36.0111 23.5836 36.5583 22.9239 36.5583 21.9652C36.5583 21.0064 36.0111 20.3467 35.4883 19.7163C35.4531 19.6739 35.418 19.6316 35.3832 19.5894C34.2065 18.1606 32.3055 16.0967 29.9228 14.3823C27.5481 12.6739 24.6069 11.2498 21.3717 11.2498ZM26.1847 21.884C26.1847 24.5898 23.9912 26.7833 21.2854 26.7833C18.5796 26.7833 16.3861 24.5898 16.3861 21.884C16.3861 19.1782 18.5796 16.9848 21.2854 16.9848C23.9912 16.9848 26.1847 19.1782 26.1847 21.884ZM28.0757 21.884C28.0757 25.6342 25.0356 28.6743 21.2854 28.6743C17.5353 28.6743 14.4952 25.6342 14.4952 21.884C14.4952 18.1339 17.5353 15.0938 21.2854 15.0938C25.0356 15.0938 28.0757 18.1339 28.0757 21.884ZM22.4033 21.884C22.4033 22.5011 21.903 23.0014 21.2859 23.0014C20.6688 23.0014 20.1685 22.5011 20.1685 21.884C20.1685 21.2669 20.6688 20.7667 21.2859 20.7667C21.903 20.7667 22.4033 21.2669 22.4033 21.884ZM24.2943 21.884C24.2943 23.5455 22.9474 24.8924 21.2859 24.8924C19.6245 24.8924 18.2776 23.5455 18.2776 21.884C18.2776 20.2226 19.6245 18.8757 21.2859 18.8757C22.9474 18.8757 24.2943 20.2226 24.2943 21.884Z" fill="black"/>
</svg>
