<svg width="248" height="64" viewBox="0 0 248 64" fill="none" xmlns="http://www.w3.org/2000/svg">
<mask id="mask0_4171_6449" style="mask-type:alpha" maskUnits="userSpaceOnUse" x="0" y="-1" width="248" height="65">
<rect y="-1" width="248" height="65" fill="#D9D9D9"/>
</mask>
<g mask="url(#mask0_4171_6449)">
<path opacity="0.3" d="M104.27 -98.0312C66.4781 -96.3956 31.4359 -72.8242 17.0096 -35.2653C1.93163 3.99001 13.812 46.9705 43.5725 73.2795" stroke="white" stroke-width="0.834148" stroke-dasharray="1.67 1.67"/>
<g filter="url(#filter0_f_4171_6449)">
<ellipse cx="37.3059" cy="22.9574" rx="37.3059" ry="22.9574" transform="matrix(-0.999029 0.0440462 0.0440462 0.999029 144.595 30.4685)" fill="#C9C9C9" fill-opacity="0.06"/>
</g>
<g filter="url(#filter1_f_4171_6449)">
<path d="M41.0869 37.7771L41.7143 43.0338L46.3369 43.7473L41.7143 44.4607L41.0869 49.7174L40.4595 44.4607L35.8369 43.7473L40.4595 43.0338L41.0869 37.7771Z" fill="#C0B6B6"/>
</g>
<path d="M41.1055 37.6865L41.3129 39.4247C41.5612 41.5046 43.1648 43.1643 45.2349 43.4837L46.3555 43.6567L45.2349 43.8296C43.1648 44.1491 41.5612 45.8088 41.3129 47.8887L41.1055 49.6269L40.898 47.8887C40.6498 45.8088 39.0462 44.1491 36.9761 43.8296L35.8555 43.6567L36.9761 43.4837C39.0462 43.1643 40.6498 41.5046 40.898 39.4247L41.1055 37.6865Z" fill="white"/>
<ellipse cx="64.2206" cy="9.57457" rx="1.31627" ry="1.31627" fill="white"/>
<g filter="url(#filter2_f_4171_6449)">
<path d="M164.769 1.61157L165.23 5.46796L168.621 5.99135L165.23 6.51473L164.769 10.3711L164.309 6.51473L160.918 5.99135L164.309 5.46796L164.769 1.61157Z" fill="#999999"/>
</g>
<path d="M164.769 1.61157L165.061 4.05396C165.161 4.8898 165.805 5.55677 166.637 5.68517L168.621 5.99135L166.637 6.29753C165.805 6.42592 165.161 7.09289 165.061 7.92873L164.769 10.3711L164.478 7.92873C164.378 7.09289 163.734 6.42592 162.902 6.29752L160.918 5.99135L162.902 5.68517C163.734 5.55677 164.378 4.8898 164.478 4.05396L164.769 1.61157Z" fill="white"/>
<path d="M34.9155 9.65991L34.9155 6.5007" stroke="white" stroke-width="0.245572"/>
<path d="M34.9155 2.87378L34.9155 -0.28543" stroke="white" stroke-width="0.245572"/>
<path d="M39.8892 4.68555L36.7299 4.68555" stroke="white" stroke-width="0.245572"/>
<path d="M33.1035 4.6853L29.9443 4.6853" stroke="white" stroke-width="0.245572"/>
<g filter="url(#filter3_f_4171_6449)">
<ellipse cx="101.087" cy="56.0297" rx="30.3778" ry="18.694" fill="#BFFF00" fill-opacity="0.06"/>
</g>
<path d="M102.123 30.4949C90.9906 30.495 81.4784 34.6453 77.667 40.5007L75.9619 40.5037L75.9619 44.99C75.9112 45.3887 75.8857 45.7915 75.8857 46.198C75.8857 54.8703 87.6324 61.901 102.123 61.9011C116.614 61.9011 128.361 54.8704 128.361 46.198C128.361 45.6693 128.317 45.1469 128.231 44.6316L128.231 40.4187L126.528 40.4207C122.683 34.6072 113.205 30.4949 102.123 30.4949Z" fill="url(#paint0_linear_4171_6449)"/>
<path d="M102.123 30.4949L102.123 30.1904L102.123 30.1904L102.123 30.4949ZM77.667 40.5007L77.9222 40.6668L77.8323 40.805L77.6675 40.8052L77.667 40.5007ZM75.9619 40.5037L75.6574 40.5037L75.6574 40.1997L75.9614 40.1991L75.9619 40.5037ZM75.9619 44.99L76.2664 44.99L76.2664 45.0093L76.264 45.0284L75.9619 44.99ZM75.8857 46.198L75.5812 46.198L75.8857 46.198ZM102.123 61.9011L102.123 62.2056L102.123 62.2056L102.123 61.9011ZM128.361 46.198L128.666 46.198L128.361 46.198ZM128.231 44.6316L127.931 44.6813L127.927 44.6566L127.927 44.6316L128.231 44.6316ZM128.231 40.4187L128.231 40.1142L128.536 40.1138L128.536 40.4187L128.231 40.4187ZM126.528 40.4207L126.529 40.7252L126.365 40.7254L126.274 40.5887L126.528 40.4207ZM102.123 30.4949L102.123 30.7994C91.0422 30.7995 81.6542 34.9334 77.9222 40.6668L77.667 40.5007L77.4118 40.3346C81.3026 34.3571 90.9391 30.1905 102.123 30.1904L102.123 30.4949ZM77.667 40.5007L77.6675 40.8052L75.9624 40.8082L75.9619 40.5037L75.9614 40.1991L77.6665 40.1962L77.667 40.5007ZM75.9619 40.5037L76.2664 40.5037L76.2664 44.99L75.9619 44.99L75.6574 44.99L75.6574 40.5037L75.9619 40.5037ZM75.9619 44.99L76.264 45.0284C76.2149 45.4143 76.1902 45.8043 76.1902 46.198L75.8857 46.198L75.5812 46.198C75.5812 45.7788 75.6075 45.3631 75.6598 44.9516L75.9619 44.99ZM75.8857 46.198L76.1902 46.198C76.1902 50.3848 79.0274 54.2277 83.7268 57.0403C88.42 59.8493 94.9233 61.5965 102.123 61.5966L102.123 61.9011L102.123 62.2056C94.8322 62.2056 88.2168 60.4374 83.414 57.5629C78.6174 54.6921 75.5812 50.6835 75.5812 46.198L75.8857 46.198ZM102.123 61.9011L102.123 61.5966C109.323 61.5966 115.826 59.8494 120.52 57.0404C125.219 54.2278 128.057 50.3848 128.057 46.198L128.361 46.198L128.666 46.198C128.666 50.6836 125.629 54.6922 120.833 57.563C116.03 60.4375 109.414 62.2056 102.123 62.2056L102.123 61.9011ZM128.361 46.198L128.057 46.198C128.057 45.6865 128.014 45.1807 127.931 44.6813L128.231 44.6316L128.532 44.5819C128.62 45.113 128.666 45.6521 128.666 46.198L128.361 46.198ZM128.231 44.6316L127.927 44.6316L127.927 40.4187L128.231 40.4187L128.536 40.4187L128.536 44.6316L128.231 44.6316ZM128.231 40.4187L128.232 40.7232L126.529 40.7252L126.528 40.4207L126.528 40.1161L128.231 40.1142L128.231 40.4187ZM126.528 40.4207L126.274 40.5887C122.508 34.8953 113.153 30.7994 102.123 30.7994L102.123 30.4949L102.123 30.1904C113.257 30.1904 122.857 34.319 126.782 40.2527L126.528 40.4207Z" fill="white"/>
<ellipse cx="26.1878" cy="15.6822" rx="26.1878" ry="15.6822" transform="matrix(-1 -8.08413e-08 -9.454e-08 1 128.26 24.5452)" fill="url(#paint1_linear_4171_6449)" stroke="white" stroke-width="0.913527"/>
<mask id="mask1_4171_6449" style="mask-type:alpha" maskUnits="userSpaceOnUse" x="75" y="24" width="54" height="33">
<ellipse cx="26.2379" cy="15.7027" rx="26.2379" ry="15.7027" transform="matrix(-1 -8.08413e-08 -9.454e-08 1 128.389 24.5449)" fill="url(#paint2_linear_4171_6449)" stroke="white" stroke-width="0.609018"/>
</mask>
<g mask="url(#mask1_4171_6449)">
<ellipse cx="17.7199" cy="17.9749" rx="17.7199" ry="17.9749" transform="matrix(0.850711 0.525634 -0.874538 0.484956 102.916 21.6653)" fill="url(#paint3_linear_4171_6449)" stroke="white" stroke-width="0.913527"/>
<g style="mix-blend-mode:hard-light">
<path fill-rule="evenodd" clip-rule="evenodd" d="M98.5424 33.9822C97.0476 33.959 95.6864 34.0135 94.643 34.0805C94.1379 34.113 93.8681 34.132 93.6706 34.1632C93.5218 34.1867 93.4756 34.2081 93.4288 34.2366C93.3821 34.2651 93.3473 34.2932 93.3105 34.383C93.2616 34.502 93.2344 34.6643 93.1885 34.9681C93.0905 35.615 93.0204 36.4645 93.0934 37.3943C93.597 36.6417 94.355 35.9326 95.3669 35.3151C96.3108 34.7391 97.391 34.2945 98.5424 33.9822ZM105.946 45.2009C107.641 45.2471 109.196 45.1881 110.357 45.1135C110.862 45.081 111.132 45.0621 111.329 45.0308C111.478 45.0073 111.524 44.9859 111.571 44.9574C111.618 44.9289 111.653 44.9008 111.689 44.811C111.738 44.692 111.765 44.5297 111.811 44.2259C111.914 43.5484 111.986 42.6486 111.895 41.6673C111.392 42.4177 110.635 43.1249 109.625 43.7409C108.545 44.4 107.286 44.8872 105.946 45.2009ZM109.822 35.129C107.586 33.8076 104.58 33.2 101.771 32.9425C98.9526 32.6841 96.2283 32.7682 94.4386 32.8833C94.3857 32.8867 94.3326 32.89 94.2793 32.8934C93.4871 32.9427 92.6581 32.9943 92.003 33.394C91.3478 33.7938 91.2752 34.2923 91.2058 34.7688L91.2058 34.7692C91.2011 34.8011 91.1965 34.8329 91.1917 34.8646C91.0288 35.941 90.9323 37.578 91.4078 39.2661C91.8817 40.9484 92.9415 42.7436 95.1777 44.065C97.4139 45.3865 100.42 45.994 103.229 46.2515C106.047 46.5099 108.772 46.4258 110.561 46.3107C110.614 46.3073 110.666 46.304 110.719 46.3007L110.721 46.3007C111.513 46.2513 112.342 46.1998 112.997 45.8C113.652 45.4002 113.725 44.9017 113.794 44.4252C113.799 44.3932 113.803 44.3612 113.808 44.3294C113.971 43.253 114.068 41.616 113.592 39.9279C113.118 38.2456 112.058 36.4505 109.822 35.129ZM96.6814 43.0761C99.7983 44.918 104.955 44.878 108.2 42.8983C111.444 40.9186 111.428 37.8217 108.311 35.9799C105.194 34.138 100.037 34.178 96.7928 36.1577C93.5484 38.1374 93.5645 41.2342 96.6814 43.0761ZM105.646 41.4594C103.894 42.5282 101.038 42.5459 99.2659 41.4989C97.4941 40.4519 97.4778 38.7367 99.2294 37.6679C100.981 36.599 103.837 36.5813 105.609 37.6283C107.381 38.6753 107.397 40.3906 105.646 41.4594ZM107.071 42.302C104.541 43.8459 100.416 43.8714 97.8563 42.3591C95.297 40.8467 95.2734 38.3692 97.8035 36.8253C100.334 35.2814 104.459 35.2558 107.019 36.7682C109.578 38.2805 109.602 40.7581 107.071 42.302ZM102.911 39.8451C102.652 40.0034 102.229 40.006 101.966 39.8509C101.704 39.6958 101.701 39.4417 101.961 39.2834C102.22 39.125 102.644 39.1224 102.906 39.2775C103.168 39.4326 103.171 39.6867 102.911 39.8451ZM104.337 40.6876C103.299 41.321 101.607 41.3315 100.557 40.7111C99.5067 40.0906 99.497 39.0742 100.535 38.4408C101.573 37.8074 103.266 37.7969 104.316 38.4174C105.366 39.0378 105.375 40.0542 104.337 40.6876Z" fill="#D4F968"/>
</g>
</g>
<path d="M102.123 24.7085C90.9905 24.7086 81.4783 28.8587 77.667 34.7144L75.9619 34.7173L75.9619 39.2026C75.9112 39.6015 75.8857 40.0049 75.8857 40.4116C75.886 49.0838 87.6326 56.1136 102.123 56.1138C116.614 56.1138 128.361 49.0839 128.361 40.4116C128.361 39.8827 128.317 39.3597 128.231 38.8442L128.231 34.6323L126.528 34.6343C122.683 28.8207 113.205 24.7085 102.123 24.7085Z" fill="url(#paint4_linear_4171_6449)"/>
<path d="M102.123 24.7085L102.123 24.404L102.123 24.404L102.123 24.7085ZM77.667 34.7144L77.9222 34.8805L77.8323 35.0186L77.6675 35.0189L77.667 34.7144ZM75.9619 34.7173L75.6574 34.7173L75.6574 34.4133L75.9614 34.4128L75.9619 34.7173ZM75.9619 39.2026L76.2664 39.2026L76.2664 39.2219L76.264 39.2411L75.9619 39.2026ZM75.8857 40.4116L75.5812 40.4116L75.5812 40.4116L75.8857 40.4116ZM102.123 56.1138L102.123 56.4183L102.123 56.4183L102.123 56.1138ZM128.361 40.4116L128.666 40.4116L128.666 40.4116L128.361 40.4116ZM128.231 38.8442L127.931 38.894L127.927 38.8693L127.927 38.8442L128.231 38.8442ZM128.231 34.6323L128.231 34.3278L128.536 34.3275L128.536 34.6323L128.231 34.6323ZM126.528 34.6343L126.529 34.9388L126.365 34.939L126.274 34.8023L126.528 34.6343ZM102.123 24.7085L102.123 25.013C91.042 25.0131 81.6541 29.1469 77.9222 34.8805L77.667 34.7144L77.4118 34.5482C81.3025 28.5706 90.939 24.4041 102.123 24.404L102.123 24.7085ZM77.667 34.7144L77.6675 35.0189L75.9624 35.0218L75.9619 34.7173L75.9614 34.4128L77.6665 34.4098L77.667 34.7144ZM75.9619 34.7173L76.2664 34.7173L76.2664 39.2026L75.9619 39.2026L75.6574 39.2026L75.6574 34.7173L75.9619 34.7173ZM75.9619 39.2026L76.264 39.2411C76.2149 39.6271 76.1902 40.0177 76.1902 40.4116L75.8857 40.4116L75.5812 40.4116C75.5812 39.9922 75.6075 39.576 75.6598 39.1642L75.9619 39.2026ZM75.8857 40.4116L76.1902 40.4116C76.1904 44.5983 79.0276 48.441 83.727 51.2534C88.4202 54.0621 94.9234 55.8092 102.123 55.8093L102.123 56.1138L102.123 56.4183C94.8323 56.4182 88.217 54.6503 83.4142 51.776C78.6176 48.9054 75.5814 44.8971 75.5812 40.4116L75.8857 40.4116ZM102.123 56.1138L102.123 55.8093C109.323 55.8093 115.826 54.0622 120.52 51.2535C125.219 48.4411 128.057 44.5984 128.057 40.4116L128.361 40.4116L128.666 40.4116C128.666 44.8971 125.629 48.9055 120.832 51.7761C116.029 54.6504 109.414 56.4183 102.123 56.4183L102.123 56.1138ZM128.361 40.4116L128.057 40.4116C128.057 39.8999 128.014 39.3935 127.931 38.894L128.231 38.8442L128.532 38.7945C128.62 39.3259 128.666 39.8656 128.666 40.4116L128.361 40.4116ZM128.231 38.8442L127.927 38.8442L127.927 34.6323L128.231 34.6323L128.536 34.6323L128.536 38.8442L128.231 38.8442ZM128.231 34.6323L128.232 34.9368L126.529 34.9388L126.528 34.6343L126.528 34.3298L128.231 34.3278L128.231 34.6323ZM126.528 34.6343L126.274 34.8023C122.508 29.1088 113.154 25.013 102.123 25.013L102.123 24.7085L102.123 24.404C113.257 24.404 122.857 28.5325 126.782 34.4663L126.528 34.6343Z" fill="white"/>
<ellipse cx="26.1878" cy="15.6822" rx="26.1878" ry="15.6822" transform="matrix(-1 -8.08413e-08 -9.454e-08 1 128.261 18.76)" fill="url(#paint5_linear_4171_6449)" stroke="white" stroke-width="0.913527"/>
<mask id="mask2_4171_6449" style="mask-type:alpha" maskUnits="userSpaceOnUse" x="75" y="18" width="54" height="33">
<ellipse cx="26.2379" cy="15.7027" rx="26.2379" ry="15.7027" transform="matrix(-1 -8.08413e-08 -9.454e-08 1 128.389 18.76)" fill="url(#paint6_linear_4171_6449)" stroke="white" stroke-width="0.609018"/>
</mask>
<g mask="url(#mask2_4171_6449)">
<ellipse cx="17.7199" cy="17.9749" rx="17.7199" ry="17.9749" transform="matrix(0.850711 0.525634 -0.874538 0.484956 102.916 15.8811)" fill="url(#paint7_linear_4171_6449)" stroke="white" stroke-width="0.913527"/>
<g style="mix-blend-mode:hard-light">
<path fill-rule="evenodd" clip-rule="evenodd" d="M98.5429 28.1973C97.0481 28.1741 95.6869 28.2285 94.6435 28.2956C94.1383 28.3281 93.8686 28.347 93.6711 28.3783C93.5223 28.4018 93.4761 28.4232 93.4293 28.4517C93.3826 28.4802 93.3478 28.5083 93.3109 28.598C93.2621 28.7171 93.2349 28.8794 93.1889 29.1832C93.091 29.8301 93.0209 30.6796 93.0939 31.6094C93.5975 30.8568 94.3555 30.1477 95.3674 29.5302C96.3113 28.9542 97.3915 28.5096 98.5429 28.1973ZM105.947 39.416C107.641 39.4622 109.196 39.4032 110.357 39.3285C110.863 39.2961 111.132 39.2771 111.33 39.2459C111.479 39.2224 111.525 39.201 111.572 39.1725C111.618 39.144 111.653 39.1159 111.69 39.0261C111.739 38.9071 111.766 38.7448 111.812 38.441C111.914 37.7634 111.987 36.8637 111.896 35.8823C111.392 36.6328 110.635 37.34 109.626 37.9559C108.546 38.6151 107.287 39.1023 105.947 39.416ZM109.823 29.3441C107.586 28.0226 104.58 27.4151 101.772 27.1576C98.9531 26.8992 96.2288 26.9833 94.4391 27.0984C94.3862 27.1018 94.3331 27.1051 94.2798 27.1084C93.4876 27.1577 92.6586 27.2093 92.0035 27.6091C91.3483 28.0089 91.2757 28.5074 91.2063 28.9839L91.2062 28.9843C91.2016 29.0162 91.197 29.048 91.1922 29.0797C91.0293 30.1561 90.9328 31.7931 91.4083 33.4812C91.8822 35.1635 92.942 36.9586 95.1782 38.2801C97.4144 39.6015 100.421 40.209 103.229 40.4666C106.048 40.725 108.772 40.6409 110.562 40.5258C110.614 40.5224 110.667 40.5191 110.72 40.5158L110.721 40.5157C111.513 40.4664 112.342 40.4148 112.997 40.0151C113.653 39.6153 113.725 39.1168 113.795 38.6403C113.799 38.6083 113.804 38.5763 113.809 38.5445C113.972 37.4681 114.068 35.831 113.593 34.143C113.119 32.4607 112.059 30.6655 109.823 29.3441ZM96.6819 37.2912C99.7988 39.1331 104.956 39.0931 108.2 37.1134C111.444 35.1337 111.428 32.0368 108.311 30.195C105.194 28.3531 100.038 28.3931 96.7933 30.3728C93.5489 32.3525 93.565 35.4493 96.6819 37.2912ZM105.646 35.6745C103.894 36.7433 101.038 36.761 99.2664 35.714C97.4946 34.667 97.4782 32.9518 99.2299 31.8829C100.982 30.8141 103.838 30.7964 105.61 31.8434C107.381 32.8904 107.398 34.6056 105.646 35.6745ZM107.072 36.5171C104.542 38.061 100.416 38.0865 97.8568 36.5742C95.2975 35.0618 95.2739 32.5843 97.804 31.0404C100.334 29.4965 104.46 29.4709 107.019 30.9832C109.579 32.4956 109.602 34.9732 107.072 36.5171ZM102.912 34.0602C102.652 34.2185 102.229 34.2211 101.967 34.066C101.704 33.9109 101.702 33.6568 101.961 33.4985C102.221 33.3401 102.644 33.3375 102.906 33.4926C103.169 33.6477 103.171 33.9018 102.912 34.0602ZM104.338 34.9027C103.3 35.5361 101.607 35.5466 100.557 34.9262C99.5072 34.3057 99.4975 33.2893 100.536 32.6559C101.574 32.0225 103.266 32.012 104.316 32.6324C105.366 33.2529 105.376 34.2693 104.338 34.9027Z" fill="#D4F968"/>
</g>
</g>
<path d="M102.123 18.9236C90.9897 18.9237 81.4768 23.0742 77.666 28.9304L75.9619 28.9333L75.9619 33.4177C75.9112 33.8166 75.8857 34.2201 75.8857 34.6267C75.8861 43.2988 87.6327 50.3287 102.123 50.3289C116.614 50.3289 128.361 43.2989 128.361 34.6267C128.361 34.0978 128.317 33.5748 128.231 33.0593L128.231 28.8484L126.529 28.8503C122.684 23.0361 113.206 18.9236 102.123 18.9236Z" fill="url(#paint8_linear_4171_6449)"/>
<path d="M102.123 18.9236L102.123 18.6191L102.123 18.6191L102.123 18.9236ZM77.666 28.9304L77.9212 29.0965L77.8314 29.2346L77.6665 29.2349L77.666 28.9304ZM75.9619 28.9333L75.6574 28.9333L75.6574 28.6294L75.9614 28.6288L75.9619 28.9333ZM75.9619 33.4177L76.2664 33.4177L76.2664 33.437L76.264 33.4561L75.9619 33.4177ZM75.8857 34.6267L75.5812 34.6267L75.5812 34.6267L75.8857 34.6267ZM102.123 50.3289L102.123 50.6334L102.123 50.6334L102.123 50.3289ZM128.361 34.6267L128.666 34.6267L128.666 34.6267L128.361 34.6267ZM128.231 33.0593L127.931 33.1091L127.927 33.0844L127.927 33.0593L128.231 33.0593ZM128.231 28.8484L128.231 28.5439L128.536 28.5435L128.536 28.8484L128.231 28.8484ZM126.529 28.8503L126.53 29.1549L126.366 29.155L126.275 29.0183L126.529 28.8503ZM102.123 18.9236L102.123 19.2281C91.0413 19.2282 81.6526 23.3623 77.9212 29.0965L77.666 28.9304L77.4108 28.7643C81.301 22.786 90.9382 18.6192 102.123 18.6191L102.123 18.9236ZM77.666 28.9304L77.6665 29.2349L75.9624 29.2379L75.9619 28.9333L75.9614 28.6288L77.6655 28.6259L77.666 28.9304ZM75.9619 28.9333L76.2664 28.9333L76.2664 33.4177L75.9619 33.4177L75.6574 33.4177L75.6574 28.9333L75.9619 28.9333ZM75.9619 33.4177L76.264 33.4561C76.2149 33.8421 76.1902 34.2328 76.1902 34.6267L75.8857 34.6267L75.5812 34.6267C75.5812 34.2073 75.6075 33.791 75.6598 33.3793L75.9619 33.4177ZM75.8857 34.6267L76.1902 34.6267C76.1904 38.8134 79.0277 42.6561 83.727 45.4685C88.4202 48.2772 94.9234 50.0243 102.123 50.0243L102.123 50.3289L102.123 50.6334C94.8323 50.6333 88.217 48.8654 83.4143 45.9911C78.6177 43.1205 75.5814 39.1121 75.5812 34.6267L75.8857 34.6267ZM102.123 50.3289L102.123 50.0243C109.323 50.0243 115.826 48.2773 120.52 45.4686C125.219 42.6561 128.057 38.8134 128.057 34.6267L128.361 34.6267L128.666 34.6267C128.666 39.1122 125.629 43.1205 120.832 45.9911C116.029 48.8655 109.414 50.6334 102.123 50.6334L102.123 50.3289ZM128.361 34.6267L128.057 34.6267C128.057 34.115 128.014 33.6086 127.931 33.1091L128.231 33.0593L128.532 33.0096C128.62 33.541 128.666 34.0807 128.666 34.6267L128.361 34.6267ZM128.231 33.0593L127.927 33.0593L127.927 28.8484L128.231 28.8484L128.536 28.8484L128.536 33.0593L128.231 33.0593ZM128.231 28.8484L128.232 29.1529L126.53 29.1549L126.529 28.8503L126.529 28.5458L128.231 28.5439L128.231 28.8484ZM126.529 28.8503L126.275 29.0183C122.51 23.3243 113.154 19.2281 102.123 19.2281L102.123 18.9236L102.123 18.6191C113.258 18.6191 122.859 22.7479 126.783 28.6824L126.529 28.8503Z" fill="white"/>
<ellipse cx="26.1878" cy="15.6822" rx="26.1878" ry="15.6822" transform="matrix(-1 -8.08413e-08 -9.454e-08 1 128.261 12.9744)" fill="url(#paint9_linear_4171_6449)" stroke="white" stroke-width="0.609018"/>
<mask id="mask3_4171_6449" style="mask-type:alpha" maskUnits="userSpaceOnUse" x="75" y="12" width="54" height="33">
<ellipse cx="26.2379" cy="15.7027" rx="26.2379" ry="15.7027" transform="matrix(-1 -8.08413e-08 -9.454e-08 1 128.389 12.9741)" fill="url(#paint10_linear_4171_6449)" stroke="white" stroke-width="0.609018"/>
</mask>
<g mask="url(#mask3_4171_6449)">
<ellipse cx="16.9304" cy="17.2037" rx="16.9304" ry="17.2037" transform="matrix(0.860543 0.509378 -0.88312 0.469148 102.774 10.6736)" fill="url(#paint11_linear_4171_6449)" stroke="white" stroke-width="0.609018"/>
<g style="mix-blend-mode:hard-light">
<path fill-rule="evenodd" clip-rule="evenodd" d="M98.2397 21.802C96.7449 21.7788 95.3837 21.8333 94.3403 21.9004C93.8351 21.9329 93.5653 21.9518 93.3679 21.983C93.219 22.0066 93.1728 22.0279 93.1261 22.0564C93.0793 22.085 93.0445 22.113 93.0077 22.2028C92.9589 22.3218 92.9317 22.4841 92.8857 22.7879C92.7878 23.4349 92.7177 24.2844 92.7907 25.2141C93.2943 24.4615 94.0523 23.7524 95.0642 23.1349C96.0081 22.559 97.0883 22.1144 98.2397 21.802ZM105.644 33.0207C107.338 33.067 108.893 33.008 110.054 32.9333C110.559 32.9008 110.829 32.8819 111.027 32.8506C111.175 32.8271 111.222 32.8058 111.268 32.7772C111.315 32.7487 111.35 32.7206 111.387 32.6309C111.436 32.5118 111.463 32.3495 111.509 32.0457C111.611 31.3682 111.683 30.4685 111.592 29.4871C111.089 30.2376 110.332 30.9447 109.323 31.5607C108.242 32.2199 106.983 32.707 105.644 33.0207ZM109.519 22.9488C107.283 21.6274 104.277 21.0199 101.468 20.7623C98.6499 20.5039 95.9256 20.5881 94.1359 20.7032C94.083 20.7066 94.0299 20.7099 93.9766 20.7132C93.1843 20.7625 92.3554 20.8141 91.7002 21.2139C91.0451 21.6136 90.9725 22.1122 90.9031 22.5886L90.903 22.589C90.8984 22.6209 90.8937 22.6528 90.8889 22.6844C90.726 23.7608 90.6296 25.3979 91.1051 27.0859C91.579 28.7682 92.6388 30.5634 94.875 31.8848C97.1112 33.2063 100.117 33.8138 102.926 34.0713C105.745 34.3298 108.469 34.2456 110.259 34.1305C110.311 34.1271 110.364 34.1239 110.417 34.1206L110.418 34.1205C111.21 34.0712 112.039 34.0196 112.694 33.6198C113.349 33.22 113.422 32.7215 113.491 32.245C113.496 32.213 113.501 32.181 113.505 32.1492C113.668 31.0728 113.765 29.4358 113.289 27.7477C112.815 26.0654 111.756 24.2703 109.519 22.9488ZM96.3787 30.8959C99.4956 32.7378 104.652 32.6978 107.897 30.7181C111.141 28.7384 111.125 25.6416 108.008 23.7997C104.891 21.9578 99.7344 21.9978 96.49 23.9775C93.2456 25.9572 93.2618 29.054 96.3787 30.8959ZM105.343 29.2792C103.591 30.3481 100.735 30.3658 98.9632 29.3188C97.1914 28.2718 97.175 26.5565 98.9267 25.4877C100.678 24.4188 103.535 24.4011 105.306 25.4481C107.078 26.4951 107.095 28.2104 105.343 29.2792ZM106.769 30.1218C104.239 31.6657 100.113 31.6913 97.5535 30.1789C94.9943 28.6666 94.9707 26.189 97.5008 24.6451C100.031 23.1012 104.157 23.0756 106.716 24.588C109.275 26.1003 109.299 28.5779 106.769 30.1218ZM102.609 27.6649C102.349 27.8232 101.926 27.8259 101.664 27.6707C101.401 27.5156 101.399 27.2615 101.658 27.1032C101.918 26.9448 102.341 26.9422 102.603 27.0973C102.866 27.2524 102.868 27.5065 102.609 27.6649ZM104.035 28.5075C102.997 29.1409 101.304 29.1513 100.254 28.5309C99.204 27.9104 99.1943 26.894 100.232 26.2606C101.27 25.6272 102.963 25.6167 104.013 26.2372C105.063 26.8576 105.073 27.8741 104.035 28.5075Z" fill="#D4F968"/>
</g>
</g>
</g>
<defs>
<filter id="filter0_f_4171_6449" x="62.6902" y="23.6889" width="91.2935" height="62.7159" filterUnits="userSpaceOnUse" color-interpolation-filters="sRGB">
<feFlood flood-opacity="0" result="BackgroundImageFix"/>
<feBlend mode="normal" in="SourceGraphic" in2="BackgroundImageFix" result="shape"/>
<feGaussianBlur stdDeviation="4.18153" result="effect1_foregroundBlur_4171_6449"/>
</filter>
<filter id="filter1_f_4171_6449" x="33.348" y="35.2882" width="15.4778" height="16.9182" filterUnits="userSpaceOnUse" color-interpolation-filters="sRGB">
<feFlood flood-opacity="0" result="BackgroundImageFix"/>
<feBlend mode="normal" in="SourceGraphic" in2="BackgroundImageFix" result="shape"/>
<feGaussianBlur stdDeviation="1.24445" result="effect1_foregroundBlur_4171_6449"/>
</filter>
<filter id="filter2_f_4171_6449" x="158.937" y="-0.368962" width="11.6642" height="12.7206" filterUnits="userSpaceOnUse" color-interpolation-filters="sRGB">
<feFlood flood-opacity="0" result="BackgroundImageFix"/>
<feBlend mode="normal" in="SourceGraphic" in2="BackgroundImageFix" result="shape"/>
<feGaussianBlur stdDeviation="0.990267" result="effect1_foregroundBlur_4171_6449"/>
</filter>
<filter id="filter3_f_4171_6449" x="63.899" y="30.5257" width="74.3753" height="51.0078" filterUnits="userSpaceOnUse" color-interpolation-filters="sRGB">
<feFlood flood-opacity="0" result="BackgroundImageFix"/>
<feBlend mode="normal" in="SourceGraphic" in2="BackgroundImageFix" result="shape"/>
<feGaussianBlur stdDeviation="3.40498" result="effect1_foregroundBlur_4171_6449"/>
</filter>
<linearGradient id="paint0_linear_4171_6449" x1="128.361" y1="61.9011" x2="64.6364" y2="42.7956" gradientUnits="userSpaceOnUse">
<stop stop-color="#0D0D11"/>
<stop offset="1" stop-color="#536C34"/>
</linearGradient>
<linearGradient id="paint1_linear_4171_6449" x1="0" y1="31.3644" x2="63.6095" y2="12.3045" gradientUnits="userSpaceOnUse">
<stop stop-color="#0D0D11"/>
<stop offset="1" stop-color="#536C34"/>
</linearGradient>
<linearGradient id="paint2_linear_4171_6449" x1="0" y1="31.4055" x2="63.7249" y2="12.2994" gradientUnits="userSpaceOnUse">
<stop stop-color="#0D0D11"/>
<stop offset="1" stop-color="#536C34"/>
</linearGradient>
<linearGradient id="paint3_linear_4171_6449" x1="0" y1="35.9498" x2="45.4826" y2="27.9044" gradientUnits="userSpaceOnUse">
<stop stop-color="#0D0D11"/>
<stop offset="1" stop-color="#536C34"/>
</linearGradient>
<linearGradient id="paint4_linear_4171_6449" x1="128.361" y1="56.1138" x2="64.6368" y2="37.0077" gradientUnits="userSpaceOnUse">
<stop stop-color="#0D0D11"/>
<stop offset="1" stop-color="#536C34"/>
</linearGradient>
<linearGradient id="paint5_linear_4171_6449" x1="0" y1="31.3644" x2="63.6095" y2="12.3045" gradientUnits="userSpaceOnUse">
<stop stop-color="#0D0D11"/>
<stop offset="1" stop-color="#536C34"/>
</linearGradient>
<linearGradient id="paint6_linear_4171_6449" x1="0" y1="31.4055" x2="63.7249" y2="12.2994" gradientUnits="userSpaceOnUse">
<stop stop-color="#0D0D11"/>
<stop offset="1" stop-color="#536C34"/>
</linearGradient>
<linearGradient id="paint7_linear_4171_6449" x1="0" y1="35.9498" x2="45.4826" y2="27.9044" gradientUnits="userSpaceOnUse">
<stop stop-color="#0D0D11"/>
<stop offset="1" stop-color="#536C34"/>
</linearGradient>
<linearGradient id="paint8_linear_4171_6449" x1="128.361" y1="50.3289" x2="64.6368" y2="31.2228" gradientUnits="userSpaceOnUse">
<stop stop-color="#0D0D11"/>
<stop offset="1" stop-color="#536C34"/>
</linearGradient>
<linearGradient id="paint9_linear_4171_6449" x1="0" y1="31.3644" x2="63.6095" y2="12.3045" gradientUnits="userSpaceOnUse">
<stop stop-color="#0D0D11"/>
<stop offset="1" stop-color="#536C34"/>
</linearGradient>
<linearGradient id="paint10_linear_4171_6449" x1="0" y1="31.4055" x2="63.7249" y2="12.2994" gradientUnits="userSpaceOnUse">
<stop stop-color="#0D0D11"/>
<stop offset="1" stop-color="#536C34"/>
</linearGradient>
<linearGradient id="paint11_linear_4171_6449" x1="0" y1="34.4074" x2="43.4605" y2="26.7329" gradientUnits="userSpaceOnUse">
<stop stop-color="#0D0D11"/>
<stop offset="1" stop-color="#536C34"/>
</linearGradient>
</defs>
</svg>
