<svg width="128" height="128" viewBox="0 0 128 128" xmlns="http://www.w3.org/2000/svg">
    <path fill="#ddfe76" fill-rule="evenodd" d="M0 70.25c0 21.255 0 31.883 4.463 39.852a35 35 0 0 0 13.435 13.435C25.867 128 36.495 128 57.75 128h12.5c21.255 0 31.883 0 39.852-4.463a35 35 0 0 0 13.435-13.435C128 102.133 128 91.505 128 70.25v-12.5c0-21.255 0-31.883-4.463-39.852a35 35 0 0 0-13.435-13.435C102.133 0 91.505 0 70.25 0h-12.5C36.495 0 25.867 0 17.898 4.463A35 35 0 0 0 4.463 17.898C0 25.867 0 36.495 0 57.75Z"/>
    <path fill="#ea5750" fill-rule="evenodd" d="m33.879 35.117-.5 19.165c8.107 4.168 15.75 4.075 24.74 2.063 3.56-1.397 6.056-1.702 9.511 0 9.067 2.816 16.969 1.95 25.185-2.243l-.485-19.187c0-10.805-7.004-14.962-14.632-12.739-.779.232-1.944 1.274-1.944 2.207l-.181 18.733a1.77 1.77 0 1 1-3.538-.015V20.067a8.838 8.838 0 0 0-17.675 0V43.1a1.77 1.77 0 1 1-3.538.015l-.176-18.743c0-.923-1.109-1.96-1.882-2.192-8.8-2.61-14.88 2.538-14.88 12.936Zm2.475 23.843a48.43 48.43 0 0 1-5.209-2.254c-4.73-2.269-12.095-1.562-17.072 4.111-2.274 2.6-.515 6.36 2.77 7.448 1.583.526 3.017 1.413 4.353 2.408l.464.336c4.132 2.965 6.793 7.406 7.056 12.486l.253 4.812a31.616 31.616 0 0 0 19.428 25.959 38.59 38.59 0 0 0 29.327 0 31.616 31.616 0 0 0 19.429-25.959c.046-.825.061-1.65.051-2.465l.124-2.347c.263-5.08 2.924-9.52 7.056-12.486l.464-.336c1.34-.995 2.77-1.882 4.353-2.408 3.285-1.089 5.05-4.849 2.77-7.448-4.978-5.673-12.343-6.375-17.072-4.11-1.718.825-3.435 1.65-5.21 2.253l-3.62 1.238-.01.041c-6.654 1.842-12.12 1.847-18.398-.742-3.177-1.31-6.38-1.558-9.48 0-5.967 1.856-12.048 2.64-18.206.701l-3.626-1.238Zm26.665 44.732c13.39 0 24.241-15.596 24.241-15.596S76.41 72.499 63.02 72.499c-13.385 0-24.236 15.597-24.236 15.597s10.851 15.596 24.24 15.596Zm10.883-15.596c0 6.01-4.872 10.882-10.883 10.882-6.01 0-10.882-4.872-10.882-10.882s4.872-10.883 10.882-10.883 10.883 4.872 10.883 10.883Zm-10.883 4.936a4.936 4.936 0 1 0 0-9.872 4.936 4.936 0 0 0 0 9.872Z"/>
</svg>
