<svg width="24" height="24" viewBox="0 0 24 24" fill="none" xmlns="http://www.w3.org/2000/svg">
<circle cx="12" cy="12" r="12" fill="currentColor"/>
<path d="M12 4C7.58267 4 4 7.582 4 12C4 15.5347 6.292 18.5333 9.47133 19.5913C9.87067 19.6653 10 19.4173 10 19.2067V17.7173C7.77467 18.2013 7.31133 16.7733 7.31133 16.7733C6.94733 15.8487 6.42267 15.6027 6.42267 15.6027C5.69667 15.106 6.478 15.1167 6.478 15.1167C7.28133 15.1727 7.704 15.9413 7.704 15.9413C8.41733 17.164 9.57533 16.8107 10.032 16.606C10.1033 16.0893 10.3107 15.736 10.54 15.5367C8.76333 15.3333 6.89533 14.6473 6.89533 11.5827C6.89533 10.7087 7.208 9.99533 7.71933 9.43533C7.63667 9.23333 7.36267 8.41933 7.79733 7.318C7.79733 7.318 8.46933 7.10333 9.998 8.138C10.636 7.96067 11.32 7.872 12 7.86867C12.68 7.872 13.3647 7.96067 14.004 8.138C15.5313 7.10333 16.202 7.318 16.202 7.318C16.6373 8.42 16.3633 9.234 16.2807 9.43533C16.794 9.99533 17.104 10.7093 17.104 11.5827C17.104 14.6553 15.2327 15.332 13.4513 15.53C13.738 15.778 14 16.2647 14 17.0113V19.2067C14 19.4193 14.128 19.6693 14.534 19.5907C17.7107 18.5313 20 15.5333 20 12C20 7.582 16.418 4 12 4Z" fill="#262626"/>
</svg>
