<svg width="33" height="32" viewBox="0 0 33 32" fill="none" xmlns="http://www.w3.org/2000/svg">
<path d="M19.1666 2.66675H8.49992C7.79267 2.66675 7.1144 2.9477 6.6143 3.4478C6.1142 3.94789 5.83325 4.62617 5.83325 5.33341V26.6667C5.83325 27.374 6.1142 28.0523 6.6143 28.5524C7.1144 29.0525 7.79267 29.3334 8.49992 29.3334H24.4999C25.2072 29.3334 25.8854 29.0525 26.3855 28.5524C26.8856 28.0523 27.1666 27.374 27.1666 26.6667V10.6667L19.1666 2.66675Z" stroke="#A5A5A5" stroke-width="2.66667" stroke-linecap="round" stroke-linejoin="round"/>
<path d="M19.1667 2.66675V10.6667H27.1667" stroke="#A5A5A5" stroke-width="2.66667" stroke-linecap="round" stroke-linejoin="round"/>
<path d="M21.8334 17.3333H11.1667" stroke="#A5A5A5" stroke-width="2.66667" stroke-linecap="round" stroke-linejoin="round"/>
<path d="M21.8334 22.6667H11.1667" stroke="#A5A5A5" stroke-width="2.66667" stroke-linecap="round" stroke-linejoin="round"/>
<path d="M13.8334 12H12.5001H11.1667" stroke="#A5A5A5" stroke-width="2.66667" stroke-linecap="round" stroke-linejoin="round"/>
</svg>
