<svg width="19" height="14" viewBox="0 0 19 14" fill="none" xmlns="http://www.w3.org/2000/svg">
<path d="M15.7041 1.36893C14.537 0.841912 13.3053 0.466119 12.0398 0.250967C12.0283 0.248807 12.0164 0.250287 12.0058 0.255196C11.9952 0.260104 11.9864 0.268189 11.9808 0.278294C11.8128 0.577929 11.6602 0.885715 11.5237 1.20048C10.1597 0.99668 8.77233 0.99668 7.40836 1.20048C7.27125 0.884933 7.11655 0.577071 6.94497 0.278294C6.93908 0.268401 6.93029 0.260494 6.91975 0.255616C6.9092 0.250738 6.8974 0.249117 6.8859 0.250967C5.62084 0.465774 4.38956 0.841583 3.22305 1.36893C3.21301 1.37309 3.20453 1.38022 3.19879 1.38934C0.865301 4.81968 0.226112 8.16562 0.539729 11.4694C0.540625 11.4775 0.543173 11.4853 0.54722 11.4925C0.551267 11.4996 0.556731 11.5059 0.563286 11.5109C1.92212 12.5012 3.4421 13.2571 5.05835 13.7465C5.06975 13.7498 5.08193 13.7497 5.09324 13.746C5.10455 13.7424 5.11446 13.7354 5.12163 13.726C5.46867 13.2612 5.77618 12.7691 6.04104 12.2546C6.04465 12.2475 6.04671 12.2398 6.04707 12.2319C6.04743 12.224 6.04609 12.2161 6.04313 12.2088C6.04018 12.2014 6.03567 12.1947 6.02992 12.1892C6.02417 12.1837 6.01729 12.1795 6.00975 12.1767C5.52476 11.9945 5.05521 11.7747 4.6055 11.5195C4.59734 11.5148 4.59048 11.5082 4.58554 11.5002C4.5806 11.4923 4.57773 11.4833 4.57717 11.474C4.57662 11.4647 4.5784 11.4554 4.58236 11.4469C4.58632 11.4384 4.59233 11.4311 4.59987 11.4254C4.6941 11.3563 4.78868 11.2836 4.87868 11.2103C4.88668 11.2038 4.89634 11.1997 4.90659 11.1983C4.91684 11.197 4.92727 11.1985 4.9367 11.2027C7.88266 12.5261 11.0723 12.5261 13.9834 11.2027C13.9929 11.1982 14.0035 11.1965 14.014 11.1977C14.0244 11.1989 14.0343 11.203 14.0425 11.2096C14.1325 11.2826 14.2271 11.3559 14.3238 11.4254C14.3313 11.431 14.3374 11.4383 14.3414 11.4468C14.3454 11.4552 14.3473 11.4645 14.3468 11.4738C14.3463 11.4831 14.3435 11.4921 14.3386 11.5001C14.3338 11.5081 14.327 11.5147 14.3188 11.5195C13.8697 11.7772 13.3993 11.997 12.9125 12.1767C12.9049 12.1796 12.898 12.1839 12.8923 12.1895C12.8865 12.1952 12.882 12.2019 12.8791 12.2094C12.8763 12.2169 12.875 12.2248 12.8755 12.2328C12.876 12.2408 12.8781 12.2485 12.8819 12.2556C13.1512 12.7673 13.4582 13.2589 13.8006 13.7264C13.8075 13.736 13.8174 13.7432 13.8288 13.747C13.8401 13.7508 13.8524 13.751 13.8639 13.7475C15.4823 13.2596 17.0043 12.5035 18.3642 11.5119C18.3709 11.5072 18.3764 11.501 18.3805 11.494C18.3846 11.487 18.387 11.4792 18.3878 11.4711C18.7633 7.65092 17.7591 4.3323 15.7262 1.39072C15.7217 1.38112 15.7139 1.3734 15.7041 1.36893ZM6.48052 9.45792C5.59346 9.45792 4.86321 8.65681 4.86321 7.67305C4.86321 6.6893 5.57975 5.88818 6.48052 5.88818C7.38868 5.88818 8.1126 6.69622 8.09783 7.67305C8.09853 8.65681 7.38164 9.45792 6.48052 9.45792ZM12.4621 9.45792C11.575 9.45792 10.8448 8.65681 10.8448 7.67305C10.8448 6.6893 11.5613 5.88818 12.4621 5.88818C13.3703 5.88818 14.0942 6.69622 14.0794 7.67305C14.0798 8.65681 13.3703 9.45792 12.4621 9.45792Z" fill="#FAFAFA"/>
</svg>
