<svg width="90" height="19" viewBox="0 0 90 19" fill="none" xmlns="http://www.w3.org/2000/svg">
<path d="M24.9318 14.8501H27.1131V4.98394H31.2576V3.10467H20.8545V4.98394H24.9318V14.8501Z" fill="#FAFAFA"/>
<path d="M29.9765 12.7024C29.9765 14.179 31.0504 15.1018 32.6612 15.1018C34.0203 15.1018 34.876 14.2964 35.2284 13.1051H35.9499C35.9835 14.4139 36.3023 14.8501 37.6782 14.8501H38.5507V13.2393H37.7621C37.3258 13.2393 37.2587 13.1554 37.2587 12.7359V9.36332C37.2587 7.33303 36.0002 6.24239 33.7015 6.24239C31.4363 6.24239 30.0268 7.45049 29.859 8.70893L31.7215 9.19553C31.9397 8.33979 32.5605 7.80285 33.7015 7.80285C34.7586 7.80285 35.2284 8.25589 35.2284 9.11163V9.39688C33.6344 9.54789 32.3591 9.8667 31.4027 10.3701C30.4463 10.8567 29.9765 11.6453 29.9765 12.7024ZM35.2284 11.4104C35.2284 12.8366 34.3559 13.5581 33.3156 13.5581C32.5102 13.5581 32.0571 13.1722 32.0571 12.501C32.0571 11.4272 33.2317 10.9573 35.2284 10.7392V11.4104Z" fill="#FAFAFA"/>
<path d="M39.8854 14.8501H41.9325V3.10467H39.8854V14.8501Z" fill="#FAFAFA"/>
<path d="M44.3568 5.16851H46.5381V3.08789H44.3568V5.16851ZM44.4407 14.8501H46.471V6.49407H44.4407V14.8501Z" fill="#FAFAFA"/>
<path d="M48.2086 12.7024C48.5777 14.179 50.155 15.085 52.0342 15.085C54.333 15.085 55.7257 14.0279 55.7257 12.4004C55.7257 11.6285 55.4404 11.0412 54.8867 10.6385C54.333 10.2358 53.6618 9.95059 52.8732 9.79958L51.7825 9.59823C50.7758 9.39688 50.5073 9.14519 50.5073 8.65859C50.5073 8.10488 50.9939 7.71896 51.8832 7.71896C52.8396 7.71896 53.4437 8.27267 53.7122 8.99418L55.4404 8.25589C55.0545 7.23236 53.9471 6.24239 51.9503 6.24239C49.9536 6.24239 48.5609 7.29948 48.5609 8.84317C48.5609 10.4204 49.5677 11.0077 51.2624 11.36L52.3698 11.5614C53.3094 11.746 53.6115 12.0816 53.6115 12.6017C53.6115 13.189 53.0745 13.5581 52.1181 13.5581C50.7926 13.5581 50.2556 12.8198 50.1046 12.0816L48.2086 12.7024Z" fill="#FAFAFA"/>
<path d="M57.5495 14.8501H59.5965V10.7224C59.5965 9.7828 59.6637 9.01096 60.1838 8.40691C60.4355 8.10488 60.8214 7.95387 61.3416 7.95387C62.3483 7.95387 62.8517 8.55792 62.8517 9.74924V14.8501H64.8652V10.7224C64.8652 9.76602 64.9156 9.01096 65.4357 8.40691C65.6874 8.10488 66.0901 7.95387 66.6103 7.95387C67.5667 7.95387 68.1204 8.52436 68.1204 9.74924V14.8501H70.1507V9.39688C70.1507 7.36659 68.9761 6.24239 67.3653 6.24239C66.2243 6.24239 65.3015 7.04779 64.9491 8.20555H64.2276C63.9424 6.94711 63.0531 6.24239 61.9289 6.24239C60.704 6.24239 59.9825 7.06457 59.6637 8.20555H58.7072C59.0596 7.71896 59.3616 6.98067 59.3616 6.49407H57.5495V14.8501Z" fill="#FAFAFA"/>
<path d="M72.0393 12.7024C72.0393 14.179 73.1131 15.1018 74.7239 15.1018C76.0831 15.1018 76.9388 14.2964 77.2912 13.1051H78.0127C78.0462 14.4139 78.365 14.8501 79.7409 14.8501H80.6134V13.2393H79.8248C79.3886 13.2393 79.3214 13.1554 79.3214 12.7359V9.36332C79.3214 7.33303 78.063 6.24239 75.7642 6.24239C73.4991 6.24239 72.0896 7.45049 71.9218 8.70893L73.7843 9.19553C74.0024 8.33979 74.6233 7.80285 75.7642 7.80285C76.8213 7.80285 77.2912 8.25589 77.2912 9.11163V9.39688C75.6971 9.54789 74.4219 9.8667 73.4655 10.3701C72.5091 10.8567 72.0393 11.6453 72.0393 12.7024ZM77.2912 11.4104C77.2912 12.8366 76.4186 13.5581 75.3783 13.5581C74.5729 13.5581 74.1199 13.1722 74.1199 12.501C74.1199 11.4272 75.2944 10.9573 77.2912 10.7392V11.4104Z" fill="#FAFAFA"/>
<path d="M81.9482 14.8501H83.9952V11.0245C83.9952 10.0177 84.0624 9.14519 84.6161 8.47402C84.9013 8.12166 85.3376 7.95387 85.9081 7.95387C86.8645 7.95387 87.4182 8.54114 87.4182 9.74924V14.8501H89.4653V9.34654C89.4653 7.41693 88.4753 6.24239 86.596 6.24239C85.2201 6.24239 84.3476 7.29948 83.9785 8.42368H83.022C83.4919 7.73574 83.8275 6.98067 83.8442 6.49407H81.9482V14.8501Z" fill="#FAFAFA"/>
<path fill-rule="evenodd" clip-rule="evenodd" d="M15.8535 10.4091C15.559 10.7036 15.0472 10.5699 14.8734 10.1914C14.8392 10.1168 14.8205 10.0368 14.8205 9.9547L14.8205 3.42925C14.8205 2.64011 14.1808 2.00039 13.3917 2.00039C12.6025 2.00039 11.9628 2.64011 11.9628 3.42925L11.9628 6.73197C11.9628 7.01598 11.6719 7.20875 11.4011 7.12316C11.2297 7.06899 11.1059 6.91296 11.1059 6.73322L11.1059 1.42886C11.1059 0.639722 10.4662 -2.06966e-07 9.67701 0C8.88788 2.06966e-07 8.24815 0.639722 8.24815 1.42886L8.24815 6.73283C8.24815 6.9127 8.12424 7.06884 7.95274 7.12303C7.68177 7.20865 7.39067 7.01576 7.39067 6.73159L7.39067 3.42925C7.39067 2.64011 6.75094 2.00039 5.9618 2.00039C5.17266 2.00039 4.53294 2.64011 4.53294 3.42925L4.53294 9.95692C4.53294 10.0374 4.51466 10.116 4.48102 10.1891C4.31082 10.5593 3.81065 10.6889 3.52254 10.4008L2.99098 9.86922C2.43297 9.31121 1.52827 9.31121 0.970262 9.86922C0.412256 10.4272 0.412257 11.3319 0.970263 11.8899L5.17084 16.0905C6.21691 17.4289 7.84633 18.2894 9.6767 18.2894C11.431 18.2894 13.0006 17.499 14.0491 16.255L18.4141 11.8899C18.9721 11.3319 18.9721 10.4272 18.4141 9.86921C17.8561 9.3112 16.9514 9.3112 16.3934 9.86921L15.8535 10.4091ZM9.67638 16.0032C12.2016 16.0032 14.2487 13.1455 14.2487 13.1455C14.2487 13.1455 12.2016 10.2878 9.67638 10.2878C7.15114 10.2878 5.10402 13.1455 5.10402 13.1455C5.10402 13.1455 7.15114 16.0032 9.67638 16.0032Z" fill="#FAFAFA"/>
<path d="M11.3912 13.1453C11.3912 14.0923 10.6235 14.8599 9.67655 14.8599C8.72958 14.8599 7.96191 14.0923 7.96191 13.1453C7.96191 12.1983 8.72958 11.4307 9.67655 11.4307C10.6235 11.4307 11.3912 12.1983 11.3912 13.1453Z" fill="#FAFAFA"/>
</svg>
