<svg version="1.0" xmlns="http://www.w3.org/2000/svg" width="933.333" height="933.333" viewBox="0 0 700 700">
    <path d="M337 36.4c-12.9 3.6-24.7 12.9-30.7 24.2-6.4 12.1-6.3 9.1-6.3 114.5v95.6l-2.3 3.4c-5.6 8.5-16.5 9.1-23.7 1.4l-2.5-2.7-.5-64.1c-.6-61.9-.7-64.4-2.7-70.4-11.9-35.4-55.7-45.9-82.1-19.6-6 5.9-11.6 16.7-13.2 25.2-.6 3.4-1 47.2-1 121.6v116.3l-2.8 5.3c-3.8 7.3-10 11.2-18 11.3-3.7 0-6.9-.6-9.2-1.8-1.9-1.1-9.6-7.8-17-15.1-18.3-17.9-25.3-21.1-43.7-20.3-8.7.4-10.7.8-17.6 4.1-25.8 12-35.9 41.4-23.1 67.6 2.4 4.7 15 17.9 79.9 83.1 42.4 42.6 79.6 80.4 82.6 83.9 12.9 15.4 37.1 33.9 57.4 44 28.3 14 51.5 19.9 83 20.8 45.6 1.3 86.5-11.4 123.2-38.4 10.7-7.8 10.7-7.8 103.4-100.9 82.8-83.1 85.7-86.2 89.4-93.6 13.8-28.1-.4-60.3-30.4-69.2-7.6-2.2-20.3-2.1-28.2.4-8.9 2.7-15.4 7.4-30 21.7-7 6.7-13.9 12.7-15.3 13.3-8 3-19.7-1.1-25.1-8.8l-3-4.4-.5-120.6-.5-120.7-2.2-5.8c-5.7-15.1-16.3-26-30.1-30.9-7.3-2.6-19.7-3.5-27.1-1.8-13.7 3-26.5 12.6-32.9 24.7-6 11.4-6.2 13.4-6.2 80.1 0 65.5.2 63.6-5.6 68.1-5.7 4.5-14.6 3.6-19.9-1.9l-3-3.1-.5-98.7c-.5-97.6-.5-98.8-2.6-104.9-5.5-16-18.9-28.7-34.9-32.9-6.1-1.7-18.5-1.6-24.5 0zm34 355.3c25.8 4.2 54 18.3 83 41.3 12.6 10 34.5 31.9 45.4 45.3l7.8 9.7-4.6 5.7c-41 50.3-89 83.3-132 90.8-11.4 1.9-30.6 1.9-42.1-.1-34.6-6-71.7-27.7-107.1-62.9C209.8 510 192 489.7 192 488c0-1.8 15.4-19.5 28.5-32.6 22.5-22.6 42.1-37.5 64.3-48.7 31.3-15.9 55.5-20.1 86.2-15z"/>
    <path d="M332.8 431.3c-19.5 6-34.5 21.2-40.4 41.2-2.4 8.1-2.4 23 0 31 5.1 17.2 16.6 30.5 32.7 37.9 12.8 5.9 24.9 7 38.3 3.6 20.3-5.2 36-20 42.2-39.7 2.3-7.3 2.6-9.5 2.2-19.5-.7-16.8-5.4-28-16.7-39.4-11.1-11.2-23.5-16.5-40.1-17.1-8.8-.3-11.7.1-18.2 2z"/>
</svg>
