<svg version="1.0" xmlns="http://www.w3.org/2000/svg" width="445.333" height="445.333" viewBox="0 0 334 334" preserveAspectRatio="xMidYMid meet">
    <path d="M144.6 50.8c-12.1 27.3-23.4 52.8-25.2 56.7-1.8 3.8-7.3 16.4-12.4 28-5.1 11.5-10.2 23.2-11.5 26-1.3 2.7-5.5 12.4-9.5 21.5-3.9 9.1-8.2 18.7-9.5 21.5-1.3 2.7-3 6.6-3.8 8.5-.9 1.9-8.7 19.7-17.5 39.5s-20.1 45.4-25.2 57c-5.1 11.6-9.7 21.6-10.2 22.3-.6.6-.9 1.3-.7 1.3.2.1 66.8.2 148 .3l147.6.2-1.7-4.1c-2.9-6.7-9.6-21.7-11.8-26.5-1.1-2.5-12.7-28.6-25.7-58-13.1-29.4-24.5-55.3-25.5-57.5-1-2.2-2.7-6-3.8-8.5-1.1-2.5-11.7-26.6-23.6-53.5-12-27-22.3-50.4-23.1-52-.7-1.7-4.3-9.8-8-18-3.6-8.3-7.2-16.4-8-18-6.4-14.6-8.7-19.8-12-27.5-1.6-3.6-3.3-7-3.9-7.7-.8-.9-6.9 11.9-23 48.5zm40.2 129.5c13.4 4 27.2 14.3 34.5 25.9 8.7 13.5 11.6 31.5 7.7 47.1-1.9 7.4-7.3 19.2-10.3 22.1-.7.8-2.4 2.7-3.8 4.2-1.3 1.6-4.4 4.5-6.9 6.5-19.1 15.1-45.2 17.8-67.4 6.9-26.6-13.1-39.9-45.4-30.3-73.3 8.3-24 28-39.1 54.7-41.9 4.3-.5 16.4.9 21.8 2.5z"/>
</svg>
