<svg width="100%" height="auto" viewBox="0 0 411 390" fill="none" xmlns="http://www.w3.org/2000/svg">
<path fill-rule="evenodd" clip-rule="evenodd" d="M388.529 107.995L410.069 174.288L324.863 204.401C296.021 214.594 284.717 249.385 302.059 274.583L353.293 349.029L296.901 390L241.931 318.269C223.325 293.989 186.744 293.989 168.138 318.269L113.169 390L56.7764 349.029L108.01 274.583C125.352 249.385 114.048 214.594 85.2066 204.401L0 174.288L21.5399 107.995L108.173 133.717C137.498 142.423 167.092 120.921 167.874 90.342L170.182 0H239.887L242.196 90.342C242.977 120.921 272.572 142.423 301.896 133.717L388.529 107.995Z" fill="#FD4848"/>
</svg>
