<svg width="24" height="24" viewBox="0 0 82 82" fill="none" xmlns="http://www.w3.org/2000/svg">
    <rect width="82" height="82" rx="12" fill="#D5FF5C" />
    <path
        d="M35.04 55C35.04 58.2905 37.6887 60.9623 40.9703 60.9996C44.2519 60.9623 46.9006 58.2905 46.9006 55C46.9006 51.7096 44.2519 49.0377 40.9703 49.0004C37.6887 49.0377 35.04 51.7096 35.04 55Z"
        fill="#FD4848" />
    <path fill-rule="evenodd" clip-rule="evenodd"
        d="M22.8544 44.6623C22.2462 45.9868 20.4553 46.4546 19.4248 45.4241L17.5356 43.5349C15.583 41.5823 12.4171 41.5823 10.4645 43.5349C8.51184 45.4875 8.51184 48.6534 10.4645 50.606L25.7391 65.8807C29.3942 70.2176 34.8595 72.9788 40.9703 72.9994C47.0811 72.9788 52.5464 70.2176 56.2014 65.8807L71.4761 50.606C73.4287 48.6534 73.4287 45.4875 71.4761 43.5349C69.5234 41.5823 66.3576 41.5823 64.4049 43.5349L62.5158 45.4241C61.4852 46.4546 59.6943 45.9868 59.0861 44.6623C58.9663 44.4013 58.901 44.1213 58.901 43.8341L58.901 20.9995C58.901 18.2381 56.6624 15.9995 53.901 15.9995C51.1396 15.9995 48.901 18.2381 48.901 20.9995L48.901 32.5568C48.901 33.5506 47.8829 34.2252 46.9353 33.9257C46.3356 33.7361 45.9023 33.1901 45.9023 32.5611L45.9023 13.9996C45.9023 11.2608 43.7004 9.03637 40.9703 9C38.2402 9.03637 36.0382 11.2608 36.0382 13.9996L36.0382 32.5611C36.0382 33.1901 35.605 33.7361 35.0052 33.9257C34.0576 34.2252 33.0395 33.5506 33.0395 32.5568L33.0396 20.9995C33.0396 18.2381 30.801 15.9995 28.0395 15.9995C25.2781 15.9995 23.0395 18.2381 23.0395 20.9995L23.0395 43.8341C23.0395 44.1213 22.9743 44.4013 22.8544 44.6623ZM40.9703 44.9999C32.1659 45.0525 25.0403 54.9997 25.0403 54.9997C25.0403 54.9997 32.1659 64.9469 40.9703 64.9995C49.7746 64.9469 56.9002 54.9997 56.9002 54.9997C56.9002 54.9997 49.7746 45.0525 40.9703 44.9999Z"
        fill="#FD4848" />
</svg>
