<svg width="40" height="40" viewBox="0 0 40 40" fill="none" xmlns="http://www.w3.org/2000/svg">
<path d="M16.2751 28.7502C16.2751 30.8068 17.9306 32.4767 19.9816 32.5C22.0326 32.4767 23.688 30.8068 23.688 28.7502C23.688 26.6937 22.0326 25.0238 19.9816 25.0004C17.9306 25.0238 16.2751 26.6937 16.2751 28.7502Z" fill="white"/>
<path fill-rule="evenodd" clip-rule="evenodd" d="M8.65907 22.2892C8.27893 23.117 7.15963 23.4093 6.51552 22.7652L5.33478 21.5845C4.11438 20.3641 2.13571 20.3641 0.915305 21.5845C-0.305102 22.8049 -0.305102 24.7836 0.915305 26.004L10.462 35.5507C12.7464 38.2613 16.1623 39.9871 19.9816 40C23.8008 39.9871 27.2167 38.2613 29.5011 35.5507L39.0478 26.004C40.2682 24.7836 40.2682 22.8049 39.0478 21.5845C37.8274 20.3641 35.8488 20.3641 34.6284 21.5845L33.4476 22.7652C32.8035 23.4093 31.6842 23.117 31.3041 22.2892C31.2291 22.126 31.1884 21.951 31.1884 21.7715L31.1884 7.49977C31.1884 5.77386 29.7893 4.37474 28.0633 4.37474C26.3374 4.37474 24.9383 5.77386 24.9383 7.49978L24.9383 14.7231C24.9383 15.3442 24.302 15.7659 23.7097 15.5787C23.3349 15.4602 23.0641 15.1189 23.0641 14.7258L23.0641 3.12475C23.0641 1.41302 21.6879 0.022731 19.9816 0C18.2752 0.022731 16.899 1.41302 16.899 3.12475L16.899 14.7258C16.899 15.1189 16.6282 15.4602 16.2534 15.5787C15.6611 15.7659 15.0248 15.3442 15.0248 14.7231L15.0248 7.49978C15.0248 5.77386 13.6257 4.37474 11.8998 4.37474C10.1739 4.37474 8.77476 5.77386 8.77476 7.49977L8.77476 21.7715C8.77476 21.951 8.73399 22.126 8.65907 22.2892ZM19.9816 22.5001C14.4788 22.533 10.0253 28.75 10.0253 28.75C10.0253 28.75 14.4788 34.9671 19.9816 35C25.4843 34.9671 29.9379 28.75 29.9379 28.75C29.9379 28.75 25.4843 22.533 19.9816 22.5001Z" fill="white"/>
</svg>
