<svg width="1147" height="293" viewBox="0 0 1147 293" fill="none" xmlns="http://www.w3.org/2000/svg">
<path d="M0.00878906 69.256C0.00878906 107.56 18.8248 124.024 58.8088 124.024C98.7928 124.024 117.609 107.56 117.609 69.256V3.39998H73.2568V64.888C73.2568 82.528 69.3928 88.744 58.6408 88.744C48.0568 88.744 43.8568 82.36 43.8568 64.888V3.39998H0.00878906V69.256Z" fill="white"/>
<path d="M132.599 121H173.759V95.968C173.759 72.448 162.167 44.392 150.743 27.928L162.503 21.208L211.391 121H258.935V3.39998H217.775V17.68C217.775 27.424 219.959 37.672 224.159 48.592C228.359 59.512 233.735 69.928 240.119 79.84L228.527 86.728L187.703 3.39998H132.599V121Z" fill="white"/>
<path d="M275.005 121H372.949V87.4H319.525V3.39998H275.005V121Z" fill="white"/>
<path d="M371.872 63.04C371.872 96.472 391.696 124.024 439.912 124.024C488.128 124.024 507.952 96.472 507.952 63.04C507.952 29.272 487.96 0.375977 439.912 0.375977C391.864 0.375977 371.872 29.272 371.872 63.04ZM460.912 63.04C460.912 80.68 453.856 90.424 439.912 90.424C425.968 90.424 418.912 80.68 418.912 63.04C418.912 45.064 426.304 33.976 439.912 33.976C453.856 33.976 460.912 45.064 460.912 63.04Z" fill="white"/>
<path d="M516.082 63.376C516.082 101.176 541.619 124.024 582.443 124.024C613.354 124.024 639.059 107.56 646.115 85.384L601.258 70.6C597.227 84.712 591.346 90.592 581.771 90.592C571.018 90.592 563.626 79.504 563.626 63.208C563.626 44.392 570.346 33.976 581.938 33.976C592.186 33.976 598.234 40.36 600.754 53.8L645.946 40.36C638.218 15.664 614.195 0.375977 582.779 0.375977C542.627 0.375977 516.082 26.248 516.082 63.376Z" fill="white"/>
<path d="M733.422 121H784.83L738.126 49.936L781.302 3.39998H730.398L686.214 54.472L676.47 44.896C690.414 34.312 697.302 22.048 697.302 7.93598V3.39998H655.302V121H697.302V85.384L706.878 75.304L733.422 121Z" fill="white"/>
<path d="M830.018 121H874.538V33.64H908.138V3.39998H796.418V33.64H830.018V121Z" fill="white"/>
<path d="M918.294 121H962.814V77.824H990.366V121H1034.89V3.39998H990.366V44.224H962.814V3.39998H918.294V121Z" fill="white"/>
<path d="M1051.02 121H1146.61V88.408H1093.02V76.144H1136.7V47.584H1093.02V35.824H1146.61V3.39998H1051.02V121Z" fill="white"/>
<path d="M37.9348 289H80.7748V254.896H100.935C125.463 254.896 146.967 240.28 146.967 213.568C146.967 187.024 125.463 171.4 100.935 171.4H37.9348V289ZM80.7748 224.656V203.32H92.5348C99.9268 203.32 104.127 207.688 104.127 213.904C104.127 220.12 99.9268 224.656 92.5348 224.656H80.7748Z" fill="white"/>
<path d="M221.266 289H267.802L229.33 171.4H169.69L131.722 289H174.394L179.434 270.688H216.562L221.266 289ZM187.666 240.448L188.17 238.6C190.858 228.52 192.37 215.584 192.37 201.64C192.37 198.112 192.202 194.584 192.034 191.056H205.81C205.474 198.28 205.306 204.496 205.306 209.872C205.306 221.968 206.314 231.544 208.162 238.6L208.666 240.448H187.666Z" fill="white"/>
<path d="M274.349 289H317.189V248.344H328.781C335.669 248.344 338.357 251.2 340.037 259.768L346.421 289H392.453L387.077 268.504C381.365 246.328 371.117 240.448 343.733 240.448V228.016C356.165 228.016 366.581 226.168 374.813 222.472C383.213 218.776 387.413 211.72 387.413 201.136C387.413 183.328 372.125 171.4 344.069 171.4H274.349V289ZM317.189 221.464V202.984H331.973C338.861 202.984 343.061 206.68 343.061 212.224C343.061 217.6 338.693 221.464 331.973 221.464H317.189Z" fill="white"/>
<path d="M482.782 289H529.318L490.846 171.4H431.206L393.238 289H435.91L440.95 270.688H478.078L482.782 289ZM449.182 240.448L449.686 238.6C452.374 228.52 453.886 215.584 453.886 201.64C453.886 198.112 453.718 194.584 453.55 191.056H467.326C466.99 198.28 466.822 204.496 466.822 209.872C466.822 221.968 467.83 231.544 469.678 238.6L470.182 240.448H449.182Z" fill="white"/>
<path d="M542.327 289H606.167L646.151 171.4H599.111L587.519 211.552C583.991 223.816 581.975 242.8 581.975 259.768C581.975 261.616 581.975 263.968 582.143 267.16H568.367C568.535 263.968 568.535 261.616 568.535 259.768C568.535 242.968 566.687 224.992 562.823 211.72L551.231 171.4H501.671L542.327 289Z" fill="white"/>
<path d="M652.677 289H748.269V256.408H694.677V244.144H738.357V215.584H694.677V203.824H748.269V171.4H652.677V289Z" fill="white"/>
<path d="M762.599 289H805.439V248.344H817.031C823.919 248.344 826.607 251.2 828.287 259.768L834.671 289H880.703L875.327 268.504C869.615 246.328 859.367 240.448 831.983 240.448V228.016C844.415 228.016 854.831 226.168 863.063 222.472C871.463 218.776 875.663 211.72 875.663 201.136C875.663 183.328 860.375 171.4 832.319 171.4H762.599V289ZM805.439 221.464V202.984H820.223C827.111 202.984 831.311 206.68 831.311 212.224C831.311 217.6 826.943 221.464 820.223 221.464H805.439Z" fill="white"/>
<path d="M881.559 256.072C885.255 278.584 906.255 292.024 942.039 292.024C979.839 292.024 1002.18 277.24 1002.18 252.544C1002.18 232.048 985.887 218.104 956.487 215.08L941.535 213.568C933.639 212.728 930.447 210.208 930.447 205.336C930.447 200.8 934.815 197.944 941.367 197.944C948.759 197.944 953.967 202.648 955.815 209.536L1001.17 202.144C996.807 180.472 975.639 168.376 943.551 168.376C909.783 168.376 887.271 183.832 887.271 207.016C887.271 229.696 899.199 240.448 931.791 244.144L946.407 245.824C952.455 246.496 955.983 249.688 955.983 253.888C955.983 258.76 951.783 261.952 942.879 261.952C933.471 261.952 927.927 256.744 926.583 247.84L881.559 256.072Z" fill="white"/>
<path d="M1014.27 289H1109.86V256.408H1056.27V244.144H1099.95V215.584H1056.27V203.824H1109.86V171.4H1014.27V289Z" fill="white"/>
</svg>
