<svg xmlns="http://www.w3.org/2000/svg" xmlns:xlink="http://www.w3.org/1999/xlink" fill="none"
    viewBox="0 0 526 239">
    <defs>
        <path id="o"
            d="M53.4 228c-3.8-7.5-2.2-17.3.6-24.8.2-2.2 1.3-4.1 1.1-5.9-.3-2.8 2.4-6 2.4-8.8 0-3.1 1.7-6.2 1.8-9.3 0-2.5-2.1-5.4-3.5-7.7-3.5-5.8-11.3-11-9-17.4 3.1-8.2 17-11 29.5-13.3 13.6-2.4 25.5-6 33.7-13 2.9-2.6 3.5-6 5.3-8.8a74 74 0 0 1 9.3-11.2c6.3-6.6 16.8-20.3 33.3-19 16 1.4 32.4 5.8 48.6 4 8.5-1 16.7-5 24.2-7.2 8.3-2.6 15-6.6 23.1-9.3a60.4 60.4 0 0 1 28.5-4.5c8.7 1 16.3 2.4 24 5 8.8 3 16.6 7 26 9.4 9.8 2.5 19.8 5 30 6.8 14.8 2.6 39.8 4.5 47.5 13.6 5.6 6.6 8.5 14.1 13 21 3 4.4 7.2 5.6 14.7 7 16.4 2.7 25.9 8.1 31.2 17.6 3 5.3 3.4 11.2 4.8 16.7 1.3 5.4 3.4 10.7 4.8 16.1 4 15.2-6.3 30-10.7 44.8-1.5 5.2 2.7 6.9 6.8 11 2.9 3 3.9 6.1 4.2 9.5.5 5.4-3 11.2-5 16.4L468 282c-4.2 11.3-5.5 21.7-23 29-15 6-37.3 3.5-54.5 6.1-18.1 2.7-30 11.5-45.8 16.6-15.6 5-31.7 5.6-48.3 2.9a329.7 329.7 0 0 0-52-5.5c-6.7 0-14 .6-20.5.3-8.2-.4-15.5-3-23-4.7-15-3.5-28.4-6.1-40.6-12.5-14-7.3-28.1-14.8-40.2-23.2-8.2-5.6-21.6-10-27.8-16.5-6-6.2-10.7-13.3-17.2-19.3-4.8-4.5-11.4-8.2-15.8-12.9-4.2-4.5-3.5-9.7-5.9-14.5Z"
            opacity=".3" />
        <path id="p"
            d="M72.3 153c4.5-7.2 15.5-14.3 25.1-19.3 2.4-1.7 5.2-2.9 6.8-4.3 2.5-2.4 7.8-4 10.7-6.2 3-2.5 7.4-4.3 10.6-6.8 2.5-1.9 3.7-5 5-7.2 2.9-5.7 2-12.5 10.1-16.7 10.6-5.5 24.5-3.2 36.6-.8a97.7 97.7 0 0 0 39.6.8c4.8-1 8.7-3.5 13-5 6.2-2.5 11.6-4 18.5-5.9 11.5-3.1 33.4-10.5 45.1-3.9 11.3 6.3 20 15.3 34.6 19.2 7.7 2 18 1.7 26.3 2.4 9.1.7 18.4-.2 27.5.3 10.5.6 19.7 1.2 27 6a51.4 51.4 0 0 1 14 11.9c4 5.2 6.2 11 11.2 16 5.3 5.2 10.7 10.5 17 15.4 9.1 7 27 16.8 24.1 26.5-2.1 7.1-7.4 14-10.6 21-2.1 4.4 0 6.8 4.7 10.3 10.2 7.6 12.3 15 7 24.4-2.8 5.1-8.4 10-12.7 14.7-4.3 4.8-8 9.7-12.3 14.4-12 13.4-34.7 21.6-53 31.9-6.4 3.6-4.7 6.3-5.6 11-.7 3.3-3 6-6.1 8.9-5 4.4-13.5 7.8-20.2 11.3l-19.8 10.3c-14.6 7.6-26 15.4-47 15.2-18 0-33-9.5-49.2-13.1-17-4-35.3-1-52.8-2.1a76 76 0 0 1-41.1-13.8 175.2 175.2 0 0 0-35.7-21.6c-5.2-2.3-11.6-4.2-16.5-6.6-6.1-3-9.4-7.5-13.5-11.3-8.5-7.8-16.4-14.3-19.7-23.4a143 143 0 0 1-8.8-31.7c-.8-7.2-7-15-5.5-22.3 1.5-7 4.8-14 5.6-21 .6-5.1-.9-10.3.3-15.4 1.1-5 7-8.9 9.7-13.5Z"
            opacity=".5" />
        <path id="q"
            d="M162 100.1a142 142 0 0 1 39-7c3.6-.5 7-.5 9.7-1.1 4.3-1 10-.6 14.6-1.4 4.8-1 10.2-1 15.1-1.8 3.9-.7 7.9-2.7 11.1-4.1 8-3.5 14-9.2 24.7-9.8 13.8-.9 22.5 5.6 29.7 11.5 7.8 6.4 17 11.6 30.5 13.8 4.8.8 10.3.1 15.2.3 7.4.1 13.2.7 20.5 1.5 12.2 1.4 36.8 2.8 39.6 11.9 2.6 8.8.5 18.7 8.2 26.7 4 4.1 12.6 7.3 18.4 10.6 6.5 3.6 14.8 6 21.5 9.4 7.7 4 14.3 7.5 15.4 13.6 1 5 1.2 9.3-.7 14.1-2.2 5.5-6 10.8-7.1 16.4-1.1 6-2 11.9-1.9 17.9.2 8.5 4.6 22.2-7.3 28.9-8.8 5-19.8 8.6-29.3 13-6.1 2.9-6.8 5.5-6.5 9.8.5 9.4-5.3 16-18.7 21.6-7.4 3.2-16.6 5.1-24.8 7.5-8.1 2.3-15.9 5-24 7.3-22.7 6.6-48.9 5.5-73.5 7.6-8.8.7-10.1 3.4-15.4 6.8a43 43 0 0 1-13.8 5c-8.3 1.9-18.3 1.7-27.1 2.3l-26 1.6c-19 1.1-35.8 3.5-52.3-3.6-14-6-16.6-18.5-25.8-26.8-9.6-8.7-27-12.4-39.6-19.1-12.5-6.7-18.2-15-18.8-24.6a66.9 66.9 0 0 0-6.7-29c-2-3.4-5-7-6.6-10.6-1.8-4.4 0-9 .6-13.4 1-9 1.3-16.8 7.8-25.1a217 217 0 0 1 24.5-28c6.5-6 9.4-14.2 17.8-19.4 8-5 17.8-9.6 25.4-14.8 5.5-3.8 9.4-8.4 15.5-12 5.8-3.6 14.3-4.8 21-7.5Z"
            opacity=".8" />
        <path id="r"
            d="M285.5 88a135 135 0 0 1 37.8 7.5c3.3.8 6 1.9 8.8 2.3 4.4.6 8.5 2.9 12.9 3.7 4.7 1 9 2.7 13.7 3.6 3.7.8 9 .5 12.8.5 9.9-.2 20.2-2.7 29.3.4 11.8 4 12.2 12 12 19-.2 7.6 2 14.8 10.4 21 3 2.2 8 3.5 11.8 5.2 5.6 2.6 9.6 5 14.6 8 8.3 5.2 26.3 14.5 19.5 22.6-6.6 7.8-18.2 15-20 23.8-1 4.6 2.6 10 4 14.5 1.5 5 5.7 9.6 7.6 14.6 2.1 5.6 3.8 10.6-1.4 15.9a54.4 54.4 0 0 1-14.6 10.9c-7.2 3.6-15.5 6.4-21.9 10.6-6.7 4.3-13.4 8.7-19.2 13.5-8.3 6.8-18.5 19-34.6 20.4-11.8 1-24.2.3-36.1.6a20 20 0 0 0-14.9 5.6c-9 7.6-20 10.9-36.2 10.9-9 0-18.2-1.5-27-2.4-8.7-.8-17.5-1.3-26.2-2.1-24.6-2.4-44.1-12-65.7-18.4-7.7-2.3-11.4-.7-19 .2-5.4.7-10.5.3-15.8-.5-8.4-1.3-16.2-4.8-23.7-7.3l-22-7.3c-16.3-5.4-31.9-9.1-37.9-20.2-5-9.4 5.3-20.1 6.2-29.7 1-10-9-18.7-12.2-28.3-3.2-9.5.5-17.9 9.5-25.6 9.1-7.9 18.4-16.2 23.5-25.2 2-3.4 3.2-7.3 5.5-10.6 2.9-4 9-7 13.7-10.4 9.8-6.7 17.8-12.8 31.1-17.3 15.3-5 30.8-10.1 47.2-14 11.1-2.5 21.7-8 33.4-9.4 11.4-1.3 23.6-1.7 34.8-3.3 8.2-1.2 15.8-3.5 24.3-4.4 8-.9 16 1 24 1.2Z" />
        <path id="s"
            d="M475.1 221c-.8 7.7-8.1 16.6-15.2 23-1.5 2-3.7 3.7-4.5 5.4-1.4 2.7-5.8 5.1-7.5 7.8-1.8 3-5.2 5.5-7.2 8.4-1.5 2.3-1.2 5.5-1.3 8-.1 6 4.1 12.5-1.9 18-7.7 7.1-22.5 7-35.5 6.7-14.2-.4-27.5.7-39.4 5.7-4.2 1.7-6.8 4.8-10.2 7-5 3.4-9.5 5.8-15.4 8.8-9.8 5-27.7 15.7-42.4 11.2-14.2-4.4-27-11.8-43.4-13.3-8.5-.7-18.6 1.3-27 2-9.3.7-18 3.2-27.2 4.2a64.2 64.2 0 0 1-49-10.9c-6.5-4.5-11.5-9.8-18.8-13.9a279 279 0 0 0-24.3-12.4c-12.3-5.4-34.7-12.1-36.5-22-1.4-7.5.4-15 .2-22.5-.1-4.7-3.4-6.7-9.7-9.3C45.1 227 39.4 220 40 210c.4-5.5 3.5-11.1 5.5-16.6 1.9-5.3 3.1-10.7 5-16 5.2-15.2 23.6-27 36.5-40 4.6-4.7 1.6-7 .2-11.7-1-3.4 0-6.6 1.7-9.8 2.7-5.2 9.4-9.9 14.3-14.4l14.4-13.4c10.7-9.8 18-19.3 38.8-22.6 17.7-2.8 37.1 4 54.8 5 18.7 1 35-5 52.9-6.6 17.6-1.6 33 1 47.1 6.8 14.1 6 29.2 12 45.6 15.5 6.2 1.3 13.5 2.2 19.4 3.7 7.5 2 12.9 5.9 18.9 9 12 6.2 23 11.4 30.7 19.8 8.8 9.6 17.7 19.4 24 29.7 4.4 7 14.4 13.7 16.4 21 2 7 2.2 14.6 4.7 21.6 2 5 5.9 9.9 7.3 15.1 1.3 5.1-2.6 9.9-3 14.8Z"
            opacity=".3" />
        <path id="t"
            d="M413 287.6c-8.4 5.9-23 10.4-35 13.2-3.3 1.1-6.6 1.7-9 2.7-3.7 1.7-9.6 2.2-13.7 3.8-4.3 1.6-9.5 2.5-14 4.2-3.5 1.3-6.4 4-8.9 5.8-6.1 4.8-9.2 11.3-19.5 13.7-13.2 3.1-24.8-1.9-34.8-6.5a84.4 84.4 0 0 0-36.7-8.6c-5.1 0-10.2 1.6-15.2 2.3-7.3 1-13.3 1.3-20.8 1.7-12.7.7-37.6 3.3-44.8-5.2-6.9-8.2-9.6-18.3-21.1-24.9-6-3.4-16-5.1-23.3-7.4-8.1-2.5-17.4-3.4-25.7-5.7-9.4-2.7-17.7-5-21.8-11a28.8 28.8 0 0 1-6.2-14c-.6-5.7.8-11.5-1-17.2-1.8-6-3.8-12-6.8-17.9-4.4-8.3-15.4-21-7-29.6 6.3-6.3 15.3-11.7 22.5-17.6 4.6-3.8 4-6.4 1.6-10.6-5-9.2-2.6-16.7 7.8-24.4 5.8-4.2 13.9-7.6 20.8-11.3 6.8-3.6 13.2-7.5 20-11 19.1-10.3 45.4-13.5 68.7-19.6 8.2-2.1 8.2-5 11.8-9.2a30 30 0 0 1 11-7.1c7.3-3.2 17.3-4.7 25.6-6.7l24.8-5.8c18.2-4.2 33.5-9.3 53.2-5 16.7 3.7 25.4 15.5 38.4 22.1 13.8 7 32.6 7.8 48.3 12.4 15.6 4.6 25.3 11.8 30.5 21a98 98 0 0 0 20.8 27.4c3.5 3.2 8.4 6.3 11.6 9.5 4 4 4.4 8.8 6 13.3 3.3 9 6.9 16.7 4.6 25.9a147.3 147.3 0 0 1-10.5 31.5c-3.5 7-2.3 15.5-8 22-5.5 6.2-12.8 12.3-17.7 18.7-3.6 4.6-5.3 9.8-9.4 14.4-4 4.4-11.8 7-17.1 10.7Z"
            opacity=".5" />
        <path id="u"
            d="M297.4 319.6c-12.5 1.9-28.5.6-40.8-1.1-3.7-.2-6.8-1-9.8-.9-4.6.1-9.8-1.4-14.5-1.5-5-.1-10.1-1.2-15.3-1.4-4 0-9 1-12.8 1.7-9.7 1.8-18.6 5.9-29 4.4-13.6-2-17.8-9.8-21.1-16.7a36.5 36.5 0 0 0-20.5-19c-4-1.7-9.6-2.2-14.2-3.3-6.8-1.6-12-3.3-18.3-5.5-10.7-3.7-33-9.9-30.2-19 2.7-8.7 10.7-17.7 8.1-26.7-1.3-4.7-7.5-9.4-11-13.6-4-4.7-10.4-8.5-14.6-13-4.9-5.3-9-10-6.4-16a34 34 0 0 1 9-13c5.3-4.8 12-9 16.4-14a131 131 0 0 0 12.3-16.4c4.9-8 8.8-21.8 24-25.8 11.2-2.8 23.7-4.2 35.3-6.5 7.4-1.4 9.5-3.7 11.9-7.8 5-9 14.4-14 30.3-16.7 8.8-1.4 18.6-1.5 27.7-2 9-.6 17.9-1.6 26.9-2.2C266 82 290 88.1 314.4 91c8.7 1 11.5-1.2 18.5-3.4a55 55 0 0 1 15.9-2c8.9 0 18.3 2 26.8 3.3l25.4 3.6c18.6 2.7 35.7 3.8 47 13.7 9.6 8.4 4.7 20.7 8.4 30.2 4 10.1 18 17 25.9 25.9 7.8 8.8 8.3 17.7 3.1 26.8a72.4 72.4 0 0 0-10.8 28.5c-.3 3.7.5 7.7-.2 11.3-.8 4.5-5.3 8.5-8.4 12.5-6.3 8.2-11.2 15.5-22.2 22-12.6 7.5-25.3 15-39.6 21.5-9.7 4.3-17.3 11.5-28.2 14.8-10.6 3-22.5 5.4-32.7 8.8-7.4 2.5-13.8 6-21.7 8.3-7.6 2.2-16.2 1.6-24.2 2.8Z"
            opacity=".8" />
        <path id="v"
            d="M174.3 306.5a95.5 95.5 0 0 1-31.2-14.4c-2.7-1.4-4.5-3-6.9-3.9-3.8-1.5-6.2-4.4-10-6-3.8-1.8-6.7-4.3-10.7-6.2-3-1.4-8-2.2-11.8-3-9.3-1.7-20.5-1.4-27.2-6-8.8-6.1-4.4-13.7 0-20.3 4.6-7.2 6.8-14.3 2.6-21.8-1.5-2.7-5.4-4.9-8-7.3a70.7 70.7 0 0 1-9-10.4c-4.7-6.5-16.1-18.8-4.9-25 10.8-6 26-10.5 33-18.5 3.6-4.1 3.4-9.8 4.8-14.4 1.5-5 .2-10.1 1.4-15.1 1.3-5.8 2.7-10.8 10.7-14.7a88.8 88.8 0 0 1 20.2-7.4c8.9-2 18.4-3 26.8-5.6 9-2.7 17.8-5.6 26.1-8.9C192 93 209 83.3 224.8 85.2c11.7 1.4 22.9 4.6 34.3 6.6 7.3 1.3 11.3.2 17.2-2.3 13-5.4 25.4-6.3 40.6-3.1 8.4 1.8 16.1 5 24 7.6 7.6 2.5 15.6 4.7 23.2 7.2 21.8 7 34.5 19.8 51 30.2 5.7 3.7 10.2 2.9 17.9 3.5 5.5.5 10 1.9 14.5 3.7 7.2 2.9 12.5 7.6 18 11.5l16.4 11.2c12 8.3 24.5 14.9 23.6 26.4-.8 10-16.9 18-23.5 26.7-7 9.3-2.6 19.4-5.2 29-2.6 9.6-11 16.8-24.2 22.3a189.3 189.3 0 0 0-36.9 19c-3.8 2.7-7.3 6.2-11.4 8.8-5.1 3.3-12.6 5-19.1 7.1-13.2 4.4-24.3 8.6-39.5 10a608.8 608.8 0 0 1-52.5 3.9c-12 .2-25.2 3.4-37 2.3-11.5-1-23.2-3-34.7-3.8-8.3-.5-17 .2-25.4-.6-8.1-.8-14.4-4.2-21.9-5.9Z" />
        <path id="w"
            d="M74.7 144.2c5.4-7.2 17.5-14 28-18.7 2.6-1.6 5.6-2.7 7.4-4.1 2.9-2.3 8.5-3.7 11.7-6 3.4-2.3 8.1-4 11.7-6.4 2.8-1.8 4.4-4.9 5.9-7.2 3.7-5.6 3.6-12.6 12.5-16.6 11.5-5.2 25.3-2.2 37.4.8a98.9 98.9 0 0 0 40.3 2.4c5-.8 9.3-3.2 13.8-4.7 6.6-2.1 12.4-3.5 19.6-5.1 12.2-2.7 35.4-9.3 46.5-2.2 10.8 7 18.4 16.5 33 21 7.5 2.5 18.1 2.5 26.4 3.6 9.2 1.1 18.8.5 28.1 1.4 10.6 1 20 2 26.8 7.2a46 46 0 0 1 12.9 12.7c3.3 5.6 4.9 11.5 9.3 16.8 4.8 5.6 9.7 11.2 15.5 16.4 8.4 7.5 25.4 18.3 21.3 28-3.1 7.2-9.3 14-13.5 21-2.7 4.5-.8 7 3.6 10.7 9.5 8.2 10.6 16 4.2 25.2-3.6 5.1-10 9.8-15 14.5-4.9 4.7-9.3 9.5-14.2 14.2-13.8 13.1-38.1 20.5-58 30.3-7 3.5-5.6 6.3-7.1 11-1 3.3-3.8 6.1-7.4 8.8-5.6 4.3-14.6 7.4-21.9 10.7l-21.5 9.7c-15.8 7.2-28.4 14.6-49.8 13.6-18.3-.8-32.6-11-48.6-15.4-17-4.7-35.8-2.4-53.6-4.3a72 72 0 0 1-40.2-15.8c-9.8-8.3-20.4-17-33.7-23.5-5-2.5-11.3-4.7-16-7.4-6-3.3-8.7-8-12.5-12-7.6-8.3-14.9-15.3-17.1-24.8-2.6-10.8-5-21.7-5-32.6 0-7.4-5.4-15.7-3-23 2.4-7 6.7-14.2 8.4-21.2 1.3-5.2.4-10.5 2.2-15.7 1.8-5 8.2-8.8 11.6-13.3Z"
            opacity=".3" />
        <path id="x"
            d="M172.6 93.9a146 146 0 0 1 40.7-5.6c3.7-.4 7.2-.2 10-.8 4.5-.8 10.4 0 15.1-.8 5-.7 10.5-.5 15.6-1.2 4-.5 8.4-2.4 11.9-3.7 8.6-3.3 15.3-8.8 26.4-9 14.2-.3 22.2 6.7 28.8 13 7.3 6.9 16 12.5 29.5 15.3 4.8 1 10.5.6 15.5 1 7.5.4 13.4 1.2 20.7 2.4 12.3 1.8 37.3 4.3 39 13.7 1.6 9-1.9 19.1 5 27.6 3.6 4.4 12 8 17.5 11.5 6.2 4 14.4 6.7 20.8 10.5 7.3 4.3 13.7 8.3 14 14.6.4 5 0 9.5-2.5 14.3-2.8 5.6-7.5 10.7-9.2 16.4-1.9 6-3.6 12.1-4.1 18.2-.9 8.7 2 22.9-11 29.2-9.7 4.7-21.3 8-31.6 12.1-6.6 2.7-7.6 5.3-7.9 9.7-.6 9.7-7.3 16.1-21.7 21.3-8 2.9-17.6 4.5-26.2 6.6-8.6 2-16.9 4.4-25.4 6.4-24 5.8-50.6 3.6-76 4.8-9 .4-10.7 3-16.6 6.3a47.3 47.3 0 0 1-14.6 4.6c-8.7 1.5-19 1-28 1.1l-26.7.6c-19.6.4-37 2.1-53-5.8-13.5-6.7-14.7-19.6-23-28.4-8.7-9.3-26-13.7-38-21.2-12-7.3-16.8-16-16.2-25.8.6-9.8.8-20.2-3.3-29.8-1.5-3.6-4.2-7.5-5.3-11.2-1.4-4.5 1.1-9.1 2.2-13.6 2.2-9.1 3.4-17 11-25.3 8.7-9.4 17.6-18.9 28.5-27.5 7.4-5.9 11.4-14.2 20.6-19.1 8.8-4.8 19.3-9 27.7-14 6.1-3.8 10.7-8.3 17.4-11.8 6.3-3.4 15.2-4.2 22.4-6.6Z"
            opacity=".5" />
        <path id="y"
            d="M300 86.6c13 .7 27.3 5 37.8 9.1 3.3 1 5.9 2.2 8.7 2.7 4.4.9 8.3 3.3 12.7 4.4 4.7 1 8.8 3 13.6 4.2 3.7 1 9 .9 13 1 10.1.3 21-1.8 29.9 1.6 11.5 4.5 10.9 12.7 9.9 19.9-1.2 7.8.2 15.2 8 21.9 2.8 2.4 7.7 4 11.4 5.9 5.4 2.8 9.2 5.4 13.9 8.7 7.9 5.6 25.1 15.9 17.1 23.9-7.7 7.6-20.4 14.5-23.4 23.5-1.5 4.6 1.5 10.2 2.3 15 1 5 4.8 10 6 15 1.5 6 2.6 11.2-3.3 16.3-4.8 4-9.5 7.5-16.3 10.5-7.7 3.4-16.6 6-23.6 9.9a235 235 0 0 0-21.4 13c-9.3 6.6-21.2 18.7-37.7 19.4-12.3.5-24.8-.7-37-.8a22 22 0 0 0-15.9 5c-10 7.4-21.9 10.3-38.3 9.7-9.2-.4-18.4-2.3-27.3-3.6-8.8-1.2-17.7-2-26.5-3.3-24.8-3.3-43.6-13.9-64.8-21.4-7.6-2.7-11.5-1.1-19.4-.5a58 58 0 0 1-16.1-1.3c-8.4-1.6-16-5.5-23.3-8.3l-21.7-8.5c-15.9-6.2-31.3-10.6-36-22.1-4.1-9.9 7.8-20.4 10-30 2.3-10.4-6.9-19.6-9-29.5-2.2-9.8 2.6-18.2 12.8-25.8a124.3 124.3 0 0 0 27.1-24.7c2.4-3.3 4.1-7.3 6.9-10.6 3.5-4 10-6.9 15.4-10 10.7-6.5 19.6-12.4 33.8-16.4 16.3-4.5 32.7-9 50-12.3 11.6-2.1 23-7.4 35.2-8.3 11.8-.8 24.3-.7 35.9-1.9 8.5-.9 16.6-2.9 25.3-3.5 8.4-.5 16.2 1.7 24.4 2.2Z"
            opacity=".8" />
        <path id="z"
            d="M408.1 123.2c9.5 4.8 16.5 13 20.7 19.7 1.7 1.8 2.5 3.7 4.2 5 2.7 2.2 3.2 5.4 5.7 7.7 2.6 2.4 4 5.4 6.5 7.9 2 2 6.3 3.7 9.4 5 7.6 3.6 18.3 5.5 22 11.3 4.6 7.4-4 13.6-12 19-8.7 5.8-15 12-15.4 20-.2 2.7 2.2 5.6 3.1 8.3a42 42 0 0 1 2.3 11.6c.7 7 4 20.8-10.2 24.5-13.7 3.5-30.6 4.7-41.9 10.8-5.8 3.2-9 8.6-13 12.6-4.4 4.4-6.2 9.5-10.3 14-4.7 5.1-9 9.6-18.8 11.6-7.8 1.7-15 2.9-23.3 3-9.5.1-19-.8-28.5 0-10 .8-20 1.7-29.8 3.2-14 2-35.4 7.8-49.2 2.8-10.2-3.7-18.8-8.8-28.4-13-6.1-2.6-10.5-2.4-17.5-1.2a62.9 62.9 0 0 1-40-5.1c-6.8-3.3-12.2-7.9-18-11.8-5.7-4-11.9-7.6-17.6-11.4-16.3-11-20.6-25.5-30-38.5-3.2-4.6-8-4.7-14.7-6.8a32.7 32.7 0 0 1-11.5-6.3c-5-4.2-7.2-9.7-10.1-14.4L33 199c-6.4-10.2-14.2-18.8-6.5-29.5C33.1 160.3 53 156 64.4 149c12-7.3 14-17.7 22-26.2 8.1-8.4 20.4-13.5 36-16.1 15.6-2.6 32-5.6 45.9-10.5 5.2-1.9 10.5-4.5 16-6.1 6.7-2 14.7-2.2 22.1-3 15-1.5 27.8-3.1 43-1.6 17.4 1.8 34.9 3.7 51.7 6.8 11.4 2.2 25.7 1.8 36.1 5.2 10.2 3.2 20 7.5 30.3 10.4 7.6 2 16 3.2 23.5 5.6 7.2 2.4 11.1 6.7 17.1 9.8Z" />
        <path id="A" stroke-dasharray="1 30"
            d="M405.5 295.4c-9.3 5.7-24.7 9.7-37.4 12-3.4 1-6.8 1.5-9.4 2.5-4 1.6-10.1 1.8-14.4 3.2-4.6 1.6-10.1 2.2-14.8 3.8-3.7 1.1-7 3.7-9.8 5.6-6.9 4.6-10.9 11-21.6 13.1-13.9 2.6-25.1-3-34.7-8a81.4 81.4 0 0 0-36.4-10.3c-5.2-.2-10.6 1.1-15.8 1.6-7.5.8-13.7.9-21.4 1-13.1.1-38.8 1.7-45-7.2-6-8.6-7.6-19-18.5-26.3-5.7-3.7-15.6-5.9-22.8-8.5-8-2.9-17.4-4.2-25.6-6.9-9.3-3-17.4-5.9-20.9-12a28 28 0 0 1-4.5-14.5c0-5.9 2.1-11.8 1-17.6a96.6 96.6 0 0 0-4.7-18.6c-3.4-8.6-13.1-22.1-3.4-30.4 7.1-6.2 17-11.4 25-17.1 5.2-3.7 5-6.4 3-10.8-4-9.6-.6-17 11-24.5 6.4-4 15.1-7.2 22.6-10.7 7.4-3.4 14.4-7 21.8-10.5 20.8-9.6 48-11.7 72.4-17 8.7-1.9 9-4.8 13.2-8.9 3-3 7.2-5 12.2-6.9 7.8-3 18.1-4 27-5.7l25.9-4.9c19-3.6 35.3-8 54.8-3 16.7 4.5 24 17 36.5 24.2 13.2 7.7 32.3 9.3 47.8 14.7 15.4 5.2 24.3 13 28.5 22.7 4.2 9.8 9 20 17.8 28.8 3.2 3.3 7.8 6.6 10.6 10 3.6 4.3 3.4 9.3 4.6 13.9 2.2 9.3 4.9 17.3 1.4 26.6-4 10.6-8 21.4-14.6 31.6-4.4 7-4.2 15.8-10.8 22.2-6.4 6.1-14.7 12-20.5 18.3-4.2 4.6-6.5 9.8-11.3 14.3-4.6 4.4-12.9 6.6-18.8 10.2Z"
            opacity=".3" />
        <path id="B" stroke-dasharray="1 30"
            d="M283.7 323.4a151 151 0 0 1-41.5-2.9c-3.7-.3-6.9-1.1-9.9-1.2-4.7 0-9.8-2-14.6-2.2-5.2-.3-10.2-1.6-15.4-2-4.1-.3-9.3.6-13.4 1.2-10 1.4-19.6 5.2-30.1 3.2-13.6-2.5-17-10.6-19.4-17.9a33.4 33.4 0 0 0-18.6-20.2c-4-1.9-9.6-2.6-14.1-4a147 147 0 0 1-18-6.3c-10.5-4.2-32.4-11.5-28.4-20.6 3.8-8.8 13-17.6 11.5-27-.7-4.8-6.5-9.8-9.6-14.2-3.4-5-9.5-9.1-13.3-14-4.3-5.5-8-10.4-4.6-16.4a40 40 0 0 1 10.9-13c6-4.7 13.4-8.6 18.4-13.6A146 146 0 0 0 88.2 136c6-8 11.7-21.9 27.7-25.2 11.8-2.5 24.7-3.4 36.8-5.2 7.8-1.2 10.2-3.4 13.1-7.6 6.3-8.9 16.5-13.7 33-15.7 9.2-1.1 19.2-.7 28.6-1 9.2-.2 18.4-.8 27.6-1 26-.7 49.7 6.6 74.3 10.5 8.7 1.4 11.9-.8 19.3-2.6a59.2 59.2 0 0 1 16.4-1.4c9.1.2 18.4 2.8 27 4.4l25.4 4.8c18.7 3.5 36 5.3 46.3 15.8 8.9 9 2.3 21.3 4.9 31.3 2.7 10.4 16.3 18 23.2 27.4 7 9.3 6.3 18.4 0 27.5a80.8 80.8 0 0 0-14.6 28.6c-.8 3.7-.5 8-1.6 11.6-1.5 4.5-6.5 8.4-10.2 12.4-7.5 8.1-13.3 15.3-25.3 21.5a433.4 433.4 0 0 1-43.1 20.3c-10.4 4-19.1 11-30.6 13.9-11.2 2.7-23.6 4.7-34.4 7.7-8 2.2-15 5.6-23.2 7.6-8 1.9-16.8 1-25 1.8Z"
            opacity=".5" />
        <path id="C" stroke-dasharray="1 30"
            d="M159.6 305a88.8 88.8 0 0 1-30-16c-2.6-1.5-4.3-3.2-6.6-4.2-3.6-1.7-5.8-4.8-9.3-6.7-3.8-2-6.5-4.6-10.3-6.6-3-1.6-8-2.6-11.7-3.5-9.3-2.3-20.7-2.4-27-7.5-8.2-6.5-2.8-14 2.4-20.6 5.7-7.1 8.8-14.3 5.4-22.1-1.2-2.8-4.9-5.3-7.2-7.8-3.4-3.8-5.4-7-7.9-11-4-6.8-14.2-19.8-2-25.8 11.9-5.7 27.9-9.6 36-17.4 4.2-4.1 4.7-10 6.6-14.5 2.2-5 1.5-10.4 3.4-15.5 2-5.8 4.1-10.9 12.7-14.5a97.8 97.8 0 0 1 21.6-6.7c9.3-1.7 19-2.3 28-4.6 9.5-2.5 18.9-5 27.8-8 12.6-4.4 31-13.5 47-10.8 11.8 1.9 22.8 5.5 34.2 8 7.3 1.7 11.5.7 17.9-1.5a67 67 0 0 1 41.8-1.5c8.4 2.1 15.9 5.7 23.5 8.7 7.5 2.9 15.4 5.4 23 8.3 21.2 8 32.6 21.7 48.1 33 5.5 4 10.2 3.3 18 4.3a47 47 0 0 1 14.3 4.3c7 3.3 11.8 8.4 17 12.5l15.3 12.2c11.3 9 23.2 16.1 20.8 28-2 10-19.4 17.5-27.2 26.2-8.3 9.2-5.1 19.7-9 29.4-3.7 9.7-13.3 16.7-27.3 21.7a212.6 212.6 0 0 0-40 17.9c-4.3 2.7-8.3 6-12.8 8.6-5.7 3.1-13.5 4.5-20.4 6.4-14 4-25.8 7.7-41.5 8.7-18 1-36.1 2-54.2 1.7-12.2-.3-26.1 2.4-38 .8-11.6-1.5-23.3-4.1-35-5.3-8.4-.8-17.2-.5-25.8-1.7-8.2-1.1-14.2-4.8-21.6-6.9Z"
            opacity=".8" />
        <path id="D" stroke-dasharray="1 30"
            d="M79.8 249.3c-6-6.4-7.8-15.5-7.8-22.7-.5-2-.1-3.9-1-5.5-1.2-2.5.2-5.7-.8-8.3-1-2.8-.4-5.8-1.4-8.7-.7-2.2-3.7-4.7-5.8-6.6-5.1-4.9-14-8.8-14-14.9 0-7.8 11.8-12 22.5-15.4 11.6-3.8 21.2-8.5 26.3-15.8 1.8-2.6 1.3-5.7 2-8.5 1-4.1 2.6-7.3 4.7-11.3 3.5-6.8 8.5-20.4 24-21 15-.6 31.6 1.6 45.8-2 7.4-1.8 13.6-6.2 19.7-9.2 6.8-3.2 11.5-7.7 18-11a48.5 48.5 0 0 1 24.6-7.3c8.3 0 15.7.3 23.6 1.8 9 1.8 17.4 4.5 26.8 5.7a427 427 0 0 0 29.9 2.8c14.3.8 37.8-.3 47.9 7 7.4 5.5 12.5 12 19 17.9 4.2 3.7 8.4 4.3 15.7 4.6 16 .7 26.4 4.6 34.5 12.7 4.5 4.5 6.8 9.8 10 14.7 3 4.8 6.7 9.4 9.8 14.2 8.8 13.4 4.3 28 5.3 42 .3 5 4.7 6 9.9 9.4a18 18 0 0 1 7 8.2c2.3 4.8 1 10.5 1 15.4v14.8c0 10.8 2.3 20.4-11.3 29-11.6 7.2-32.8 7.4-47.7 11.7-15.6 4.5-23.6 13.9-36.3 20.3a86.8 86.8 0 0 1-43.2 8c-16.3-.6-33.4-1-49.4.9-6 .7-12.5 2-18.6 2.5-7.6.6-15.2-.9-22.6-1.6-15-1.5-28-2.5-41.4-7a473.5 473.5 0 0 1-44.5-16.6c-9.4-4.2-23-6.7-31-12-7.5-5-14.2-10.9-22.2-15.7-5.8-3.5-13.1-6.2-18.7-10-5.4-3.6-6.5-8.4-10.3-12.5Z" />
    </defs>
    <g clip-path="url(#a)">
        <path fill="#121212" d="M0 0h526v239H0z" />
        <g filter="url(#b)">
            <path fill="#D5FF5C" fill-opacity=".1"
                d="m795 1287.6 38.5 29.7a78.2 78.2 0 0 0 125.8-62l-.1-74.6a138 138 0 0 0-3.9-32l-150-621a400 400 0 0 0-34.8-92.2L585.7 83.9A400 400 0 0 0 136-118.3L37.3-94A400 400 0 0 0-91.2-37l-199 134.7L-421 212a81.4 81.4 0 0 0-27 73.2l3.6 24.4a51.7 51.7 0 0 0 49 44.2l139.8 9.9 108.5 6.2 58.6-.7a167.7 167.7 0 0 1 163.3 122l10.2 36a326 326 0 0 0 56.6 111.6l43.6 55.8a399.8 399.8 0 0 0 39.6 43.8l53 50.4a400 400 0 0 0 116 77l5 2.2A400 400 0 0 1 499 930.6l47.8 41a400 400 0 0 1 94.2 117.8l11.8 22.5a400 400 0 0 0 41.7 63.7l49.7 62.2a297.2 297.2 0 0 0 50.7 49.8Z" />
            <path fill="#000" fill-opacity=".2"
                d="m795 1287.6 38.5 29.7a78.2 78.2 0 0 0 125.8-62l-.1-74.6a138 138 0 0 0-3.9-32l-150-621a400 400 0 0 0-34.8-92.2L585.7 83.9A400 400 0 0 0 136-118.3L37.3-94A400 400 0 0 0-91.2-37l-199 134.7L-421 212a81.4 81.4 0 0 0-27 73.2l3.6 24.4a51.7 51.7 0 0 0 49 44.2l139.8 9.9 108.5 6.2 58.6-.7a167.7 167.7 0 0 1 163.3 122l10.2 36a326 326 0 0 0 56.6 111.6l43.6 55.8a399.8 399.8 0 0 0 39.6 43.8l53 50.4a400 400 0 0 0 116 77l5 2.2A400 400 0 0 1 499 930.6l47.8 41a400 400 0 0 1 94.2 117.8l11.8 22.5a400 400 0 0 0 41.7 63.7l49.7 62.2a297.2 297.2 0 0 0 50.7 49.8Z" />
        </g>
        <g filter="url(#c)">
            <path fill="#241F42" fill-opacity=".7"
                d="m1325.4 794.1 43.8 21.5a78.2 78.2 0 0 0 110.9-86l-15-73a137.8 137.8 0 0 0-10.2-30.6L1184.1 47.4a399.7 399.7 0 0 0-52.5-83.5L880.4-343.7a400 400 0 0 0-481-108.5l-91.8 43.4a400 400 0 0 0-114.5 81.6L24.9-155.6-80.5-17.5a81.4 81.4 0 0 0-11.9 77l8.4 23.2a51.7 51.7 0 0 0 57 33.6L111.8 98l107.5-15.5 57.3-12.4a167.7 167.7 0 0 1 184.3 87l17.2 33.3a326 326 0 0 0 77.7 98l53.8 46.1a400 400 0 0 0 47.6 35l61.9 38.8a400 400 0 0 0 129 52.3l5.4 1.2a400 400 0 0 1 110.7 41.4l55 30.5a400 400 0 0 1 115.7 96.8l16.2 19.7c16 19.7 34 37.8 53.5 54.1l61 51a297 297 0 0 0 59.7 38.7Z" />
            <path fill="#000" fill-opacity=".2"
                d="m1325.4 794.1 43.8 21.5a78.2 78.2 0 0 0 110.9-86l-15-73a137.8 137.8 0 0 0-10.2-30.6L1184.1 47.4a399.7 399.7 0 0 0-52.5-83.5L880.4-343.7a400 400 0 0 0-481-108.5l-91.8 43.4a400 400 0 0 0-114.5 81.6L24.9-155.6-80.5-17.5a81.4 81.4 0 0 0-11.9 77l8.4 23.2a51.7 51.7 0 0 0 57 33.6L111.8 98l107.5-15.5 57.3-12.4a167.7 167.7 0 0 1 184.3 87l17.2 33.3a326 326 0 0 0 77.7 98l53.8 46.1a400 400 0 0 0 47.6 35l61.9 38.8a400 400 0 0 0 129 52.3l5.4 1.2a400 400 0 0 1 110.7 41.4l55 30.5a400 400 0 0 1 115.7 96.8l16.2 19.7c16 19.7 34 37.8 53.5 54.1l61 51a297 297 0 0 0 59.7 38.7Z" />
        </g>
        <circle cx="427.5" cy="191.5" r="181.5" fill="url(#d)" opacity=".3" />
        <g opacity=".7">
            <g filter="url(#e)" opacity=".2">
                <path stroke="#FD4848"
                    d="M453.5 120.5c0 22.7 3.6 43.3 9.3 58.2a56.2 56.2 0 0 0 10.1 17.5c3.8 4 7.9 6.3 12.1 6.3s8.3-2.2 12-6.3a54.2 54.2 0 0 0 10.2-17.5c5.7-14.9 9.3-35.5 9.3-58.2 0-22.7-3.6-43.3-9.3-58.2A56.2 56.2 0 0 0 497 44.8c-3.8-4-7.9-6.3-12.1-6.3s-8.3 2.2-12 6.3a56.5 56.5 0 0 0-10.2 17.5 166.7 166.7 0 0 0-9.3 58.2Z"
                    shape-rendering="crispEdges" />
            </g>
            <g filter="url(#f)" opacity=".1">
                <path stroke="#FD4848"
                    d="M457.5 120.5c0 22.7 3.6 43.3 9.3 58.2a56.2 56.2 0 0 0 10.1 17.5c3.8 4 7.9 6.3 12.1 6.3s8.3-2.2 12-6.3a54.2 54.2 0 0 0 10.2-17.5c5.7-14.9 9.3-35.5 9.3-58.2 0-22.7-3.6-43.3-9.3-58.2A56.2 56.2 0 0 0 501 44.8c-3.8-4-7.9-6.3-12.1-6.3s-8.3 2.2-12 6.3a56.5 56.5 0 0 0-10.2 17.5 166.7 166.7 0 0 0-9.3 58.2Z"
                    shape-rendering="crispEdges" />
            </g>
            <g filter="url(#g)">
                <path stroke="#FD4848"
                    d="M444.5 120.5c0 22.7 3.6 43.3 9.3 58.2a56.2 56.2 0 0 0 10.1 17.5c3.8 4 7.9 6.3 12.1 6.3s8.3-2.2 12-6.3a54.2 54.2 0 0 0 10.2-17.5c5.7-14.9 9.3-35.5 9.3-58.2 0-22.7-3.6-43.3-9.3-58.2A56.2 56.2 0 0 0 488 44.8c-3.8-4-7.9-6.3-12.1-6.3s-8.3 2.2-12 6.3a56.5 56.5 0 0 0-10.2 17.5 166.7 166.7 0 0 0-9.3 58.2Z"
                    shape-rendering="crispEdges" />
            </g>
            <g filter="url(#h)" opacity=".5">
                <path stroke="#FD4848"
                    d="M449.5 120.5c0 22.7 3.6 43.3 9.3 58.2a56.2 56.2 0 0 0 10.1 17.5c3.8 4 7.9 6.3 12.1 6.3s8.3-2.2 12-6.3a54.2 54.2 0 0 0 10.2-17.5c5.7-14.9 9.3-35.5 9.3-58.2 0-22.7-3.6-43.3-9.3-58.2A56.2 56.2 0 0 0 493 44.8c-3.8-4-7.9-6.3-12.1-6.3s-8.3 2.2-12 6.3a56.5 56.5 0 0 0-10.2 17.5 166.7 166.7 0 0 0-9.3 58.2Z"
                    shape-rendering="crispEdges" />
            </g>
        </g>
        <g filter="url(#i)" opacity=".2">
            <path stroke="#D5FF5C"
                d="M71.5 119.5c0 22.7-3.6 43.3-9.3 58.2A56.2 56.2 0 0 1 52 195.2c-3.8 4-7.9 6.3-12.1 6.3-4.2 0-8.3-2.2-12-6.3a54.2 54.2 0 0 1-10.2-17.5 166.7 166.7 0 0 1-9.3-58.2c0-22.7 3.6-43.3 9.3-58.2A56.2 56.2 0 0 1 28 43.8c3.8-4 7.9-6.3 12.1-6.3 4.2 0 8.3 2.2 12 6.3a56.5 56.5 0 0 1 10.2 17.5c5.7 14.9 9.3 35.5 9.3 58.2Z"
                shape-rendering="crispEdges" />
        </g>
        <g filter="url(#j)">
            <path stroke="#D5FF5C"
                d="M80.5 119.5c0 22.7-3.6 43.3-9.3 58.2A56.2 56.2 0 0 1 61 195.2c-3.8 4-7.9 6.3-12.1 6.3-4.2 0-8.3-2.2-12-6.3a54.2 54.2 0 0 1-10.2-17.5 166.7 166.7 0 0 1-9.3-58.2c0-22.7 3.6-43.3 9.3-58.2A56.2 56.2 0 0 1 37 43.8c3.8-4 7.9-6.3 12.1-6.3 4.2 0 8.3 2.2 12 6.3a56.5 56.5 0 0 1 10.2 17.5c5.7 14.9 9.3 35.5 9.3 58.2Z"
                shape-rendering="crispEdges" />
        </g>
        <g filter="url(#k)" opacity=".5">
            <path stroke="#D5FF5C"
                d="M75.5 119.5c0 22.7-3.6 43.3-9.3 58.2A56.2 56.2 0 0 1 56 195.2c-3.8 4-7.9 6.3-12.1 6.3-4.2 0-8.3-2.2-12-6.3a54.2 54.2 0 0 1-10.2-17.5 166.7 166.7 0 0 1-9.3-58.2c0-22.7 3.6-43.3 9.3-58.2A56.2 56.2 0 0 1 32 43.8c3.8-4 7.9-6.3 12.1-6.3 4.2 0 8.3 2.2 12 6.3a56.5 56.5 0 0 1 10.2 17.5c5.7 14.9 9.3 35.5 9.3 58.2Z"
                shape-rendering="crispEdges" />
        </g>
        <path fill="url(#l)" fill-opacity=".2" d="M3687.2 1992h3902.1v2195H3687.2z"
            transform="rotate(180 3687.2 1992)" />
        <mask id="n" width="472" height="165" x="41" y="37" maskUnits="userSpaceOnUse"
            style="mask-type:alpha">
            <path fill="url(#m)" d="M41 37h472v165H41z" />
        </mask>
        <g stroke="#D5FF5C" stroke-linecap="round" mask="url(#n)">
            <g opacity=".3">
                <g opacity=".3">
                    <path
                        d="M182.6 82.7c12-3.5 29-4.2 42.3-3.9 3.8-.2 7.3 0 10.3-.4 4.7-.6 10.6.4 15.5-.1 5.2-.5 10.8 0 16.1-.5 4.2-.4 8.8-2.2 12.5-3.4 9.2-3.1 16.7-8.6 28-8.4 14.6.4 22 8.2 28 15.2 6.7 7.7 15 14 28.5 17.7 4.8 1.3 10.6 1.1 15.7 1.7 7.6.8 13.5 2 20.9 3.5 12.4 2.6 37.6 6.5 38.3 16.5.7 9.7-4 20.2 2.2 29.6 3.1 4.8 11.3 9 16.5 13 5.9 4.6 14 7.8 20.1 12.2 7 5 13 9.4 12.8 16.1-.3 5.4-1 10.1-4.2 15.2-3.5 5.7-8.8 11-11.3 17-2.5 6.2-5 12.6-6.2 19-1.8 9.2-.5 24.4-14.5 30.5-10.3 4.5-22.6 7.5-33.6 11.4-7 2.5-8.3 5.2-9 10-1.8 10.2-9.4 16.7-24.6 21.6-8.5 2.6-18.5 3.9-27.6 5.7-9 1.7-17.6 3.9-26.6 5.6-25.2 5-52 1.5-78.2 1.5-9.3 0-11.3 2.8-17.6 6a49.5 49.5 0 0 1-15.5 4c-9 1.3-19.5.2-28.7 0l-27.4-.7c-20-.5-38 .5-53.4-8.6-13.2-7.8-13-21.5-20.4-31.3-8-10.3-25-15.8-36.6-24.3-11.4-8.4-15.4-17.8-13.7-28.2a72 72 0 0 0 0-31.8c-1.2-4-3.5-8.2-4.2-12.1-1-5 2.1-9.8 3.7-14.5 3.3-9.5 5.4-18 14-26.3 10-9.6 20.1-19.2 32.2-27.9 8.3-5.8 13.2-14.5 23.2-19.3 9.6-4.7 20.8-8.7 29.9-13.6 6.6-3.6 11.8-8.2 19-11.6 6.9-3.3 16-3.8 23.6-6Z"
                        opacity=".3" />
                    <path
                        d="M313.7 81c13.1 1.3 27.3 6.6 37.6 11.5 3.3 1.1 5.8 2.6 8.6 3.3 4.4 1 8.1 4 12.5 5.2 4.7 1.4 8.7 3.7 13.4 5.2 3.7 1.1 9.2 1.3 13.3 1.6 10.2.8 21.5-1 30.3 3.2 11.3 5.3 9.7 14 8 21.6-2.1 8.2-1.6 16.1 5.7 23.6 2.6 2.7 7.5 4.6 11 6.8a109 109 0 0 1 13.3 10c7.4 6.3 23.9 18 14.8 26.1-8.7 7.8-22.5 14.5-26.5 24-2 4.8.4 11 .7 16 .4 5.5 3.8 10.8 4.5 16.3.9 6.3 1.4 12-5.2 17a68.7 68.7 0 0 1-17.8 10.5c-8.3 3.3-17.6 5.6-25.3 9.4-8 4-16 8.2-23.2 12.8-10.3 6.6-23.8 19-40.8 18.9-12.6 0-25.2-2-37.7-2.7-8-.5-11.6 1.2-16.8 4.6a59 59 0 0 1-40.2 8.5c-9.4-.9-18.6-3.3-27.6-5-8.8-1.8-17.8-3.2-26.7-4.8-25-4.8-43-17-63.9-26-7.4-3.2-11.6-1.7-19.7-1.4a56 56 0 0 1-16.4-2.1c-8.4-2.2-15.7-6.6-22.9-10l-21.2-10C40 267.8 24.7 262.4 21.1 250c-3-10.7 10.2-21.3 13.5-31.5 3.5-10.8-4.8-21.1-6-31.7-1-10.5 4.8-19.3 16-26.8 11.4-7.6 23-15.8 30.5-25 2.8-3.5 5-7.6 8.2-11 4-4 11-6.8 16.8-10 11.7-6.3 21.5-12.1 36.4-15.7A589 589 0 0 1 189 87.5c12.2-1.7 24.4-6.8 37-7.2 12.1-.3 25 .4 36.9-.3 8.8-.5 17.3-2.3 26.3-2.5 8.6-.2 16.4 2.6 24.6 3.5Z"
                        opacity=".5" />
                    <path
                        d="M420.2 125a53.5 53.5 0 0 1 19 22c1.5 2 2.2 4 3.7 5.5 2.5 2.4 2.8 5.9 5 8.4 2.4 2.7 3.4 5.9 5.8 8.7 1.9 2.2 6 4.2 9 5.9 7.5 4.1 18.2 6.6 21.2 12.9 4 8-5.5 14.3-14.3 19.6-9.5 5.8-16.6 12.2-18 20.5-.4 3 1.7 6.2 2.4 9.2 1 4.3 1 7.9 1 12.3 0 7.6 1.9 22.4-13 25.6-14.5 3.1-31.9 3.6-44.1 9.6-6.3 3-10.2 8.7-14.7 12.7-5 4.5-7.4 9.8-12.1 14.4a34.6 34.6 0 0 1-20.5 11.5 117 117 0 0 1-24.2 2c-9.8-.3-19.4-1.7-29.2-1.3-10.3.4-20.7.9-30.8 2-14.5 1.6-37 6.6-50.6.7-10-4.4-18.3-10.3-27.6-15.2-6-3-10.5-3-17.8-2.1-16 2-28.3-.4-40.3-7.3-6.7-4-11.6-9-17.1-13.5-5.5-4.4-11.4-8.6-16.8-13-15.4-12.3-18.3-28-26.3-42.3-2.9-5-7.7-5.4-14.4-8a30.7 30.7 0 0 1-11.1-7.2c-4.7-4.6-6.2-10.7-8.7-15.8l-7.4-15.1c-5.5-11.1-12.5-20.6-3.5-31.7 7.8-9.4 28.6-13 41-20 13.1-7.2 16.3-18.1 25.5-26.8 9.2-8.6 22.3-13.4 38.5-15.5a284 284 0 0 0 48.1-9c5.6-1.7 11.3-4.2 17-5.7 7.2-1.9 15.4-1.6 23-2 15.5-1 28.8-2.1 44.2.3 17.5 2.7 35.2 5.5 52 9.7 11.5 2.8 26.1 3 36.5 7.1 10 4 19.5 9 29.8 12.5 7.5 2.7 16 4.2 23.4 7.1 7.1 2.9 10.6 7.7 16.4 11.3Z"
                        opacity=".8" />
                    <path
                        d="M463.1 196.2c2 7.5-1.6 16.8-5.8 23.8-.7 2-2.1 3.8-2.3 5.6-.3 2.7-3.4 5.5-4 8.3-.7 3-3 5.8-3.7 8.8-.6 2.3.8 5.3 1.6 7.7 2 5.8 8 11.5 4.5 17.4-4.5 7.7-18 9.3-30.1 10.4a73 73 0 0 0-34 9.9c-3.2 2.1-4.6 5.3-6.8 7.9a86.6 86.6 0 0 1-11 10c-7.3 5.9-20 18.2-35 15.5-14.4-2.5-28.7-8.2-44.2-7.7-8 .2-16.5 3.3-24 4.9-8.2 1.7-15.3 5-23.4 7a57.1 57.1 0 0 1-27.4 2 95 95 0 0 1-21.2-6.8c-7.5-3.6-13.8-8-22-11.2-8.6-3.2-17.3-6.4-26.5-9-13.1-3.8-36-7.7-41.1-17-3.8-6.9-4.8-14.3-7.6-21.3-1.8-4.6-5.4-6-12.2-7.9-14.6-4-22.2-10-25.1-19.6-1.7-5.3-.8-11-.9-16.5-.1-5.3-.9-10.6-1-15.9-.5-15 12.2-28.2 19.4-42.2 2.6-5-1-6.8-3.9-11.2a13 13 0 0 1-1.9-9.5c.7-5.2 5.2-10.5 8-15.3l8.6-14.4c6.3-10.6 9.7-20.5 27.5-26 15.2-4.6 35.3-.4 51.8-1.4 17.4-1.2 30.4-8.6 46-12.2a92 92 0 0 1 45.5 1.2c15 4 30.9 8 47 9.6 6.2.5 13.1.6 19.1 1.4 7.6 1 13.8 4 20.3 6.3 13.3 4.6 25 8.3 35 15.5a296.7 296.7 0 0 1 32.4 25.5c6.4 6.2 17.9 11.5 22.3 18.2 4.2 6.6 7 13.8 11.8 20.1 3.5 4.7 8.8 8.8 12 13.7 2.9 4.6 1 9.6 2.3 14.4Z" />
                </g>
                <g opacity=".5">
                    <path
                        d="M271 332c-13.5.8-30-2-42.3-5.1-3.7-.6-6.8-1.6-9.9-1.8-4.8-.3-9.8-2.5-14.7-3-5.2-.6-10.2-2.2-15.5-2.9-4.2-.5-9.6.3-13.8.7-10.4 1-20.6 4.6-31.2 2-13.5-3.4-16-12.2-17.8-20-2-8.5-6.2-16.2-16.8-22.3-3.8-2.2-9.5-3.3-14-4.9a162 162 0 0 1-17.6-7.6c-10.3-5-31.9-13.7-26.8-23.3 4.9-9.1 15.2-18 14.7-28-.2-5.2-5.5-10.8-8.2-15.7-3-5.4-8.7-10-12-15.4-3.8-6-7-11.5-3-17.7a46 46 0 0 1 12.6-13.3c6.6-4.7 14.6-8.5 20.3-13.6a176 176 0 0 0 16.8-16.6c7-8.2 14.3-22.7 31-25.5 12.4-2 25.6-2.3 38.2-3.7 8-1 10.8-3.2 14.2-7.4 7.5-9.2 18.4-13.8 35.5-15.2 9.5-.8 19.7.1 29.3.3 9.5.2 19 0 28.4.2 26.7.5 50 9.4 74.7 14.8 8.8 1.9 12.2-.3 20-2a59 59 0 0 1 17-.7c9.2.7 18.5 3.9 27 6l25.5 6.3c18.7 4.6 36.2 7.3 45.6 19 8 10 0 22.8 1.5 33.4 1.6 11.3 14.6 20 20.7 30.3 6 10.2 4.4 19.8-3.1 29.2a93.8 93.8 0 0 0-18 29.7c-1.2 4-1.4 8.4-3 12.2-2 4.8-7.5 8.7-11.7 12.8-8.5 8.2-15.3 15.6-28.3 21.7a470.6 470.6 0 0 1-46.2 19.4c-11.1 3.8-20.8 10.9-32.9 13.3-11.7 2.4-24.6 3.9-36 6.6-8.3 2-15.8 5.2-24.5 7-8.4 1.6-17.3.2-25.8.7Z"
                        opacity=".3" />
                    <path
                        d="M146 306.6c-11.5-4-22-11.8-28.9-18.5-2.4-1.7-4-3.6-6.2-4.8-3.6-2-5.5-5.4-8.9-7.5-3.6-2.3-6-5.2-9.7-7.6-2.8-1.8-7.9-3.1-11.6-4.3-9.2-2.8-20.9-3.5-26.8-9.1-7.7-7.4-1.3-15.1 4.8-21.8 6.6-7.4 10.6-14.9 8-23.4-1-3-4.5-5.8-6.6-8.6-3-4.1-4.8-7.6-6.8-12-3.5-7.5-12.4-21.8.8-27.5 12.7-5.5 29.5-8.9 38.7-16.9 4.7-4.1 5.8-10.3 8.4-15 2.7-5.3 2.6-11 5-16.4 2.8-6 5.5-11.4 14.7-14.8a102 102 0 0 1 22.8-6c9.6-1.4 19.8-1.7 29.2-3.7 9.9-2.1 19.8-4.3 29.2-7.2 13.4-4 33.2-12.8 49.2-9.2 11.9 2.6 22.8 7 34.2 10.2a27.6 27.6 0 0 0 18.4-.8 66.5 66.5 0 0 1 42.9.4c8.3 2.6 15.6 6.9 23 10.3 7.5 3.5 15.2 6.6 22.6 10 20.9 9.6 31 24.6 45.6 37.4 5.2 4.5 10 4 17.9 5.4 5.6 1 10 2.9 14.2 5.3 6.7 3.7 11.1 9.4 16 14l14.3 13.7c10.5 10 22 18.3 18.2 30.7-3.2 10.6-21.8 17.8-30.7 26.7-9.5 9.4-7.4 20.7-12.4 30.8-5 10-15.5 17-30.4 21.8-15 4.8-30.6 10-43 17-4.6 2.7-9 6.1-13.9 8.6-6.1 3-14.3 4.1-21.6 5.9-14.7 3.5-27.2 7-43.3 7.2-18.5.3-37.2.5-55.6-.7-12.5-.9-27 1.3-39-1-11.7-2.1-23.3-5.4-35-7.2-8.7-1.4-17.7-1.5-26.3-3.1-8.3-1.6-14-5.8-21.4-8.3Z"
                        opacity=".5" />
                    <path
                        d="M70.5 243.6a34.9 34.9 0 0 1-5.4-24.5c-.3-2.2.2-4.2-.4-6-1-2.7.8-6 0-8.8-.7-3 .2-6.2-.5-9.3-.5-2.4-3.2-5.2-5.1-7.4-4.7-5.4-13.4-10-12.7-16.4.9-8.4 13.4-12.3 24.7-15.4 12.2-3.5 22.6-8 28.6-15.5 2.2-2.7 2-6 3-9 1.5-4.3 3.5-7.7 6-11.8 4.4-7 11-21.3 27-21.2 15.4 0 32 3.2 47 .1 7.8-1.6 14.6-6 21.2-8.9 7.2-3.1 12.6-7.6 19.6-11 8-3.7 15.2-7 26-6.5 8.4.4 16 1 24 3 9 2.4 17.2 5.7 26.7 7.4 10 1.7 20 3.4 30.2 4.4 14.6 1.5 38.8 1.5 48.2 9.8 7 6.2 11.5 13.4 17.5 19.8 3.9 4.2 8.1 5 15.6 5.7 16.2 1.5 26.5 6.2 33.9 15.1 4 5 5.8 10.8 8.5 16.1 2.6 5.3 5.8 10.4 8.5 15.6 7.5 14.7 1.3 30 .7 45-.1 5.3 4.2 6.6 9.1 10.4 3.5 2.7 5.2 5.8 6.3 9 1.8 5.3 0 11.3-.6 16.6l-1.7 15.7c-1.2 11.5 0 21.8-14.8 30.3-12.6 7.2-34.4 6.3-50 10.2-16.5 4-25.7 13.6-39.4 19.9a88.5 88.5 0 0 1-45.1 6.5c-16.6-1.5-34-2.8-50.6-1.5-6.3.5-13 1.6-19.3 1.9-7.9.3-15.4-1.7-22.9-2.9-15.1-2.3-28.4-4-41.6-9.3-15-6.2-30.1-12.4-43.6-19.8-9.2-5-23-8.3-30.4-14.2-7.2-5.7-13.4-12.3-21-17.8-5.6-4-12.8-7.2-18-11.5-5.2-4-5.7-9.3-9.2-13.8Z"
                        opacity=".8" />
                    <path
                        d="M70.5 168.2c2.4-7.5 11.1-15.4 19-21 1.9-1.9 4.2-3.2 5.4-4.8 1.8-2.5 6.4-4.5 8.5-7 2.3-2.6 6-4.8 8.5-7.4 1.9-2 2.3-5.2 2.9-7.5 1.4-5.9-1.2-12.4 5.6-17.3 8.7-6.2 22.4-5 34.4-3.5a88.7 88.7 0 0 0 37.7-2.2c4.3-1.4 7.3-4 11-6a143 143 0 0 1 16-7.1c10.2-4 29.1-13 41.8-7.3 12.3 5.3 22.6 13.6 37.5 16.3 7.7 1.4 17.4.3 25.3.4 8.9 0 17.4-1.7 26.2-1.8 10-.2 19-.3 27 3.8a63 63 0 0 1 16.2 10.7c5 4.9 8.5 10.4 14.4 15 6.3 4.7 12.7 9.5 19.9 13.9 10.2 6.2 29.6 14.5 29.2 24.3-.3 7.2-3.6 14.4-5 21.5-.9 4.6 1.7 6.7 7 9.8 11.5 6.8 15.3 14 12.6 23.6-1.5 5.3-5.6 10.4-8.5 15.5-3 5-5.2 10.1-8 15.1-8.1 14.1-27.7 23.9-42.5 35.5-5.2 4-3 6.6-2.6 11.2.2 3.4-1.4 6.3-3.7 9.3-3.6 4.7-10.8 8.7-16.3 12.7l-16.2 11.7c-12 8.6-20.9 17-40.8 18.6-17 1.2-33.6-7-49.8-9.3-17-2.5-33.5 1.8-50.4 2a80.8 80.8 0 0 1-42.3-10.6 204.7 204.7 0 0 0-39-18.6c-5.4-1.8-12-3.2-17.2-5.2-6.5-2.5-10.7-6.7-15.5-10.1-10-7-19-13-24.3-21.7a174 174 0 0 1-16-30.6c-2.6-7-10.4-14.3-10.7-21.5-.3-7 1.1-14.3.2-21.2-.6-5.1-3.3-10-3.5-15.2-.1-5 4.5-9.3 6-14Z" />
                </g>
                <g stroke-dasharray="50 2" opacity=".8">
                    <path
                        d="M329.3 80.8c13.1 2 27 8 37 13.4 3.1 1.3 5.5 2.9 8.3 3.7 4.4 1.3 7.8 4.4 12.2 5.9 4.6 1.6 8.4 4.1 13 5.8 3.7 1.4 9.2 1.8 13.4 2.3 10.4 1.2 22.1 0 30.6 4.5 10.9 6 8.3 14.7 5.5 22.3-3 8.4-3.4 16.4 3.1 24.4 2.4 2.8 7.1 5 10.5 7.4 5 3.5 8.2 6.7 12.3 10.7 6.9 6.8 22.3 19.4 12.1 27.3-9.8 7.6-24.7 13.7-30 23.2-2.6 4.9-.8 11.2-1 16.3-.3 5.7 2.5 11.3 2.6 17 0 6.4 0 12.1-7.4 17-6 4-11.6 7.3-19.4 10-8.9 2.9-18.7 4.8-27 8.4-8.6 3.8-17.3 7.7-25.2 12-11.2 6.3-26.4 18.3-43.8 17.5-12.8-.5-25.5-3-38.2-4.3a25 25 0 0 0-17.7 4 62.9 62.9 0 0 1-42.1 6.8c-9.4-1.2-18.5-4.1-27.5-6.3-8.8-2.1-17.8-3.9-26.7-6-25-6-42-19-62.2-29.1-7.2-3.6-11.7-2.3-20-2.4-6 0-11.1-1.2-16.4-2.8-8.4-2.6-15.3-7.4-22.2-11.2l-20.5-11c-15-8.2-30-14.4-32.2-27.2-1.8-11 13-21.3 17.6-31.6 4.9-10.8-2.5-21.7-2.3-32.5 0-10.8 7.1-19.4 19.5-26.7 12.4-7.2 25.2-15 34-24 3.3-3.5 6-7.6 9.7-10.8 4.5-4.1 12-6.6 18.3-9.5 12.7-6 23.4-11.5 39-14.5 18-3.4 36.2-6.8 54.8-8.7 12.6-1.2 25.8-5.9 38.6-5.7 12.4.2 25.4 1.5 37.7 1.3 9-.2 18-1.6 27.2-1.4 8.8.1 16.4 3.3 24.8 4.5Z"
                        opacity=".3" />
                    <path
                        d="M432.8 130.2c8.7 6 14 15.6 16.8 23.2 1.3 2.1 1.7 4.2 3.1 5.8 2.3 2.6 2.1 6.1 4.2 8.8 2.1 2.9 2.7 6.2 4.8 9.1 1.7 2.3 5.7 4.6 8.5 6.4 7.2 4.5 17.8 7.6 20.2 14.1 3 8.4-7.4 14.4-17 19.4-10.4 5.5-18.4 11.7-20.8 20.1-.8 3 1 6.4 1.3 9.4a45 45 0 0 1-.4 12.7c-1 7.7-.7 22.9-16.4 25.5-15.1 2.6-32.9 2.3-46.1 7.9-6.8 2.8-11.4 8.4-16.5 12.3-5.7 4.4-8.8 9.7-14.1 14.2-6 5.1-11.6 9.5-22.3 10.9-8.5 1-16.2 1.6-25 1-9.9-.8-19.5-2.6-29.6-2.7a479 479 0 0 0-31.7.7c-15 1-38.6 5.2-51.8-1.4-9.7-5-17.4-11.3-26.4-16.6-5.7-3.5-10.3-3.6-17.9-3a59.6 59.6 0 0 1-40.2-9.2c-6.4-4.2-10.9-9.7-16-14.5-5-4.7-10.5-9.2-15.6-13.9-14.2-13.2-15.3-29.4-21.8-44.3-2.3-5.3-7.2-5.8-13.8-8.7a27 27 0 0 1-10.4-8c-4.2-4.8-5.1-11-7-16.3L25 177.3c-4.2-11.6-10.3-21.6.3-32.4 9-9.3 30.7-12.2 44.2-18.6 14.3-6.9 18.8-17.9 29.3-26.3a73.4 73.4 0 0 1 41-14.1c17-1.4 34.6-3 50.3-7.1 6-1.6 12-3.9 18-5.2 7.6-1.6 16-.9 23.8-1 15.9-.3 29.7-1 45 2.1A589 589 0 0 1 329 87c11.3 3.4 26.3 4.3 36.4 8.8 9.7 4.5 18.9 10 29 14 7.3 3 15.8 5 23 8.3 6.9 3.2 10 8.3 15.4 12.2Z"
                        opacity=".5" />
                    <path
                        d="M468.3 204.6c1.1 7.8-3.7 17-8.8 24-1 2.1-2.6 3.9-3 5.6-.6 2.8-4.2 5.6-5.1 8.4-1 3-3.7 5.7-4.8 8.7-1 2.4.2 5.6.7 8 1.4 6 7 12 2.6 18-5.6 7.6-19.6 8.7-32 9.3a79 79 0 0 0-36 8.6c-3.5 2-5.2 5.3-7.9 7.8a99 99 0 0 1-12.4 9.7c-8.1 5.7-22.5 17.7-37.5 14.3-14.5-3.2-28.5-9.6-44.4-9.8-8.2 0-17.2 2.7-25 4-8.7 1.5-16.3 4.6-24.8 6.2a59.3 59.3 0 0 1-28.2.8 91.1 91.1 0 0 1-21-7.8c-7.1-4-13-8.8-21-12.3-8.5-3.7-17-7.4-26-10.4-13-4.4-35.9-9.3-40-19-3.1-7.3-3.3-14.9-5.3-22.2-1.3-4.7-4.8-6.3-11.4-8.5-14.5-4.7-21.6-11.2-23.5-21.1-1-5.5.6-11.3 1.1-16.8.5-5.4.4-10.9.9-16.3 1.2-15.3 15.8-28.3 24.8-42.2 3.3-5-.2-7-2.6-11.6a12.9 12.9 0 0 1-.8-9.8c1.3-5.3 6.5-10.5 10-15.3l10.5-14.3C105 90 109.8 80 128.6 75.3c16-4.1 36.1 1.1 53 .7 18-.4 32.1-7.4 48.6-10.4 16.3-3 31.6-1.6 46.3 3.1 14.8 4.8 30.6 9.6 47 11.8 6.2.9 13.2 1.2 19.3 2.3 7.5 1.3 13.6 4.7 20 7.3 13 5.3 24.6 9.6 34 17.3a272 272 0 0 1 30 27.5c5.7 6.5 16.8 12.4 20.5 19.5 3.6 6.8 5.6 14.3 9.7 21 3 4.9 8 9.3 10.6 14.4 2.5 4.9 0 10 .7 14.8Z"
                        opacity=".8" />
                    <path
                        d="M425.4 275.1a87.2 87.2 0 0 1-29.9 15.8c-2.8 1.3-5.8 2-7.8 3.3-3.1 2-8.6 2.9-12 4.7-3.7 2-8.4 3.3-12.2 5.3-3 1.5-5.2 4.3-7 6.4-4.7 5.2-6 11.8-15.1 15-11.8 4-24 0-34.5-3.8a85.5 85.5 0 0 0-36.9-5.7c-4.8.4-9.3 2.3-13.8 3.4-6.6 1.5-12.2 2.3-19.3 3.3-11.8 1.6-34.8 6-43.6-1.8-8.5-7.5-13.5-17.3-26-23-6.5-2.9-16.3-3.8-23.8-5.5-8.3-1.8-17.3-2-25.7-3.7-9.6-1.9-18-3.7-23.3-9.1a36.9 36.9 0 0 1-9.3-13.4c-1.9-5.6-2-11.4-5.1-16.9a126 126 0 0 0-10.8-17.1c-6.2-8-19.7-19.7-13.8-28.7 4.4-6.7 11.6-12.7 17-19.1 3.4-4.1 2.2-6.7-1-10.7-7.1-8.6-6.6-16.2 1.4-24.5 4.4-4.7 11.2-8.7 17-12.8 5.5-4 10.6-8.4 16.1-12.5 15.6-11.5 39.7-16.6 60.2-24.4 7.3-2.8 6.6-5.6 9-10 1.7-3.1 4.8-5.6 8.7-8 6-3.6 15.1-5.8 22.6-8.4l22-7.6c16.2-5.6 29.4-11.7 49-9 16.8 2.3 27.9 13.4 41.8 19C334 81.3 352 80.7 368 84a57 57 0 0 1 34 18.5 124 124 0 0 0 26.2 25.4c4.2 2.8 9.5 5.5 13.3 8.4 4.8 3.7 6.3 8.5 9 12.7 5.3 8.6 10.5 16 10.6 25.2.1 10.7.1 21.4-2.3 31.9-1.6 7.1 1.7 15.6-2.2 22.4-3.7 6.5-9.1 13.1-12.2 19.7-2.3 5-2.6 10.1-5.4 15-2.7 4.7-9.4 7.7-13.6 11.8Z" />
                </g>
                <path stroke-dasharray="1 10"
                    d="M131.3 303.5c-11.3-4.5-21-13-27.3-20-2.3-2-3.7-3.9-5.8-5.2-3.4-2.2-5-5.7-8.2-8-3.4-2.5-5.6-5.6-9-8.2-2.7-2-7.7-3.5-11.3-4.8-9.1-3.3-21-4.5-26.3-10.6-7-7.7.5-15.4 7.4-22 7.7-7.1 12.6-14.6 11-23.4-.6-3.1-4-6-5.7-9a58 58 0 0 1-5.5-12.6c-2.7-7.7-10-22.7 4-28 13.6-5 31.2-7.8 41.5-15.5 5.3-4 7.2-10.3 10.4-15 3.4-5.3 4-11 7.1-16.4 3.6-6 6.9-11.4 16.7-14.5a110 110 0 0 1 24-5.2c10-1 20.4-.8 30.2-2.4 10.4-1.8 20.8-3.6 30.7-6.1 14.2-3.5 35.4-11.6 51.4-7.3 11.8 3.2 22.3 8.1 33.6 11.9a28.5 28.5 0 0 0 19 0 67.1 67.1 0 0 1 43.6 2.1c8.2 3.1 15.2 7.8 22.4 11.6 7.1 3.8 14.6 7.3 21.8 11.1 20.2 10.7 28.8 26.5 42.2 40 4.7 4.9 9.7 4.6 17.5 6.3a42 42 0 0 1 14 6c6.4 4.2 10.2 10.1 14.6 15l13 14.6c9.6 10.7 20.2 19.6 15 32.1-4.6 10.7-24.4 17.2-34.6 25.9-10.8 9.1-10 20.7-16.3 30.9-6.2 10-17.8 16.6-33.6 20.8a250.4 250.4 0 0 0-45.8 15.6c-5.1 2.5-10 5.8-15.3 8-6.6 3-15.1 3.7-22.7 5.2-15.5 3-28.6 5.9-45.2 5.5-18.8-.6-38-1.1-56.6-3.2-12.6-1.4-27.7.2-39.7-2.6-11.6-2.7-23.2-6.6-35-9-8.5-1.7-17.8-2.1-26.4-4.2-8.3-2-13.6-6.5-20.8-9.4Z"
                    opacity=".3" />
                <path stroke-dasharray="1 10"
                    d="M61.6 236.1c-4.8-7.5-4.4-17.4-2.7-25.2 0-2.2.8-4.2.4-6-.7-2.9 1.4-6.2 1-9.1-.3-3.1 1-6.3.7-9.5-.3-2.5-2.8-5.4-4.5-7.7-4.1-5.7-12.4-10.8-11-17.4 2-8.4 15.2-11.9 27-14.6 13-3 24.1-7.1 31.2-14.6 2.5-2.6 2.7-6 4.1-9 2-4.3 4.5-7.6 7.6-11.8 5.3-7 13.7-21.2 30-20.4 15.7.7 32.4 4.6 48 2.1 8.1-1.3 15.6-5.5 22.7-8.2 7.8-2.9 13.8-7.2 21.3-10.3a54.3 54.3 0 0 1 27.3-5.6 115 115 0 0 1 24.1 4.2c9 2.7 17 6.5 26.5 8.6 10 2.2 20 4.4 30.4 5.9 14.7 2 39.4 3 48 12 6.4 6.5 10.1 14 15.5 21 3.5 4.3 7.7 5.4 15.2 6.4 16.4 2.2 26.4 7.4 32.9 16.9 3.5 5.2 4.7 11.2 6.8 16.8 2 5.4 4.7 10.7 6.8 16.2 6 15.3-2.3 30.6-4.6 46-.8 5.3 3.5 6.8 8 10.9 3.3 3 4.7 6 5.4 9.5 1.2 5.5-1.4 11.4-2.6 16.8l-3.5 16c-2.6 11.6-2.6 22.2-18.7 30.2-13.8 6.8-36 5-52.4 8.3-17.3 3.4-27.9 12.8-42.6 18.6a93.2 93.2 0 0 1-46.8 4.7 318.1 318.1 0 0 0-51.5-3.7c-6.5.2-13.6 1.1-20 1-8 0-15.5-2.3-23-3.8-15.2-3-28.6-5.3-41.3-11.3-14.7-7-29.4-14-42.3-22-8.8-5.5-22.4-9.5-29.3-15.8C99 276 93.5 269 86.3 263c-5.2-4.3-12.2-7.9-17-12.5-4.8-4.4-4.7-9.8-7.7-14.5Z"
                    opacity=".5" />
                <path stroke-dasharray="1 10"
                    d="M70.4 159.2c3.4-7.5 13.2-15.2 22-20.6 2-1.8 4.6-3 6-4.6 2.1-2.5 7-4.3 9.6-6.8 2.6-2.5 6.7-4.6 9.5-7.2 2.2-2 3-5.2 3.8-7.5 2.2-6 .3-12.8 7.8-17.4 9.6-6 23.5-4 35.6-2.1 13.2 2.1 26 2.7 38.8-.7 4.5-1.2 8-3.8 11.9-5.6 5.8-2.7 10.9-4.4 17.3-6.6 10.9-3.6 31.3-11.9 43.6-5.6 11.8 6 21.4 14.8 36.3 18.2 7.7 1.8 17.8 1.1 25.9 1.5 9 .4 18-1 27-.7 10.2.2 19.3.5 27 5a58 58 0 0 1 15.3 11.6c4.6 5.3 7.5 11 13 15.9 5.9 5.2 11.8 10.3 18.7 15 9.7 6.8 28.5 16.2 26.9 26.1-1.2 7.4-5.4 14.5-7.6 21.8-1.5 4.6.9 6.9 6 10.3 11 7.4 14 14.9 10 24.5-2.1 5.4-7 10.5-10.5 15.5-3.6 5-6.6 10-10 15-10 14.1-31.2 23.3-47.6 34.4-5.9 4-3.8 6.6-4.1 11.4-.2 3.4-2.1 6.4-4.8 9.3-4.3 4.7-12 8.4-18.2 12.2l-18 11.3c-13.2 8.2-23.3 16.5-43.9 17.2-17.5.5-33.5-8.5-49.7-11.6-17.2-3.3-34.5.4-51.8-.2a79 79 0 0 1-42-12.5 191.8 191.8 0 0 0-37.6-20.7c-5.4-2-11.9-3.8-17-6-6.3-2.9-10-7.3-14.7-11-9.2-7.6-17.8-14-22.2-23.2-5-10.4-10.1-21-12.7-31.8-1.8-7.3-9-15.1-8.4-22.5.6-7.1 2.9-14.5 2.8-21.6 0-5.2-2.2-10.4-1.8-15.7.5-5 5.7-9.2 7.8-14Z"
                    opacity=".8" />
                <path stroke-dasharray="1 10"
                    d="M151 102.1c9.8-4.7 25-7.3 37.2-8.5 3.4-.7 6.7-.8 9.3-1.5 4-1.2 9.7-1 14-2 4.6-1 9.8-1.3 14.5-2.4 3.7-.8 7.4-3 10.3-4.5 7.4-4 12.4-9.9 22.8-11 13.4-1.3 22.7 5 30.4 10.7a65.6 65.6 0 0 0 31.6 12.9c4.8.6 10.1-.2 15-.3 7.1 0 12.9.3 20 .8 12.2 1 36.4 1.5 40.3 10.7 3.7 8.8 2.9 19 11.5 26.8 4.4 4 13.2 7 19.3 10 6.8 3.5 15.2 5.6 22.2 8.8 8 3.8 15 7.2 16.8 13.3 1.5 5 2.3 9.4 1.1 14.4-1.3 5.7-4.5 11.1-4.7 16.9a92 92 0 0 0 .5 18.2c1.3 8.7 7.4 22.5-3.4 29.7-8 5.3-18.1 9.5-26.9 14.4-5.5 3.1-5.8 5.7-5 10.1 1.7 9.6-3 16.5-15.4 22.7-6.8 3.5-15.5 5.8-23.2 8.5-7.6 2.6-14.9 5.6-22.4 8.3-21.4 7.5-47 7.4-70.8 10.4-8.5 1.1-9.4 3.9-14.1 7.5a37.3 37.3 0 0 1-12.8 5.6c-7.8 2.2-17.7 2.5-26.2 3.3l-25 2.6c-18.5 1.9-34.5 4.9-51.5-1.7-14.5-5.6-18.7-18.2-28.7-26.3-10.5-8.5-28-11.6-41.2-18-13-6.3-19.7-14.5-21.5-24.3-1.9-9.7-4.2-20-10.4-29.1-2.3-3.5-5.8-7.1-7.7-10.6-2.4-4.4-1.2-9.2-1.2-13.7-.2-9.2-1-17.1 4.3-25.8 6-10 12-20 20.2-29.3 5.6-6.3 7.4-14.9 14.8-20.5 7.3-5.3 16.2-10.3 22.9-16 4.9-4 8.1-8.8 13.5-12.8 5.2-3.8 13.4-5.3 19.6-8.3Z" />
            </g>
            <g style="mix-blend-mode:overlay">
                <g stroke-dasharray="100 30" opacity=".3">
                    <use xlink:href="#o" opacity=".3" />
                    <use xlink:href="#p" opacity=".5" />
                    <use xlink:href="#q" opacity=".8" />
                    <use xlink:href="#r" />
                </g>
                <g stroke-dasharray="2 8" opacity=".5">
                    <use xlink:href="#s" opacity=".3" />
                    <use xlink:href="#t" opacity=".5" />
                    <use xlink:href="#u" opacity=".8" />
                    <use xlink:href="#v" />
                </g>
                <g stroke-dasharray="1 100" opacity=".8">
                    <use xlink:href="#w" opacity=".3" />
                    <use xlink:href="#x" opacity=".5" />
                    <use xlink:href="#y" opacity=".8" />
                    <use xlink:href="#z" />
                </g>
                <use xlink:href="#A" stroke-dasharray="1 30" opacity=".3" />
                <use xlink:href="#B" stroke-dasharray="1 30" opacity=".5" />
                <use xlink:href="#C" stroke-dasharray="1 30" opacity=".8" />
                <use xlink:href="#D" stroke-dasharray="1 30" />
            </g>
            <g style="mix-blend-mode:overlay">
                <g stroke-dasharray="100 30" opacity=".3">
                    <use xlink:href="#o" opacity=".3" />
                    <use xlink:href="#p" opacity=".5" />
                    <use xlink:href="#q" opacity=".8" />
                    <use xlink:href="#r" />
                </g>
                <g stroke-dasharray="2 8" opacity=".5">
                    <use xlink:href="#s" opacity=".3" />
                    <use xlink:href="#t" opacity=".5" />
                    <use xlink:href="#u" opacity=".8" />
                    <use xlink:href="#v" />
                </g>
                <g stroke-dasharray="1 100" opacity=".8">
                    <use xlink:href="#w" opacity=".3" />
                    <use xlink:href="#x" opacity=".5" />
                    <use xlink:href="#y" opacity=".8" />
                    <use xlink:href="#z" />
                </g>
                <use xlink:href="#A" stroke-dasharray="1 30" opacity=".3" />
                <use xlink:href="#B" stroke-dasharray="1 30" opacity=".5" />
                <use xlink:href="#C" stroke-dasharray="1 30" opacity=".8" />
                <use xlink:href="#D" stroke-dasharray="1 30" />
            </g>
            <g style="mix-blend-mode:overlay">
                <g stroke-dasharray="100 30" opacity=".3">
                    <use xlink:href="#o" opacity=".3" />
                    <use xlink:href="#p" opacity=".5" />
                    <use xlink:href="#q" opacity=".8" />
                    <use xlink:href="#r" />
                </g>
                <g stroke-dasharray="2 8" opacity=".5">
                    <use xlink:href="#s" opacity=".3" />
                    <use xlink:href="#t" opacity=".5" />
                    <use xlink:href="#u" opacity=".8" />
                    <use xlink:href="#v" />
                </g>
                <g stroke-dasharray="1 100" opacity=".8">
                    <use xlink:href="#w" opacity=".3" />
                    <use xlink:href="#x" opacity=".5" />
                    <use xlink:href="#y" opacity=".8" />
                    <use xlink:href="#z" />
                </g>
                <use xlink:href="#A" stroke-dasharray="1 30" opacity=".3" />
                <use xlink:href="#B" stroke-dasharray="1 30" opacity=".5" />
                <use xlink:href="#C" stroke-dasharray="1 30" opacity=".8" />
                <use xlink:href="#D" stroke-dasharray="1 30" />
            </g>
            <g style="mix-blend-mode:overlay">
                <g stroke-dasharray="100 30" opacity=".3">
                    <use xlink:href="#o" opacity=".3" />
                    <use xlink:href="#p" opacity=".5" />
                    <use xlink:href="#q" opacity=".8" />
                    <use xlink:href="#r" />
                </g>
                <g stroke-dasharray="2 8" opacity=".5">
                    <use xlink:href="#s" opacity=".3" />
                    <use xlink:href="#t" opacity=".5" />
                    <use xlink:href="#u" opacity=".8" />
                    <use xlink:href="#v" />
                </g>
                <g stroke-dasharray="1 100" opacity=".8">
                    <use xlink:href="#w" opacity=".3" />
                    <use xlink:href="#x" opacity=".5" />
                    <use xlink:href="#y" opacity=".8" />
                    <use xlink:href="#z" />
                </g>
                <use xlink:href="#A" stroke-dasharray="1 30" opacity=".3" />
                <use xlink:href="#B" stroke-dasharray="1 30" opacity=".5" />
                <use xlink:href="#C" stroke-dasharray="1 30" opacity=".8" />
                <use xlink:href="#D" stroke-dasharray="1 30" />
            </g>
            <g style="mix-blend-mode:overlay">
                <g stroke-dasharray="100 30" opacity=".3">
                    <use xlink:href="#o" opacity=".3" />
                    <use xlink:href="#p" opacity=".5" />
                    <use xlink:href="#q" opacity=".8" />
                    <use xlink:href="#r" />
                </g>
                <g stroke-dasharray="2 8" opacity=".5">
                    <use xlink:href="#s" opacity=".3" />
                    <use xlink:href="#t" opacity=".5" />
                    <use xlink:href="#u" opacity=".8" />
                    <use xlink:href="#v" />
                </g>
                <g stroke-dasharray="1 100" opacity=".8">
                    <use xlink:href="#w" opacity=".3" />
                    <use xlink:href="#x" opacity=".5" />
                    <use xlink:href="#y" opacity=".8" />
                    <use xlink:href="#z" />
                </g>
                <use xlink:href="#A" stroke-dasharray="1 30" opacity=".3" />
                <use xlink:href="#B" stroke-dasharray="1 30" opacity=".5" />
                <use xlink:href="#C" stroke-dasharray="1 30" opacity=".8" />
                <use xlink:href="#D" stroke-dasharray="1 30" />
            </g>
            <g style="mix-blend-mode:overlay">
                <g stroke-dasharray="100 30" opacity=".3">
                    <use xlink:href="#o" opacity=".3" />
                    <use xlink:href="#p" opacity=".5" />
                    <use xlink:href="#q" opacity=".8" />
                    <use xlink:href="#r" />
                </g>
                <g stroke-dasharray="2 8" opacity=".5">
                    <use xlink:href="#s" opacity=".3" />
                    <use xlink:href="#t" opacity=".5" />
                    <use xlink:href="#u" opacity=".8" />
                    <use xlink:href="#v" />
                </g>
                <g stroke-dasharray="1 100" opacity=".8">
                    <use xlink:href="#w" opacity=".3" />
                    <use xlink:href="#x" opacity=".5" />
                    <use xlink:href="#y" opacity=".8" />
                    <use xlink:href="#z" />
                </g>
                <use xlink:href="#A" stroke-dasharray="1 30" opacity=".3" />
                <use xlink:href="#B" stroke-dasharray="1 30" opacity=".5" />
                <use xlink:href="#C" stroke-dasharray="1 30" opacity=".8" />
                <use xlink:href="#D" stroke-dasharray="1 30" />
            </g>
            <g style="mix-blend-mode:overlay">
                <g stroke-dasharray="100 30" opacity=".3">
                    <use xlink:href="#o" opacity=".3" />
                    <use xlink:href="#p" opacity=".5" />
                    <use xlink:href="#q" opacity=".8" />
                    <use xlink:href="#r" />
                </g>
                <g stroke-dasharray="2 8" opacity=".5">
                    <use xlink:href="#s" opacity=".3" />
                    <use xlink:href="#t" opacity=".5" />
                    <use xlink:href="#u" opacity=".8" />
                    <use xlink:href="#v" />
                </g>
                <g stroke-dasharray="1 100" opacity=".8">
                    <use xlink:href="#w" opacity=".3" />
                    <use xlink:href="#x" opacity=".5" />
                    <use xlink:href="#y" opacity=".8" />
                    <use xlink:href="#z" />
                </g>
                <use xlink:href="#A" stroke-dasharray="1 30" opacity=".3" />
                <use xlink:href="#B" stroke-dasharray="1 30" opacity=".5" />
                <use xlink:href="#C" stroke-dasharray="1 30" opacity=".8" />
                <use xlink:href="#D" stroke-dasharray="1 30" />
            </g>
            <g style="mix-blend-mode:overlay">
                <g stroke-dasharray="100 30" opacity=".3">
                    <use xlink:href="#o" opacity=".3" />
                    <use xlink:href="#p" opacity=".5" />
                    <use xlink:href="#q" opacity=".8" />
                    <use xlink:href="#r" />
                </g>
                <g stroke-dasharray="2 8" opacity=".5">
                    <use xlink:href="#s" opacity=".3" />
                    <use xlink:href="#t" opacity=".5" />
                    <use xlink:href="#u" opacity=".8" />
                    <use xlink:href="#v" />
                </g>
                <g stroke-dasharray="1 100" opacity=".8">
                    <use xlink:href="#w" opacity=".3" />
                    <use xlink:href="#x" opacity=".5" />
                    <use xlink:href="#y" opacity=".8" />
                    <use xlink:href="#z" />
                </g>
                <use xlink:href="#A" stroke-dasharray="1 30" opacity=".3" />
                <use xlink:href="#B" stroke-dasharray="1 30" opacity=".5" />
                <use xlink:href="#C" stroke-dasharray="1 30" opacity=".8" />
                <use xlink:href="#D" stroke-dasharray="1 30" />
            </g>
            <g style="mix-blend-mode:overlay">
                <g stroke-dasharray="100 30" opacity=".3">
                    <use xlink:href="#o" opacity=".3" />
                    <use xlink:href="#p" opacity=".5" />
                    <use xlink:href="#q" opacity=".8" />
                    <use xlink:href="#r" />
                </g>
                <g stroke-dasharray="2 8" opacity=".5">
                    <use xlink:href="#s" opacity=".3" />
                    <use xlink:href="#t" opacity=".5" />
                    <use xlink:href="#u" opacity=".8" />
                    <use xlink:href="#v" />
                </g>
                <g stroke-dasharray="1 100" opacity=".8">
                    <use xlink:href="#w" opacity=".3" />
                    <use xlink:href="#x" opacity=".5" />
                    <use xlink:href="#y" opacity=".8" />
                    <use xlink:href="#z" />
                </g>
                <use xlink:href="#A" stroke-dasharray="1 30" opacity=".3" />
                <use xlink:href="#B" stroke-dasharray="1 30" opacity=".5" />
                <use xlink:href="#C" stroke-dasharray="1 30" opacity=".8" />
                <use xlink:href="#D" stroke-dasharray="1 30" />
            </g>
            <g style="mix-blend-mode:overlay">
                <g stroke-dasharray="100 30" opacity=".3">
                    <use xlink:href="#o" opacity=".3" />
                    <use xlink:href="#p" opacity=".5" />
                    <use xlink:href="#q" opacity=".8" />
                    <use xlink:href="#r" />
                </g>
                <g stroke-dasharray="2 8" opacity=".5">
                    <use xlink:href="#s" opacity=".3" />
                    <use xlink:href="#t" opacity=".5" />
                    <use xlink:href="#u" opacity=".8" />
                    <use xlink:href="#v" />
                </g>
                <g stroke-dasharray="1 100" opacity=".8">
                    <use xlink:href="#w" opacity=".3" />
                    <use xlink:href="#x" opacity=".5" />
                    <use xlink:href="#y" opacity=".8" />
                    <use xlink:href="#z" />
                </g>
                <use xlink:href="#A" stroke-dasharray="1 30" opacity=".3" />
                <use xlink:href="#B" stroke-dasharray="1 30" opacity=".5" />
                <use xlink:href="#C" stroke-dasharray="1 30" opacity=".8" />
                <use xlink:href="#D" stroke-dasharray="1 30" />
            </g>
            <g stroke-width="20" filter="url(#E)" style="mix-blend-mode:overlay">
                <g stroke-dasharray="100 30" opacity=".3">
                    <use xlink:href="#o" opacity=".3" />
                    <use xlink:href="#p" opacity=".5" />
                    <use xlink:href="#q" opacity=".8" />
                    <use xlink:href="#r" />
                </g>
                <g stroke-dasharray="2 8" opacity=".5">
                    <use xlink:href="#s" opacity=".3" />
                    <use xlink:href="#t" opacity=".5" />
                    <use xlink:href="#u" opacity=".8" />
                    <use xlink:href="#v" />
                </g>
                <g stroke-dasharray="1 100" opacity=".8">
                    <use xlink:href="#w" opacity=".3" />
                    <use xlink:href="#x" opacity=".5" />
                    <use xlink:href="#y" opacity=".8" />
                    <use xlink:href="#z" />
                </g>
                <use xlink:href="#A" stroke-dasharray="1 30" opacity=".3" />
                <use xlink:href="#B" stroke-dasharray="1 30" opacity=".5" />
                <use xlink:href="#C" stroke-dasharray="1 30" opacity=".8" />
                <use xlink:href="#D" stroke-dasharray="1 30" />
            </g>
            <g style="mix-blend-mode:overlay">
                <g stroke-dasharray="100 30" opacity=".3">
                    <use xlink:href="#o" opacity=".3" />
                    <use xlink:href="#p" opacity=".5" />
                    <use xlink:href="#q" opacity=".8" />
                    <use xlink:href="#r" />
                </g>
                <g stroke-dasharray="2 8" opacity=".5">
                    <use xlink:href="#s" opacity=".3" />
                    <use xlink:href="#t" opacity=".5" />
                    <use xlink:href="#u" opacity=".8" />
                    <use xlink:href="#v" />
                </g>
                <g stroke-dasharray="1 100" opacity=".8">
                    <use xlink:href="#w" opacity=".3" />
                    <use xlink:href="#x" opacity=".5" />
                    <use xlink:href="#y" opacity=".8" />
                    <use xlink:href="#z" />
                </g>
                <g stroke-dasharray="1 30" stroke-width="10" filter="url(#F)">
                    <use xlink:href="#A" opacity=".3" />
                    <use xlink:href="#B" opacity=".5" />
                    <use xlink:href="#C" opacity=".8" />
                </g>
            </g>
        </g>
        <g style="mix-blend-mode:screen">
            <path fill="#fff"
                d="M123.5 128.8a9.2 9.2 0 0 1 9.4-9.6c4.2 0 7.4 2.3 8.4 5.5l-3.5 1.4c-.9-2.3-2.5-3.7-5-3.6-3.2 0-5.2 2.3-5.2 6.2 0 4 2 6.3 5.4 6.2 2.5 0 4.1-1.4 5-3.8l3.4 1.4c-1.3 3.6-4.1 5.7-8.4 5.7a9 9 0 0 1-9.5-9.4Zm20.4 8.9-.1-13h3.3c0 1.2-.4 2.9-1 4h1.5c.6-2.9 1.6-4.3 4.4-4.3h.7v3.8h-1.3c-2.8 0-3.9 1-3.8 4.5v5H144Zm9.8-6.6c0-4.1 2.8-7 6.7-7 4 0 6.9 2.7 7 6.9 0 4.2-2.8 6.9-6.8 7-4 0-7-3-7-6.9Zm9.8 0c0-2.7-1.2-4-3-4-1.9 0-3 1.4-3 4s1.2 4 3 3.9c1.9 0 3-1.4 3-4Zm5.5 3 3.3-1.1c.1.5.4 1 .8 1.4s1.1.7 2.2.7c1.2 0 2-.5 2-1.3 0-.7-.4-1.1-1.7-1.3l-1.8-.4c-2.9-.5-4.4-1.5-4.4-4 0-2.4 2.1-4 5.6-4.1 3 0 4.9 1.5 5.5 3l-3 1.3a2.7 2.7 0 0 0-2.7-1.8c-1.2 0-1.8.6-1.8 1.3 0 .7.4 1 1.8 1.3l1.8.3c3 .5 4.5 1.9 4.5 4 0 2.6-2.2 4.3-6 4.3-3 0-5.6-1.3-6.1-3.6Zm13.6-.2 3.4-1c0 .4.3.9.7 1.4.4.5 1.2.7 2.3.7 1.2 0 2-.6 2-1.3 0-.7-.5-1.2-1.7-1.4l-1.9-.3c-2.8-.6-4.3-1.5-4.3-4s2-4.1 5.5-4.2c3.1 0 5 1.6 5.5 3l-3 1.4a2.7 2.7 0 0 0-2.6-1.8c-1.2 0-1.9.5-1.9 1.3 0 .7.4 1 1.8 1.2l1.8.3c3 .6 4.5 2 4.6 4 0 2.7-2.3 4.4-6 4.4-3 0-5.6-1.4-6.2-3.7Zm20.1-6a9.2 9.2 0 0 1 9.4-9.5c4.3 0 7.4 2.2 8.4 5.5l-3.5 1.4c-.9-2.3-2.5-3.7-5-3.7-3.2 0-5.2 2.4-5.2 6.3 0 4 2 6.2 5.4 6.2 2.5 0 4.1-1.5 5-3.8l3.4 1.4c-1.3 3.6-4.1 5.7-8.4 5.7a9.1 9.1 0 0 1-9.5-9.4Zm20.5 9-.2-18.2h3.7v2.7c0 2.5-.6 4-1.6 5.4h1.6c.6-2 2-3.4 4-3.4 2.8 0 4.4 1.8 4.4 4.7l.1 8.6h-3.7V129c0-1.7-.8-2.5-2.2-2.4-.7 0-1.3.2-1.7.7-.7.9-.8 2-.8 3.5v6.1h-3.6Zm14.7-3.5c0-3.5 3.3-4.7 8-5.2v-.5c0-1.2-.6-1.8-2-1.8-1.7 0-2.6.8-3 2.1l-3.2-.7c.1-2 2.4-4 6-4 3.8 0 5.9 1.6 6 5v4.7c0 .7 0 .8.8.8h1.1v2.8h-1.5c-2.3 0-2.8-.7-2.9-2.7H246c-.6 2-1.8 3.2-4 3.2-2.3 0-4.1-1.5-4.1-3.7Zm8.1-2v-1c-2.6.4-4.4 1-4.4 2.6 0 .8.6 1.4 1.7 1.4 1.5 0 2.7-1 2.7-3Zm7.3-9.6v-3.5h3.9v3.5h-4Zm.3 14.8-.2-13h3.7l.2 13h-3.7Zm7.2-.1-.1-13h3.3c0 .8-.5 1.9-1.2 3h1.6c.6-2 2-3.5 4-3.5 2.7 0 4.3 1.8 4.4 4.8v8.6h-3.6l-.1-8c0-1.6-.8-2.3-2.1-2.3-.8 0-1.4.2-1.7.7-.8 1-.9 2-.9 3.5l.1 6.1h-3.7Z" />
            <path fill="#D5FF5C"
                d="m287.1 136.2-.1-15-6.3.1v-3.2l16.4-.2v3.3H291l.2 15h-4Zm8.2 0-.1-13 3.3-.1c0 1.3-.4 2.9-1 4h1.5c.6-2.9 1.6-4.3 4.4-4.3h.7v3.8h-1.4c-2.7 0-3.8 1-3.7 4.5v5h-3.7Zm10.2-3.5c0-3.5 3.3-4.7 8-5.2v-.5c0-1.2-.6-1.8-2-1.8-1.7 0-2.6.8-3 2.1l-3.3-.7c.2-2 2.5-4 6.2-4s5.8 1.6 5.8 5v4.7c0 .7.2.8.9.8h1.1v2.8h-1.5c-2.3 0-2.8-.7-2.9-2.7h-1.2c-.6 2-1.8 3.2-4 3.2-2.3 0-4.1-1.5-4.1-3.7Zm8.1-2.1v-.8c-2.6.3-4.4.8-4.4 2.5 0 .8.6 1.4 1.7 1.4 1.5 0 2.7-1 2.7-3.1Zm7.6 5.3-.2-13h3.4c0 .7-.6 1.8-1.3 3h1.6c.7-2 2-3.5 4-3.5 2.8 0 4.4 1.8 4.5 4.7v8.6h-3.6l-.1-7.8c0-1.7-.8-2.5-2.1-2.5-.8 0-1.4.3-1.8.8-.7.9-.8 2-.8 3.5v6.1h-3.6Zm14.4-3.6 3.3-1c.1.4.4 1 .8 1.4.4.5 1.1.7 2.2.7 1.2 0 2-.6 2-1.3 0-.7-.4-1.2-1.7-1.4l-1.8-.3c-2.9-.6-4.3-1.5-4.4-4 0-2.5 2.1-4.1 5.6-4.1 3 0 4.9 1.5 5.5 2.9l-3 1.4a2.7 2.7 0 0 0-2.7-1.8c-1.2 0-1.8.5-1.8 1.3 0 .7.4 1 1.8 1.2l1.8.3c3 .6 4.5 2 4.5 4 0 2.7-2.2 4.4-6 4.4-3 0-5.6-1.4-6.1-3.7Zm14.8 8.3-.2-18h3.4c0 .6-.4 1.5-1 2.6h1.5c.8-1.7 1.7-3 4.3-3.2 3.1 0 5.4 2.8 5.4 7 0 4-2.1 6.8-5.3 6.9-2.3 0-3.5-1.3-4.3-3h-1.6a8.5 8.5 0 0 1 1.5 5.3v2.4h-3.7ZM360 129c0-2.8-1.3-4-3.1-4-1.9 0-3.1 1.4-3 4.1 0 2.7 1.2 4.1 3 4 2 0 3-1.2 3-4Zm5.7 0c0-4.1 2.8-7 6.8-7s6.8 2.7 6.9 6.8c0 4.3-2.8 7-6.8 7s-6.9-2.8-6.9-6.8Zm9.8 0c0-2.7-1.2-4-3-4s-3 1.4-3 4 1.2 4 3 3.9c2 0 3-1.4 3-4Zm6.6 6.3-.1-13h3.3c0 1.3-.4 2.9-1 4h1.5c.6-2.9 1.6-4.3 4.4-4.3h.7v3.8h-1.3c-2.7 0-3.9 1-3.8 4.5v5h-3.7Zm12.5-3.5V125h-2.8v-2.8h2.7v-4l3.7-.1v4h3.4v2.8h-3.4v6.2c0 .8.4 1.1 1.2 1.1h2.9v3h-4.4c-2 0-3.3-1.4-3.3-3.4Z" />
        </g>
        <path fill="#FAFAFA"
            d="M204.7 157h-1.2l-1-2.8h-4l-1 2.7h-1.2l3.6-9h1.2l3.6 9Zm-5.8-3.9h3.2l-1.6-4-1.6 4Zm9.2 4c-2 0-3-1-3-2.2h1c.3 1 1 1.3 2.1 1.3.8 0 1.3-.3 1.3-1 0-.6-.7-.8-1.3-1-1.6-.3-2.8-.6-2.8-1.9 0-1.4 1.2-1.9 2.6-1.9 1.4 0 2.2 1 2.3 2.1h-1c-.1-1-.8-1.2-1.4-1.2-.7 0-1.5.1-1.5 1 0 .5.5.7 1.8 1 1 .2 2.3.5 2.3 1.9 0 1.3-.9 2-2.4 2Zm6.2 0c-2.1 0-3-1-3-2.2h1c.2 1 1 1.3 2 1.3.8 0 1.3-.3 1.3-1 0-.6-.6-.8-1.3-1-1.6-.3-2.7-.6-2.7-1.9 0-1.4 1.2-1.9 2.5-1.9 1.5 0 2.3 1 2.3 2.1h-1c0-1-.8-1.2-1.4-1.2-.6 0-1.4.1-1.4 1 0 .5.4.7 1.7 1 1 .2 2.3.5 2.3 1.9 0 1.3-.8 2-2.3 2Zm6.2 0c-2 0-3-1.4-3-3.3 0-2 1-3.4 3-3.4 1.6 0 2.7 1.1 2.7 2.7v1h-4.6c0 1.3.7 2.1 1.9 2.1 1 0 1.5-.6 1.7-1h1c-.1.8-1 2-2.7 2Zm1.7-3.8c0-1.4-.8-2-1.8-2s-1.8.6-1.8 2h3.6Zm4.5 3.7c-1.4 0-2-.5-2-1.7v-3.8h-.8v-.8c.8 0 1-.3 1-1v-.7h1v1.6h1.3v.9h-1.4v3.6c0 .9.3 1.1 1 1.1h.5v.8h-.6Zm7.3 0v-8.2h-2.8v-1h6.6v1H235v8.1h-1Zm5.9.1c-2 0-3-1.4-3-3.3 0-2 1-3.4 3-3.4 1.6 0 2.7 1.1 2.7 2.7v1H238c.2 1.3.8 2.1 2 2.1 1 0 1.5-.6 1.7-1h1c-.1.8-1 2-2.7 2Zm1.7-3.8c0-1.4-.8-2-1.8-2s-1.8.6-1.8 2h3.6Zm3.3 3.6h-1v-9h1v9Zm4 .2c-1.9 0-3-1.4-3-3.3 0-2 1.2-3.4 3-3.4 1.6 0 2.8 1.1 2.8 2.7v1H247c.1 1.3.8 2.1 2 2.1a2 2 0 0 0 1.7-1h1c-.1.8-1 2-2.7 2Zm1.8-3.8c0-1.4-.8-2-1.8-2s-1.9.6-1.9 2h3.7Zm5.4-2.9c1.7 0 2.9 1.4 2.9 3.4s-1.2 3.3-2.9 3.3c-.8 0-1.7-.4-2.1-1v3.7h-1v-9.2h1v.9c.4-.6 1.3-1 2-1Zm-.1 5.8c1.2 0 2-1 2-2.4 0-1.5-.8-2.5-2-2.5s-2 .9-2 2.2v.7c0 1.2.8 2 2 2Zm7 1c-1.8 0-3-1.6-3-3.4 0-2 1.2-3.4 3-3.4s3 1.4 3 3.4c0 1.8-1.2 3.3-3 3.3Zm0-1c1.3 0 2-1 2-2.4 0-1.5-.7-2.5-2-2.5s-2 1-2 2.5c0 1.4.7 2.4 2 2.4Zm5.2-4.4c.2-.5.6-1 1-1.1.4-.2.8-.2 1.2-.2v1h-.2c-1 0-2 .9-2 2.2v3.2h-1v-6.3h1v1.2Zm5.3 5.2c-1.4 0-1.9-.5-1.9-1.7v-3.8h-.9v-.8c.8 0 1-.3 1-1v-.7h1v1.6h1.4v.9h-1.5v3.6c0 .9.3 1.1 1 1.1h.5v.8h-.6Zm6.8 0c-1.6 0-2.2-1-2.2-1.9 0-.5.3-1 .7-1.4.6-.4 1.4-.6 3.4-.6h.3v-.4c0-.8-.4-1.3-1.5-1.3-1.2 0-1.5.5-1.5 1h-1c0-.8.5-2 2.5-2 1.5 0 2.5.6 2.5 2.7v2.3c0 .6.2.7.7.7v1c-.8 0-1.5-.4-1.6-1a3 3 0 0 1-2.3 1Zm.2-.8c1.3 0 2-.9 2-1.4v-1h-.4c-1.6 0-3 .3-3 1.4 0 .6.5 1 1.4 1Zm5.9-4.6c.5-.9 1.4-1.2 2-1.2 1.5 0 2.4 1.1 2.4 2.5v4h-1v-3.7c0-1.1-.6-1.9-1.6-1.9s-1.8.8-1.8 2.1v3.5h-1v-6.3h1v1Zm10.8 5.3v-.8a3 3 0 0 1-2.3 1c-1.7 0-2.8-1.3-2.8-3.3 0-2 1.2-3.4 3-3.4.7 0 1.5.5 2 1v-3.6h1v9.1h-1Zm0-3.6a2 2 0 0 0-2-2c-1.3 0-2 1-2 2.4 0 1.5.7 2.5 2 2.5s2-.9 2-2.1v-.8Zm6.5 3.6h-1.3l3-4.6-2.8-4.5h1.2l2.2 3.6 2.2-3.6h1.3l-2.9 4.5 3 4.6h-1.2l-2.4-3.7-2.3 3.7Zm11 .2c-2.5 0-4.2-1.8-4.2-4.7 0-2.9 1.7-4.8 4.3-4.8a4 4 0 0 1 4 3.4h-1.1c-.2-1.4-1.5-2.4-3-2.4-1.8 0-3 1.5-3 3.8 0 2.2 1.2 3.7 3 3.7 1.6 0 2.8-1 3-2.4h1c-.2 2-1.8 3.4-4 3.4Zm9.4-1.4 2.8-7.9h1.1v9.1h-1v-6.7l-2.3 6.7h-1.2l-2.2-6.7v6.7h-1v-9h1l2.8 7.8Z" />
        <g filter="url(#G)" opacity=".2">
            <circle cx="81.1" cy="142.1" r="48.8" fill="#D9FF69" fill-opacity=".2"
                transform="rotate(176 81.1 142.1)" />
        </g>
        <circle cx="76.1" cy="136" r="27.2" fill="url(#H)" transform="rotate(56 76 136)" />
        <circle cx="76.1" cy="136" r="27.2" fill="url(#I)" transform="rotate(56 76 136)" />
        <circle cx="76.1" cy="136" r="27.2" fill="url(#J)" fill-opacity=".3"
            transform="rotate(56 76 136)" />
        <g filter="url(#K)">
            <circle cx="78.7" cy="126" r="23.7" fill="url(#L)" fill-opacity=".6"
                transform="rotate(56 78.7 126)" />
        </g>
        <g filter="url(#M)" opacity=".5">
            <circle cx="419.8" cy="88.7" r="48.5" fill="#FD4848" fill-opacity=".2"
                transform="rotate(176 419.8 88.7)" />
        </g>
        <mask id="N" width="61" height="61" x="401" y="60" maskUnits="userSpaceOnUse"
            style="mask-type:alpha">
            <circle cx="431.6" cy="90.4" r="29.9" fill="#D9D9D9" transform="rotate(56 431.6 90.4)" />
        </mask>
        <g mask="url(#N)">
            <g filter="url(#O)" transform="rotate(56 431.6 90.4)">
                <circle cx="431.6" cy="90.4" r="29.9" fill="url(#P)" />
                <circle cx="431.6" cy="90.4" r="29.9" fill="url(#Q)" />
                <circle cx="431.6" cy="90.4" r="29.9" fill="url(#R)" fill-opacity=".3" />
            </g>
            <g filter="url(#S)">
                <circle cx="434.6" cy="79.4" r="26.1" fill="url(#T)" fill-opacity=".6"
                    transform="rotate(56 434.6 79.4)" />
            </g>
            <g filter="url(#U)" opacity=".2">
                <circle cx="424" cy="79.3" r="48.6" fill="#FD4848" fill-opacity=".6"
                    transform="rotate(176 424 79.3)" />
            </g>
        </g>
    </g>
    <defs>
        <filter id="b" width="2208.2" height="2263.6" x="-848.9" y="-530"
            color-interpolation-filters="sRGB" filterUnits="userSpaceOnUse">
            <feFlood flood-opacity="0" result="BackgroundImageFix" />
            <feBlend in="SourceGraphic" in2="BackgroundImageFix" result="shape" />
            <feGaussianBlur result="effect1_foregroundBlur_833_5589" stdDeviation="200" />
        </filter>
        <filter id="c" width="2378.9" height="2114.3" x="-497.2" y="-890.7"
            color-interpolation-filters="sRGB" filterUnits="userSpaceOnUse">
            <feFlood flood-opacity="0" result="BackgroundImageFix" />
            <feBlend in="SourceGraphic" in2="BackgroundImageFix" result="shape" />
            <feGaussianBlur result="effect1_foregroundBlur_833_5589" stdDeviation="200" />
        </filter>
        <filter id="e" width="98" height="199" x="436" y="25" color-interpolation-filters="sRGB"
            filterUnits="userSpaceOnUse">
            <feFlood flood-opacity="0" result="BackgroundImageFix" />
            <feColorMatrix in="SourceAlpha" result="hardAlpha"
                values="0 0 0 0 0 0 0 0 0 0 0 0 0 0 0 0 0 0 127 0" />
            <feMorphology in="SourceAlpha" operator="dilate" radius="11"
                result="effect1_dropShadow_833_5589" />
            <feOffset dy="4" />
            <feGaussianBlur stdDeviation="3" />
            <feComposite in2="hardAlpha" operator="out" />
            <feColorMatrix values="0 0 0 0 0.835294 0 0 0 0 1 0 0 0 0 0.360784 0 0 0 0.02 0" />
            <feBlend in2="BackgroundImageFix" result="effect1_dropShadow_833_5589" />
            <feBlend in="SourceGraphic" in2="effect1_dropShadow_833_5589" result="shape" />
        </filter>
        <filter id="f" width="98" height="199" x="440" y="25" color-interpolation-filters="sRGB"
            filterUnits="userSpaceOnUse">
            <feFlood flood-opacity="0" result="BackgroundImageFix" />
            <feColorMatrix in="SourceAlpha" result="hardAlpha"
                values="0 0 0 0 0 0 0 0 0 0 0 0 0 0 0 0 0 0 127 0" />
            <feMorphology in="SourceAlpha" operator="dilate" radius="11"
                result="effect1_dropShadow_833_5589" />
            <feOffset dy="4" />
            <feGaussianBlur stdDeviation="3" />
            <feComposite in2="hardAlpha" operator="out" />
            <feColorMatrix values="0 0 0 0 0.835294 0 0 0 0 1 0 0 0 0 0.360784 0 0 0 0.02 0" />
            <feBlend in2="BackgroundImageFix" result="effect1_dropShadow_833_5589" />
            <feBlend in="SourceGraphic" in2="effect1_dropShadow_833_5589" result="shape" />
        </filter>
        <filter id="g" width="98" height="199" x="427" y="25" color-interpolation-filters="sRGB"
            filterUnits="userSpaceOnUse">
            <feFlood flood-opacity="0" result="BackgroundImageFix" />
            <feColorMatrix in="SourceAlpha" result="hardAlpha"
                values="0 0 0 0 0 0 0 0 0 0 0 0 0 0 0 0 0 0 127 0" />
            <feMorphology in="SourceAlpha" operator="dilate" radius="11"
                result="effect1_dropShadow_833_5589" />
            <feOffset dy="4" />
            <feGaussianBlur stdDeviation="3" />
            <feComposite in2="hardAlpha" operator="out" />
            <feColorMatrix values="0 0 0 0 0.835294 0 0 0 0 1 0 0 0 0 0.360784 0 0 0 0.02 0" />
            <feBlend in2="BackgroundImageFix" result="effect1_dropShadow_833_5589" />
            <feBlend in="SourceGraphic" in2="effect1_dropShadow_833_5589" result="shape" />
        </filter>
        <filter id="h" width="98" height="199" x="432" y="25" color-interpolation-filters="sRGB"
            filterUnits="userSpaceOnUse">
            <feFlood flood-opacity="0" result="BackgroundImageFix" />
            <feColorMatrix in="SourceAlpha" result="hardAlpha"
                values="0 0 0 0 0 0 0 0 0 0 0 0 0 0 0 0 0 0 127 0" />
            <feMorphology in="SourceAlpha" operator="dilate" radius="11"
                result="effect1_dropShadow_833_5589" />
            <feOffset dy="4" />
            <feGaussianBlur stdDeviation="3" />
            <feComposite in2="hardAlpha" operator="out" />
            <feColorMatrix values="0 0 0 0 0.835294 0 0 0 0 1 0 0 0 0 0.360784 0 0 0 0.02 0" />
            <feBlend in2="BackgroundImageFix" result="effect1_dropShadow_833_5589" />
            <feBlend in="SourceGraphic" in2="effect1_dropShadow_833_5589" result="shape" />
        </filter>
        <filter id="i" width="98" height="199" x="-9" y="24" color-interpolation-filters="sRGB"
            filterUnits="userSpaceOnUse">
            <feFlood flood-opacity="0" result="BackgroundImageFix" />
            <feColorMatrix in="SourceAlpha" result="hardAlpha"
                values="0 0 0 0 0 0 0 0 0 0 0 0 0 0 0 0 0 0 127 0" />
            <feMorphology in="SourceAlpha" operator="dilate" radius="11"
                result="effect1_dropShadow_833_5589" />
            <feOffset dy="4" />
            <feGaussianBlur stdDeviation="3" />
            <feComposite in2="hardAlpha" operator="out" />
            <feColorMatrix values="0 0 0 0 0.835294 0 0 0 0 1 0 0 0 0 0.360784 0 0 0 0.02 0" />
            <feBlend in2="BackgroundImageFix" result="effect1_dropShadow_833_5589" />
            <feBlend in="SourceGraphic" in2="effect1_dropShadow_833_5589" result="shape" />
        </filter>
        <filter id="j" width="98" height="199" x="0" y="24" color-interpolation-filters="sRGB"
            filterUnits="userSpaceOnUse">
            <feFlood flood-opacity="0" result="BackgroundImageFix" />
            <feColorMatrix in="SourceAlpha" result="hardAlpha"
                values="0 0 0 0 0 0 0 0 0 0 0 0 0 0 0 0 0 0 127 0" />
            <feMorphology in="SourceAlpha" operator="dilate" radius="11"
                result="effect1_dropShadow_833_5589" />
            <feOffset dy="4" />
            <feGaussianBlur stdDeviation="3" />
            <feComposite in2="hardAlpha" operator="out" />
            <feColorMatrix values="0 0 0 0 0.835294 0 0 0 0 1 0 0 0 0 0.360784 0 0 0 0.02 0" />
            <feBlend in2="BackgroundImageFix" result="effect1_dropShadow_833_5589" />
            <feBlend in="SourceGraphic" in2="effect1_dropShadow_833_5589" result="shape" />
        </filter>
        <filter id="k" width="98" height="199" x="-5" y="24" color-interpolation-filters="sRGB"
            filterUnits="userSpaceOnUse">
            <feFlood flood-opacity="0" result="BackgroundImageFix" />
            <feColorMatrix in="SourceAlpha" result="hardAlpha"
                values="0 0 0 0 0 0 0 0 0 0 0 0 0 0 0 0 0 0 127 0" />
            <feMorphology in="SourceAlpha" operator="dilate" radius="11"
                result="effect1_dropShadow_833_5589" />
            <feOffset dy="4" />
            <feGaussianBlur stdDeviation="3" />
            <feComposite in2="hardAlpha" operator="out" />
            <feColorMatrix values="0 0 0 0 0.835294 0 0 0 0 1 0 0 0 0 0.360784 0 0 0 0.02 0" />
            <feBlend in2="BackgroundImageFix" result="effect1_dropShadow_833_5589" />
            <feBlend in="SourceGraphic" in2="effect1_dropShadow_833_5589" result="shape" />
        </filter>
        <filter id="E" width="549.3" height="353.6" x="-4.7" y="27.3"
            color-interpolation-filters="sRGB" filterUnits="userSpaceOnUse">
            <feFlood flood-opacity="0" result="BackgroundImageFix" />
            <feBlend in="SourceGraphic" in2="BackgroundImageFix" result="shape" />
            <feGaussianBlur result="effect1_foregroundBlur_833_5589" stdDeviation="10" />
        </filter>
        <filter id="F" width="499.9" height="308.4" x="28.7" y="41.8"
            color-interpolation-filters="sRGB" filterUnits="userSpaceOnUse">
            <feFlood flood-opacity="0" result="BackgroundImageFix" />
            <feBlend in="SourceGraphic" in2="BackgroundImageFix" result="shape" />
            <feGaussianBlur result="effect1_foregroundBlur_833_5589" stdDeviation="5" />
        </filter>
        <filter id="G" width="197.7" height="197.7" x="-17.7" y="43.3"
            color-interpolation-filters="sRGB" filterUnits="userSpaceOnUse">
            <feFlood flood-opacity="0" result="BackgroundImageFix" />
            <feBlend in="SourceGraphic" in2="BackgroundImageFix" result="shape" />
            <feGaussianBlur result="effect1_foregroundBlur_833_5589" stdDeviation="25" />
        </filter>
        <filter id="K" width="1047.5" height="1047.5" x="-445" y="-397.7"
            color-interpolation-filters="sRGB" filterUnits="userSpaceOnUse">
            <feFlood flood-opacity="0" result="BackgroundImageFix" />
            <feBlend in="SourceGraphic" in2="BackgroundImageFix" result="shape" />
            <feGaussianBlur result="effect1_foregroundBlur_833_5589" stdDeviation="250" />
        </filter>
        <filter id="M" width="197" height="197" x="321.4" y="-9.7"
            color-interpolation-filters="sRGB" filterUnits="userSpaceOnUse">
            <feFlood flood-opacity="0" result="BackgroundImageFix" />
            <feBlend in="SourceGraphic" in2="BackgroundImageFix" result="shape" />
            <feGaussianBlur result="effect1_foregroundBlur_833_5589" stdDeviation="25" />
        </filter>
        <filter id="O" width="77.8" height="79.8" x="392.7" y="60.5"
            color-interpolation-filters="sRGB" filterUnits="userSpaceOnUse">
            <feFlood flood-opacity="0" result="BackgroundImageFix" />
            <feColorMatrix in="SourceAlpha" result="hardAlpha"
                values="0 0 0 0 0 0 0 0 0 0 0 0 0 0 0 0 0 0 127 0" />
            <feOffset dy="11" />
            <feGaussianBlur stdDeviation="4.5" />
            <feComposite in2="hardAlpha" operator="out" />
            <feColorMatrix values="0 0 0 0 1 0 0 0 0 0.991667 0 0 0 0 0.991667 0 0 0 1 0" />
            <feBlend in2="BackgroundImageFix" result="effect1_dropShadow_833_5589" />
            <feBlend in="SourceGraphic" in2="effect1_dropShadow_833_5589" result="shape" />
        </filter>
        <filter id="S" width="1052.2" height="1052.2" x="-91.5" y="-446.7"
            color-interpolation-filters="sRGB" filterUnits="userSpaceOnUse">
            <feFlood flood-opacity="0" result="BackgroundImageFix" />
            <feBlend in="SourceGraphic" in2="BackgroundImageFix" result="shape" />
            <feGaussianBlur result="effect1_foregroundBlur_833_5589" stdDeviation="250" />
        </filter>
        <filter id="U" width="197.1" height="197.1" x="325.4" y="-19.2"
            color-interpolation-filters="sRGB" filterUnits="userSpaceOnUse">
            <feFlood flood-opacity="0" result="BackgroundImageFix" />
            <feBlend in="SourceGraphic" in2="BackgroundImageFix" result="shape" />
            <feGaussianBlur result="effect1_foregroundBlur_833_5589" stdDeviation="25" />
        </filter>
        <radialGradient id="d" cx="0" cy="0" r="1"
            gradientTransform="matrix(0 182 -181 0 434.4 182)" gradientUnits="userSpaceOnUse">
            <stop stop-color="#FD4848" stop-opacity=".5" />
            <stop offset="1" stop-color="#FD4848" stop-opacity="0" />
        </radialGradient>
        <radialGradient id="H" cx="0" cy="0" r="1"
            gradientTransform="matrix(-11 25 -25 -11 79.8 130)" gradientUnits="userSpaceOnUse">
            <stop stop-color="#FF6C6C" />
            <stop offset="1" stop-color="#D8FC6F" />
        </radialGradient>
        <radialGradient id="I" cx="0" cy="0" r="1"
            gradientTransform="matrix(19 29 -29 19 62.3 123.7)" gradientUnits="userSpaceOnUse">
            <stop stop-color="#9868FB" />
            <stop offset="1" stop-color="#fff" stop-opacity="0" />
        </radialGradient>
        <radialGradient id="J" cx="0" cy="0" r="1" gradientTransform="rotate(134 22.3 81) scale(20)"
            gradientUnits="userSpaceOnUse">
            <stop stop-color="#fff" />
            <stop offset="1" stop-color="#fff" stop-opacity="0" />
        </radialGradient>
        <radialGradient id="P" cx="0" cy="0" r="1"
            gradientTransform="matrix(-12 28 -28 -12 435.7 83.9)" gradientUnits="userSpaceOnUse">
            <stop stop-color="#FD4848" />
            <stop offset="1" stop-color="#836FFC" />
        </radialGradient>
        <radialGradient id="Q" cx="0" cy="0" r="1"
            gradientTransform="rotate(57 136.8 418) scale(38)" gradientUnits="userSpaceOnUse">
            <stop stop-color="#FD48B4" />
            <stop offset="1" stop-color="#fff" stop-opacity="0" />
        </radialGradient>
        <radialGradient id="R" cx="0" cy="0" r="1" gradientTransform="matrix(-16 15 -15 -16 452 75)"
            gradientUnits="userSpaceOnUse">
            <stop stop-color="#fff" />
            <stop offset="1" stop-color="#fff" stop-opacity="0" />
        </radialGradient>
        <linearGradient id="l" x1="3035.9" x2="8242.5" y1="1589.6" y2="2907"
            gradientUnits="userSpaceOnUse">
            <stop stop-color="#fff" stop-opacity=".5" />
            <stop offset="1" stop-color="#fff" stop-opacity=".1" />
        </linearGradient>
        <linearGradient id="m" x1="461" x2="69.1" y1="135.9" y2="117.5"
            gradientUnits="userSpaceOnUse">
            <stop offset="0" stop-color="#D9D9D9" stop-opacity="0" />
            <stop offset=".5" stop-color="#D9D9D9" />
            <stop offset="1" stop-color="#D9D9D9" stop-opacity="0" />
        </linearGradient>
        <linearGradient id="L" x1="85.1" x2="72.1" y1="109.1" y2="137.3"
            gradientUnits="userSpaceOnUse">
            <stop stop-color="#fff" stop-opacity=".6" />
            <stop offset="1" stop-color="#fff" stop-opacity="0" />
        </linearGradient>
        <linearGradient id="T" x1="441.6" x2="427.3" y1="60.8" y2="91.8"
            gradientUnits="userSpaceOnUse">
            <stop stop-color="#fff" stop-opacity=".6" />
            <stop offset="1" stop-color="#fff" stop-opacity="0" />
        </linearGradient>
        <clipPath id="a">
            <path fill="#fff" d="M0 0h526v239H0z" />
        </clipPath>
    </defs>
</svg>