<svg xmlns="http://www.w3.org/2000/svg" width="400" height="400" viewBox="0, 0, 400,400">
    <g fill-rule="evenodd">
        <path d="M69.867 151.732v47.466l35.133.068 35.133.067v62.4l-35.133.068-35.133.068v33.864h104.266V165.335L139 165.268l-35.133-.068-.068-30.467-.068-30.466H69.867v47.465m156 78.801v65.2h104.266v-33.864L295 261.801l-35.133-.068v-62.4l35.133-.067 35.133-.068V165.333H225.867v65.2m-40.267 50.8v14.4h28.8v-28.8h-28.8v14.4" fill="#f8fcfc"/>
        <path d="M69.724 104.331c-.07.185-.097 21.636-.059 47.669l.068 47.333 35.134.068 35.133.068V261.598l-35.133.068-35.134.067v34.134h104.534V165.2l-35.133-.068-35.132-.067-.068-30.466-.067-30.466-17.008-.068c-13.465-.055-17.034.001-17.135.266m34.075 30.402l.068 30.467 35.133.068 35.133.067v130.398H69.867v-33.864l35.133-.068 35.133-.068v-62.4L105 199.266l-35.133-.068V104.267h33.864l.068 30.466m121.925 30.666c-.07.184-.097 29.614-.059 65.401l.068 65.067h104.534v-34.134l-35.134-.067-35.133-.068V199.469l35.133-.068 35.134-.068V165.2l-52.208-.067c-41.627-.054-52.234 0-52.335.266m104.409 16.867v16.932l-35.133.068-35.133.067v62.4l35.133.068 35.133.068v33.864H225.867v-130.4h104.266v16.933" fill="#848484"/>
        <path d="M0 200v200h400V0H0v200m104-65.467v30.534h70.4V296H69.6v-34.4H140V199.467H69.6V104H104v30.533m226.4 47.734v17.2H260V261.6h70.4V296H225.6V165.067h104.8v17.2m-115.733 99.066V296h-29.334v-29.333h29.334v14.666" fill="#040404"/>
        <path d="M185.456 267c-.071.183-.096 6.753-.056 14.6l.071 14.267.065-14.465.064-14.464 14.467-.071 14.466-.072-14.475-.064c-11.382-.051-14.502.007-14.602.269" fill="#547c84"/>
        <path d="M214.464 281.264l-.064 14.465-14.467.071-14.466.071 14.475.065c11.382.05 14.502-.007 14.602-.269.071-.184.096-6.754.056-14.6l-.071-14.267-.065 14.464" fill="#445c5c"/>
    </g>
</svg>
