<svg xmlns="http://www.w3.org/2000/svg" height="700" width="700" fill="currentColor" fill-rule="evenodd" viewBox="0 0 700 700">
    <path d="M252 42c0-23.196 18.804-42 42-42 154.64 0 280 125.36 280 280 0 23.196-18.804 42-42 42s-42-18.804-42-42c0-108.248-87.752-196-196-196-23.196 0-42-18.804-42-42zm196 616c0 23.196-18.804 42-42 42-154.64 0-280-125.36-280-280 0-23.196 18.804-42 42-42s42 18.804 42 42c0 108.248 87.752 196 196 196 23.196 0 42 18.804 42 42zM42 448c-23.196 0-42-18.804-42-42 0-154.64 125.36-280 280-280 23.196 0 42 18.804 42 42s-18.804 42-42 42c-108.248 0-196 87.752-196 196 0 23.196-18.804 42-42 42zm616-196c23.196 0 42 18.804 42 42 0 154.64-125.36 280-280 280-23.196 0-42-18.804-42-42s18.804-42 42-42c108.248 0 196-87.752 196-196 0-23.196 18.804-42 42-42z"/>
</svg>
