<svg viewBox="0 0 512 512" xmlns="http://www.w3.org/2000/svg" fill-rule="evenodd" clip-rule="evenodd" stroke-linejoin="round" stroke-miterlimit="2">
    <path d="M511.2 256C511.2 115.155 396.851.806 256.006.806h-.012C115.149.806.8 115.155.8 256c0 140.845 114.349 255.194 255.194 255.194h.012C396.851 511.194 511.2 396.845 511.2 256zm-229.576.002c0 62.731-50.508 113.584-112.81 113.584S56 318.721 56 256.002c0-62.72 50.508-113.588 112.814-113.588 62.306 0 112.81 50.857 112.81 113.588zm123.757 0c0 59.048-25.255 106.934-56.407 106.934-31.153 0-56.407-47.886-56.407-106.934 0-59.048 25.25-106.935 56.403-106.935s56.407 47.872 56.407 106.935h.004zm50.619 0c0 52.892-8.881 95.796-19.838 95.796-10.958 0-19.835-42.892-19.835-95.796s8.88-95.796 19.835-95.796c10.954 0 19.838 42.888 19.838 95.796z" fill="currentColor"/>
</svg>
