<svg viewBox="0 0 134 41" fill="none" xmlns="http://www.w3.org/2000/svg">
<path d="M4.11025 20.8H0.510254C0.750254 24.88 2.07025 32.2 12.7903 32.2C18.6703 32.2 23.7903 29.64 23.7903 23.32C23.7903 11.88 5.55025 15.6 5.55025 8.76C5.55025 5.04 8.55025 4.24 11.9503 4.24C18.6303 4.24 18.9903 7.96 19.1103 10.4H22.9503C22.7103 8 21.5903 1.12 12.1903 1.12C4.19025 1.12 1.71025 5.32 1.71025 9.24C1.71025 19.96 20.0703 15.16 20.0703 23.92C20.0703 27.32 16.5103 28.96 12.7903 28.96C6.67025 28.96 4.35025 25.84 4.11025 20.8Z" fill="#FAFAFA"/>
<path d="M32.4818 5.68V1H28.8818V5.68H32.4818ZM32.4818 10.84H28.8818V31.72H32.4818V10.84Z" fill="#FAFAFA"/>
<path d="M53.1031 31.84C53.1031 35.4 52.4231 38.36 47.1431 38.36C42.7431 38.36 41.7831 36.2 41.7031 33.8H37.7831C38.2631 39.52 42.2231 41 47.3831 41C54.4231 41 56.7031 38.32 56.7031 31.84V10.84H53.1031V14.52C53.1031 14.52 51.3431 10.36 46.4231 10.36C39.9431 10.36 37.0631 15.16 37.0631 20.8C37.0631 26.44 39.9431 32.2 46.4231 32.2C51.0231 32.2 53.1031 28.68 53.1031 28.32V31.84ZM46.4231 29.32C42.1031 29.32 40.9031 24.4 40.9031 20.8C40.9031 17.2 42.1031 13.12 46.4231 13.12C50.8631 13.12 53.3431 16.2 53.3431 21.2C53.3431 26.76 50.8631 29.32 46.4231 29.32Z" fill="#FAFAFA"/>
<path d="M66.7021 19.6C66.7021 15.92 69.4221 13.6 72.2621 13.6C75.8221 13.6 76.1821 16.84 76.1821 20.04V31.72H79.7821V20.76C79.7821 15.64 79.7021 10.36 73.4621 10.36C69.4621 10.36 66.7021 14.36 66.7021 14.96V10.84H63.1021V31.72H66.7021V19.6Z" fill="#FAFAFA"/>
<path d="M93.5378 32.2C99.1377 32.2 102.178 28.72 102.418 25H98.7778C98.6578 26.68 97.6178 29.44 93.5378 29.44C88.7377 29.44 87.8177 25.04 87.8177 21.4H102.858C102.738 15.72 99.6178 10.36 93.4177 10.36C87.5378 10.36 84.0178 15.28 84.0178 21.28C84.0178 27.28 87.6578 32.2 93.5378 32.2ZM93.4177 13C97.1377 13 98.7377 15.96 98.8978 18.88H87.8577C87.9778 16.28 89.4577 13 93.4177 13Z" fill="#FAFAFA"/>
<path d="M108.045 27.08C108.045 28.12 107.645 32.2 112.645 32.2C114.645 32.2 115.485 31.88 115.485 31.88V28.64C115.485 28.64 114.565 28.88 113.325 28.88C111.965 28.88 111.405 28.2 111.405 27.2V13.96H115.365V10.84H111.405V4.24H108.045V10.84H104.805V13.96H108.045V27.08Z" fill="#FAFAFA"/>
<path d="M133.372 7.03771L132.957 5.76269L129.625 6.75209C128.074 7.21258 126.509 6.07533 126.467 4.45796L126.378 0.98287L125.038 0.98287L124.949 4.45796C124.908 6.07533 123.342 7.21258 121.791 6.75209L118.459 5.76269L118.045 7.03771L121.322 8.19603C122.848 8.73513 123.446 10.5752 122.528 11.908L120.558 14.7716L121.642 15.5596L123.757 12.8004C124.741 11.5162 126.676 11.5162 127.66 12.8004L129.774 15.5596L130.859 14.7716L128.888 11.908C127.971 10.5752 128.569 8.73513 130.094 8.19603L133.372 7.03771Z" fill="#FD4848" stroke="#FD4848" stroke-width="1.34107"/>
</svg>
