<svg width="162" height="31" viewBox="0 0 162 31" xmlns="http://www.w3.org/2000/svg">
    <path d="M161.12 14.559 150.723 1.13c-.271-.36-.814-.631-1.266-.631h-47.918v30H150c.452 0 .813-.18 1.084-.54l10.127-12.968c.452-.721.452-1.712-.091-2.433Zm-36.888 10.634h-16.274V5.637h15.913v4.956h-9.403v2.253h8.318v4.777h-8.318v2.523h9.764v5.047Zm15.732 0-3.345-5.227-3.346 5.227h-7.504l7.052-9.823-6.871-9.643h7.414l3.345 4.957 3.255-4.957h7.142l-6.78 9.463 7.232 10.093h-7.594v-.09Z"/>
    <path fill="#fff" fill-rule="evenodd" d="M107.932 25.193h16.274v-5.047h-9.765v-2.523h8.318v-4.777h-8.318v-2.253h9.403V5.637h-15.912v19.556Zm28.66-5.227 3.345 5.227v.09h7.595l-7.233-10.094 6.781-9.462h-7.143l-3.255 4.957-3.345-4.957h-7.414l6.872 9.643-7.052 9.823h7.504l3.345-5.227Z"/>
    <path fill-rule="evenodd" opacity=".95" d="M4.292 19.002c.136.983.403 1.717.802 2.204.73.885 1.98 1.328 3.752 1.328 1.06 0 1.922-.117 2.584-.35 1.255-.448 1.883-1.28 1.883-2.496 0-.71-.312-1.26-.935-1.65-.623-.38-1.6-.715-2.934-1.007l-2.277-.51c-2.238-.507-3.785-1.057-4.642-1.65C1.075 13.878.35 12.326.35 10.214c0-1.927.701-3.527 2.102-4.802C3.854 4.137 5.912 3.5 8.627 3.5c2.267 0 4.201.6 5.802 1.802 1.6 1.202 2.44 2.946 2.518 5.233h-4.32c-.078-1.294-.643-2.214-1.694-2.759-.7-.36-1.571-.54-2.613-.54-1.158 0-2.082.234-2.773.701-.691.467-1.036 1.12-1.036 1.956 0 .769.34 1.343 1.021 1.723.438.252 1.372.55 2.803.89l3.708.89c1.625.39 2.85.91 3.678 1.562 1.285 1.012 1.927 2.477 1.927 4.394 0 1.966-.752 3.598-2.255 4.897-1.504 1.3-3.628 1.949-6.372 1.949-2.803 0-5.007-.64-6.612-1.92C.803 22.998 0 21.24 0 19.002h4.292Zm14.714-6.16V9.878h2.218V5.441h4.117v4.437h2.583v2.964h-2.583v8.408c0 .651.082 1.058.247 1.218.166.16.672.241 1.519.241.273 0 .545-.01.817-.029v3.11l-1.97.072c-1.966.068-3.309-.272-4.029-1.022-.467-.476-.7-1.211-.7-2.204v-9.794h-2.22Zm17.866-.103c-.963 0-1.71.302-2.24.905-.531.604-.864 1.421-1 2.453h6.466c-.068-1.1-.401-1.934-1-2.504-.598-.569-1.34-.854-2.226-.854Zm0-3.43c1.323 0 2.516.248 3.576.745 1.061.496 1.937 1.28 2.628 2.35.623.944 1.026 2.038 1.211 3.284.108.73.151 1.78.132 3.153h-10.89c.059 1.596.56 2.715 1.504 3.357.574.4 1.265.599 2.072.599.857 0 1.553-.244 2.088-.73.292-.263.55-.628.774-1.095h4.248c-.108.944-.6 1.903-1.475 2.876-1.363 1.547-3.27 2.32-5.722 2.32-2.024 0-3.81-.651-5.357-1.955-1.548-1.304-2.32-3.426-2.32-6.365 0-2.754.697-4.865 2.094-6.335 1.396-1.47 3.209-2.204 5.437-2.204Zm19.122 8.598a4.527 4.527 0 0 1-.795.401 6.657 6.657 0 0 1-1.102.285l-.935.175c-.875.156-1.503.345-1.883.57-.642.379-.963.968-.963 1.766 0 .71.197 1.223.591 1.54.395.316.874.474 1.438.474a4.24 4.24 0 0 0 2.474-.788c.755-.526 1.146-1.484 1.175-2.876v-1.547Zm-2.525-1.942c.769-.097 1.319-.219 1.65-.364.593-.254.89-.648.89-1.183 0-.652-.226-1.102-.679-1.35-.452-.248-1.117-.372-1.993-.372-.982 0-1.678.243-2.086.73-.293.36-.487.846-.585 1.46h-4.014c.088-1.392.477-2.536 1.168-3.431 1.1-1.401 2.987-2.102 5.664-2.102 1.742 0 3.289.345 4.642 1.036 1.352.691 2.028 1.995 2.028 3.912V21.6c0 .506.01 1.119.03 1.84.029.544.111.914.248 1.108.136.195.34.356.613.482v.613H56.52a4.666 4.666 0 0 1-.263-.905c-.053-.32-.092-.64-.117-.963a8.56 8.56 0 0 1-1.985 1.59c-.895.517-1.907.775-3.036.775-1.44 0-2.63-.412-3.57-1.234-.938-.822-1.408-1.988-1.408-3.496 0-1.956.755-3.372 2.263-4.248.827-.476 2.043-.817 3.65-1.021l1.415-.176Zm14.626 9.678h-4.16V4.127h4.16v21.516Zm2.423-12.801V9.878h2.219V5.441h4.117v4.437h2.583v2.964h-2.583v8.408c0 .651.082 1.058.248 1.218.165.16.671.241 1.518.241.273 0 .545-.01.817-.029v3.11l-1.97.072c-1.966.068-3.309-.272-4.03-1.022-.466-.476-.7-1.211-.7-2.204v-9.794h-2.219Zm20.364-3.518c.982 0 1.875.17 2.678.51a4.688 4.688 0 0 1 1.978 1.563c.438.593.705 1.204.802 1.831.098.628.147 1.652.147 3.073v9.342h-4.248v-9.678c0-.856-.146-1.547-.438-2.072-.38-.74-1.1-1.11-2.16-1.11-1.1 0-1.935.368-2.504 1.102-.57.735-.854 1.784-.854 3.146v8.612h-4.146V4.2h4.146v7.605c.603-.924 1.302-1.569 2.095-1.934a5.923 5.923 0 0 1 2.504-.547Z"/>
</svg>
