<svg width="24" height="24" viewBox="0 0 24 24" fill="none" xmlns="http://www.w3.org/2000/svg">
  <g clip-path="url(#clip0_210_803)">
    <path
      d="M10.29 3.85999L1.82002 18C1.64539 18.3024 1.55299 18.6453 1.55201 18.9945C1.55103 19.3437 1.64151 19.6871 1.81445 19.9905C1.98738 20.2939 2.23675 20.5467 2.53773 20.7238C2.83871 20.9009 3.18082 20.9962 3.53002 21H20.47C20.8192 20.9962 21.1613 20.9009 21.4623 20.7238C21.7633 20.5467 22.0127 20.2939 22.1856 19.9905C22.3585 19.6871 22.449 19.3437 22.448 18.9945C22.4471 18.6453 22.3547 18.3024 22.18 18L13.71 3.85999C13.5318 3.5661 13.2807 3.32311 12.9812 3.15447C12.6817 2.98584 12.3438 2.89725 12 2.89725C11.6563 2.89725 11.3184 2.98584 11.0188 3.15447C10.7193 3.32311 10.4683 3.5661 10.29 3.85999V3.85999Z"
      stroke="black"
      stroke-width="2"
      stroke-linecap="round"
      stroke-linejoin="round"
    />
    <path d="M12 17H12.01" stroke="black" stroke-width="2" stroke-linecap="round" stroke-linejoin="round" />
    <path d="M12 9V13" stroke="black" stroke-width="2" stroke-linecap="round" stroke-linejoin="round" />
  </g>
  <defs>
    <clipPath id="clip0_210_803">
      <rect width="24" height="24" fill="white" />
    </clipPath>
  </defs>
</svg>
