<svg width="24" height="24" viewBox="0 0 24 24" fill="none" xmlns="http://www.w3.org/2000/svg">
  <path
    d="M12 16C14.2091 16 16 14.2091 16 12C16 9.79086 14.2091 8 12 8C9.79086 8 8 9.79086 8 12C8 14.2091 9.79086 16 12 16Z"
    stroke="black"
    stroke-width="2"
    stroke-linecap="round"
    stroke-linejoin="round"
  />
  <path
    d="M16 8V13C16 13.7957 16.3161 14.5587 16.8787 15.1213C17.4413 15.6839 18.2044 16 19 16C19.7957 16 20.5587 15.6839 21.1213 15.1213C21.6839 14.5587 22 13.7957 22 13V12C21.9999 9.74303 21.2362 7.55248 19.8333 5.78454C18.4303 4.01659 16.4706 2.77523 14.2726 2.2623C12.0747 1.74937 9.76794 1.99505 7.72736 2.95937C5.68677 3.9237 4.03241 5.54996 3.03327 7.57373C2.03413 9.5975 1.74898 11.8997 2.22418 14.1061C2.69938 16.3125 3.90699 18.2932 5.65064 19.7263C7.39429 21.1593 9.57144 21.9604 11.8281 21.9992C14.0847 22.038 16.2881 21.3122 18.08 19.94"
    stroke="black"
    stroke-width="2"
    stroke-linecap="round"
    stroke-linejoin="round"
  />
</svg>
