<svg width="24" height="25" viewBox="0 0 24 25" fill="none" xmlns="http://www.w3.org/2000/svg">
<path d="M17.5 6.52209L6.5 17.5221M8.5 10.5221V6.52209M6.5 8.52209H10.5M13.5 15.5221H17.5M7.8 21.0221H16.2C17.8802 21.0221 18.7202 21.0221 19.362 20.6951C19.9265 20.4075 20.3854 19.9486 20.673 19.3841C21 18.7423 21 17.9023 21 16.2221V7.82209C21 6.14194 21 5.30186 20.673 4.66012C20.3854 4.09564 19.9265 3.6367 19.362 3.34908C18.7202 3.02209 17.8802 3.02209 16.2 3.02209H7.8C6.11984 3.02209 5.27976 3.02209 4.63803 3.34908C4.07354 3.6367 3.6146 4.09564 3.32698 4.66012C3 5.30186 3 6.14194 3 7.82209V16.2221C3 17.9023 3 18.7423 3.32698 19.3841C3.6146 19.9486 4.07354 20.4075 4.63803 20.6951C5.27976 21.0221 6.11984 21.0221 7.8 21.0221Z" stroke="#121212" stroke-width="2" stroke-linecap="round" stroke-linejoin="round"/>
</svg>
