<svg width="24" height="24" viewBox="0 0 24 24" fill="none" xmlns="http://www.w3.org/2000/svg">
  <g clip-path="url(#clip0_210_1005)">
    <path
      d="M20 17.58C21.0513 17.1196 21.9121 16.3116 22.4381 15.2915C22.9641 14.2715 23.1232 13.1016 22.8886 11.9782C22.6541 10.8548 22.0402 9.84622 21.1501 9.12184C20.2599 8.39746 19.1477 8.00135 18 8H16.74C16.4231 6.77252 15.8189 5.63795 14.9773 4.6898C14.1358 3.74165 13.081 3.00708 11.8998 2.54662C10.7186 2.08617 9.44494 1.91302 8.18372 2.04145C6.92249 2.16987 5.70984 2.5962 4.64573 3.28529C3.58161 3.97437 2.6965 4.90649 2.06334 6.0048C1.43018 7.10311 1.06711 8.33618 1.00404 9.60235C0.940984 10.8685 1.17974 12.1316 1.70064 13.2874C2.22153 14.4431 3.00965 15.4586 4.00003 16.25"
      stroke="black"
      stroke-width="2"
      stroke-linecap="round"
      stroke-linejoin="round"
    />
  </g>
  <defs>
    <clipPath id="clip0_210_1005">
      <rect width="24" height="24" fill="white" />
    </clipPath>
  </defs>
</svg>
