<svg width="24" height="24" viewBox="0 0 24 24" fill="none" xmlns="http://www.w3.org/2000/svg">
  <g clip-path="url(#clip0_210_1000)">
    <path d="M16 13V21" stroke="black" stroke-width="2" stroke-linecap="round" stroke-linejoin="round" />
    <path d="M8 13V21" stroke="black" stroke-width="2" stroke-linecap="round" stroke-linejoin="round" />
    <path d="M12 15V23" stroke="black" stroke-width="2" stroke-linecap="round" stroke-linejoin="round" />
    <path
      d="M20 16.58C21.0513 16.1196 21.9121 15.3116 22.4381 14.2915C22.9641 13.2715 23.1232 12.1016 22.8886 10.9782C22.6541 9.85476 22.0402 8.84622 21.1501 8.12184C20.2599 7.39746 19.1477 7.00135 18 7H16.74C16.4231 5.77252 15.8189 4.63795 14.9773 3.6898C14.1358 2.74166 13.081 2.00708 11.8998 1.54662C10.7186 1.08617 9.44494 0.91302 8.18372 1.04145C6.92249 1.16987 5.70984 1.5962 4.64573 2.28529C3.58161 2.97437 2.6965 3.90649 2.06334 5.0048C1.43018 6.10311 1.06711 7.33618 1.00404 8.60235C0.940984 9.86853 1.17974 11.1316 1.70064 12.2874C2.22153 13.4431 3.00965 14.4586 4.00003 15.25"
      stroke="black"
      stroke-width="2"
      stroke-linecap="round"
      stroke-linejoin="round"
    />
  </g>
  <defs>
    <clipPath id="clip0_210_1000">
      <rect width="24" height="24" fill="white" />
    </clipPath>
  </defs>
</svg>
