<svg width="24" height="24" viewBox="0 0 24 24" fill="none" xmlns="http://www.w3.org/2000/svg">
  <g clip-path="url(#clip0_210_994)">
    <path
      d="M19.0001 16.9C20.2152 16.6533 21.2953 15.9638 22.0307 14.9655C22.7662 13.9671 23.1044 12.7312 22.9798 11.4975C22.8552 10.2638 22.2766 9.12047 21.3564 8.28938C20.4362 7.45828 19.24 6.99876 18.0001 7H16.7401C16.4087 5.71732 15.7641 4.53699 14.864 3.56499C13.9638 2.59298 12.8364 1.85973 11.5829 1.43106C10.3294 1.0024 8.98903 0.891734 7.68219 1.10901C6.37535 1.32629 5.14293 1.8647 4.09556 2.67591C3.0482 3.48712 2.21868 4.54574 1.68149 5.75671C1.1443 6.96769 0.916246 8.29311 1.01781 9.61399C1.11937 10.9349 1.54737 12.2099 2.26338 13.3245C2.97939 14.4391 3.96099 15.3584 5.12006 16"
      stroke="black"
      stroke-width="2"
      stroke-linecap="round"
      stroke-linejoin="round"
    />
    <path d="M13 11L9 17H15L11 23" stroke="black" stroke-width="2" stroke-linecap="round" stroke-linejoin="round" />
  </g>
  <defs>
    <clipPath id="clip0_210_994">
      <rect width="24" height="24" fill="white" />
    </clipPath>
  </defs>
</svg>
