<svg width="155" height="155" viewBox="0 0 155 155" fill="none" xmlns="http://www.w3.org/2000/svg">
<g clip-path="url(#clip0_4001_4899)">
<mask id="mask0_4001_4899" style="mask-type:alpha" maskUnits="userSpaceOnUse" x="0" y="0" width="155" height="155">
<circle cx="77.5" cy="77.5" r="77.5" fill="#E6007A"/>
</mask>
<g mask="url(#mask0_4001_4899)">
<circle cx="77.5" cy="77.5" r="77.5" fill="white"/>
<path fill-rule="evenodd" clip-rule="evenodd" d="M52.5896 55.3572C52.5896 53.0021 52.604 50.7093 53.6698 48.5988C55.1197 45.7273 59.408 44.286 62.8591 44.2858H68.1318C63.7036 46.1862 63.2098 51.7636 63.2098 56.0301L63.4044 83.2169L63.4606 91.1162C63.4606 91.1704 63.4632 91.2274 63.4659 91.2853C63.4723 91.42 63.4788 91.56 63.4526 91.6833C63.1464 102.537 53.8068 110.714 42.6658 110.714C31.3315 110.714 22.1432 102.456 22.1432 91.3394C22.1432 80.2231 31.3315 71.5181 42.6658 71.5181H52.5896L48.7568 77.6812C48.5616 77.8999 48.3887 78.1014 48.2288 78.2876C46.8768 79.8624 46.4608 80.3469 41.444 81.0151C36.3331 81.6958 33.2146 85.3818 33.2146 91.3394C33.2146 96.8751 36.7004 100.588 42.6658 100.588C48.6313 100.588 52.5896 97.19 52.5896 91.3394V71.5181V55.3572ZM79.0278 44.4669C73.1605 44.4669 68.1314 49.4307 68.1314 55.4975H117.305C123.451 55.4975 128.201 50.5337 128.201 44.4669H79.0278ZM104.732 93.2777V67.3557C104.732 60.7373 99.4232 55.4978 92.7178 55.4978V97.1384C92.7178 103.205 97.4675 108.169 103.614 108.169H104.173C106.967 108.445 110.04 107.617 112.275 105.687C105.29 105.136 104.732 100.999 104.732 93.2777Z" fill="#292929"/>
</g>
</g>
<defs>
<clipPath id="clip0_4001_4899">
<rect width="155" height="155" fill="white"/>
</clipPath>
</defs>
</svg>
