<svg width="24" height="25" viewBox="0 0 24 25" fill="none" xmlns="http://www.w3.org/2000/svg">
<path d="M13.5295 8.37395C12.9571 8.78204 12.2566 9.02209 11.5 9.02209C9.567 9.02209 8 7.45509 8 5.52209C8 3.5891 9.567 2.02209 11.5 2.02209C12.753 2.02209 13.8522 2.68051 14.4705 3.67024M6 20.1092H8.61029C8.95063 20.1092 9.28888 20.1497 9.61881 20.2307L12.3769 20.901C12.9753 21.0468 13.5988 21.0609 14.2035 20.9435L17.253 20.3502C18.0585 20.1933 18.7996 19.8075 19.3803 19.2426L21.5379 17.1438C22.154 16.5455 22.154 15.5745 21.5379 14.9752C20.9832 14.4355 20.1047 14.3748 19.4771 14.8324L16.9626 16.6669C16.6025 16.9302 16.1643 17.0719 15.7137 17.0719H13.2855L14.8311 17.0719C15.7022 17.0719 16.4079 16.3854 16.4079 15.538V15.2312C16.4079 14.5276 15.9156 13.9141 15.2141 13.744L12.8286 13.1638C12.4404 13.0697 12.0428 13.0221 11.6431 13.0221C10.6783 13.0221 8.93189 13.8209 8.93189 13.8209L6 15.047M20 6.52209C20 8.45509 18.433 10.0221 16.5 10.0221C14.567 10.0221 13 8.45509 13 6.52209C13 4.5891 14.567 3.02209 16.5 3.02209C18.433 3.02209 20 4.5891 20 6.52209ZM2 14.6221L2 20.4221C2 20.9821 2 21.2622 2.10899 21.4761C2.20487 21.6642 2.35785 21.8172 2.54601 21.9131C2.75992 22.0221 3.03995 22.0221 3.6 22.0221H4.4C4.96005 22.0221 5.24008 22.0221 5.45399 21.9131C5.64215 21.8172 5.79513 21.6642 5.89101 21.4761C6 21.2622 6 20.9821 6 20.4221V14.6221C6 14.062 6 13.782 5.89101 13.5681C5.79513 13.3799 5.64215 13.227 5.45399 13.1311C5.24008 13.0221 4.96005 13.0221 4.4 13.0221L3.6 13.0221C3.03995 13.0221 2.75992 13.0221 2.54601 13.1311C2.35785 13.227 2.20487 13.3799 2.10899 13.5681C2 13.782 2 14.062 2 14.6221Z" stroke="#121212" stroke-width="2" stroke-linecap="round" stroke-linejoin="round"/>
</svg>
