<svg width="24" height="24" viewBox="0 0 24 24" fill="none" xmlns="http://www.w3.org/2000/svg">
  <path
    fill-rule="evenodd"
    clip-rule="evenodd"
    d="M13.5939 3.12559C13.0808 3.04382 12.5494 2.99963 12 2.99963C8.10049 2.99963 5.10448 5.22607 3.14546 7.31569C2.15683 8.37023 1.40207 9.42095 0.894336 10.2071C0.63985 10.6012 0.445792 10.9313 0.313971 11.1656C0.248023 11.2829 0.19754 11.3763 0.162753 11.4421C0.145357 11.4749 0.131875 11.5009 0.122338 11.5195L0.11099 11.5417L0.107539 11.5485L0.10637 11.5508L0.105925 11.5517C0.105741 11.5521 0.105573 11.5524 1 11.9996L0.105573 11.5524C-0.0351909 11.8339 -0.0351909 12.1653 0.105573 12.4468L1 11.9996C0.105573 12.4468 0.105741 12.4472 0.105925 12.4476L0.10637 12.4484L0.107539 12.4508L0.11099 12.4576L0.122338 12.4798C0.131875 12.4984 0.145357 12.5243 0.162753 12.5572C0.19754 12.6229 0.248023 12.7164 0.313971 12.8336C0.445792 13.068 0.63985 13.3981 0.894336 13.7922C1.40207 14.5783 2.15683 15.629 3.14546 16.6836C5.10448 18.7732 8.10049 20.9996 12 20.9996C15.8995 20.9996 18.8955 18.7732 20.8545 16.6836C21.8432 15.629 22.5979 14.5783 23.1057 13.7922C23.3601 13.3981 23.5542 13.068 23.686 12.8336C23.752 12.7164 23.8025 12.6229 23.8372 12.5572C23.8546 12.5243 23.8681 12.4984 23.8777 12.4798L23.889 12.4576L23.8925 12.4508L23.8936 12.4484L23.8941 12.4476C23.8943 12.4472 23.8944 12.4468 23 11.9996L23.8944 12.4468C24.0352 12.1653 24.0352 11.8339 23.8944 11.5524L23 11.9996C23.8944 11.5524 23.8943 11.5521 23.8941 11.5517L23.8936 11.5508L23.8925 11.5485L23.889 11.5417L23.8777 11.5195C23.8681 11.5009 23.8546 11.4749 23.8372 11.4421C23.8025 11.3763 23.752 11.2829 23.686 11.1656C23.5542 10.9313 23.3601 10.6012 23.1057 10.2071C22.983 10.0172 22.846 9.81196 22.6948 9.59491C22.2285 10.073 21.6781 10.4686 21.0676 10.7581C21.1988 10.9469 21.3182 11.1259 21.4256 11.2922C21.6051 11.5701 21.75 11.8108 21.8593 11.9996C21.75 12.1885 21.6051 12.4292 21.4256 12.7071C20.9646 13.4209 20.2818 14.3702 19.3955 15.3157C17.6045 17.2261 15.1005 18.9996 12 18.9996C8.89951 18.9996 6.39552 17.2261 4.60454 15.3157C3.71817 14.3702 3.03543 13.4209 2.57441 12.7071C2.39492 12.4292 2.25003 12.1885 2.14074 11.9996C2.25003 11.8108 2.39492 11.5701 2.57441 11.2922C3.03543 10.5783 3.71817 9.62904 4.60454 8.68357C6.39552 6.77319 8.89951 4.99963 12 4.99963C12.351 4.99963 12.6943 5.02236 13.0299 5.06545C13.1009 4.37429 13.2965 3.72006 13.5939 3.12559Z"
    fill="black"
  />
  <path
    d="M12 15C13.6569 15 15 13.6569 15 12C15 10.3431 13.6569 9 12 9C10.3431 9 9 10.3431 9 12C9 13.6569 10.3431 15 12 15Z"
    stroke="black"
    stroke-width="2"
    stroke-linecap="round"
    stroke-linejoin="round"
  />
  <path
    fill-rule="evenodd"
    clip-rule="evenodd"
    d="M19.85 3.40002C19.85 2.84774 19.4023 2.40002 18.85 2.40002C18.2977 2.40002 17.85 2.84774 17.85 3.40002V4.65002H16.6C16.0477 4.65002 15.6 5.09774 15.6 5.65002C15.6 6.20231 16.0477 6.65002 16.6 6.65002H17.85V7.90005C17.85 8.45234 18.2977 8.90005 18.85 8.90005C19.4023 8.90005 19.85 8.45234 19.85 7.90005V6.65002H21.1C21.6523 6.65002 22.1 6.20231 22.1 5.65002C22.1 5.09774 21.6523 4.65002 21.1 4.65002H19.85V3.40002Z"
    fill="black"
  />
</svg>
