<svg width="24" height="24" viewBox="0 0 24 24" fill="none" xmlns="http://www.w3.org/2000/svg">
  <g clip-path="url(#clip0_210_1254)">
    <path
      d="M17 2H7C4.23858 2 2 4.23858 2 7V17C2 19.7614 4.23858 22 7 22H17C19.7614 22 22 19.7614 22 17V7C22 4.23858 19.7614 2 17 2Z"
      stroke="black"
      stroke-width="2"
      stroke-linecap="round"
      stroke-linejoin="round"
    />
    <path
      d="M16 11.37C16.1234 12.2022 15.9812 13.0522 15.5937 13.799C15.2062 14.5458 14.5931 15.1514 13.8416 15.5297C13.0901 15.9079 12.2384 16.0396 11.4077 15.9059C10.5771 15.7723 9.80971 15.3801 9.21479 14.7852C8.61987 14.1902 8.22768 13.4229 8.09402 12.5922C7.96035 11.7615 8.09202 10.9099 8.47028 10.1584C8.84854 9.40685 9.45414 8.79374 10.2009 8.40624C10.9477 8.01874 11.7977 7.87658 12.63 8C13.4789 8.12588 14.2648 8.52146 14.8716 9.1283C15.4785 9.73515 15.8741 10.5211 16 11.37Z"
      stroke="black"
      stroke-width="2"
      stroke-linecap="round"
      stroke-linejoin="round"
    />
  </g>
  <defs>
    <clipPath id="clip0_210_1254">
      <rect width="24" height="24" fill="white" />
    </clipPath>
  </defs>
</svg>
