<svg width="24" height="24" viewBox="0 0 24 24" fill="none" xmlns="http://www.w3.org/2000/svg">
  <g clip-path="url(#clip0_210_1344)">
    <path d="M1 1L23 23" stroke="black" stroke-width="2" stroke-linecap="round" stroke-linejoin="round" />
    <path
      d="M15 9.34V4C15.0007 3.25603 14.725 2.53832 14.2264 1.9862C13.7277 1.43408 13.0417 1.08694 12.3015 1.01217C11.5613 0.937406 10.8197 1.14034 10.2207 1.58159C9.62172 2.02283 9.20805 2.67091 9.06 3.4M9 9V12C9.00052 12.593 9.17675 13.1725 9.50643 13.6653C9.83611 14.1582 10.3045 14.5423 10.8523 14.7691C11.4002 14.996 12.0029 15.0554 12.5845 14.9399C13.1661 14.8243 13.7005 14.539 14.12 14.12L9 9Z"
      stroke="black"
      stroke-width="2"
      stroke-linecap="round"
      stroke-linejoin="round"
    />
    <path
      d="M16.9999 16.95C16.0237 17.9464 14.7721 18.6285 13.4056 18.9086C12.039 19.1887 10.62 19.0542 9.33044 18.5223C8.0409 17.9903 6.9397 17.0853 6.16811 15.9232C5.39652 14.761 4.98974 13.3949 4.99994 12V10M18.9999 10V12C18.9996 12.4124 18.9628 12.824 18.8899 13.23"
      stroke="black"
      stroke-width="2"
      stroke-linecap="round"
      stroke-linejoin="round"
    />
    <path d="M12 19V23" stroke="black" stroke-width="2" stroke-linecap="round" stroke-linejoin="round" />
    <path d="M8 23H16" stroke="black" stroke-width="2" stroke-linecap="round" stroke-linejoin="round" />
  </g>
  <defs>
    <clipPath id="clip0_210_1344">
      <rect width="24" height="24" fill="white" />
    </clipPath>
  </defs>
</svg>
