<svg width="24" height="24" viewBox="0 0 24 24" fill="none" xmlns="http://www.w3.org/2000/svg">
  <path d="M23 4V10H17" stroke="black" stroke-width="2" stroke-linecap="round" stroke-linejoin="round" />
  <path d="M1 20V14H7" stroke="black" stroke-width="2" stroke-linecap="round" stroke-linejoin="round" />
  <path
    d="M3.51 9.00001C4.01717 7.5668 4.87913 6.28542 6.01547 5.27543C7.1518 4.26545 8.52547 3.55978 10.0083 3.22427C11.4911 2.88877 13.0348 2.93436 14.4952 3.35679C15.9556 3.77922 17.2853 4.56473 18.36 5.64001L23 10M1 14L5.64 18.36C6.71475 19.4353 8.04437 20.2208 9.50481 20.6432C10.9652 21.0657 12.5089 21.1113 13.9917 20.7758C15.4745 20.4402 16.8482 19.7346 17.9845 18.7246C19.1209 17.7146 19.9828 16.4332 20.49 15"
    stroke="black"
    stroke-width="2"
    stroke-linecap="round"
    stroke-linejoin="round"
  />
</svg>
