<svg width="24" height="24" viewBox="0 0 24 24" fill="none" xmlns="http://www.w3.org/2000/svg">
  <path
    fill-rule="evenodd"
    clip-rule="evenodd"
    d="M12.3871 5.02706L12.3871 5.02703C13.3762 4.03799 15.1371 3.33344 16.9114 3.07999C17.7824 2.95557 18.6001 2.94885 19.2606 3.04777C19.9512 3.15119 20.3346 3.34891 20.4929 3.50714C20.6511 3.66536 20.8488 4.04876 20.9523 4.73933C21.0512 5.39984 21.0445 6.21754 20.92 7.08853C20.6666 8.86278 19.962 10.6238 18.9729 11.6129L17.6929 12.8929L12.8929 17.6929L12 18.5858L10.3071 16.8929C9.91653 16.5024 9.28337 16.5024 8.89285 16.8929C8.50232 17.2834 8.50232 17.9166 8.89285 18.3071L11.2929 20.7071C11.6834 21.0976 12.3166 21.0976 12.7071 20.7071L13.4014 20.0128L15.1425 22.9145C15.3009 23.1785 15.5721 23.3549 15.8778 23.3925C16.1834 23.4301 16.4893 23.3249 16.7071 23.1071L19.9071 19.9071C20.1296 19.6845 20.2344 19.3702 20.1899 19.0586L19.4606 13.9536L20.3871 13.0271L20.3871 13.0271C21.798 11.6162 22.6134 9.37711 22.8999 7.37138C23.0455 6.35237 23.0638 5.33508 22.9302 4.44311C22.8011 3.58121 22.5088 2.69464 21.9071 2.09289C21.3053 1.49116 20.4187 1.1989 19.5568 1.06983C18.6649 0.936251 17.6476 0.954527 16.6286 1.10009C14.6228 1.38661 12.3838 2.20197 10.9729 3.61283L10.9729 3.61286L10.0464 4.53935L4.9414 3.81007C4.62981 3.76555 4.31544 3.87034 4.09288 4.09291L0.892877 7.29291C0.675133 7.51065 0.569851 7.81657 0.607476 8.1222C0.645101 8.42783 0.821437 8.69908 1.08549 8.85751L3.98725 10.5986L3.2929 11.2929C3.10536 11.4804 3 11.7348 3 12C3 12.2652 3.10536 12.5196 3.2929 12.7071L5.6929 15.1071C6.08343 15.4976 6.71659 15.4976 7.10711 15.1071C7.49764 14.7166 7.49764 14.0834 7.10712 13.6929L5.41422 12L6.30711 11.1071L5.62686 10.4269L6.30712 11.1071L11.1071 6.30712L11.1071 6.3071L12.3871 5.02706ZM16.1985 20.7873L14.8592 18.555L17.6929 15.7213L18.1393 18.8464L16.1985 20.7873ZM8.27867 6.30712L5.44499 9.14082L3.21274 7.80147L5.15354 5.86068L8.27867 6.30712ZM3.90709 16.7071C4.29761 16.3166 4.29761 15.6834 3.90709 15.2929C3.51657 14.9024 2.8834 14.9024 2.49288 15.2929L0.892877 16.8929C0.502352 17.2834 0.502352 17.9166 0.892877 18.3071C1.2834 18.6976 1.91657 18.6976 2.30709 18.3071L3.90709 16.7071ZM6.30712 19.1071C6.69765 18.7166 6.69766 18.0835 6.30714 17.6929C5.91662 17.3024 5.28345 17.3024 4.89293 17.6929L1.69288 20.8929C1.30236 21.2834 1.30235 21.9166 1.69287 22.3071C2.08339 22.6976 2.71655 22.6976 3.10708 22.3071L6.30712 19.1071ZM8.70709 21.5071C9.09761 21.1166 9.09761 20.4834 8.70709 20.0929C8.31657 19.7024 7.6834 19.7024 7.29288 20.0929L5.69288 21.6929C5.30235 22.0834 5.30235 22.7166 5.69288 23.1071C6.0834 23.4976 6.71657 23.4976 7.10709 23.1071L8.70709 21.5071ZM13.9599 8.72006C13.9599 8.07941 14.4793 7.56006 15.1199 7.56006C15.7606 7.56006 16.2799 8.07941 16.2799 8.72006C16.2799 9.36071 15.7606 9.88006 15.1199 9.88006C14.4793 9.88006 13.9599 9.36071 13.9599 8.72006ZM15.1199 5.56006C13.3747 5.56006 11.9599 6.97484 11.9599 8.72006C11.9599 10.4653 13.3747 11.8801 15.1199 11.8801C16.8652 11.8801 18.2799 10.4653 18.2799 8.72006C18.2799 6.97484 16.8652 5.56006 15.1199 5.56006Z"
    fill="black"
  />
</svg>
