<svg width="24" height="24" viewBox="0 0 24 24" fill="none" xmlns="http://www.w3.org/2000/svg">
  <g clip-path="url(#clip0_210_1600)">
    <path
      d="M18 2H6C4.89543 2 4 2.89543 4 4V20C4 21.1046 4.89543 22 6 22H18C19.1046 22 20 21.1046 20 20V4C20 2.89543 19.1046 2 18 2Z"
      stroke="black"
      stroke-width="2"
      stroke-linecap="round"
      stroke-linejoin="round"
    />
    <path
      d="M12 18C14.2091 18 16 16.2091 16 14C16 11.7909 14.2091 10 12 10C9.79086 10 8 11.7909 8 14C8 16.2091 9.79086 18 12 18Z"
      stroke="black"
      stroke-width="2"
      stroke-linecap="round"
      stroke-linejoin="round"
    />
  </g>
  <defs>
    <clipPath id="clip0_210_1600">
      <rect width="24" height="24" fill="white" />
    </clipPath>
  </defs>
</svg>
