<svg width="24" height="25" viewBox="0 0 24 25" fill="none" xmlns="http://www.w3.org/2000/svg">
  <path
    d="M9.77407 17.266C9.77407 18.5011 10.7683 19.504 12 19.518C13.2317 19.504 14.2259 18.5011 14.2259 17.266C14.2259 16.031 13.2317 15.0281 12 15.0141C10.7683 15.0281 9.77407 16.031 9.77407 17.266Z"
    fill="black"
  />
  <path
    fill-rule="evenodd"
    clip-rule="evenodd"
    d="M5.20023 13.3858C4.97194 13.883 4.29974 14.0585 3.91292 13.6717L3.20382 12.9626C2.4709 12.2297 1.28261 12.2297 0.54969 12.9626C-0.18323 13.6955 -0.18323 14.8838 0.54969 15.6168L6.28302 21.3501C7.65492 22.9779 9.70632 24.0144 12 24.0221C14.2937 24.0144 16.3451 22.9779 17.717 21.3501L23.4503 15.6168C24.1832 14.8838 24.1832 13.6955 23.4503 12.9626C22.7174 12.2297 21.5291 12.2297 20.7962 12.9626L20.0871 13.6717C19.7003 14.0585 19.0281 13.883 18.7998 13.3858C18.7548 13.2878 18.7303 13.1827 18.7303 13.0749L18.7303 4.50401C18.7303 3.46751 17.89 2.62726 16.8535 2.62726C15.817 2.62726 14.9768 3.46751 14.9768 4.50401L14.9768 8.842C14.9768 9.21503 14.5947 9.46823 14.239 9.35581C14.0139 9.28467 13.8512 9.07971 13.8512 8.84363L13.8512 1.87658C13.8512 0.848596 13.0247 0.0136512 12 0C10.9753 0.0136512 10.1488 0.848596 10.1488 1.87658L10.1488 8.84363C10.1488 9.07971 9.98614 9.28467 9.76103 9.35581C9.40534 9.46823 9.02321 9.21503 9.02321 8.842L9.02322 4.50401C9.02322 3.46751 8.18297 2.62726 7.14646 2.62726C6.10996 2.62726 5.26971 3.46751 5.26971 4.50401L5.26971 13.0749C5.26971 13.1827 5.24523 13.2878 5.20023 13.3858ZM12 13.5125C8.69531 13.5323 6.02072 17.2659 6.02072 17.2659C6.02072 17.2659 8.6953 20.9996 12 21.0194C15.3047 20.9996 17.9793 17.2659 17.9793 17.2659C17.9793 17.2659 15.3047 13.5323 12 13.5125Z"
    fill="black"
  />
</svg>
