<svg width="24" height="24" viewBox="0 0 24 24" fill="none" xmlns="http://www.w3.org/2000/svg">
  <path
    d="M9.59 4.59001C9.82231 4.35633 10.1088 4.18366 10.4239 4.08735C10.739 3.99105 11.073 3.9741 11.3963 4.038C11.7195 4.10191 12.022 4.24469 12.2768 4.45366C12.5315 4.66263 12.7307 4.9313 12.8566 5.23581C12.9825 5.54031 13.0313 5.8712 12.9985 6.19908C12.9657 6.52695 12.8524 6.84164 12.6687 7.11517C12.4849 7.38871 12.2365 7.61261 11.9454 7.76698C11.6542 7.92135 11.3295 8.0014 11 8.00001H2M12.59 19.41C12.8223 19.6437 13.1088 19.8164 13.4239 19.9127C13.739 20.009 14.073 20.0259 14.3963 19.962C14.7195 19.8981 15.022 19.7553 15.2768 19.5464C15.5315 19.3374 15.7307 19.0687 15.8566 18.7642C15.9825 18.4597 16.0313 18.1288 15.9985 17.8009C15.9657 17.4731 15.8524 17.1584 15.6687 16.8849C15.4849 16.6113 15.2365 16.3874 14.9454 16.233C14.6542 16.0787 14.3295 15.9986 14 16H2M17.73 7.73001C18.0208 7.4399 18.3787 7.22593 18.7719 7.10703C19.1652 6.98812 19.5816 6.96795 19.9845 7.0483C20.3874 7.12865 20.7642 7.30703 21.0817 7.56768C21.3993 7.82833 21.6477 8.16321 21.805 8.5427C21.9623 8.9222 22.0236 9.33461 21.9836 9.74346C21.9436 10.1523 21.8035 10.545 21.5756 10.8868C21.3477 11.2286 21.0391 11.509 20.6771 11.7032C20.3151 11.8973 19.9108 11.9993 19.5 12H2"
    stroke="black"
    stroke-width="2"
    stroke-linecap="round"
    stroke-linejoin="round"
  />
</svg>
