<svg width="24" height="24" viewBox="0 0 20 20" fill="none" xmlns="http://www.w3.org/2000/svg">
    <path
        d="M10.8333 1.66669L11.5279 1.75351C11.5665 1.44516 11.3971 1.14831 11.1121 1.02458C10.827 0.900838 10.4945 0.979834 10.2956 1.21856L10.8333 1.66669ZM2.5 11.6667L1.96225 11.2186C1.78836 11.4272 1.75088 11.7176 1.86609 11.9636C1.98129 12.2096 2.22839 12.3667 2.5 12.3667V11.6667ZM10 11.6667L10.6926 11.768C10.7221 11.5668 10.6626 11.3628 10.5296 11.2089C10.3966 11.0551 10.2033 10.9667 10 10.9667V11.6667ZM10 8.33335L9.30541 8.24653C9.2805 8.44576 9.34235 8.64609 9.47523 8.79662C9.6081 8.94714 9.79922 9.03335 10 9.03335V8.33335ZM9 18.5002L8.30738 18.3988C8.26369 18.6974 8.41623 18.9903 8.68588 19.1257C8.95554 19.2612 9.28161 19.2085 9.49498 18.9952L9 18.5002ZM11.495 16.9952C11.7683 16.7218 11.7683 16.2786 11.495 16.0052C11.2216 15.7318 10.7784 15.7318 10.505 16.0052L11.495 16.9952ZM15.9685 9.04467C15.7169 9.33821 15.7509 9.78012 16.0445 10.0317C16.338 10.2833 16.7799 10.2492 17.0315 9.9557L15.9685 9.04467ZM17.5 8.33335L18.0315 8.78887C18.2094 8.58131 18.2502 8.28918 18.136 8.04083C18.0217 7.79248 17.7734 7.63335 17.5 7.63335V8.33335ZM14.3 17C14.3 17.3866 14.6134 17.7 15 17.7C15.3866 17.7 15.7 17.3866 15.7 17H14.3ZM15.7 11C15.7 10.6134 15.3866 10.3 15 10.3C14.6134 10.3 14.3 10.6134 14.3 11H15.7ZM12 13.3C11.6134 13.3 11.3 13.6134 11.3 14C11.3 14.3866 11.6134 14.7 12 14.7V13.3ZM18 14.7C18.3866 14.7 18.7 14.3866 18.7 14C18.7 13.6134 18.3866 13.3 18 13.3V14.7ZM10.2956 1.21856L1.96225 11.2186L3.03775 12.1148L11.3711 2.11482L10.2956 1.21856ZM2.5 12.3667H10V10.9667H2.5V12.3667ZM10.6946 8.42018L11.5279 1.75351L10.1387 1.57986L9.30541 8.24653L10.6946 8.42018ZM9.30738 11.5653L8.30738 18.3988L9.69262 18.6015L10.6926 11.768L9.30738 11.5653ZM9.49498 18.9952L11.495 16.9952L10.505 16.0052L8.50503 18.0052L9.49498 18.9952ZM17.0315 9.9557L18.0315 8.78887L16.9685 7.87784L15.9685 9.04467L17.0315 9.9557ZM15.7 17V14H14.3V17H15.7ZM15.7 14V11H14.3V14H15.7ZM12 14.7H15V13.3H12V14.7ZM15 14.7H18V13.3H15V14.7ZM17.5 7.63335H10V9.03335H17.5V7.63335Z"
        fill="black" />
</svg>
