<svg width="76" height="33" viewBox="0 0 76 33" fill="none" xmlns="http://www.w3.org/2000/svg">
<path d="M16.5275 10.6592V8.2936C16.5275 7.43487 16.009 6.67335 15.215 6.3331L0.551758 0.289551V1.60196L13.6272 6.9974C14.0809 7.17563 14.0809 7.82373 13.6272 8.00196L0.551758 13.3974V18.6632L8.42619 15.4065L13.611 17.5452C14.0647 17.7235 14.0647 18.3716 13.611 18.5498L0.551758 23.9452V32.2896L15.215 26.246C16.009 25.922 16.5275 25.1442 16.5275 24.2855V18.8577C16.5275 17.9989 16.009 17.2374 15.215 16.8971L10.014 14.7584L15.215 12.6197C16.009 12.2956 16.5275 11.5179 16.5275 10.6592ZM28.2095 8.2936L29.3761 12.8465L30.6885 8.2936H31.9361L33.1675 12.8465L34.3826 8.2936H35.3062L33.7345 13.7863H32.568L31.2718 9.05512L29.9269 13.7863H28.7442L27.2211 8.2936H28.2095ZM36.7158 11.3073C36.7482 11.7609 36.7968 11.9878 36.9426 12.2794C37.2181 12.7979 37.8338 13.1382 38.4495 13.1382C39.1948 13.1382 39.6809 12.7817 39.8915 12.085H40.9123C40.653 13.2678 39.7619 13.9321 38.4333 13.9321C36.7806 13.9321 35.7275 12.7979 35.7275 11.0156C35.7275 9.28196 36.7806 8.11537 38.3523 8.11537C40.0211 8.11537 40.9285 9.24955 40.9285 11.2911H36.7158V11.3073ZM39.6647 9.62221C39.4054 9.18474 38.8869 8.9255 38.3523 8.9255C37.4287 8.9255 36.8454 9.50879 36.732 10.562H39.9239C39.8753 10.0759 39.8105 9.84904 39.6647 9.62221ZM41.852 6.20347H42.7918V9.11993C43.1806 8.47183 43.7153 8.16398 44.493 8.16398C45.854 8.16398 46.8262 9.34677 46.8262 11.048C46.8262 12.7493 45.9026 13.8997 44.5092 13.8997C43.7477 13.8997 43.2454 13.5918 42.7594 12.8789V13.7863H41.852V6.20347ZM42.808 11.0156C42.808 12.2146 43.4885 13.1058 44.3796 13.1058C45.2383 13.1058 45.8054 12.2956 45.8054 11.048C45.8054 9.73563 45.2383 8.9255 44.3472 8.9255C43.4561 8.9255 42.808 9.78423 42.808 11.0156ZM48.5275 11.4693C48.5113 12.4414 49.1269 13.0733 50.0991 13.0733C50.974 13.0733 51.6059 12.5225 51.6059 11.7609C51.6059 10.9832 51.0064 10.5133 50.0343 10.5133C49.9371 10.5133 49.8561 10.5133 49.7102 10.5296V9.68702H49.9533C50.9578 9.68702 51.5411 9.24955 51.5411 8.47183C51.5411 7.74272 50.974 7.27284 50.1153 7.27284C49.1918 7.27284 48.6571 7.82373 48.6247 8.79588H47.6201C47.6849 7.28904 48.6085 6.41411 50.1315 6.41411C51.5411 6.41411 52.5295 7.22423 52.5295 8.39082C52.5295 9.16854 51.9786 9.88145 51.2333 10.0759C52.1406 10.3027 52.6267 10.9184 52.6267 11.8258C52.6267 13.0571 51.5735 13.9321 50.0829 13.9321C48.5275 13.9321 47.4743 12.9275 47.4905 11.4693H48.5275ZM28.2581 19.6192H27.2697V18.8577H28.2581C28.2743 17.9503 28.2905 17.7559 28.4201 17.4318C28.6145 16.9133 29.1168 16.6379 29.8621 16.6379C30.008 16.6379 30.1376 16.6541 30.3806 16.6703V17.5128C30.1538 17.448 30.0566 17.448 29.9107 17.448C29.5867 17.448 29.3437 17.6101 29.2626 17.9017C29.1978 18.0961 29.1978 18.242 29.1978 18.8414H30.3806V19.603H29.1978V24.3341H28.2581V19.6192ZM35.9057 21.5959C35.9057 23.362 34.8525 24.5123 33.2323 24.5123C31.6444 24.5123 30.5913 23.3295 30.5913 21.5797C30.5913 19.846 31.6606 18.6956 33.2647 18.6956C34.8363 18.7118 35.9057 19.8784 35.9057 21.5959ZM31.612 21.5473C31.612 22.8921 32.2115 23.7184 33.2161 23.7184C34.2206 23.7184 34.8849 22.8921 34.8849 21.6121C34.8849 20.3159 34.2368 19.4896 33.2323 19.4896C32.2277 19.4896 31.612 20.2835 31.612 21.5473ZM40.4748 23.7022C40.1994 24.1883 39.5675 24.4799 38.8221 24.4799C38.0606 24.4799 37.4611 24.1721 37.1371 23.6374C36.9264 23.2809 36.8616 22.9083 36.8616 21.9847V18.8577H37.8014V22.163C37.8014 23.1999 38.1902 23.686 38.9842 23.686C39.5026 23.686 39.9563 23.443 40.2156 23.0379C40.3776 22.7787 40.41 22.4708 40.41 21.4987V18.8739H41.3497V24.3665H40.4424V23.7022H40.4748ZM43.4075 19.522C43.8287 18.9711 44.331 18.7442 45.0763 18.7442C45.8378 18.7442 46.4373 19.0521 46.7614 19.5868C46.972 19.9432 47.0368 20.3159 47.0368 21.2394V24.3665H46.0809V21.0612C46.0809 20.008 45.692 19.5382 44.8981 19.5382C44.3634 19.5382 43.9259 19.7812 43.6667 20.2025C43.5047 20.4617 43.4723 20.7533 43.4723 21.7417V24.3665H42.5163V18.8739H43.4075V19.522ZM52.0434 24.3503V23.443C51.5573 24.1721 51.0388 24.4637 50.2935 24.4637C48.9163 24.4637 47.9766 23.3133 47.9766 21.6283C47.9766 19.9108 48.9325 18.728 50.3097 18.728C51.0875 18.728 51.6221 19.0359 52.011 19.684V16.7675H52.9507V24.3341H52.0434V24.3503ZM48.9973 21.6283C48.9973 22.8759 49.5482 23.686 50.4231 23.686C51.3143 23.686 51.9948 22.7949 51.9948 21.5959C51.9948 20.3645 51.3629 19.5058 50.4718 19.5058C49.5806 19.5058 48.9973 20.3159 48.9973 21.6283ZM57.7143 24.3503C57.6657 24.0587 57.6495 23.9615 57.6171 23.6698C57.1472 24.2369 56.6125 24.4799 55.851 24.4799C54.6682 24.4799 53.8743 23.7994 53.8743 22.8111C53.8743 22.082 54.2794 21.5797 55.0895 21.3366C55.3487 21.2556 55.77 21.1746 56.2561 21.1098C56.5639 21.0612 56.9204 21.0126 57.5361 20.964C57.5199 20.2511 57.4875 20.0404 57.293 19.8298C57.0986 19.6192 56.7583 19.4896 56.3371 19.4896C55.5269 19.4896 55.1219 19.846 55.0733 20.5913H54.0849C54.1821 19.9108 54.3118 19.5706 54.6682 19.2627C55.0571 18.9063 55.6728 18.6956 56.3371 18.6956C57.1634 18.6956 57.8115 18.9711 58.168 19.5058C58.4596 19.9108 58.5082 20.3159 58.492 22.0658C58.4758 23.1675 58.5244 23.7508 58.6702 24.3503H57.7143ZM54.8951 22.8435C54.8951 23.3944 55.3163 23.7184 55.9968 23.7184C56.5801 23.7184 57.0338 23.5078 57.3092 23.0865C57.4712 22.8435 57.5361 22.5194 57.5361 21.9037V21.7093C55.5756 21.8389 54.8951 22.1306 54.8951 22.8435ZM60.971 18.8739H62.2024V19.6354H60.971V22.568C60.971 23.1837 60.9872 23.2971 61.0844 23.4268C61.1816 23.5564 61.4085 23.6374 61.6677 23.6374C61.8621 23.6374 62.0404 23.605 62.2024 23.5564V24.3665C61.7649 24.4475 61.6029 24.4637 61.3761 24.4637C60.8738 24.4637 60.4363 24.2369 60.2095 23.8642C60.0799 23.6212 60.0313 23.3944 60.0313 22.8597V19.6192H59.0267V18.8577H60.0313V17.529H60.971V18.8739ZM63.0449 16.7837H63.9847V17.8855H63.0449V16.7837ZM64.0009 18.8739V24.3665H63.0611V18.8739H64.0009ZM70.2551 21.5959C70.2551 23.362 69.2019 24.5123 67.5816 24.5123C65.9938 24.5123 64.9406 23.3295 64.9406 21.5797C64.9406 19.846 66.01 18.6956 67.614 18.6956C69.1857 18.7118 70.2551 19.8784 70.2551 21.5959ZM65.9614 21.5473C65.9614 22.8921 66.5609 23.7184 67.5654 23.7184C68.57 23.7184 69.2343 22.8921 69.2343 21.6121C69.2343 20.3159 68.5862 19.4896 67.5816 19.4896C66.5771 19.4896 65.9614 20.2835 65.9614 21.5473ZM72.1021 19.522C72.5234 18.9711 73.0257 18.7442 73.771 18.7442C74.5325 18.7442 75.132 19.0521 75.4561 19.5868C75.6667 19.9432 75.7315 20.3159 75.7315 21.2394V24.3665H74.7918V21.0612C74.7918 20.008 74.4029 19.5382 73.609 19.5382C73.0743 19.5382 72.6368 19.7812 72.3776 20.2025C72.2156 20.4617 72.1832 20.7533 72.1832 21.7417V24.3665H71.2434V18.8739H72.1345V19.522H72.1021Z" fill="#FAFAFA"/>
</svg>
