<svg width="227" height="18" viewBox="0 0 227 18" fill="none" xmlns="http://www.w3.org/2000/svg">
<path d="M27.7939 0.528634H0V5.68282H10.5563V17.4449H17.2376V5.68282H27.7939V0.528634Z" fill="black"/>
<path d="M48.4984 17.4449H55.8478L44.2759 0.528634H36.8464L25.3814 17.4449H32.7307L34.3877 14.8811H46.788L48.4984 17.4449ZM36.9533 10.9163L40.5611 5.39207L44.1957 10.9163H36.9533Z" fill="black"/>
<path d="M64.6712 12.4493V0.528634H57.9899V17.4449H60.609V17.4714H80.2251V12.4493H64.6712Z" fill="black"/>
<path d="M83.602 0.528634V17.4449H90.2832V0.528634H83.602Z" fill="black"/>
<path d="M93.595 11.2599C93.595 15.4626 98.7262 18 107.225 18C116.151 18 119.839 16.2555 119.839 11.9736C119.839 8.85462 117.006 7.69163 109.336 7.69163C102.254 7.69163 100.65 7.45374 100.65 6.39648C100.65 5.47137 102.441 5.04846 106.423 5.04846C110.138 5.04846 112.356 5.68282 112.543 6.79295H119.465C119.465 2.37885 114.975 0 106.69 0C98.0047 0 93.8623 1.90308 93.8623 5.9207C93.8623 9.01321 96.9624 10.3348 104.205 10.3348C111.367 10.3348 113.291 10.5991 113.291 11.5771C113.291 12.5815 112.035 12.8987 108.027 12.8987C103.938 12.8987 101.265 12.2643 100.918 11.2599H93.595Z" fill="black"/>
<path d="M154.569 0.528634L141.982 13.3744L129.448 0.528634H122.767V17.4449H129.448V8.80176L138 17.4449H146.017L154.569 8.77533V17.4449H161.25V0.528634H154.569Z" fill="black"/>
<path d="M186.508 17.4449H193.857L182.285 0.528634H174.855L163.391 17.4449H170.74L172.397 14.8811H184.797L186.508 17.4449ZM174.962 10.9163L178.57 5.39207L182.205 10.9163H174.962Z" fill="black"/>
<path d="M220.319 0.528634V10.8106L202.68 0.528634H195.999V17.4449H202.68V7.37445L220.319 17.4449H227V0.528634H220.319Z" fill="black"/>
</svg>
