<svg width="145" height="20" viewBox="0 0 145 20" fill="none" xmlns="http://www.w3.org/2000/svg">
<path d="M4.60621 2.71468C5.85728 2.71468 6.53968 3.3795 6.53968 4.59834V19.6676H9.49675V4.59834C9.49675 3.3795 10.1791 2.71468 11.4302 2.71468H16.008V0.277008H0V2.71468H4.60621Z" fill="black"/>
<path d="M33.0916 19.6676L24.2772 0L15.4629 19.6676H33.0916ZM20.5809 14.072C20.5809 12.0776 22.23 10.4709 24.2772 10.4709C26.3244 10.4709 27.9736 12.0776 27.9736 14.072C27.9736 16.0665 26.3244 17.6731 24.2772 17.6731C22.23 17.6731 20.5809 16.0665 20.5809 14.072Z" fill="black"/>
<path d="M47.9884 19.6676V17.2299H41.8753C40.6526 17.2299 39.9987 16.5928 39.9987 15.4017V0.277008H37.0416V19.6676H47.9884Z" fill="black"/>
<path d="M56.9765 19.6676V0.277008H52.3134V19.6676H56.9765Z" fill="black"/>
<path d="M61.9694 14.4875C62.1685 17.8116 64.8981 20 68.9641 20C73.0585 20 75.6175 17.6177 75.6175 14.4598C75.6175 11.9391 73.9968 9.9446 70.6701 8.94737L68.0257 8.14404C66.1491 7.56233 65.3246 6.7036 65.3246 5.37396C65.3246 3.71191 66.6325 2.43767 68.9356 2.43767C71.125 2.43767 72.5182 3.57341 72.7457 5.54017H75.8165C75.589 2.18837 72.831 0 68.9925 0C64.9265 0 62.3391 2.52078 62.3391 5.51247C62.3391 7.97784 64.1304 9.80609 67.0306 10.6925L69.6749 11.4958C71.8927 12.1607 72.632 13.2687 72.632 14.626C72.632 16.3435 71.3809 17.5623 68.9641 17.5623C66.6041 17.5623 65.2677 16.4266 65.0971 14.4875H61.9694Z" fill="black"/>
<path d="M83.7845 19.6676V6.95291C83.7845 5.73407 85.0071 5.54017 85.4336 6.6205L90.6654 19.6676H93.1391L98.4846 6.5374C98.8826 5.54017 100.02 5.65097 100.02 6.86981V19.6676H102.863V0.277008H98.2002L92.94 13.2687C92.542 14.2659 91.5184 14.2659 91.1203 13.2687L85.8601 0.277008H80.9412V19.6676H83.7845Z" fill="black"/>
<path d="M124.445 19.6676L115.631 0L106.816 19.6676H124.445ZM111.934 14.072C111.934 12.0776 113.583 10.4709 115.631 10.4709C117.678 10.4709 119.327 12.0776 119.327 14.072C119.327 16.0665 117.678 17.6731 115.631 17.6731C113.583 17.6731 111.934 16.0665 111.934 14.072Z" fill="black"/>
<path d="M131.238 19.6676V6.92521C131.238 5.65097 132.432 5.54017 133.03 6.48199L141.304 19.6676H145V0.277008H142.157V12.41C142.157 13.6842 140.962 13.795 140.365 12.8532L132.489 0.277008H128.395V19.6676H131.238Z" fill="black"/>
</svg>
