<svg fill="none" viewBox="0 0 156 32" xmlns="http://www.w3.org/2000/svg">
    <path d="M25.058 17.831c.304.663 1.2.896 1.715.381l.944-.945a2.5 2.5 0 013.536 3.536l-7.636 7.636A9.978 9.978 0 0115.966 32a9.983 9.983 0 01-7.882-3.845L.732 20.803a2.5 2.5 0 013.536-3.535l.93.93c.504.504 1.38.278 1.677-.37a.97.97 0 00.09-.406V6a2.5 2.5 0 015 0v5.778c0 .497.51.835.984.685a.727.727 0 00.517-.683V2.5a2.5 2.5 0 015 0v9.28c0 .315.216.588.516.683.474.15.983-.188.983-.685V6a2.5 2.5 0 015 0v11.417a.99.99 0 00.093.414z" clip-rule="evenodd" fill="#FD4848" fill-rule="evenodd"/>
    <path d="M23.966 23s-3.582 5-8 5-8-5-8-5 3.581-5 8-5c4.418 0 8 5 8 5z" fill="#D5FF5C"/>
    <g stroke="#FD4848" stroke-width=".501">
        <path d="M19.715 23a3.75 3.75 0 11-7.498 0 3.75 3.75 0 017.498 0z"/>
        <path d="M18.215 23a2.25 2.25 0 11-4.499 0 2.25 2.25 0 014.5 0z"/>
        <path d="M21.215 23a5.25 5.25 0 11-10.498 0 5.25 5.25 0 0110.498 0z"/>
        <path d="M22.715 23a6.75 6.75 0 11-13.498 0 6.75 6.75 0 0113.498 0z"/>
        <path d="M16.715 23a.75.75 0 11-1.498 0 .75.75 0 011.498 0z" fill="#162BEB"/>
    </g>
    <path d="M15.966 24a1 1 0 100-2 1 1 0 000 2z" fill="#FD4848"/>
    <path d="M8.326 23.06A8.182 8.182 0 018.28 23a14.531 14.531 0 01.505-.617 16.59 16.59 0 011.689-1.693c1.432-1.237 3.374-2.44 5.493-2.44 2.118 0 4.06 1.203 5.493 2.44a16.594 16.594 0 012.147 2.25c.017.02.032.041.047.06l-.047.06a16.605 16.605 0 01-2.147 2.25c-1.433 1.237-3.375 2.44-5.493 2.44-2.118 0-4.06-1.203-5.493-2.44a16.6 16.6 0 01-2.147-2.25z" stroke="#D5FF5C" stroke-width=".501"/>
    <g fill="currentColor">
        <path d="M42.699 27.035h3.82V9.756h7.258V6.465h-18.22v3.291H42.7v17.28z"/>
        <path d="M51.534 23.274c0 2.586 1.88 4.202 4.701 4.202 2.38 0 3.88-1.41 4.496-3.497h1.264c.059 2.292.617 3.056 3.027 3.056h1.528v-2.82h-1.381c-.764 0-.882-.148-.882-.882v-5.907c0-3.556-2.204-5.466-6.23-5.466-3.967 0-6.435 2.116-6.73 4.32l3.263.852c.382-1.499 1.469-2.439 3.467-2.439 1.852 0 2.674.794 2.674 2.292v.5c-2.791.264-5.025.823-6.7 1.704-1.675.852-2.497 2.234-2.497 4.085zm9.197-2.263c0 2.498-1.528 3.762-3.35 3.762-1.41 0-2.204-.676-2.204-1.852 0-1.88 2.057-2.703 5.554-3.085v1.175z"/>
        <path d="M68.888 27.035h3.584V6.465h-3.584v20.57z"/>
        <path d="M76.718 10.08h3.82V6.435h-3.82v3.643zm.147 16.955h3.556V12.401h-3.556v14.634z"/>
        <path d="M83.464 23.274c.646 2.586 3.409 4.173 6.7 4.173 4.026 0 6.465-1.851 6.465-4.702 0-1.352-.5-2.38-1.47-3.086-.97-.705-2.145-1.204-3.526-1.469l-1.91-.353c-1.763-.352-2.233-.793-2.233-1.645 0-.97.852-1.646 2.41-1.646 1.674 0 2.732.97 3.202 2.234l3.027-1.293c-.676-1.793-2.615-3.527-6.112-3.527s-5.936 1.851-5.936 4.555c0 2.762 1.763 3.79 4.731 4.408l1.94.353c1.645.323 2.174.91 2.174 1.822 0 1.028-.94 1.675-2.615 1.675-2.322 0-3.262-1.293-3.527-2.586l-3.32 1.087z"/>
        <path d="M99.823 27.035h3.586v-7.229c0-1.645.117-2.997 1.028-4.055.44-.529 1.117-.793 2.028-.793 1.763 0 2.644 1.057 2.644 3.144v8.933h3.526v-7.229c0-1.675.089-2.997 1-4.055.441-.529 1.146-.793 2.057-.793 1.675 0 2.645.999 2.645 3.144v8.933h3.556v-9.55c0-3.556-2.057-5.525-4.879-5.525-1.998 0-3.614 1.41-4.231 3.438h-1.264c-.5-2.204-2.057-3.438-4.026-3.438-2.145 0-3.409 1.44-3.967 3.438h-1.675c.617-.852 1.146-2.145 1.146-2.997h-3.174v14.634z"/>
        <path d="M125.2 23.274c0 2.586 1.881 4.202 4.702 4.202 2.38 0 3.879-1.41 4.496-3.497h1.264c.058 2.292.617 3.056 3.026 3.056h1.529v-2.82h-1.382c-.764 0-.881-.148-.881-.882v-5.907c0-3.556-2.204-5.466-6.23-5.466-3.967 0-6.436 2.116-6.73 4.32l3.262.852c.382-1.499 1.47-2.439 3.468-2.439 1.851 0 2.674.794 2.674 2.292v.5c-2.792.264-5.025.823-6.7 1.704-1.675.852-2.498 2.234-2.498 4.085zm9.198-2.263c0 2.498-1.528 3.762-3.35 3.762-1.411 0-2.204-.676-2.204-1.852 0-1.88 2.057-2.703 5.554-3.085v1.175z"/>
        <path d="M142.554 27.035h3.585v-6.7c0-1.763.117-3.291 1.087-4.466.5-.617 1.264-.911 2.263-.911 1.675 0 2.645 1.028 2.645 3.144v8.933h3.585v-9.638c0-3.38-1.734-5.437-5.025-5.437-2.41 0-3.938 1.851-4.585 3.82h-1.675c.823-1.204 1.411-2.527 1.44-3.379h-3.32v14.634z"/>
    </g>
</svg>
