<svg viewBox="0 0 24 24" fill="none" xmlns="http://www.w3.org/2000/svg">
    <g clip-path="url(#clip0_210_1062)" stroke="currentColor" stroke-width="2" stroke-linecap="round" stroke-linejoin="round">
        <path d="M18 4H6a2 2 0 00-2 2v12a2 2 0 002 2h12a2 2 0 002-2V6a2 2 0 00-2-2z"/>
        <path d="M15 9H9v6h6V9z"/>
        <path d="M9 1v3"/>
        <path d="M15 1v3"/>
        <path d="M9 20v3"/>
        <path d="M15 20v3"/>
        <path d="M20 9h3"/>
        <path d="M20 14h3"/>
        <path d="M1 9h3"/>
        <path d="M1 14h3"/>
    </g>
    <defs>
        <clipPath id="clip0_210_1062">
            <path fill="#fff" d="M0 0h24v24H0z"/>
        </clipPath>
    </defs>
</svg>
