<svg viewBox="0 0 24 24" fill="none" xmlns="http://www.w3.org/2000/svg">
    <g clip-path="url(#clip0_210_1440)" stroke="currentColor" stroke-width="2" stroke-linecap="round" stroke-linejoin="round">
        <path d="M5.19 12.81a19.79 19.79 0 01-3.07-8.63A2 2 0 014.11 2h3a2 2 0 012 1.72c.127.96.362 1.903.7 2.81a2 2 0 01-.45 2.11L8.09 9.91m2.59 3.4a15.995 15.995 0 003.41 2.6l1.27-1.27a2 2 0 012.11-.45c.907.339 1.85.573 2.81.7a2 2 0 011.72 2v3a2.002 2.002 0 01-2.18 2 19.79 19.79 0 01-8.63-3.07 19.413 19.413 0 01-3.33-2.67l2.82-2.84z"/>
        <path d="M23 1L1 23"/>
    </g>
    <defs>
        <clipPath id="clip0_210_1440">
            <path fill="#fff" d="M0 0h24v24H0z"/>
        </clipPath>
    </defs>
</svg>
