<svg viewBox="0 0 24 24" fill="none" xmlns="http://www.w3.org/2000/svg">
    <g clip-path="url(#clip0_210_1523)" stroke="currentColor" stroke-width="2" stroke-linecap="round" stroke-linejoin="round">
        <path d="M20 2H4a2 2 0 00-2 2v4a2 2 0 002 2h16a2 2 0 002-2V4a2 2 0 00-2-2z"/>
        <path d="M20 14H4a2 2 0 00-2 2v4a2 2 0 002 2h16a2 2 0 002-2v-4a2 2 0 00-2-2z"/>
    </g>
    <defs>
        <clipPath id="clip0_210_1523">
            <path fill="#fff" d="M0 0h24v24H0z"/>
        </clipPath>
    </defs>
</svg>
