<svg width="64" height="64" viewBox="0 0 64 64" fill="none" xmlns="http://www.w3.org/2000/svg">
<path d="M32 64C49.673 64 64 49.673 64 32C64 14.3269 49.673 0 32 0C14.3269 0 0 14.3269 0 32C0 49.673 14.3269 64 32 64Z" fill="#171717"/>
<path d="M47.3183 15.4995C48.7355 15.4995 49.8845 14.3506 49.8845 12.9333C49.8845 11.5161 48.7355 10.3672 47.3183 10.3672C45.901 10.3672 44.7523 11.5161 44.7523 12.9333C44.7523 14.3506 45.901 15.4995 47.3183 15.4995Z" fill="#EB027D"/>
<path d="M42.162 16.8899C43.317 16.8899 44.2532 15.9536 44.2532 14.7987C44.2532 13.6438 43.317 12.7075 42.162 12.7075C41.0072 12.7075 40.071 13.6438 40.071 14.7987C40.071 15.9536 41.0072 16.8899 42.162 16.8899Z" fill="#EB027D"/>
<path d="M25.5215 34.0809C26.1405 34.0809 26.6422 33.5791 26.6422 32.9601C26.6422 32.3411 26.1405 31.8394 25.5215 31.8394C24.9025 31.8394 24.4007 32.3411 24.4007 32.9601C24.4007 33.5791 24.9025 34.0809 25.5215 34.0809Z" fill="#EB027D"/>
<path d="M25.7655 36.9518C25.781 36.2878 25.2555 35.7368 24.5914 35.721C23.9273 35.7055 23.3763 36.2313 23.3607 36.8953C23.3451 37.5593 23.8707 38.1103 24.5348 38.126C25.199 38.1415 25.75 37.6158 25.7655 36.9518Z" fill="#EB027D"/>
<path d="M25.1388 28.4944C25.8728 28.4944 26.468 27.8992 26.468 27.1652C26.468 26.4309 25.8728 25.8359 25.1388 25.8359C24.4046 25.8359 23.8095 26.4309 23.8095 27.1652C23.8095 27.8992 24.4046 28.4944 25.1388 28.4944Z" fill="#EB027D"/>
<path d="M24.5134 25.0738C25.3852 25.0738 26.092 24.367 26.092 23.4951C26.092 22.6233 25.3852 21.9165 24.5134 21.9165C23.6416 21.9165 22.9348 22.6233 22.9348 23.4951C22.9348 24.367 23.6416 25.0738 24.5134 25.0738Z" fill="#EB027D"/>
<path d="M26.5637 31.3167C27.1825 31.3167 27.6845 30.8149 27.6845 30.1959C27.6845 29.5769 27.1825 29.0752 26.5637 29.0752C25.9447 29.0752 25.4427 29.5769 25.4427 30.1959C25.4427 30.8149 25.9447 31.3167 26.5637 31.3167Z" fill="#EB027D"/>
<path d="M28.5353 33.2573C29.0465 33.2573 29.4613 32.8425 29.4613 32.3313C29.4613 31.8198 29.0465 31.4053 28.5353 31.4053C28.0238 31.4053 27.6093 31.8198 27.6093 32.3313C27.6093 32.8425 28.0238 33.2573 28.5353 33.2573Z" fill="#EB027D"/>
<path d="M28.214 35.4545C28.7255 35.4545 29.14 35.04 29.14 34.5285C29.14 34.0173 28.7255 33.6025 28.214 33.6025C27.7025 33.6025 27.288 34.0173 27.288 34.5285C27.288 35.04 27.7025 35.4545 28.214 35.4545Z" fill="#EB027D"/>
<path d="M28.6002 28.2686C29.219 28.2686 29.721 27.7666 29.721 27.1479C29.721 26.5289 29.219 26.0269 28.6002 26.0269C27.9812 26.0269 27.4792 26.5289 27.4792 27.1479C27.4792 27.7666 27.9812 28.2686 28.6002 28.2686Z" fill="#EB027D"/>
<path d="M29.3553 30.5307C29.8668 30.5307 30.2813 30.116 30.2813 29.6047C30.2813 29.0932 29.8668 28.6787 29.3553 28.6787C28.8438 28.6787 28.4293 29.0932 28.4293 29.6047C28.4293 30.116 28.8438 30.5307 29.3553 30.5307Z" fill="#EB027D"/>
<path d="M30.582 36.2779C31.0085 36.2779 31.3543 35.9321 31.3543 35.5056C31.3543 35.0791 31.0085 34.7334 30.582 34.7334C30.1555 34.7334 29.8098 35.0791 29.8098 35.5056C29.8098 35.9321 30.1555 36.2779 30.582 36.2779Z" fill="#EB027D"/>
<path d="M31.1713 37.5163C31.1813 37.09 30.8435 36.7363 30.4173 36.7263C29.9908 36.7163 29.637 37.0538 29.6273 37.48C29.6173 37.9065 29.9548 38.2603 30.381 38.2703C30.8075 38.2803 31.1613 37.9425 31.1713 37.5163Z" fill="#EB027D"/>
<path d="M30.7393 34.4639C31.1658 34.4639 31.5115 34.1182 31.5115 33.6917C31.5115 33.2652 31.1658 32.9194 30.7393 32.9194C30.3128 32.9194 29.967 33.2652 29.967 33.6917C29.967 34.1182 30.3128 34.4639 30.7393 34.4639Z" fill="#EB027D"/>
<path d="M30.9988 32.3795C31.4253 32.3795 31.771 32.0337 31.771 31.6072C31.771 31.1807 31.4253 30.835 30.9988 30.835C30.5723 30.835 30.2265 31.1807 30.2265 31.6072C30.2265 32.0337 30.5723 32.3795 30.9988 32.3795Z" fill="#EB027D"/>
<path d="M31.2928 30.336C31.7193 30.336 32.065 29.9903 32.065 29.5638C32.065 29.1373 31.7193 28.7915 31.2928 28.7915C30.8663 28.7915 30.5205 29.1373 30.5205 29.5638C30.5205 29.9903 30.8663 30.336 31.2928 30.336Z" fill="#EB027D"/>
<path d="M31.4465 28.0742C31.9578 28.0742 32.3725 27.6594 32.3725 27.1482C32.3725 26.6367 31.9578 26.2222 31.4465 26.2222C30.935 26.2222 30.5205 26.6367 30.5205 27.1482C30.5205 27.6594 30.935 28.0742 31.4465 28.0742Z" fill="#EB027D"/>
<path d="M35.188 20.8643C36.06 20.8643 36.7667 20.1575 36.7667 19.2857C36.7667 18.4138 36.06 17.707 35.188 17.707C34.3162 17.707 33.6095 18.4138 33.6095 19.2857C33.6095 20.1575 34.3162 20.8643 35.188 20.8643Z" fill="#EB027D"/>
<path d="M32.991 23.0681C33.725 23.0681 34.3202 22.473 34.3202 21.7389C34.3202 21.0048 33.725 20.4097 32.991 20.4097C32.2567 20.4097 31.6617 21.0048 31.6617 21.7389C31.6617 22.473 32.2567 23.0681 32.991 23.0681Z" fill="#EB027D"/>
<path d="M31.9077 25.5932C32.5267 25.5932 33.0285 25.0914 33.0285 24.4723C33.0285 23.8533 32.5267 23.3516 31.9077 23.3516C31.2887 23.3516 30.787 23.8533 30.787 24.4723C30.787 25.0914 31.2887 25.5932 31.9077 25.5932Z" fill="#EB027D"/>
<path d="M29.2083 22.2242C30.0803 22.2242 30.787 21.5174 30.787 20.6455C30.787 19.7737 30.0803 19.0669 29.2083 19.0669C28.3365 19.0669 27.6298 19.7737 27.6298 20.6455C27.6298 21.5174 28.3365 22.2242 29.2083 22.2242Z" fill="#EB027D"/>
<path d="M28.4292 25.34C29.1635 25.34 29.7585 24.745 29.7585 24.0109C29.7585 23.2768 29.1635 22.6816 28.4292 22.6816C27.6952 22.6816 27.1 23.2768 27.1 24.0109C27.1 24.745 27.6952 25.34 28.4292 25.34Z" fill="#EB027D"/>
<path d="M28.741 37.431C28.7537 36.8838 28.3205 36.43 27.7735 36.4173C27.2262 36.4048 26.7725 36.838 26.7597 37.385C26.747 37.932 27.1802 38.386 27.7275 38.3985C28.2745 38.4113 28.7282 37.978 28.741 37.431Z" fill="#EB027D"/>
<path d="M38.2087 18.6704C39.1975 18.6704 39.9992 17.8687 39.9992 16.8799C39.9992 15.891 39.1975 15.0894 38.2087 15.0894C37.2197 15.0894 36.4182 15.891 36.4182 16.8799C36.4182 17.8687 37.2197 18.6704 38.2087 18.6704Z" fill="#EB027D"/>
<path d="M37.105 11.3579C38.5223 11.3579 39.671 10.209 39.671 8.79174C39.671 7.37449 38.5223 6.22559 37.105 6.22559C35.6878 6.22559 34.5388 7.37449 34.5388 8.79174C34.5388 10.209 35.6878 11.3579 37.105 11.3579Z" fill="#EB027D"/>
<path d="M33.4045 15.2087C34.5592 15.2087 35.4955 14.2725 35.4955 13.1176C35.4955 11.9626 34.5592 11.0264 33.4045 11.0264C32.2495 11.0264 31.3132 11.9626 31.3132 13.1176C31.3132 14.2725 32.2495 15.2087 33.4045 15.2087Z" fill="#EB027D"/>
<path d="M30.852 18.8481C31.8408 18.8481 32.6425 18.0464 32.6425 17.0576C32.6425 16.0687 31.8408 15.2671 30.852 15.2671C29.863 15.2671 29.0615 16.0687 29.0615 17.0576C29.0615 18.0464 29.863 18.8481 30.852 18.8481Z" fill="#EB027D"/>
<path d="M27.6297 11.3203C29.047 11.3203 30.1957 10.1714 30.1957 8.75414C30.1957 7.33689 29.047 6.18799 27.6297 6.18799C26.2125 6.18799 25.0635 7.33689 25.0635 8.75414C25.0635 10.1714 26.2125 11.3203 27.6297 11.3203Z" fill="#EB027D"/>
<path d="M25.706 16.5383C26.8607 16.5383 27.7972 15.6021 27.7972 14.4471C27.7972 13.2922 26.8607 12.356 25.706 12.356C24.551 12.356 23.6147 13.2922 23.6147 14.4471C23.6147 15.6021 24.551 16.5383 25.706 16.5383Z" fill="#EB027D"/>
<path d="M24.698 21.1581C25.6867 21.1581 26.4885 20.3565 26.4885 19.3676C26.4885 18.3788 25.6867 17.5771 24.698 17.5771C23.7091 17.5771 22.9075 18.3788 22.9075 19.3676C22.9075 20.3565 23.7091 21.1581 24.698 21.1581Z" fill="#EB027D"/>
<path d="M22.8938 31.9146C23.6279 31.9146 24.223 31.3196 24.223 30.5853C24.223 29.8513 23.6279 29.2563 22.8938 29.2563C22.1597 29.2563 21.5646 29.8513 21.5646 30.5853C21.5646 31.3196 22.1597 31.9146 22.8938 31.9146Z" fill="#EB027D"/>
<path d="M20.7275 28.8223C21.5993 28.8223 22.3061 28.1155 22.3061 27.2435C22.3061 26.3718 21.5993 25.665 20.7275 25.665C19.8556 25.665 19.1488 26.3718 19.1488 27.2435C19.1488 28.1155 19.8556 28.8223 20.7275 28.8223Z" fill="#EB027D"/>
<path d="M19.388 24.7797C20.3768 24.7797 21.1785 23.9781 21.1785 22.9892C21.1785 22.0004 20.3768 21.1987 19.388 21.1987C18.3991 21.1987 17.5975 22.0004 17.5975 22.9892C17.5975 23.9781 18.3991 24.7797 19.388 24.7797Z" fill="#EB027D"/>
<path d="M22.5997 35.4918C22.6178 34.7108 21.9993 34.0631 21.2183 34.0448C20.4372 34.0268 19.7894 34.6453 19.7713 35.4263C19.7531 36.2073 20.3716 36.8551 21.1526 36.8733C21.9337 36.8913 22.5815 36.2731 22.5997 35.4918Z" fill="#EB027D"/>
<path d="M19.9825 13.9072C21.3998 13.9072 22.5487 12.7583 22.5487 11.3411C22.5487 9.9238 21.3998 8.7749 19.9825 8.7749C18.5653 8.7749 17.4164 9.9238 17.4164 11.3411C17.4164 12.7583 18.5653 13.9072 19.9825 13.9072Z" fill="#EB027D"/>
<path d="M19.0497 19.8323C20.2046 19.8323 21.1409 18.896 21.1409 17.7411C21.1409 16.5862 20.2046 15.6499 19.0497 15.6499C17.8947 15.6499 16.9585 16.5862 16.9585 17.7411C16.9585 18.896 17.8947 19.8323 19.0497 19.8323Z" fill="#EB027D"/>
<path d="M15.3413 17.1144C15.3725 15.7806 14.3165 14.674 12.9827 14.6428C11.6489 14.6115 10.5423 15.6675 10.5111 17.0013C10.4799 18.3351 11.5358 19.4417 12.8697 19.4729C14.2035 19.5041 15.31 18.4482 15.3413 17.1144Z" fill="#EB027D"/>
<path d="M15.8944 23.7258C15.9203 22.6222 15.0465 21.7066 13.9429 21.6807C12.8392 21.6549 11.9236 22.5286 11.8978 23.6323C11.8719 24.7359 12.7457 25.6517 13.8493 25.6774C14.953 25.7032 15.8686 24.8295 15.8944 23.7258Z" fill="#EB027D"/>
<path d="M17.4317 28.9387C17.4547 27.9557 16.6765 27.1402 15.6936 27.1172C14.7107 27.0942 13.8953 27.8724 13.8723 28.8554C13.8493 29.8382 14.6274 30.6537 15.6103 30.6767C16.5932 30.6997 17.4087 29.9217 17.4317 28.9387Z" fill="#EB027D"/>
<path d="M19.6876 32.774C19.7082 31.895 19.0122 31.1655 18.133 31.145C17.2539 31.1245 16.5245 31.8205 16.5039 32.6995C16.4833 33.5787 17.1793 34.308 18.0585 34.3287C18.9376 34.3492 19.667 33.6532 19.6876 32.774Z" fill="#EB027D"/>
<path d="M26.895 57.7743C28.3123 57.7743 29.4613 56.6253 29.4613 55.2081C29.4613 53.7911 28.3123 52.6421 26.895 52.6421C25.4778 52.6421 24.3289 53.7911 24.3289 55.2081C24.3289 56.6253 25.4778 57.7743 26.895 57.7743Z" fill="white"/>
<path d="M47.4913 31.2991C47.5118 30.4199 46.8158 29.6906 45.9368 29.6699C45.0575 29.6494 44.3283 30.3454 44.3075 31.2246C44.287 32.1036 44.983 32.8331 45.8623 32.8536C46.7413 32.8741 47.4708 32.1781 47.4913 31.2991Z" fill="white"/>
<path d="M43.2725 38.335C44.1445 38.335 44.8512 37.6282 44.8512 36.7565C44.8512 35.8845 44.1445 35.1777 43.2725 35.1777C42.4007 35.1777 41.694 35.8845 41.694 36.7565C41.694 37.6282 42.4007 38.335 43.2725 38.335Z" fill="white"/>
<path d="M44.2255 28.5736C44.2437 27.7926 43.6255 27.1446 42.8445 27.1264C42.0635 27.1081 41.4155 27.7264 41.397 28.5074C41.3788 29.2884 41.9973 29.9364 42.7783 29.9546C43.5593 29.9729 44.2072 29.3546 44.2255 28.5736Z" fill="white"/>
<path d="M44.612 42.8012C45.601 42.8012 46.4025 41.9997 46.4025 41.0107C46.4025 40.022 45.601 39.2202 44.612 39.2202C43.6233 39.2202 42.8215 40.022 42.8215 41.0107C42.8215 41.9997 43.6233 42.8012 44.612 42.8012Z" fill="white"/>
<path d="M38.8612 38.1644C39.5955 38.1644 40.1905 37.5691 40.1905 36.8351C40.1905 36.1011 39.5955 35.5059 38.8612 35.5059C38.1272 35.5059 37.532 36.1011 37.532 36.8351C37.532 37.5691 38.1272 38.1644 38.8612 38.1644Z" fill="white"/>
<path d="M39.4865 42.0835C40.3585 42.0835 41.0652 41.3768 41.0652 40.5048C41.0652 39.633 40.3585 38.9263 39.4865 38.9263C38.6147 38.9263 37.908 39.633 37.908 40.5048C37.908 41.3768 38.6147 42.0835 39.4865 42.0835Z" fill="white"/>
<path d="M32.5535 37.7778C33.065 37.7778 33.4795 37.3633 33.4795 36.8518C33.4795 36.3405 33.065 35.9258 32.5535 35.9258C32.0423 35.9258 31.6275 36.3405 31.6275 36.8518C31.6275 37.3633 32.0423 37.7778 32.5535 37.7778Z" fill="white"/>
<path d="M32.7072 35.212C33.1337 35.212 33.4795 34.8662 33.4795 34.4397C33.4795 34.0132 33.1337 33.6675 32.7072 33.6675C32.2807 33.6675 31.935 34.0132 31.935 34.4397C31.935 34.8662 32.2807 35.212 32.7072 35.212Z" fill="white"/>
<path d="M33.0013 33.1651C33.4278 33.1651 33.7735 32.8194 33.7735 32.3929C33.7735 31.9664 33.4278 31.6206 33.0013 31.6206C32.5748 31.6206 32.229 31.9664 32.229 32.3929C32.229 32.8194 32.5748 33.1651 33.0013 33.1651Z" fill="white"/>
<path d="M33.418 29.2667C33.8445 29.2667 34.1903 28.9209 34.1903 28.4944C34.1903 28.0679 33.8445 27.7222 33.418 27.7222C32.9915 27.7222 32.6458 28.0679 32.6458 28.4944C32.6458 28.9209 32.9915 29.2667 33.418 29.2667Z" fill="white"/>
<path d="M34.3712 26.5217C34.3812 26.0954 34.0437 25.7417 33.6172 25.7317C33.191 25.7217 32.8372 26.0592 32.8272 26.4857C32.8172 26.9119 33.1547 27.2657 33.5812 27.2757C34.0075 27.2857 34.3612 26.9482 34.3712 26.5217Z" fill="white"/>
<path d="M33.261 31.0806C33.6875 31.0806 34.033 30.7349 34.033 30.3084C34.033 29.8819 33.6875 29.5361 33.261 29.5361C32.8345 29.5361 32.4888 29.8819 32.4888 30.3084C32.4888 30.7349 32.8345 31.0806 33.261 31.0806Z" fill="white"/>
<path d="M34.631 35.3073C35.1425 35.3073 35.557 34.8928 35.557 34.3816C35.557 33.8701 35.1425 33.4556 34.631 33.4556C34.1198 33.4556 33.705 33.8701 33.705 34.3816C33.705 34.8928 34.1198 35.3073 34.631 35.3073Z" fill="white"/>
<path d="M35.4 37.9732C36.0187 37.9732 36.5207 37.4712 36.5207 36.8522C36.5207 36.2332 36.0187 35.7314 35.4 35.7314C34.781 35.7314 34.279 36.2332 34.279 36.8522C34.279 37.4712 34.781 37.9732 35.4 37.9732Z" fill="white"/>
<path d="M35.4648 32.5947C35.9763 32.5947 36.3908 32.1802 36.3908 31.6687C36.3908 31.1574 35.9763 30.7427 35.4648 30.7427C34.9535 30.7427 34.5388 31.1574 34.5388 31.6687C34.5388 32.1802 34.9535 32.5947 35.4648 32.5947Z" fill="white"/>
<path d="M35.786 30.3974C36.2975 30.3974 36.712 29.9827 36.712 29.4714C36.712 28.9599 36.2975 28.5454 35.786 28.5454C35.2745 28.5454 34.86 28.9599 34.86 29.4714C34.86 29.9827 35.2745 30.3974 35.786 30.3974Z" fill="white"/>
<path d="M37.238 26.6171C37.2507 26.0698 36.8177 25.6161 36.2705 25.6033C35.7235 25.5903 35.2695 26.0236 35.2567 26.5706C35.244 27.1178 35.677 27.5716 36.2242 27.5846C36.7712 27.5973 37.2252 27.1641 37.238 26.6171Z" fill="white"/>
<path d="M28.812 46.293C29.6838 46.293 30.3908 45.5862 30.3908 44.7142C30.3908 43.8425 29.6838 43.1357 28.812 43.1357C27.94 43.1357 27.2333 43.8425 27.2333 44.7142C27.2333 45.5862 27.94 46.293 28.812 46.293Z" fill="white"/>
<path d="M31.009 43.5906C31.7432 43.5906 32.3382 42.9954 32.3382 42.2614C32.3382 41.5271 31.7432 40.9321 31.009 40.9321C30.275 40.9321 29.6797 41.5271 29.6797 42.2614C29.6797 42.9954 30.275 43.5906 31.009 43.5906Z" fill="white"/>
<path d="M32.0922 40.6482C32.7112 40.6482 33.213 40.1465 33.213 39.5275C33.213 38.9085 32.7112 38.4067 32.0922 38.4067C31.4732 38.4067 30.9715 38.9085 30.9715 39.5275C30.9715 40.1465 31.4732 40.6482 32.0922 40.6482Z" fill="white"/>
<path d="M34.7918 44.9331C35.6635 44.9331 36.3703 44.2264 36.3703 43.3544C36.3703 42.4826 35.6635 41.7759 34.7918 41.7759C33.9198 41.7759 33.213 42.4826 33.213 43.3544C33.213 44.2264 33.9198 44.9331 34.7918 44.9331Z" fill="white"/>
<path d="M35.5708 41.3216C36.3048 41.3216 36.9 40.7266 36.9 39.9923C36.9 39.2583 36.3048 38.6631 35.5708 38.6631C34.8365 38.6631 34.2415 39.2583 34.2415 39.9923C34.2415 40.7266 34.8365 41.3216 35.5708 41.3216Z" fill="white"/>
<path d="M37.4365 34.9251C38.0555 34.9251 38.5572 34.4233 38.5572 33.8043C38.5572 33.1853 38.0555 32.6836 37.4365 32.6836C36.8175 32.6836 36.3157 33.1853 36.3157 33.8043C36.3157 34.4233 36.8175 34.9251 37.4365 34.9251Z" fill="white"/>
<path d="M38.4785 32.1604C39.0975 32.1604 39.5995 31.6587 39.5995 31.0397C39.5995 30.4207 39.0975 29.9189 38.4785 29.9189C37.8598 29.9189 37.3578 30.4207 37.3578 31.0397C37.3578 31.6587 37.8598 32.1604 38.4785 32.1604Z" fill="white"/>
<path d="M40.6395 27.1051C40.6552 26.4409 40.1295 25.8899 39.4655 25.8744C38.8012 25.8586 38.2502 26.3844 38.2347 27.0486C38.2192 27.7126 38.7447 28.2636 39.409 28.2791C40.073 28.2949 40.624 27.7691 40.6395 27.1051Z" fill="white"/>
<path d="M16.6817 53.633C18.0989 53.633 19.2478 52.484 19.2478 51.0667C19.2478 49.6495 18.0989 48.5005 16.6817 48.5005C15.2644 48.5005 14.1155 49.6495 14.1155 51.0667C14.1155 52.484 15.2644 53.633 16.6817 53.633Z" fill="white"/>
<path d="M21.8379 51.2921C22.9928 51.2921 23.9291 50.3559 23.9291 49.2009C23.9291 48.0461 22.9928 47.1099 21.8379 47.1099C20.683 47.1099 19.7467 48.0461 19.7467 49.2009C19.7467 50.3559 20.683 51.2921 21.8379 51.2921Z" fill="white"/>
<path d="M25.7913 48.9106C26.7803 48.9106 27.5818 48.1088 27.5818 47.1201C27.5818 46.1311 26.7803 45.3296 25.7913 45.3296C24.8025 45.3296 24.0009 46.1311 24.0009 47.1201C24.0009 48.1088 24.8025 48.9106 25.7913 48.9106Z" fill="white"/>
<path d="M30.5958 52.9735C31.7505 52.9735 32.6868 52.0373 32.6868 50.8823C32.6868 49.7273 31.7505 48.791 30.5958 48.791C29.4408 48.791 28.5045 49.7273 28.5045 50.8823C28.5045 52.0373 29.4408 52.9735 30.5958 52.9735Z" fill="white"/>
<path d="M33.148 48.7329C34.137 48.7329 34.9385 47.9311 34.9385 46.9424C34.9385 45.9534 34.137 45.1519 33.148 45.1519C32.1593 45.1519 31.3575 45.9534 31.3575 46.9424C31.3575 47.9311 32.1593 48.7329 33.148 48.7329Z" fill="white"/>
<path d="M36.3703 57.8119C37.7875 57.8119 38.9365 56.6632 38.9365 55.2459C38.9365 53.8287 37.7875 52.6797 36.3703 52.6797C34.953 52.6797 33.8043 53.8287 33.8043 55.2459C33.8043 56.6632 34.953 57.8119 36.3703 57.8119Z" fill="white"/>
<path d="M38.294 51.6444C39.449 51.6444 40.3853 50.7082 40.3853 49.5532C40.3853 48.3982 39.449 47.4619 38.294 47.4619C37.1393 47.4619 36.203 48.3982 36.203 49.5532C36.203 50.7082 37.1393 51.6444 38.294 51.6444Z" fill="white"/>
<path d="M39.302 46.4228C40.291 46.4228 41.0925 45.6213 41.0925 44.6323C41.0925 43.6435 40.291 42.8418 39.302 42.8418C38.3132 42.8418 37.5115 43.6435 37.5115 44.6323C37.5115 45.6213 38.3132 46.4228 39.302 46.4228Z" fill="white"/>
<path d="M41.1062 34.7437C41.8402 34.7437 42.4355 34.1487 42.4355 33.4145C42.4355 32.6805 41.8402 32.0854 41.1062 32.0854C40.3722 32.0854 39.777 32.6805 39.777 33.4145C39.777 34.1487 40.3722 34.7437 41.1062 34.7437Z" fill="white"/>
<path d="M44.021 55.2284C45.4382 55.2284 46.587 54.0797 46.587 52.6624C46.587 51.2452 45.4382 50.0962 44.021 50.0962C42.6037 50.0962 41.4547 51.2452 41.4547 52.6624C41.4547 54.0797 42.6037 55.2284 44.021 55.2284Z" fill="white"/>
<path d="M44.9503 48.3505C46.1053 48.3505 47.0415 47.4142 47.0415 46.2592C47.0415 45.1042 46.1053 44.168 44.9503 44.168C43.7955 44.168 42.8593 45.1042 42.8593 46.2592C42.8593 47.4142 43.7955 48.3505 44.9503 48.3505Z" fill="white"/>
<path d="M50.1255 35.146C50.1485 34.1632 49.3702 33.3477 48.3875 33.3247C47.4045 33.3017 46.589 34.0797 46.566 35.0627C46.543 36.0457 47.3212 36.861 48.3042 36.8842C49.287 36.9072 50.1025 36.129 50.1255 35.146Z" fill="white"/>
<path d="M52.1002 40.3693C52.126 39.2655 51.2522 38.35 50.1487 38.3243C49.045 38.2983 48.1295 39.172 48.1035 40.2758C48.0777 41.3793 48.9515 42.295 50.0552 42.3208C51.1587 42.3468 52.0745 41.473 52.1002 40.3693Z" fill="white"/>
<path d="M53.4852 46.9983C53.5162 45.6645 52.4602 44.558 51.1265 44.527C49.7927 44.4958 48.6862 45.552 48.655 46.8858C48.624 48.2195 49.68 49.326 51.014 49.357C52.3477 49.3883 53.4542 48.3323 53.4852 46.9983Z" fill="white"/>
</svg>
