<svg width="32" height="32" viewBox="0 0 32 32" fill="none" xmlns="http://www.w3.org/2000/svg">
    <g clip-path="url(#clip0_4392_4328)">
        <mask id="mask0_4392_4328" style="mask-type:alpha" maskUnits="userSpaceOnUse" x="0" y="0" width="32" height="32">
            <circle cx="16" cy="16" r="16" fill="#E6007A"/>
        </mask>
        <g mask="url(#mask0_4392_4328)">
            <circle cx="16" cy="16" r="16" fill="#686868"/>
            <path fill-rule="evenodd" clip-rule="evenodd" d="M10.7367 10.7415L10.6471 14.2799C12.1015 15.0278 13.4722 15.0115 15.0844 14.6494C15.7236 14.3992 16.1705 14.3455 16.7908 14.6497C18.4165 15.155 19.8343 15.0001 21.3078 14.248L21.221 10.7051C21.221 8.76701 19.9642 8.02143 18.5966 8.42109C18.4566 8.46199 18.2473 8.64942 18.2473 8.8167L18.2149 12.2064C18.2134 12.3639 18.0853 12.4908 17.9278 12.4908C17.7693 12.4908 17.6407 12.3623 17.6407 12.2037V8.10245C17.6407 7.19385 16.9041 6.45728 15.9955 6.45728C15.0869 6.45728 14.3504 7.19385 14.3504 8.10245V12.2037C14.3504 12.3623 14.2218 12.4908 14.0632 12.4908C13.9057 12.4908 13.7776 12.3639 13.7761 12.2064L13.7438 8.81486C13.7438 8.64906 13.5444 8.46222 13.4057 8.42109C11.8276 7.95333 10.7367 8.87698 10.7367 10.7415ZM10.2463 14.6143L10.2463 14.6143L10.2463 14.6143C9.39786 14.2078 8.07686 14.3339 7.1847 15.3511C6.77576 15.8174 7.09218 16.4921 7.68085 16.6874C7.9647 16.7815 8.22177 16.941 8.46207 17.119C8.4893 17.1392 8.51699 17.1593 8.54505 17.1794C9.28642 17.7114 9.7635 18.5083 9.81096 19.4196L9.85591 20.2825C10.0728 22.3572 11.4112 24.1452 13.3407 24.938C15.026 25.6304 16.9162 25.6304 18.6015 24.938C20.531 24.1452 21.8694 22.3572 22.0863 20.2825C22.094 20.1347 22.0968 19.9871 22.0952 19.8401L22.1171 19.4196C22.1646 18.5083 22.6417 17.7114 23.3831 17.1794C23.4111 17.1593 23.4388 17.1392 23.466 17.119C23.7063 16.941 23.9634 16.7815 24.2473 16.6874C24.8359 16.4921 25.1523 15.8174 24.7434 15.3511C23.8512 14.3339 22.5303 14.2077 21.6818 14.6143L21.6818 14.6143L21.6818 14.6143L21.6818 14.6143L21.6818 14.6143C21.3739 14.7618 21.066 14.9094 20.748 15.018L20.0977 15.2401L20.0964 15.2483C18.9034 15.5779 17.9224 15.579 16.7962 15.1142C16.2267 14.8792 15.6521 14.835 15.0955 15.1142C14.0253 15.4474 12.935 15.5881 11.8304 15.2401L11.1801 15.018C10.8621 14.9094 10.5542 14.7618 10.2463 14.6143ZM15.236 20.8441V20.9433H16.7515C16.7515 20.817 16.7786 20.6997 16.8327 20.5825C16.9409 20.3479 17.1394 20.1134 17.3829 19.8969C17.4424 19.8425 17.5039 19.7879 17.5664 19.7325C18.0635 19.2915 18.6188 18.7989 18.6188 17.9575C18.6188 16.7938 17.5453 16 16.0569 16C14.2708 16 13.3237 17.1366 13.4048 18.7062H15.1007C15.0466 18.0026 15.3533 17.4613 16.0208 17.4613C16.4899 17.4613 16.8417 17.732 16.8417 18.1469C16.8417 18.4323 16.6834 18.5858 16.2541 19.0021C16.1813 19.0727 16.1007 19.1508 16.0118 19.2384C15.6059 19.6353 15.236 20.0503 15.236 20.8441ZM15.1188 21.3312V23H16.8688V21.3312H15.1188Z" fill="white"/>
        </g>
    </g>
    <defs>
        <clipPath id="clip0_4392_4328">
            <rect width="32" height="32" fill="white"/>
        </clipPath>
    </defs>
</svg>
